<svg width="40" height="40" viewBox="0 0 40 40" fill="none" xmlns="http://www.w3.org/2000/svg">
<g clip-path="url(#clip0_1020_3809)">
<path d="M19.3454 39.9988C20.6702 40.0422 21.6495 38.8627 21.5339 37.542C21.4184 36.2212 20.2495 35.2641 18.9273 35.1705C16.5499 35.0023 14.2335 34.2761 12.1714 33.0368C9.41999 31.3832 7.26256 28.9008 6.00833 25.9453C4.75411 22.9898 4.46751 19.7131 5.18958 16.5847C5.4097 15.631 5.72011 14.7061 6.11393 13.8213C6.54266 13.9101 6.98682 13.9568 7.44188 13.9568C11.0381 13.9568 13.9535 11.0408 13.9535 7.44365C13.9535 6.98849 13.9068 6.54423 13.818 6.11541C15.347 5.43455 16.9873 5.00672 18.6752 4.85901C21.8729 4.57918 25.0771 5.3191 27.8286 6.97273C30.58 8.62635 32.7374 11.1088 33.9917 14.0642C34.9316 16.2792 35.3281 18.6747 35.1638 21.0529C35.0725 22.3756 35.8574 23.6666 37.1489 23.9649C38.4404 24.2631 39.7445 23.4572 39.8859 22.139C40.248 18.7636 39.7465 15.3374 38.4101 12.1883C36.7598 8.29953 33.9211 5.03317 30.3007 2.85735C26.6804 0.681523 22.4644 -0.292056 18.2569 0.0761425C15.7627 0.294408 13.3473 0.977555 11.1299 2.07508C10.0814 1.35312 8.811 0.930474 7.44188 0.930474C3.8456 0.930474 0.930253 3.84652 0.930253 7.44365C0.930253 8.8131 1.35279 10.0838 2.07458 11.1325C1.38992 12.5164 0.863885 13.9828 0.512609 15.5047C-0.437491 19.621 -0.0603741 23.9325 1.58991 27.8213C3.2402 31.71 6.07893 34.9764 9.69925 37.1522C12.6309 38.9142 15.9533 39.8877 19.3454 39.9988Z" fill="#D93502"/>
</g>
<defs>
<clipPath id="clip0_1020_3809">
<rect width="40" height="40" fill="white"/>
</clipPath>
</defs>
</svg>
