<svg width="40" height="40" viewBox="0 0 40 40" fill="none" xmlns="http://www.w3.org/2000/svg">
<path d="M19.3454 39.9988C20.6702 40.0422 21.6495 38.8627 21.5339 37.542C21.4184 36.2212 20.2495 35.2641 18.9273 35.1705C16.5499 35.0023 14.2335 34.2761 12.1714 33.0368C9.41997 31.3832 7.26254 28.9008 6.00831 25.9453C4.75409 22.9898 4.46749 19.7131 5.18956 16.5847C5.40968 15.631 5.72009 14.7061 6.11391 13.8213C6.54264 13.9101 6.9868 13.9568 7.44186 13.9568C11.0381 13.9568 13.9535 11.0408 13.9535 7.44365C13.9535 6.98849 13.9068 6.54423 13.818 6.11541C15.347 5.43455 16.9873 5.00672 18.6752 4.85901C21.8729 4.57918 25.0771 5.3191 27.8286 6.97273C30.58 8.62635 32.7374 11.1088 33.9917 14.0642C34.9316 16.2792 35.3281 18.6747 35.1638 21.0529C35.0725 22.3756 35.8574 23.6666 37.1489 23.9649C38.4404 24.2631 39.7445 23.4572 39.8859 22.139C40.248 18.7636 39.7465 15.3374 38.4101 12.1883C36.7598 8.29953 33.9211 5.03317 30.3007 2.85735C26.6804 0.681522 22.4644 -0.292057 18.2569 0.0761414C15.7627 0.294407 13.3473 0.977554 11.1299 2.07508C10.0814 1.35312 8.81098 0.930473 7.44186 0.930473C3.84558 0.930473 0.930233 3.84652 0.930233 7.44365C0.930233 8.8131 1.35277 10.0838 2.07456 11.1325C1.3899 12.5164 0.863865 13.9828 0.512589 15.5047C-0.437511 19.621 -0.0603943 23.9325 1.58989 27.8213C3.24018 31.71 6.07891 34.9764 9.69923 37.1522C12.6309 38.9142 15.9533 39.8877 19.3454 39.9988Z" fill="#D93502"/>
<path d="M20.2559 7.44625C19.1464 7.42363 18.3774 8.45695 18.5319 9.55612C18.6863 10.6553 19.7111 11.3962 20.8157 11.5023C21.9265 11.6089 23.0123 11.9329 24.0091 12.463C25.6013 13.3099 26.8847 14.6392 27.6753 16.2604C28.4658 17.8817 28.7229 19.7116 28.4098 21.488C28.3562 21.7923 28.2863 22.0922 28.2007 22.3868C27.9531 22.35 27.6997 22.3309 27.4419 22.3309C24.6162 22.3309 22.3256 24.6221 22.3256 27.4484C22.3256 27.7063 22.3447 27.9598 22.3815 28.2075C21.9921 28.3206 21.5935 28.4063 21.1885 28.4632C19.4026 28.7143 17.5832 28.3934 15.9909 27.5465C14.3986 26.6997 13.1153 25.3704 12.3247 23.7492C11.8298 22.7343 11.544 21.6376 11.4762 20.5235C11.4088 19.4156 10.7043 18.3653 9.61141 18.1726C8.51856 17.9798 7.45928 18.7124 7.44316 19.8223C7.41469 21.7827 7.84541 23.7324 8.71281 25.5112C9.87537 27.8954 11.7627 29.8503 14.1043 31.0956C16.4459 32.3409 19.1215 32.8128 21.7477 32.4437C22.7265 32.3061 23.6796 32.0543 24.5891 31.6972C25.4041 32.2458 26.3856 32.5659 27.4419 32.5659C30.2675 32.5659 32.5581 30.2747 32.5581 27.4484C32.5581 26.3919 32.2381 25.4102 31.6896 24.595C31.9935 23.8207 32.2214 23.014 32.3673 22.186C32.8279 19.5736 32.4497 16.8825 31.2872 14.4983C30.1246 12.1142 28.2373 10.1593 25.8957 8.91396C24.1486 7.98481 22.2156 7.48621 20.2559 7.44625Z" fill="#D93502"/>
</svg>
