<svg width="40" height="40" viewBox="0 0 40 40" fill="none" xmlns="http://www.w3.org/2000/svg">
<path d="M20.256 7.44623C19.1465 7.42361 18.3775 8.45693 18.532 9.5561C18.6864 10.6553 19.7112 11.3962 20.8158 11.5023C21.9266 11.6089 23.0124 11.9329 24.0092 12.463C25.6014 13.3099 26.8848 14.6392 27.6754 16.2604C28.4659 17.8817 28.723 19.7116 28.4099 21.488C28.3563 21.7923 28.2864 22.0922 28.2008 22.3868C27.9532 22.35 27.6998 22.3309 27.442 22.3309C24.6163 22.3309 22.3257 24.6221 22.3257 27.4484C22.3257 27.7063 22.3448 27.9598 22.3816 28.2075C21.9922 28.3206 21.5936 28.4063 21.1886 28.4632C19.4027 28.7143 17.5833 28.3934 15.991 27.5465C14.3987 26.6997 13.1154 25.3704 12.3248 23.7492C11.8299 22.7343 11.5441 21.6376 11.4763 20.5235C11.4089 19.4156 10.7044 18.3653 9.61147 18.1726C8.51862 17.9798 7.45934 18.7124 7.44322 19.8223C7.41475 21.7827 7.84547 23.7324 8.71287 25.5112C9.87543 27.8954 11.7628 29.8503 14.1044 31.0956C16.446 32.3409 19.1216 32.8128 21.7478 32.4437C22.7266 32.3061 23.6797 32.0543 24.5892 31.6972C25.4042 32.2458 26.3857 32.5659 27.442 32.5659C30.2676 32.5659 32.5582 30.2747 32.5582 27.4484C32.5582 26.3919 32.2382 25.4102 31.6897 24.595C31.9936 23.8207 32.2215 23.014 32.3674 22.186C32.828 19.5736 32.4498 16.8825 31.2873 14.4983C30.1247 12.1142 28.2374 10.1593 25.8958 8.91394C24.1487 7.98479 22.2157 7.48619 20.256 7.44623Z" fill="#D93502"/>
</svg>
