<svg width="277" height="208" viewBox="0 0 277 208" fill="none" xmlns="http://www.w3.org/2000/svg">
<g clip-path="url(#clip0_1781_11476)">
<path d="M47.4043 197.038C47.4043 197.038 12.9552 172.504 3.04057 130.751C-6.8741 88.9921 8.26281 38.3591 36.9662 12.7841C65.6758 -12.791 117.349 4.43354 140.313 25.8333L163.277 47.2331C163.277 47.2331 185.201 59.2354 213.91 58.1948C242.62 57.1478 268.195 96.2956 274.981 127.093C281.768 157.89 265.584 198.602 265.584 198.602L47.4043 197.038Z" fill="#D3E2F1"/>
<g style="mix-blend-mode:multiply">
<path d="M31.7503 203.301C31.7503 203.301 7.73936 190.252 1.47646 159.978C-4.78643 129.704 22.3528 102.042 24.9639 86.9048C27.575 71.7679 21.8293 52.9792 45.8402 38.3595C69.8511 23.7461 112.651 28.962 128.835 25.3102C145.018 21.6585 163.807 -3.39942 196.169 2.34629C228.53 8.0857 259.851 25.3102 261.415 62.8939C262.979 100.478 250.977 101.518 262.979 121.877C274.981 142.237 279.68 156.326 273.941 177.203C268.201 198.079 256.193 203.825 256.193 203.825L31.7503 203.301Z" fill="#E9F0F8"/>
</g>
<g style="mix-blend-mode:multiply">
<path d="M81.8846 196.513C80.3898 194.949 58.4854 151.102 82.8811 110.914C107.277 70.7251 168.512 75.4176 192.907 91.078C217.303 106.738 229.249 127.091 231.74 148.491C234.231 169.891 217.801 203.299 217.801 203.299L81.8846 196.513Z" fill="#DDECFF"/>
</g>
<path d="M253.645 102.344H225.503C223.761 102.344 222.35 103.756 222.35 105.497V119.549C222.35 121.291 223.761 122.703 225.503 122.703H253.645C255.387 122.703 256.799 121.291 256.799 119.549V105.497C256.799 103.756 255.387 102.344 253.645 102.344Z" fill="#FDB848"/>
<path d="M239.574 130.66L244.04 120.09H235.115L239.574 130.66Z" fill="#FDB848"/>
<path d="M239.475 109.029H247.529V110.208L251.477 107.925L247.529 105.648V106.828H239.475V109.029Z" fill="#223A7A"/>
<path d="M251.477 113.66H243.423V112.48L239.475 114.757L243.423 117.034V115.855H251.477V113.66Z" fill="white"/>
<path d="M234.529 115.736L234.145 115.875C234.145 115.875 232.946 114.512 232.328 113.024C231.71 111.536 231.685 109.725 231.685 109.725L231.962 109.606L230.26 105.531C229.957 105.771 229.667 106.074 229.433 106.471C228.468 108.098 228.563 110.602 229.534 113.043C230.506 115.484 231.54 117.666 233.432 119.035C234.548 119.842 235.507 119.987 236.245 119.867L234.523 115.742L234.529 115.736Z" fill="#223A7A"/>
<path d="M235.747 115.255L235.217 115.45L236.958 119.625C237.153 119.562 237.33 119.48 237.487 119.398C237.935 119.152 238.137 118.61 237.948 118.131L237.04 115.835C236.838 115.324 236.264 115.072 235.753 115.255H235.747Z" fill="#D93502"/>
<path d="M231.597 104.811C231.383 104.887 231.149 104.994 230.916 105.133L232.657 109.295L233.243 109.049C233.754 108.835 233.994 108.261 233.798 107.744L232.884 105.398C232.688 104.887 232.114 104.622 231.603 104.811H231.597Z" fill="#223A7A"/>
<path d="M73.7421 189.469V142.494C73.7421 142.494 73.2186 129.836 79.8725 126.184C86.5265 122.532 114.58 124.488 114.58 124.488V189.469H73.7358H73.7421Z" fill="#1C83FF"/>
<path d="M123.352 80.5102C123.352 80.5102 121.656 94.7326 121.006 95.9057L120.356 97.0788L117.096 99.2989C117.096 99.2989 123.359 108.173 131.059 109.605C138.76 111.043 138.104 106.47 138.104 106.47L136.931 103.991L138.495 90.4186C138.495 90.4186 124.532 84.0232 123.359 80.5039L123.352 80.5102Z" fill="#FF9D8C"/>
<path d="M113.041 100.478L118.131 98.2578C118.131 98.2578 121.392 103.606 128.96 106.741C136.528 109.875 136.661 108.046 137.052 106.741C137.443 105.435 136.919 104.004 136.919 104.004L137.481 99.4372L140.508 100.446L151.016 185.434L124.003 186.739L113.041 100.484V100.478Z" fill="white"/>
<path d="M137.967 99.5219C137.967 99.5219 139.796 103.741 141.493 113.656C143.189 123.571 144.754 140.278 145.145 151.757C145.536 163.236 145.794 189.467 145.794 189.467H179.852C180.243 189.467 182.59 176.55 182.59 176.55C182.59 176.55 167.711 163.803 166.929 161.716C166.406 160.322 166.671 134.532 164.451 122.656C162.23 110.78 159.361 108.39 153.356 105.432C147.15 102.373 137.961 99.5156 137.961 99.5156L137.967 99.5219Z" fill="#D93502"/>
<path d="M155.713 174.518C155.537 174.518 155.398 174.379 155.398 174.202C155.398 173.269 155.234 160.012 155.07 147.196C154.912 134.373 154.742 121.116 154.742 120.183C154.742 120.006 154.881 119.867 155.058 119.867C155.234 119.867 155.373 120.006 155.373 120.183C155.373 121.116 155.537 134.373 155.701 147.189C155.859 160.012 156.029 173.269 156.029 174.202C156.029 174.379 155.89 174.518 155.713 174.518Z" fill="white"/>
<path d="M87.8562 171.331L87.5977 189.47H127.269C127.269 189.47 128.966 174.075 128.316 172.637C127.666 171.199 87.8626 171.331 87.8626 171.331H87.8562Z" fill="#D93502"/>
<g style="mix-blend-mode:multiply">
<path d="M132.006 95.5163C133.62 96.8219 135.834 97.8625 137.556 98.4996L138.489 90.4265C138.489 90.4265 128.001 85.6206 124.443 82.0508C125.188 86.1125 127.017 91.4924 132.006 95.5163Z" fill="#8E9BBB"/>
</g>
<path d="M150.758 54.0232C150.758 54.0232 153.495 58.7219 154.018 64.4614C154.542 70.2008 154.018 84.9466 149.32 91.2095C144.621 97.4724 134.832 95.6434 130.398 91.8592C126.324 88.384 122.306 84.5493 121.266 76.9808C120.219 69.4124 123.486 55.0576 132.751 52.0554C142.016 49.0533 150.758 54.0106 150.758 54.0106V54.0232Z" fill="#FF9D8C"/>
<path d="M162.525 181.265C162.525 181.265 162.065 181.265 161.365 181.246C161.201 181.24 161.018 181.246 160.828 181.24C160.154 181.221 159.334 181.202 158.507 181.177C158.325 181.171 158.135 181.164 157.952 181.158C157.133 181.139 156.432 181.24 155.777 181.202H155.758C155.619 181.196 155.417 181.215 155.253 181.221C155.171 181.227 155.095 181.234 155.045 181.227C154.666 181.158 154.591 181.07 154.181 180.887C153.651 180.647 146.48 179.045 140.646 179.083C134.818 179.108 129.59 179.505 128.738 178.793C127.88 178.067 127.363 170.745 132.34 170.266L138.457 172.587C138.457 172.587 152.427 170.928 157.549 174.706C162.683 178.484 162.525 181.265 162.525 181.265Z" fill="#FF9D8C"/>
<path d="M155.757 181.203C155.618 181.197 155.417 181.216 155.253 181.222C155.126 181.02 154.862 180.655 154.716 180.503C153.14 178.895 149.33 177.854 147.949 177.52C147.823 177.488 147.741 177.362 147.772 177.236C147.798 177.11 147.93 177.034 148.063 177.06C150.074 177.545 154.344 178.788 155.555 180.825C155.593 180.882 155.694 181.077 155.757 181.203Z" fill="#223A7A"/>
<path d="M158.508 181.177C158.325 181.177 158.135 181.171 157.953 181.158C156.231 178.017 153.411 177.115 149.936 175.999L149.728 175.929C149.608 175.892 149.539 175.753 149.577 175.627C149.615 175.507 149.747 175.437 149.879 175.475L150.081 175.545C153.765 176.724 156.723 177.676 158.514 181.177H158.508Z" fill="#223A7A"/>
<path d="M161.364 181.246C161.2 181.246 161.018 181.246 160.828 181.24C159.781 179.045 156.325 175.368 151.759 174.516C151.626 174.491 151.544 174.371 151.563 174.239C151.588 174.113 151.715 174.031 151.841 174.05C156.552 174.933 160.349 178.78 161.371 181.246H161.364Z" fill="#223A7A"/>
<path d="M124.394 70.5268C124.394 70.5268 127.264 69.1582 129.288 65.3046C131.313 61.4573 131.048 57.9947 131.048 57.9947C131.048 57.9947 134.7 57.4082 140.18 59.0417C145.661 60.6752 152.183 62.889 157.664 59.7607C163.144 56.6261 163.144 51.6057 160.47 49.5181C157.474 47.1782 151.533 48.6036 151.533 48.6036C151.533 48.6036 153.816 46.3835 152.58 45.0779C151.338 43.7724 146.841 45.469 146.841 45.469C146.841 45.469 141.36 41.0982 130.985 41.6217C120.61 42.1451 115.652 49.3856 115.066 57.4776C114.479 65.5695 117.412 73.6614 117.412 73.6614L124.394 70.5268Z" fill="#223A7A"/>
<path d="M120.742 81.6836C120.742 81.6836 121.266 83.7082 124.268 86.0544C127.27 88.4006 131.622 90.1225 131.622 90.1225L131.969 88.6025C131.969 88.6025 127.465 86.6473 125.378 84.4903C123.29 82.3396 123.032 81.1602 123.032 81.1602L120.748 81.6836H120.742Z" fill="#DEE1EB"/>
<path d="M132.486 87.4736C134.902 87.3601 136.251 89.2711 136.415 90.5073C136.586 91.7435 135.425 93.131 132.707 91.9137C129.333 90.4 130.064 87.5871 132.48 87.4736H132.486Z" fill="#223A7A"/>
<path d="M122.635 66.7414C122.635 66.7414 123.675 59.2423 128.702 54.1462C138.295 44.427 146.45 45.0136 146.45 45.0136C146.45 45.0136 146.387 43.645 143.315 42.598C140.433 41.6204 139.14 42.1439 139.14 42.1439C139.14 42.1439 131.244 42.7935 124.59 50.1665C117.936 57.5394 117.217 66.9369 117.217 66.9369L122.635 66.7414Z" fill="#DEE1EB"/>
<path d="M121.916 65.8267C115.634 64.7608 112.127 69.674 111.869 74.6376C111.61 79.595 115.211 83.3666 120.024 82.9882C130.853 82.143 129.617 67.1323 121.916 65.8267Z" fill="white"/>
<path d="M118.788 78.1679C117.129 78.1679 115.729 77.3354 114.928 75.8659C114.07 74.2954 114.139 72.3591 115.111 70.9338C115.186 70.8265 115.331 70.8013 115.439 70.8707C115.546 70.9464 115.577 71.0914 115.502 71.1986C114.631 72.479 114.568 74.2197 115.344 75.6388C116.076 76.9822 117.375 77.7454 118.914 77.6949C120.352 77.6571 121.569 77.0011 122.339 75.8469C123.222 74.5288 123.423 72.7123 122.856 71.2113C122.288 69.7228 120.743 68.7137 119.336 68.8966C119.21 68.9155 119.09 68.8209 119.072 68.6948C119.053 68.5686 119.147 68.4488 119.273 68.4299C120.919 68.2091 122.648 69.3381 123.297 71.0473C123.922 72.6871 123.695 74.6738 122.73 76.1118C121.866 77.3985 120.516 78.1301 118.926 78.1679C118.882 78.1679 118.838 78.1679 118.794 78.1679H118.788Z" fill="#818FB3"/>
<path d="M114.22 98.6484C114.22 98.6484 95.1667 103.347 88.5128 110.916C81.8589 118.484 78.7243 155.803 78.5981 162.722C78.472 169.641 83.2969 172.51 86.1666 174.465C89.0363 176.421 101.695 179.946 111.874 180.47C122.054 180.993 131.71 180.47 131.71 180.47C131.71 180.47 131.678 178.25 133.242 174.989C134.693 171.962 136.535 171.337 136.535 171.337L127.793 168.203C127.793 168.203 126.26 140.773 123.876 127.491C121.139 112.221 114.22 98.6547 114.22 98.6547V98.6484Z" fill="#D93502"/>
<path d="M145.794 163.822C145.75 163.822 145.705 163.816 145.668 163.797C145.51 163.728 145.434 163.539 145.51 163.381C147.295 159.351 149.143 151.448 150.183 145.898L150.272 145.45C150.587 143.816 150.978 141.792 150.196 140.385C149.799 139.673 148.897 138.121 148.026 136.633C147.125 135.088 146.279 133.624 146.04 133.189C145.579 132.338 147.03 130.061 149.124 126.939C149.692 126.094 150.177 125.368 150.461 124.876C151.205 123.583 150.713 122.404 150.133 121.029L149.938 120.556C149.414 119.276 148.821 117.995 148.247 116.753C148.014 116.248 147.781 115.738 147.547 115.227C147.238 114.552 146.935 113.864 146.62 113.171C144.778 109.058 142.867 104.807 140.426 100.702C140.338 100.55 140.389 100.361 140.534 100.266C140.685 100.178 140.874 100.228 140.969 100.374C143.429 104.511 145.346 108.781 147.194 112.906C147.503 113.599 147.812 114.287 148.115 114.955C148.348 115.466 148.582 115.971 148.815 116.475C149.389 117.724 149.988 119.011 150.511 120.304L150.707 120.771C151.294 122.164 151.899 123.615 150.997 125.173C150.701 125.684 150.209 126.422 149.635 127.273C148.544 128.9 146.273 132.287 146.582 132.874C146.816 133.303 147.661 134.76 148.556 136.298C149.427 137.793 150.329 139.345 150.732 140.064C151.628 141.666 151.212 143.823 150.877 145.551L150.789 145.999C150.411 148.017 148.399 158.361 146.071 163.621C146.021 163.74 145.901 163.81 145.781 163.81L145.794 163.822Z" fill="white"/>
<path d="M127.2 164.925C127.118 164.925 127.036 164.894 126.979 164.831C125.497 163.336 118.344 150.955 117.815 148.628C117.525 147.354 118.256 144.118 118.963 140.99C119.511 138.568 120.079 136.064 119.915 135.383C119.675 134.368 117.846 132.873 116.08 131.429C113.942 129.681 111.735 127.878 111.306 126.25C110.82 124.402 111.236 112.835 111.508 105.185C111.609 102.435 111.684 100.259 111.684 99.4833C111.684 99.3067 111.823 99.168 112 99.168C112.176 99.168 112.315 99.3067 112.315 99.4833C112.315 100.272 112.239 102.448 112.138 105.204C111.88 112.356 111.451 124.327 111.911 126.086C112.29 127.512 114.51 129.328 116.471 130.93C118.408 132.513 120.23 134.002 120.52 135.225C120.716 136.045 120.186 138.398 119.568 141.116C118.906 144.03 118.162 147.335 118.42 148.47C118.944 150.753 125.963 162.901 127.42 164.37C127.54 164.496 127.54 164.692 127.42 164.818C127.357 164.881 127.282 164.913 127.2 164.913V164.925Z" fill="white"/>
<path d="M101.561 159.514C101.561 159.514 101.53 159.514 101.517 159.514C101.347 159.489 101.227 159.331 101.246 159.154C101.479 157.515 105.1 124.844 105.264 122.34C105.276 122.164 105.428 122.031 105.598 122.044C105.775 122.056 105.901 122.208 105.894 122.378C105.73 124.882 102.104 157.597 101.871 159.236C101.845 159.394 101.713 159.508 101.561 159.508V159.514Z" fill="white"/>
<path d="M127.529 168.389C127.491 168.389 127.447 168.382 127.409 168.364C126.608 168.036 123.063 166.844 118.579 165.33C109.522 162.277 97.1224 158.096 94.7636 156.866C94.6059 156.784 94.5491 156.595 94.6311 156.443C94.7131 156.286 94.9023 156.229 95.0537 156.311C97.3684 157.515 110.254 161.861 118.781 164.737C123.278 166.257 126.829 167.449 127.649 167.783C127.812 167.846 127.888 168.036 127.825 168.193C127.775 168.313 127.655 168.389 127.535 168.389H127.529Z" fill="white"/>
<path d="M123.17 181.393C115.198 181.393 99.7518 179.955 88.0144 175.805C87.8504 175.748 87.7621 175.565 87.8251 175.401C87.8819 175.237 88.0648 175.149 88.2288 175.212C103.057 180.459 123.801 181.355 127.66 180.485C127.831 180.447 128.001 180.554 128.039 180.724C128.077 180.895 127.969 181.065 127.799 181.103C126.967 181.292 125.346 181.393 123.182 181.393H123.17Z" fill="white"/>
<path d="M31.9521 103.05C34.4244 105.226 37.559 106.62 39.7286 109.137C40.5801 110.127 41.3495 111.18 42.1442 112.221C42.7182 112.978 44.2634 114.233 44.5094 115.179C44.6166 115.595 44.5977 115.028 44.4841 114.611C44.4841 114.592 44.4715 114.58 44.4652 114.561C44.2508 112.637 44.0931 110.707 44.0237 108.771C43.9544 106.841 44.0742 104.905 43.9544 102.981C43.7841 100.263 42.9326 97.6327 40.7125 95.9298C39.6277 95.0973 38.2339 94.5927 37.231 93.6656C36.285 92.7889 36.6634 91.7861 37.2184 90.8085C37.7419 89.894 38.3726 88.9921 38.5744 87.9388C38.8078 86.7405 38.3537 85.5043 37.7482 84.4889C36.4553 82.3192 33.5919 79.8973 30.8735 80.2253C28.6093 80.4965 28.3507 83.1076 28.3886 84.924C28.4201 86.69 28.5967 88.456 28.6093 90.222C28.6282 92.0384 28.3192 93.8233 28.294 95.6334C28.2498 98.7112 29.6752 101.057 31.9331 103.044L31.9521 103.05Z" fill="#90B5DB"/>
<path d="M54.9412 131.292C55.6287 129.646 56.4234 128.114 57.3946 126.619C58.7254 124.569 60.2076 122.57 61.1032 120.274C62.0177 117.928 61.8853 115.424 61.9736 112.958C62.0366 111.141 62.579 109.338 62.434 107.515C62.3646 106.645 61.86 105.232 60.7311 105.377C59.8544 105.49 59.3309 106.575 58.9966 107.275C58.4101 108.486 58.0001 109.779 57.5649 111.053C57.3946 111.551 57.2307 112.056 57.0162 112.535C56.8901 112.813 56.4927 113.494 56.1143 113.406C55.471 113.248 56.0575 110.631 56.1522 110.164C56.6315 107.837 57.3505 105.673 57.4514 103.277C57.5965 99.8014 57.3253 95.6703 53.9258 93.7656C53.0365 93.2673 51.9138 92.9709 51.0687 93.7151C50.2361 94.4467 50.0028 95.7144 49.8766 96.7614C49.4982 99.9717 50.2551 103.005 51.2831 106.026C52.1346 108.518 53.1437 111.091 53.2194 113.759C53.2888 116.326 51.958 118.596 51.3273 121.025C50.3308 124.885 50.5326 126.934 50.5326 128.183C50.5326 129.747 50.583 131.299 50.6966 132.863C50.8038 134.301 50.9236 135.733 51.1002 137.164C51.1381 137.454 51.1696 137.757 51.2074 138.06C50.6524 136.729 50.4632 135.209 50.0028 133.872C49.1892 131.501 48.2494 129.173 47.4674 126.789C46.824 124.821 46.2123 122.835 45.3671 120.936C44.5724 119.158 43.6074 117.278 42.119 115.973C41.2171 115.184 40.1323 114.724 38.9276 114.73C38.1582 114.73 37.4644 115.001 36.7328 115.197C35.8309 115.437 35.1182 115.355 34.3739 114.781C31.9394 112.907 31.1952 109.552 29.3977 107.181C28.0543 105.415 24.8629 102.4 22.5167 104.33C21.2742 105.352 20.9273 107.326 20.9967 108.846C21.0787 110.744 21.9112 112.485 22.8951 114.074C23.9484 115.765 25.3044 117.278 26.2694 119.013C26.8433 120.041 26.9316 121.025 26.837 122.179C26.7487 123.27 26.6541 124.323 27.0262 125.376C28.1426 128.536 31.6304 128.095 34.3424 128.177C36.2408 128.234 38.2717 128.517 40.0755 129.123C42.1568 129.823 43.5128 131.179 44.2571 133.235C44.7932 134.724 45.0833 136.42 46.0987 137.682C46.5781 138.274 47.2088 138.716 47.9025 139.025C48.9621 139.492 52.185 139.693 52.2039 139.403C52.2859 138.419 52.7527 137.379 53.0428 136.445C53.5915 134.692 54.2348 132.983 54.9475 131.286L54.9412 131.292Z" fill="#90B5DB"/>
<path d="M69.9086 130.693C69.6311 128.889 69.6815 126.896 68.8301 125.237C68.767 125.117 68.6093 125.086 68.4958 125.149C67.884 125.49 67.8588 126.48 67.8083 127.085C67.7263 128.094 67.7894 129.103 67.6633 130.106C67.4488 131.872 67.0389 133.689 66.4019 135.347C65.6829 137.227 64.3773 138.293 62.4789 138.879C61.2616 139.258 60.0633 139.586 59.0415 140.393C58.127 141.118 57.4963 142.115 57.0296 143.168C55.7619 146.013 55.1564 149.185 54.5698 152.225C54.1725 154.269 53.8508 156.325 53.3526 158.349C52.8543 160.374 52.3245 162.386 52.0407 164.454C51.9903 164.562 51.9398 164.663 51.8957 164.77C51.7632 165.079 52.2489 165.243 52.4128 164.991C54.3743 161.976 56.7584 159.264 60.0191 157.605C61.4887 156.854 63.4439 156.697 64.6737 155.517C65.6072 154.622 65.7333 153.253 65.5946 152.03C65.4117 150.428 64.6422 149.109 63.8412 147.741C63.3997 146.99 62.8825 146.189 63.0591 145.275C63.2294 144.417 63.9421 143.78 64.6485 143.338C66.0045 142.5 67.5876 142.121 68.6913 140.91C69.7194 139.788 70.2933 138.381 70.4068 136.867C70.5582 134.849 70.2113 132.68 69.9023 130.687L69.9086 130.693Z" fill="#90B5DB"/>
<path d="M43.1917 141.114C41.4636 138.888 39.376 136.964 37.0298 135.406C35.7747 134.574 32.823 132.934 32.2238 135.387C31.8769 136.825 33.2834 138.238 34.2105 139.14C35.6044 140.496 37.2127 141.663 38.3858 143.227C36.9288 143.694 35.4088 143.782 34.1474 144.785C32.6527 145.977 31.9778 148.272 33.4663 149.736C34.1916 150.448 35.1503 150.884 36.0459 151.319C37.219 151.886 38.411 152.397 39.6093 152.902C42.2015 153.987 44.8253 155.084 47.0327 156.856C49.2843 158.66 51.4035 161.719 51.5801 164.664C51.599 164.948 51.4918 164.69 51.6558 164.564C51.7504 164.646 52.0531 164.501 52.0531 164.337C52.009 159.966 51.2206 155.797 49.4357 151.792C47.777 148.077 45.6893 144.337 43.1917 141.12V141.114Z" fill="#90B5DB"/>
<path d="M37.2115 100.397C38.1638 102.377 39.1603 104.314 40.2199 106.244C41.2417 108.104 42.2571 109.946 43.0203 111.933C43.96 114.373 44.9439 116.776 45.9341 119.198C46.9685 121.715 47.8893 124.275 48.6272 126.893C50.0715 132.002 51.1437 137.255 51.6735 142.541C51.9447 145.227 52.0646 147.927 51.9889 150.626C51.9321 152.733 51.6924 154.82 51.4969 156.921C51.2888 159.103 51.1437 161.317 51.3266 163.505C51.478 165.334 51.7681 167.517 53.1935 168.822C53.471 169.081 53.8684 168.759 53.7044 168.431C52.0141 164.968 52.1087 161.191 52.4304 157.438C52.607 155.363 52.8529 153.3 52.9286 151.219C53.0169 148.57 52.916 145.915 52.6637 143.279C52.1718 138.094 51.1374 132.973 49.8003 127.946C49.1129 125.367 48.2614 122.837 47.2838 120.359C46.2999 117.874 45.1646 115.452 44.2123 112.954C42.4905 108.432 39.8667 104.427 37.5394 100.214C37.4196 99.9933 37.1043 100.189 37.2052 100.41L37.2115 100.397Z" fill="#90B5DB"/>
<path d="M51.7622 137.36C52.0334 134.068 52.3298 130.896 53.4335 127.761C53.9507 126.298 54.5751 124.872 55.0797 123.403C55.4896 122.186 56.1077 120.52 55.7924 119.228C55.7545 119.082 55.5464 119.089 55.5086 119.228C55.2941 119.965 55.3193 120.773 55.168 121.53C55.0166 122.268 54.8211 122.987 54.594 123.706C54.1084 125.226 53.4714 126.682 52.9227 128.184C51.8568 131.078 51.3081 134.282 51.5414 137.36C51.554 137.505 51.7559 137.505 51.7685 137.36H51.7622Z" fill="#90B5DB"/>
<path d="M32.6829 118.438C33.9885 121.591 37.9178 121.774 40.7812 122.481C42.8247 122.985 44.3321 124.348 45.4169 126.12C46.6026 128.056 47.4036 130.327 48.0658 132.49C48.0721 132.515 48.11 132.503 48.1037 132.477C47.3027 128.693 46.1548 124.139 42.257 122.38C39.1287 120.967 35.0102 121.68 33.0172 118.299C32.9163 118.135 32.6136 118.242 32.6956 118.438H32.6829Z" fill="#90B5DB"/>
<path d="M49.6931 136.864C49.8508 137.072 49.9896 137.293 50.1535 137.501C50.2355 137.602 50.3112 137.697 50.4121 137.779C50.513 137.861 50.6329 137.968 50.7779 137.962C50.8347 137.962 50.8789 137.892 50.8473 137.842C50.7842 137.735 50.6644 137.672 50.5761 137.596C50.4815 137.514 50.3869 137.432 50.2986 137.344C50.1157 137.173 49.9517 136.984 49.7688 136.808C49.7373 136.776 49.6679 136.82 49.6994 136.864H49.6931Z" fill="#90B5DB"/>
<path d="M41.5258 146.873C43.7774 148.721 45.8588 150.909 47.5112 153.312C48.2996 154.46 49.0312 155.671 49.6934 156.895C50.4124 158.232 50.8918 159.645 51.4531 161.051C51.4973 161.158 51.6928 161.158 51.6739 161.02C51.3585 158.049 49.479 155.507 47.9779 153.035C47.1959 151.754 46.2246 150.72 45.1776 149.648C44.0991 148.544 42.9954 147.497 41.734 146.608C41.5826 146.501 41.3808 146.753 41.5321 146.873H41.5258Z" fill="#90B5DB"/>
<path d="M59.4694 143.38C58.3846 143.998 58.3468 145.707 58.3279 146.804C58.29 148.911 58.8072 150.885 57.8864 152.891C57.0538 154.701 55.7231 156.214 54.6761 157.892C53.6985 159.469 52.7272 161.481 52.7524 163.373C52.7524 163.48 52.9227 163.543 52.9732 163.43C53.3705 162.572 53.5093 161.594 53.7931 160.692C54.1084 159.677 54.5563 158.756 55.1302 157.867C56.1393 156.303 57.3755 154.884 58.1954 153.206C59.0595 151.434 58.9333 149.68 58.8766 147.763C58.8387 146.539 58.7189 144.572 59.7028 143.663C59.8542 143.518 59.6586 143.279 59.482 143.38H59.4694Z" fill="#90B5DB"/>
<path d="M52.2161 163.568C47.8453 163.505 39.5137 163.461 39.5137 163.461L41.5761 178.762C42.0428 182.205 44.9756 184.772 48.4508 184.772H55.9814C59.4565 184.772 62.3956 182.205 62.856 178.762L64.9184 163.461C64.9184 163.461 56.5868 163.511 52.2161 163.568Z" fill="white"/>
<path d="M263.565 135.444L238.621 184.86L165.895 185.383L188.335 134.75L263.565 135.444Z" fill="#D93502"/>
<path d="M117.627 185.074L117.64 181.119H164.722L186.38 133.621H261.674L263.566 135.45H190.013L167.503 185.036C167.503 185.036 117.627 184.948 117.627 185.074Z" fill="#D9DEE8"/>
<path d="M225.8 162.714C224.98 165.18 220.521 167.085 215.841 166.965C211.161 166.845 208.033 164.758 208.859 162.291C209.679 159.825 214.138 157.921 218.818 158.041C223.498 158.16 226.626 160.248 225.8 162.714Z" fill="#D9DEE8"/>
<path d="M167.503 185.347C167.458 185.347 167.414 185.341 167.37 185.322C167.212 185.252 167.143 185.063 167.212 184.906L189.804 135.137H263.559C263.735 135.137 263.874 135.275 263.874 135.452C263.874 135.629 263.735 135.767 263.559 135.767H190.208L167.78 185.171C167.73 185.284 167.61 185.353 167.49 185.353L167.503 185.347Z" fill="white"/>
<path d="M114.348 188.816H27.834V207.996H114.348V188.816Z" fill="#D93502"/>
<path d="M269.513 188.816H113.855V207.996H269.513V188.816Z" fill="#D93502"/>
<g style="mix-blend-mode:multiply">
<path d="M114.348 188.816H113.856H27.834V192.342H113.856H114.348H269.514V188.816H114.348Z" fill="#D93502"/>
</g>
<path d="M118.131 185.031H23.6582V189.73H118.131V185.031Z" fill="#D93502"/>
<path d="M273.297 185.031H117.639V189.73H273.297V185.031Z" fill="#D93502"/>
<path d="M92.5064 62.3008H61.9677C60.0763 62.3008 58.543 63.8341 58.543 65.7255V80.9696C58.543 82.8611 60.0763 84.3944 61.9677 84.3944H92.5064C94.3978 84.3944 95.9311 82.8611 95.9311 80.9696V65.7255C95.9311 63.8341 94.3978 62.3008 92.5064 62.3008Z" fill="white"/>
<path d="M104.635 73.3453L93.1621 68.5078V78.1828L104.635 73.3453Z" fill="white"/>
<path d="M69.9898 75.4562C71.1567 75.4562 72.1027 74.5102 72.1027 73.3433C72.1027 72.1764 71.1567 71.2305 69.9898 71.2305C68.8229 71.2305 67.877 72.1764 67.877 73.3433C67.877 74.5102 68.8229 75.4562 69.9898 75.4562Z" fill="#223A7A"/>
<path d="M77.2359 75.4562C78.4028 75.4562 79.3488 74.5102 79.3488 73.3433C79.3488 72.1764 78.4028 71.2305 77.2359 71.2305C76.069 71.2305 75.123 72.1764 75.123 73.3433C75.123 74.5102 76.069 75.4562 77.2359 75.4562Z" fill="#223A7A"/>
<path d="M84.4839 75.4562C85.6508 75.4562 86.5968 74.5102 86.5968 73.3433C86.5968 72.1764 85.6508 71.2305 84.4839 71.2305C83.317 71.2305 82.3711 72.1764 82.3711 73.3433C82.3711 74.5102 83.317 75.4562 84.4839 75.4562Z" fill="#223A7A"/>
<path d="M247.993 15.3945H177.486C172.958 15.3945 169.287 19.0652 169.287 23.5937V57.0399C169.287 61.5684 172.958 65.2391 177.486 65.2391H183.806C183.983 68.2728 183.547 72.7823 181.018 78.547C189.167 74.788 193.853 69.1495 196.306 65.2391H247.999C252.527 65.2391 256.198 61.5684 256.198 57.0399V23.5937C256.198 19.0652 252.527 15.3945 247.999 15.3945H247.993Z" fill="#FDB848"/>
<path d="M217.914 31.3331H182.942C181.983 31.3331 181.201 30.551 181.201 29.5923C181.201 28.6336 181.983 27.8516 182.942 27.8516H217.914C218.873 27.8516 219.655 28.6273 219.655 29.5923C219.655 30.551 218.879 31.3331 217.914 31.3331Z" fill="white"/>
<path d="M242.991 41.4678H182.267C181.681 41.4678 181.201 40.9885 181.201 40.402C181.201 39.8154 181.681 39.3361 182.267 39.3361H242.991C243.578 39.3361 244.057 39.8154 244.057 40.402C244.057 40.9885 243.578 41.4678 242.991 41.4678Z" fill="white"/>
<path d="M242.991 47.3857H182.267C181.681 47.3857 181.201 46.9064 181.201 46.3198C181.201 45.7332 181.681 45.2539 182.267 45.2539H242.991C243.578 45.2539 244.057 45.7332 244.057 46.3198C244.057 46.9064 243.578 47.3857 242.991 47.3857Z" fill="white"/>
<path d="M229.746 53.6904H182.273C181.686 53.6904 181.207 53.211 181.207 52.6245C181.207 52.0379 181.686 51.5586 182.273 51.5586H229.746C230.333 51.5586 230.812 52.0379 230.812 52.6245C230.812 53.211 230.333 53.6904 229.746 53.6904Z" fill="white"/>
<path d="M242.513 31.3331H225.831C224.872 31.3331 224.09 30.551 224.09 29.5923C224.09 28.6336 224.872 27.8516 225.831 27.8516H242.513C243.471 27.8516 244.253 28.6273 244.253 29.5923C244.253 30.551 243.471 31.3331 242.513 31.3331Z" fill="white"/>
<path d="M200.463 92.793H181.523C180.826 92.793 180.262 93.3577 180.262 94.0544V106.996C180.262 107.693 180.826 108.258 181.523 108.258H200.463C201.16 108.258 201.725 107.693 201.725 106.996V94.0544C201.725 93.3577 201.16 92.793 200.463 92.793Z" fill="white"/>
<path d="M191.129 102.84C191.022 102.84 190.915 102.802 190.826 102.733L180.514 94.2184C180.313 94.0544 180.287 93.7517 180.451 93.5499C180.622 93.3481 180.918 93.3228 181.12 93.4868L191.123 101.749L200.867 93.2724C201.063 93.1021 201.366 93.121 201.536 93.3165C201.706 93.512 201.687 93.8148 201.492 93.9851L191.445 102.727C191.356 102.802 191.243 102.84 191.136 102.84H191.129Z" fill="#6F7FA9"/>
<path d="M180.817 107.904C180.697 107.904 180.583 107.86 180.489 107.771C180.299 107.589 180.293 107.292 180.47 107.103L187.679 99.5218C187.855 99.3326 188.158 99.3263 188.347 99.5029C188.536 99.6858 188.543 99.9822 188.366 100.171L181.157 107.752C181.063 107.847 180.943 107.898 180.817 107.898V107.904Z" fill="#6F7FA9"/>
<path d="M201.177 107.628C201.057 107.628 200.937 107.583 200.842 107.489L193.659 100.286C193.476 100.103 193.476 99.8006 193.659 99.6176C193.842 99.4347 194.144 99.4347 194.327 99.6176L201.511 106.82C201.694 107.003 201.694 107.306 201.511 107.489C201.416 107.583 201.297 107.628 201.177 107.628Z" fill="#6F7FA9"/>
<path d="M202.715 98.6402C206.208 98.6402 209.041 95.808 209.041 92.3142C209.041 88.8205 206.208 85.9883 202.715 85.9883C199.221 85.9883 196.389 88.8205 196.389 92.3142C196.389 95.808 199.221 98.6402 202.715 98.6402Z" fill="#FF5F42"/>
<path d="M203.852 91.715C204.134 91.883 204.353 92.093 204.509 92.345C204.671 92.591 204.752 92.849 204.752 93.119C204.752 93.461 204.656 93.776 204.464 94.064C204.278 94.352 204.023 94.58 203.699 94.748C203.381 94.916 203.03 95 202.646 95C202.262 95 201.908 94.916 201.584 94.748C201.266 94.58 201.011 94.352 200.819 94.064C200.633 93.776 200.54 93.461 200.54 93.119C200.54 92.543 200.831 92.075 201.413 91.715C201.203 91.595 201.029 91.433 200.891 91.229C200.759 91.025 200.693 90.785 200.693 90.509C200.693 90.179 200.78 89.876 200.954 89.6C201.128 89.324 201.362 89.105 201.656 88.943C201.956 88.781 202.286 88.7 202.646 88.7C203.006 88.7 203.333 88.781 203.627 88.943C203.927 89.105 204.161 89.324 204.329 89.6C204.503 89.876 204.59 90.179 204.59 90.509C204.59 90.809 204.518 91.058 204.374 91.256C204.236 91.448 204.062 91.601 203.852 91.715ZM202.646 89.69C202.394 89.69 202.184 89.771 202.016 89.933C201.854 90.089 201.773 90.287 201.773 90.527C201.773 90.773 201.854 90.977 202.016 91.139C202.184 91.295 202.394 91.373 202.646 91.373C202.892 91.373 203.096 91.292 203.258 91.13C203.426 90.968 203.51 90.767 203.51 90.527C203.51 90.287 203.426 90.089 203.258 89.933C203.096 89.771 202.892 89.69 202.646 89.69ZM202.646 94.01C202.934 94.01 203.177 93.923 203.375 93.749C203.573 93.569 203.672 93.353 203.672 93.101C203.672 92.843 203.573 92.627 203.375 92.453C203.177 92.273 202.934 92.183 202.646 92.183C202.358 92.183 202.115 92.273 201.917 92.453C201.719 92.627 201.62 92.843 201.62 93.101C201.62 93.353 201.719 93.569 201.917 93.749C202.115 93.923 202.358 94.01 202.646 94.01Z" fill="white"/>
<path d="M266.278 79.1602H229.306C227.913 79.1602 226.783 80.2897 226.783 81.683V87.4665C226.783 88.8598 227.913 89.9893 229.306 89.9893H266.278C267.671 89.9893 268.801 88.8598 268.801 87.4665V81.683C268.801 80.2897 267.671 79.1602 266.278 79.1602Z" fill="#223A7A"/>
<path d="M231.974 87.4161C231.81 87.4161 231.678 87.3593 231.577 87.2395C231.476 87.1196 231.432 86.9746 231.444 86.798L231.602 85.3978C231.614 85.36 231.602 85.3411 231.583 85.3284C231.558 85.3158 231.532 85.3284 231.495 85.3474L230.34 86.1799C230.195 86.2871 230.05 86.325 229.899 86.2934C229.748 86.2619 229.621 86.1736 229.527 86.0159C229.42 85.8267 229.401 85.6627 229.464 85.5176C229.527 85.3726 229.64 85.278 229.792 85.2149L231.085 84.6284C231.123 84.6157 231.135 84.5968 231.135 84.5779C231.135 84.559 231.116 84.5338 231.085 84.5274L229.792 83.9409C229.628 83.8715 229.521 83.758 229.47 83.6066C229.426 83.4552 229.439 83.2976 229.521 83.1462C229.615 82.9948 229.741 82.9002 229.893 82.8687C230.044 82.8372 230.195 82.8687 230.334 82.9633L231.488 83.8147C231.526 83.84 231.551 83.8463 231.577 83.8337C231.602 83.8211 231.608 83.7958 231.596 83.7643L231.438 82.3641C231.425 82.1875 231.476 82.0362 231.583 81.9226C231.69 81.8028 231.829 81.746 232.012 81.746C232.176 81.746 232.315 81.8028 232.422 81.9226C232.529 82.0425 232.567 82.1875 232.548 82.3641L232.39 83.7643C232.378 83.8021 232.39 83.8211 232.409 83.8337C232.434 83.8463 232.46 83.8337 232.497 83.8147L233.652 82.9822C233.79 82.875 233.942 82.8372 234.106 82.8687C234.263 82.9002 234.383 82.9885 234.472 83.1462C234.579 83.3354 234.598 83.4994 234.535 83.6445C234.472 83.7832 234.358 83.8841 234.207 83.9472L232.914 84.5338C232.876 84.5464 232.863 84.5653 232.863 84.5842C232.863 84.6031 232.882 84.6284 232.914 84.6347L234.207 85.2212C234.371 85.2906 234.484 85.4041 234.535 85.5555C234.585 85.7069 234.566 85.8645 234.472 86.0159C234.39 86.1673 234.27 86.2619 234.106 86.2934C233.948 86.325 233.797 86.2934 233.652 86.1988L232.497 85.3474C232.46 85.3221 232.434 85.3158 232.409 85.3284C232.384 85.3411 232.378 85.3663 232.39 85.3978L232.548 86.798C232.573 86.9746 232.529 87.126 232.415 87.2395C232.302 87.3593 232.157 87.4161 231.98 87.4161H231.974Z" fill="white"/>
<path d="M239.619 87.4161C239.455 87.4161 239.322 87.3594 239.221 87.2395C239.12 87.1197 239.076 86.9746 239.089 86.798L239.246 85.3979C239.259 85.36 239.246 85.3411 239.227 85.3285C239.202 85.3159 239.177 85.3285 239.139 85.3474L237.985 86.1799C237.84 86.2872 237.695 86.325 237.543 86.2935C237.392 86.2619 237.266 86.1736 237.171 86.016C237.064 85.8268 237.045 85.6628 237.108 85.5177C237.171 85.3726 237.285 85.278 237.436 85.215L238.729 84.6284C238.767 84.6158 238.78 84.5969 238.78 84.578C238.78 84.559 238.761 84.5338 238.729 84.5275L237.436 83.9409C237.272 83.8716 237.165 83.758 237.115 83.6067C237.07 83.4553 237.083 83.2976 237.165 83.1463C237.26 82.9949 237.386 82.9003 237.537 82.8687C237.689 82.8372 237.84 82.8687 237.979 82.9633L239.133 83.8148C239.171 83.84 239.196 83.8463 239.221 83.8337C239.246 83.8211 239.253 83.7959 239.24 83.7643L239.082 82.3642C239.07 82.1876 239.12 82.0362 239.227 81.9227C239.335 81.8029 239.473 81.7461 239.656 81.7461C239.82 81.7461 239.959 81.8029 240.066 81.9227C240.174 82.0425 240.211 82.1876 240.192 82.3642L240.035 83.7643C240.022 83.8022 240.028 83.8211 240.054 83.8337C240.079 83.8463 240.104 83.8337 240.142 83.8148L241.296 82.9823C241.435 82.8751 241.586 82.8372 241.75 82.8687C241.908 82.9003 242.028 82.9886 242.116 83.1463C242.223 83.3355 242.242 83.4994 242.179 83.6445C242.116 83.7833 242.003 83.8842 241.851 83.9473L240.558 84.5338C240.52 84.5464 240.508 84.5653 240.508 84.5843C240.508 84.6032 240.527 84.6284 240.558 84.6347L241.851 85.2213C242.015 85.2906 242.129 85.4042 242.179 85.5555C242.23 85.7069 242.211 85.8646 242.116 86.016C242.034 86.1673 241.914 86.2619 241.75 86.2935C241.593 86.325 241.441 86.2935 241.296 86.1989L240.142 85.3474C240.104 85.3222 240.079 85.3159 240.054 85.3285C240.028 85.3411 240.022 85.3663 240.035 85.3979L240.192 86.798C240.218 86.9746 240.174 87.126 240.06 87.2395C239.946 87.3594 239.801 87.4161 239.625 87.4161H239.619Z" fill="white"/>
<path d="M247.269 87.4161C247.105 87.4161 246.972 87.3594 246.872 87.2395C246.771 87.1197 246.726 86.9746 246.739 86.798L246.897 85.3979C246.909 85.36 246.897 85.3411 246.878 85.3285C246.853 85.3159 246.827 85.3285 246.79 85.3474L245.635 86.1799C245.49 86.2872 245.345 86.325 245.194 86.2935C245.043 86.2619 244.916 86.1736 244.822 86.016C244.715 85.8268 244.696 85.6628 244.759 85.5177C244.822 85.3726 244.935 85.278 245.087 85.215L246.38 84.6284C246.417 84.6158 246.43 84.5969 246.43 84.578C246.43 84.559 246.411 84.5338 246.38 84.5275L245.087 83.9409C244.923 83.8716 244.815 83.758 244.765 83.6067C244.721 83.4553 244.733 83.2976 244.815 83.1463C244.91 82.9949 245.036 82.9003 245.188 82.8687C245.339 82.8372 245.49 82.8687 245.629 82.9633L246.783 83.8148C246.821 83.84 246.846 83.8463 246.872 83.8337C246.897 83.8211 246.903 83.7959 246.89 83.7643L246.733 82.3642C246.72 82.1876 246.771 82.0362 246.878 81.9227C246.985 81.8029 247.124 81.7461 247.307 81.7461C247.471 81.7461 247.609 81.8029 247.717 81.9227C247.824 82.0425 247.862 82.1876 247.843 82.3642L247.685 83.7643C247.673 83.8022 247.679 83.8211 247.704 83.8337C247.729 83.8463 247.755 83.8337 247.792 83.8148L248.947 82.9823C249.085 82.8751 249.237 82.8372 249.401 82.8687C249.558 82.9003 249.678 82.9886 249.766 83.1463C249.874 83.3355 249.893 83.4994 249.83 83.6445C249.766 83.7833 249.653 83.8842 249.502 83.9473L248.209 84.5338C248.171 84.5464 248.158 84.5653 248.158 84.5843C248.158 84.6032 248.177 84.6284 248.209 84.6347L249.502 85.2213C249.666 85.2906 249.779 85.4042 249.83 85.5555C249.88 85.7069 249.861 85.8646 249.766 86.016C249.684 86.1673 249.565 86.2619 249.401 86.2935C249.243 86.325 249.092 86.2935 248.947 86.1989L247.792 85.3474C247.755 85.3222 247.729 85.3159 247.704 85.3285C247.679 85.3411 247.673 85.3663 247.685 85.3979L247.843 86.798C247.868 86.9746 247.824 87.126 247.71 87.2395C247.597 87.3594 247.452 87.4161 247.275 87.4161H247.269Z" fill="white"/>
<path d="M254.913 87.4161C254.749 87.4161 254.617 87.3594 254.516 87.2395C254.415 87.1197 254.371 86.9746 254.384 86.798L254.541 85.3979C254.554 85.36 254.541 85.3411 254.522 85.3285C254.497 85.3159 254.472 85.3285 254.434 85.3474L253.28 86.1799C253.135 86.2872 252.99 86.325 252.838 86.2935C252.687 86.2619 252.561 86.1736 252.466 86.016C252.359 85.8268 252.34 85.6628 252.403 85.5177C252.466 85.3726 252.58 85.278 252.731 85.215L254.024 84.6284C254.062 84.6158 254.075 84.5969 254.075 84.578C254.075 84.559 254.056 84.5338 254.024 84.5275L252.731 83.9409C252.567 83.8716 252.46 83.758 252.41 83.6067C252.365 83.4553 252.378 83.2976 252.46 83.1463C252.555 82.9949 252.681 82.9003 252.832 82.8687C252.983 82.8372 253.135 82.8687 253.274 82.9633L254.428 83.8148C254.466 83.84 254.491 83.8463 254.516 83.8337C254.541 83.8211 254.548 83.7959 254.535 83.7643L254.377 82.3642C254.365 82.1876 254.415 82.0362 254.522 81.9227C254.63 81.8029 254.768 81.7461 254.951 81.7461C255.115 81.7461 255.254 81.8029 255.361 81.9227C255.468 82.0425 255.506 82.1876 255.487 82.3642L255.33 83.7643C255.317 83.8022 255.323 83.8211 255.349 83.8337C255.374 83.8463 255.399 83.8337 255.437 83.8148L256.591 82.9823C256.73 82.8751 256.881 82.8372 257.045 82.8687C257.203 82.9003 257.323 82.9886 257.411 83.1463C257.518 83.3355 257.537 83.4994 257.474 83.6445C257.411 83.7833 257.297 83.8842 257.146 83.9473L255.853 84.5338C255.815 84.5464 255.803 84.5653 255.803 84.5843C255.803 84.6032 255.822 84.6284 255.853 84.6347L257.146 85.2213C257.31 85.2906 257.424 85.4042 257.474 85.5555C257.525 85.7069 257.506 85.8646 257.411 86.016C257.329 86.1673 257.209 86.2619 257.045 86.2935C256.888 86.325 256.736 86.2935 256.591 86.1989L255.437 85.3474C255.399 85.3222 255.374 85.3159 255.349 85.3285C255.323 85.3411 255.317 85.3663 255.33 85.3979L255.487 86.798C255.513 86.9746 255.468 87.126 255.355 87.2395C255.241 87.3594 255.096 87.4161 254.92 87.4161H254.913Z" fill="white"/>
<path d="M262.564 87.4161C262.4 87.4161 262.267 87.3594 262.166 87.2395C262.066 87.1197 262.021 86.9746 262.034 86.798L262.192 85.3979C262.204 85.36 262.192 85.3411 262.173 85.3285C262.148 85.3159 262.122 85.3285 262.084 85.3474L260.93 86.1799C260.785 86.2872 260.64 86.325 260.489 86.2935C260.337 86.2619 260.211 86.1736 260.117 86.016C260.009 85.8268 259.991 85.6628 260.054 85.5177C260.117 85.3726 260.23 85.278 260.382 85.215L261.675 84.6284C261.712 84.6158 261.725 84.5969 261.725 84.578C261.725 84.559 261.706 84.5338 261.675 84.5275L260.382 83.9409C260.218 83.8716 260.11 83.758 260.06 83.6067C260.016 83.4553 260.028 83.2976 260.11 83.1463C260.205 82.9949 260.331 82.9003 260.482 82.8687C260.634 82.8372 260.785 82.8687 260.924 82.9633L262.078 83.8148C262.116 83.84 262.141 83.8463 262.166 83.8337C262.192 83.8211 262.198 83.7959 262.185 83.7643L262.028 82.3642C262.015 82.1876 262.066 82.0362 262.173 81.9227C262.28 81.8029 262.419 81.7461 262.602 81.7461C262.766 81.7461 262.904 81.8029 263.012 81.9227C263.119 82.0425 263.157 82.1876 263.138 82.3642L262.98 83.7643C262.967 83.8022 262.974 83.8211 262.999 83.8337C263.024 83.8463 263.049 83.8337 263.087 83.8148L264.241 82.9823C264.38 82.8751 264.532 82.8372 264.696 82.8687C264.853 82.9003 264.973 82.9886 265.061 83.1463C265.169 83.3355 265.188 83.4994 265.124 83.6445C265.061 83.7833 264.948 83.8842 264.797 83.9473L263.504 84.5338C263.466 84.5464 263.453 84.5653 263.453 84.5843C263.453 84.6032 263.472 84.6284 263.504 84.6347L264.797 85.2213C264.96 85.2906 265.074 85.4042 265.124 85.5555C265.175 85.7069 265.156 85.8646 265.061 86.016C264.979 86.1673 264.86 86.2619 264.696 86.2935C264.538 86.325 264.387 86.2935 264.241 86.1989L263.087 85.3474C263.049 85.3222 263.024 85.3159 262.999 85.3285C262.974 85.3411 262.967 85.3663 262.98 85.3979L263.138 86.798C263.163 86.9746 263.119 87.126 263.005 87.2395C262.892 87.3594 262.747 87.4161 262.57 87.4161H262.564Z" fill="#67ACFF"/>
</g>
<defs>
<clipPath id="clip0_1781_11476">
<rect width="276.646" height="208" fill="white"/>
</clipPath>
</defs>
</svg>
