<svg width="48" height="58" viewBox="0 0 48 58" fill="none" xmlns="http://www.w3.org/2000/svg">
<g filter="url(#filter0_f_475_3885)">
<ellipse cx="24" cy="54" rx="12" ry="2" fill="black" fill-opacity="0.2"/>
</g>
<g filter="url(#filter1_d_475_3885)">
<path fill-rule="evenodd" clip-rule="evenodd" d="M24 4C35.0457 4 44 13.0259 44 24.16C44 32.697 38.7358 39.9946 31.301 42.9345L25.1389 51.4246C25.0105 51.6024 24.8399 51.7474 24.6416 51.8476C24.4434 51.9477 24.2232 52 23.9998 52C23.7764 52 23.5562 51.9477 23.3579 51.8476C23.1597 51.7474 22.9891 51.6024 22.8606 51.4246L16.6984 42.9343C9.26391 39.9942 4 32.6967 4 24.16C4 13.0259 12.9543 4 24 4Z" fill="white"/>
</g>
<defs>
<filter id="filter0_f_475_3885" x="10" y="50" width="28" height="8" filterUnits="userSpaceOnUse" color-interpolation-filters="sRGB">
<feFlood flood-opacity="0" result="BackgroundImageFix"/>
<feBlend mode="normal" in="SourceGraphic" in2="BackgroundImageFix" result="shape"/>
<feGaussianBlur stdDeviation="1" result="effect1_foregroundBlur_475_3885"/>
</filter>
<filter id="filter1_d_475_3885" x="0.153845" y="0.923076" width="47.6923" height="55.6923" filterUnits="userSpaceOnUse" color-interpolation-filters="sRGB">
<feFlood flood-opacity="0" result="BackgroundImageFix"/>
<feColorMatrix in="SourceAlpha" type="matrix" values="0 0 0 0 0 0 0 0 0 0 0 0 0 0 0 0 0 0 127 0" result="hardAlpha"/>
<feOffset dy="0.769231"/>
<feGaussianBlur stdDeviation="1.92308"/>
<feComposite in2="hardAlpha" operator="out"/>
<feColorMatrix type="matrix" values="0 0 0 0 0 0 0 0 0 0 0 0 0 0 0 0 0 0 0.1 0"/>
<feBlend mode="normal" in2="BackgroundImageFix" result="effect1_dropShadow_475_3885"/>
<feBlend mode="normal" in="SourceGraphic" in2="effect1_dropShadow_475_3885" result="shape"/>
</filter>
</defs>
</svg>
