<svg width="96" height="97" viewBox="0 0 96 97" fill="none" xmlns="http://www.w3.org/2000/svg">
<rect x="8" y="8.5" width="80" height="80" rx="40" fill="#FCDA83" fill-opacity="0.5"/>
<rect x="8" y="8.5" width="80" height="80" rx="40" stroke="#FFF6E0" stroke-width="16"/>
<path opacity="0.4" fill-rule="evenodd" clip-rule="evenodd" d="M48 19.3335C64.1084 19.3335 77.1667 32.3919 77.1667 48.5002C77.1667 64.6085 64.1084 77.6668 48 77.6668C31.8917 77.6668 18.8334 64.6085 18.8334 48.5002C18.8334 32.3919 31.8917 19.3335 48 19.3335ZM53.0859 41.1981L50.5195 36.0229C49.1342 33.2148 46.8595 33.2148 45.4597 36.0229L42.8933 41.1981C42.5433 41.9185 41.6101 42.6095 40.8373 42.7418L36.1857 43.5211C33.211 44.0209 32.5257 46.1969 34.6546 48.3434L38.2709 51.9895C38.8833 52.607 39.2187 53.7979 39.0291 54.6506L37.9938 59.1642C37.1772 62.7222 39.0729 64.1189 42.1934 62.2517L46.5533 59.6494C47.3553 59.1789 48.6531 59.1789 49.4405 59.6494L53.8004 62.2517C56.9355 64.1189 58.8165 62.7369 57.9999 59.1642L56.9646 54.6506C56.7751 53.7979 57.1105 52.607 57.7229 51.9895L61.3392 48.3434C63.4827 46.1969 62.7827 44.0209 59.8081 43.5211L55.1565 42.7418C54.3691 42.6095 53.4359 41.9185 53.0859 41.1981Z" fill="#FFBE4C"/>
<path fill-rule="evenodd" clip-rule="evenodd" d="M52.7105 64.1276C54.1397 64.9735 55.3356 65.2652 56.2981 65.2652L56.2689 65.236C57.3773 65.236 58.1648 64.8277 58.6606 64.4777C59.5356 63.836 60.9356 62.2027 60.1189 58.6444L59.098 54.1527C59.0688 54.0068 59.273 53.511 59.273 53.511L62.8898 49.8652C64.5231 48.2318 65.1355 46.336 64.5813 44.6152C64.0272 42.9235 62.423 41.7276 60.1772 41.3485L55.5398 40.561C55.3939 40.5318 55.044 40.211 55.044 40.211L52.4773 35.0485C51.4273 32.9485 49.7938 31.7235 47.9855 31.7235C46.1772 31.7235 44.5439 32.9485 43.4939 35.0485L40.9272 40.211C40.8397 40.3277 40.4606 40.561 40.4606 40.561L35.8231 41.3485C33.5772 41.7276 31.973 42.9235 31.4189 44.6152C30.8647 46.336 31.4772 48.2318 33.0814 49.8652L36.698 53.511C36.7855 53.6277 36.873 54.1527 36.873 54.1527L35.8522 58.6735C35.0356 62.2318 36.4356 63.836 37.3398 64.5068C38.2439 65.1776 40.2272 65.9943 43.3189 64.1276L47.6647 61.5318C47.8105 61.4735 48.3355 61.5318 48.3355 61.5318L52.7105 64.1276ZM50.6106 57.7693C49.8604 57.3365 48.9675 57.1036 48.0731 57.0986C48.0828 57.0986 48.0926 57.0985 48.1023 57.0985H48.0439C48.0536 57.0985 48.0634 57.0986 48.0731 57.0986C47.1787 57.1036 46.2858 57.3365 45.5356 57.7693L41.1606 60.3652C40.6648 60.6569 40.3148 60.8026 40.0815 60.861C40.0523 60.6276 40.0814 60.2193 40.1981 59.6651L41.248 55.1443C41.598 53.5985 41.044 51.6152 39.9065 50.4777L36.2896 46.8318C35.976 46.4985 35.7941 46.2575 35.7086 46.1442C35.6773 46.1027 35.6589 46.0784 35.6517 46.0728C35.6583 46.0704 35.67 46.0629 35.6879 46.0513C35.782 45.9902 36.0472 45.8183 36.6398 45.7235L41.3064 44.936C42.7647 44.6735 44.3106 43.5068 44.9522 42.1943L47.5189 37.0319C47.6755 36.7013 47.8321 36.4848 47.933 36.3454C48.0012 36.2511 48.0439 36.1921 48.0439 36.1568C48.1606 36.2443 48.394 36.4777 48.6565 37.0027L51.2231 42.1651C51.894 43.536 53.3813 44.6443 54.898 44.9068L59.5356 45.6944C60.1481 45.7819 60.4689 45.9569 60.4689 45.9569C60.4656 45.9635 60.462 45.9708 60.4581 45.9787C60.3931 46.1103 60.2415 46.4176 59.8564 46.8027L56.2397 50.4485C55.1022 51.586 54.548 53.5693 54.898 55.1443L55.9189 59.6651C56.0355 60.219 56.0355 60.6272 56.0355 60.8606C55.8022 60.8023 55.4522 60.6569 54.9564 60.3652L50.6106 57.7693Z" fill="#FFBE4C"/>
<path fill-rule="evenodd" clip-rule="evenodd" d="M47.9999 79.8538C30.6835 79.8538 16.6458 65.8161 16.6458 48.4997C16.6458 31.1832 30.6835 17.1455 47.9999 17.1455C65.3164 17.1455 79.3541 31.1832 79.3541 48.4997C79.3541 65.8161 65.3164 79.8538 47.9999 79.8538ZM21.0208 48.4997C21.0208 63.3999 33.0997 75.4788 47.9999 75.4788C62.9001 75.4788 74.9791 63.3999 74.9791 48.4997C74.9791 33.5995 62.9001 21.5205 47.9999 21.5205C33.0997 21.5205 21.0208 33.5995 21.0208 48.4997Z" fill="#FFBE4C"/>
</svg>
