<svg width="121" height="106" viewBox="0 0 121 106" fill="none" xmlns="http://www.w3.org/2000/svg">
<path d="M7.94308 69.2919C10.9606 72.1393 14.5855 75.0128 15.9386 79.0861C18.3734 86.4209 6.47467 96.6471 15.7391 102.001C17.9171 103.26 20.5103 103.58 23.0274 103.673C36.9459 104.189 50.8695 104.581 64.8207 104.416C78.206 104.257 92.5732 104.899 105.807 102.753C124.822 99.6691 125.183 68.6749 108.039 62.4399C103.654 60.8451 99.0651 60.8532 94.5572 60.2132C91.2743 59.7474 87.348 58.1061 86.6136 53.6102C85.9784 49.7219 88.1509 46.1907 89.5865 42.744C94.8285 30.1595 90.8699 13.1676 77.7882 7.12743C73.2825 5.04721 68.4902 4.51099 63.7471 4.31809C48.0087 3.67812 32.1889 8.80959 19.7795 18.4404C6.92448 28.4169 -3.41284 44.464 1.94599 61.1608C2.96931 64.351 5.37664 66.8702 7.94308 69.2919Z" fill="#D5F0F0"/>
<path d="M74.7575 44.4401C75.0738 43.5205 75.6238 42.5116 76.5873 42.3485C77.6138 42.1743 78.4877 43.0479 79.1574 43.8408C79.0235 42.399 79.1166 40.9369 79.4319 39.5235C79.6353 38.6116 80.0916 37.5715 81.0169 37.4109C81.5304 37.3218 82.0445 37.5423 82.5011 37.792C83.969 38.5955 85.2311 39.7669 86.138 41.1681C86.3965 39.1241 86.6549 37.0801 86.9134 35.0361C87.0337 34.0841 87.2264 33.0117 88.0321 32.4841C88.7073 32.042 89.63 32.1468 90.3383 32.5344C91.0465 32.922 91.587 33.5469 92.1115 34.1584C92.3592 32.4424 93.062 30.7936 94.1296 29.4224C95.4331 27.7486 98.0177 29.0017 99.068 30.358C99.9838 31.5407 100.48 33.0386 100.45 34.5309C100.392 37.479 98.4166 40.0008 96.5356 42.2802C97.3671 42.2092 98.0979 42.9775 98.2148 43.7991C98.3319 44.6208 97.9718 45.4419 97.4905 46.1202C96.2261 47.9022 94.1826 48.9442 92.2206 49.9183C93.586 50.1548 94.096 52.0173 93.4808 53.2527C91.2953 57.6412 82.785 59.0601 78.488 59.1949C77.2767 59.2329 75.8293 59.064 74.8209 58.3323C73.5465 57.4076 73.9507 56.3798 73.8935 54.9885C73.7472 51.4276 73.5771 47.8694 74.7575 44.4401Z" fill="#3A3F73"/>
<path d="M95.3458 37.2231C95.3458 37.2231 81.755 54.867 71.1317 61.8863C70.6636 62.1957 70.035 62.0917 69.6871 61.6527C69.3128 61.1804 69.4009 60.4953 69.8822 60.1311C72.6885 58.0063 82.0203 50.6549 95.3458 37.2231Z" fill="#373C8A"/>
<path d="M114.446 29.4248C112.013 30.6309 109.121 30.4458 106.563 31.3309C104.967 31.8832 103.391 32.7299 102.832 34.4525C102.816 34.5025 102.819 34.5456 102.829 34.5852C102.289 35.0169 101.758 35.459 101.231 35.9058C101.05 33.5075 103.087 31.8324 104.412 30.0611C105.453 28.6701 106.069 27.0844 106.303 25.3561C106.337 25.1053 105.99 24.885 105.857 25.1645C104.106 28.8382 98.3738 31.5832 100.73 36.3372C99.8488 37.0986 98.9911 37.8862 98.1479 38.6888C97.1841 37.8228 97.9117 34.977 98.1644 34.0948C98.5227 32.8441 99.0443 31.6541 99.4797 30.4312C100.222 28.3471 100.703 26.1384 99.9133 23.9969C99.8328 23.7785 99.5088 23.7438 99.442 23.9969C98.9723 25.7721 98.3552 27.4931 97.5513 29.1414C96.9059 30.4646 96.1429 31.7443 95.7065 33.1616C95.3613 34.2825 95.2375 35.5179 95.5374 36.6654C95.8488 37.8564 96.5993 38.5678 97.4727 39.3324C96.4713 40.3102 95.5015 41.3198 94.5581 42.3537C93.0121 39.7073 93.761 36.6198 94.4008 33.7815C94.8832 31.6426 95.3974 29.2603 94.1067 27.308C93.9673 27.0972 93.6719 27.1863 93.6512 27.4334C93.3573 30.9748 91.4593 34.1029 91.1366 37.6096C90.9435 39.7091 91.6158 42.5299 93.8653 43.1216C92.7057 44.4287 91.5956 45.7801 90.5314 47.1676C90.7532 44.7199 89.7851 42.8133 88.9589 40.4802C87.9007 37.4925 88.6085 34.422 89.5055 31.4946C89.5754 31.2662 89.2562 31.06 89.0971 31.2527C87.3062 33.4186 86.333 36.1625 86.5547 39.0063C86.6588 40.3394 87.009 41.6558 87.5899 42.8563C87.9728 43.648 88.5115 44.3461 88.8968 45.1346C89.3317 46.024 89.6134 47.0112 89.9348 47.9523C89.2305 48.8967 88.5553 49.8633 87.8963 50.8417C88.1117 49.7786 88.2651 48.6958 88.1007 47.615C87.9188 46.4195 87.3602 45.3437 86.7686 44.3109C85.1453 41.4762 84.0856 38.7633 84.3744 35.4147C84.3993 35.1274 83.9713 35.0891 83.8942 35.3484C83.4599 36.8106 82.8835 38.3066 82.7529 39.8392C82.6271 41.3172 83.0373 42.8067 83.4897 44.1969C83.9346 45.5637 84.7007 46.5235 85.4732 47.6981C86.3343 49.0075 86.7374 50.5215 87.107 52.0319C84.717 55.7325 82.6489 59.6545 80.9506 63.7581C80.8287 64.0526 81.3016 64.1811 81.4219 63.8902C82.2987 61.7719 83.2787 59.698 84.3545 57.6769C84.8913 56.6681 85.4523 55.6723 86.0357 54.6903C86.4415 54.0074 86.8187 53.3358 87.2774 52.6883C87.4276 52.4761 88.3191 50.8782 88.4415 50.9087C93.0994 52.0619 98.6231 57.0385 103.294 53.1873C103.47 53.0421 103.314 52.7717 103.121 52.7629C100.238 52.6284 97.5487 51.9198 94.9094 50.7541C92.9322 49.8808 90.9736 50.0562 88.8829 50.2562C89.3463 49.5901 89.8184 48.9304 90.3033 48.2805C90.3634 48.2643 90.4171 48.2291 90.4483 48.1783C90.4635 48.1853 90.475 48.1952 90.4934 48.1994C93.6729 48.8868 96.8779 49.7783 100.104 50.1949C102.63 50.521 105.305 50.1842 107.118 48.2044C107.248 48.0628 107.17 47.7534 106.946 47.78C103.685 48.1658 100.774 47.3282 97.6153 46.682C95.4724 46.2438 93.2708 46.1317 91.2549 47.0313C92.204 45.8147 93.1904 44.6284 94.2137 43.4754C94.2336 43.4811 94.2517 43.4892 94.2753 43.4897C96.8926 43.5617 99.2362 45.0319 101.859 45.2217C104.234 45.3935 106.578 44.875 108.709 43.8135C108.92 43.7084 108.826 43.3237 108.586 43.3503C105.774 43.6597 103.162 42.8479 100.449 42.2523C98.6858 41.8654 96.8941 41.7301 95.2236 42.3568C96.0247 41.4911 96.8457 40.6441 97.6876 39.8188C97.6999 39.8306 97.708 39.8439 97.7238 39.8538C99.9618 41.2865 102.649 41.416 105.221 41.2244C107.453 41.0581 109.736 40.5297 111.275 38.7597C111.423 38.5908 111.284 38.2495 111.038 38.3442C108.723 39.2326 106.307 39.1635 103.882 38.9456C102.341 38.8071 100.313 38.2519 98.7563 38.7962C99.5295 38.0686 100.314 37.3525 101.118 36.6597C101.18 36.6375 101.232 36.5937 101.264 36.5335C101.449 36.3755 101.629 36.2131 101.815 36.057C101.846 36.0604 101.879 36.058 101.915 36.0463C103.214 35.6279 104.128 36.5674 105.207 37.0932C105.809 37.387 106.449 37.5603 107.112 37.6377C109.017 37.8606 110.868 37.2535 112.653 36.6555C112.865 36.5843 112.905 36.2259 112.653 36.1761C109.559 35.564 106.029 34.4061 102.864 35.2046C103.095 35.0182 103.322 34.8263 103.555 34.6428C107.364 33.1999 112.146 33.4061 114.781 29.765C114.939 29.546 114.643 29.3275 114.446 29.4248Z" fill="#5F82F7"/>
<path d="M50.8055 44.4401C50.4889 43.5205 49.9392 42.5116 48.9756 42.3485C47.9492 42.1743 47.0753 43.0479 46.4055 43.8408C46.5395 42.399 46.4464 40.9369 46.1311 39.5235C45.9274 38.6116 45.4713 37.5715 44.546 37.4109C44.0325 37.3218 43.5185 37.5423 43.0619 37.792C41.594 38.5955 40.3319 39.7669 39.425 41.1681C39.1665 39.1241 38.9081 37.0801 38.6496 35.0361C38.5293 34.0841 38.3366 33.0117 37.5309 32.4841C36.8556 32.042 35.933 32.1468 35.2247 32.5344C34.5165 32.922 33.976 33.5469 33.4515 34.1584C33.2037 32.4424 32.501 30.7936 31.4334 29.4224C30.1298 27.7486 27.5453 29.0017 26.495 30.358C25.5791 31.5407 25.0832 33.0386 25.1126 34.5309C25.171 37.479 27.1461 40.0008 29.0271 42.2802C28.1956 42.2092 27.4651 42.9775 27.3479 43.7991C27.2308 44.6208 27.5909 45.4419 28.0719 46.1202C29.3364 47.9022 31.3799 48.9442 33.3419 49.9183C31.9765 50.1548 31.4664 52.0173 32.0816 53.2527C34.2672 57.6412 42.7775 59.0601 47.0745 59.1949C48.2857 59.2329 49.7332 59.064 50.7416 58.3323C52.016 57.4076 51.6118 56.3798 51.6689 54.9885C51.8157 51.4276 51.9858 47.8694 50.8055 44.4401Z" fill="#3A3F73"/>
<path d="M30.2178 37.2231C30.2178 37.2231 43.8085 54.867 54.4318 61.8863C54.9 62.1957 55.5286 62.0917 55.8764 61.6527C56.2507 61.1804 56.1624 60.4953 55.6814 60.1311C52.8751 58.0063 43.5435 50.6549 30.2178 37.2231Z" fill="#373C8A"/>
<path d="M10.7831 29.765C13.418 33.4061 18.2004 33.1999 22.0093 34.6428C22.2426 34.8263 22.4693 35.0182 22.7003 35.2046C19.5354 34.4061 16.0051 35.564 12.9111 36.1761C12.6589 36.2259 12.699 36.5846 12.9111 36.6555C14.6964 37.2535 16.5477 37.8606 18.4521 37.6377C19.115 37.56 19.7551 37.3867 20.3574 37.0932C21.4358 36.5674 22.3503 35.6276 23.6489 36.0463C23.6851 36.058 23.7183 36.0604 23.749 36.057C23.9351 36.2131 24.1155 36.3755 24.3 36.5335C24.332 36.5937 24.3844 36.6375 24.446 36.6597C25.2507 37.3525 26.0347 38.0686 26.808 38.7962C25.2512 38.2516 23.2235 38.8071 21.6824 38.9456C19.2568 39.1635 16.8405 39.2328 14.5265 38.3442C14.2801 38.2495 14.1417 38.5908 14.2888 38.7597C15.8279 40.5297 18.1108 41.0581 20.3433 41.2244C22.9152 41.416 25.6025 41.2865 27.8405 39.8538C27.8562 39.8439 27.8643 39.8303 27.8767 39.8188C28.7186 40.6441 29.5396 41.4911 30.3406 42.3568C28.6704 41.7301 26.8785 41.8654 25.1157 42.2523C22.4017 42.8479 19.7897 43.6597 16.9787 43.3503C16.738 43.3237 16.6447 43.7087 16.8552 43.8135C18.9863 44.875 21.3307 45.3935 23.7055 45.2217C26.328 45.0319 28.6714 43.5617 31.2887 43.4897C31.3123 43.4889 31.3304 43.4809 31.3503 43.4754C32.3736 44.6284 33.36 45.815 34.3091 47.0313C32.2932 46.1317 30.0918 46.2438 27.9487 46.682C24.7902 47.328 21.879 48.1658 18.6182 47.78C18.3939 47.7534 18.3157 48.0628 18.4455 48.2044C20.2594 50.1842 22.9338 50.521 25.4596 50.1949C28.6861 49.7783 31.8911 48.8868 35.0706 48.1994C35.0892 48.1955 35.1005 48.1853 35.1157 48.1783C35.1471 48.2291 35.2006 48.2646 35.2606 48.2805C35.7456 48.9304 36.2176 49.5901 36.6811 50.2562C34.5904 50.0562 32.6318 49.8808 30.6546 50.7541C28.0156 51.9196 25.3259 52.6284 22.4426 52.7629C22.2505 52.7717 22.0937 53.0421 22.2699 53.1873C26.9409 57.0385 32.4646 52.0619 37.1225 50.9087C37.2449 50.8784 38.1364 52.4764 38.2866 52.6883C38.7453 53.3358 39.1225 54.0074 39.5282 54.6903C40.1117 55.6721 40.6724 56.6678 41.2095 57.6769C42.2852 59.6982 43.2653 61.7719 44.1421 63.8902C44.2624 64.1811 44.7353 64.0526 44.6134 63.7581C42.9151 59.6545 40.8467 55.7328 38.457 52.0319C38.8265 50.5213 39.2297 49.0073 40.0908 47.6981C40.8632 46.5235 41.6294 45.5637 42.0742 44.1969C42.5267 42.8067 42.9369 41.3172 42.8111 39.8392C42.6805 38.3069 42.1041 36.8106 41.6698 35.3484C41.5927 35.0891 41.1649 35.1271 41.1896 35.4147C41.4784 38.7633 40.4187 41.4762 38.7954 44.3109C38.2037 45.3437 37.6452 46.4195 37.4633 47.615C37.2989 48.696 37.4522 49.7786 37.6677 50.8417C37.0087 49.8636 36.3338 48.8967 35.6292 47.9523C35.9503 47.0115 36.2321 46.024 36.6672 45.1346C37.0528 44.3461 37.5912 43.648 37.9741 42.8563C38.555 41.6558 38.9052 40.3397 39.0092 39.0063C39.231 36.1628 38.2577 33.4186 36.4669 31.2527C36.3078 31.06 35.9886 31.2662 36.0583 31.4946C36.9553 34.4217 37.663 37.4923 36.6048 40.4802C35.7783 42.8133 34.8106 44.7196 35.0323 47.1676C33.9681 45.7801 32.858 44.4287 31.6984 43.1216C33.9479 42.5299 34.6203 39.7091 34.4271 37.6096C34.1044 34.1029 32.2067 30.975 31.9125 27.4334C31.8921 27.1863 31.5967 27.0969 31.4572 27.308C30.1666 29.2603 30.6811 31.6426 31.1631 33.7815C31.803 36.6198 32.5516 39.7073 31.0059 42.3537C30.0622 41.3198 29.0926 40.3102 28.0913 39.3324C28.965 38.5676 29.7154 37.8564 30.0266 36.6654C30.3264 35.5179 30.2027 34.2825 29.8575 33.1616C29.4211 31.744 28.658 30.4646 28.0127 29.1414C27.209 27.4931 26.5917 25.7719 26.122 23.9969C26.0549 23.7438 25.7312 23.7785 25.6507 23.9969C24.8609 26.1386 25.3422 28.3474 26.0843 30.4312C26.5199 31.6541 27.0413 32.8441 27.3996 34.0948C27.6523 34.9767 28.3799 37.8228 27.4161 38.6888C26.5729 37.8862 25.7149 37.0986 24.8337 36.3372C27.1902 31.5832 21.4583 28.8382 19.7074 25.1645C19.5742 24.885 19.2266 25.1053 19.2607 25.3561C19.4943 27.0841 20.1113 28.6698 21.1519 30.0611C22.4769 31.8324 24.5136 33.5075 24.333 35.9058C23.8059 35.459 23.2746 35.0169 22.7346 34.5852C22.7451 34.5456 22.7482 34.5025 22.732 34.4525C22.1734 32.7299 20.5967 31.8832 19.0007 31.3309C16.4434 30.4458 13.5509 30.6309 11.1176 29.4248C10.9213 29.3275 10.6248 29.546 10.7831 29.765Z" fill="#5F82F7"/>
<path d="M60.5265 31.8668C60.2002 31.2438 60.0759 30.7318 60.0041 30.0267C59.8626 28.6344 59.8256 27.2225 59.9063 25.8253C60.0814 22.7972 60.8416 19.3544 63.3931 17.4048C68.7173 13.3361 80.4882 8.95125 82.4764 12.6221C83.084 13.7438 83.3201 15.0363 83.3553 16.2907C83.4171 18.4976 82.8651 20.6883 81.8006 22.6234C80.7998 24.4426 79.1535 24.5466 77.841 25.9866C77.0156 26.8922 77.0093 28.3846 76.0507 29.1497C74.7763 30.1672 72.7558 29.2238 71.3071 29.9761C70.0838 30.6114 69.6038 32.292 68.2935 32.7223C66.8405 33.1996 64.7996 32.2049 63.8906 33.9939C63.758 34.2549 63.6253 34.6026 63.3315 34.6094C63.1525 34.6136 63.0054 34.477 62.8799 34.3498C62.461 33.9246 60.5265 32.5049 60.5265 31.8668Z" fill="#27274D"/>
<path d="M38.874 31.691L38.9091 31.8567L39.0143 32.3106V32.3195L39.1458 32.8606V32.8692L39.2512 33.3233V33.3319L39.4006 33.9779L39.7078 34.2399C39.787 34.3097 39.8659 34.3882 39.9361 34.4669V34.4758C40.3312 34.921 40.6208 35.5232 40.8842 36.0558L49.2145 53.0174C49.6622 53.9339 50.5925 54.5189 51.6108 54.5189C51.6721 54.5189 51.7424 54.5189 51.804 54.5103C52.4446 54.4579 53.0504 54.1873 53.5067 53.7335L55.3151 51.9351C55.7188 51.5247 56.1578 51.1405 56.588 50.7391C57.9749 49.4907 59.476 47.9107 60.9418 46.252C61.5652 45.545 62.1882 44.8203 62.7853 44.1045C63.0488 43.799 63.3033 43.4846 63.5575 43.1791C66.428 39.6698 68.719 36.4661 68.9738 35.8287C68.4207 36.5096 67.8238 36.5706 66.9636 36.4398C66.7966 36.4137 66.3667 36.2826 65.7258 36.0818C64.8742 35.8113 63.6629 35.4098 62.2323 34.9296L58.7473 39.3033L55.7366 43.0746L51.8129 47.998L42.4994 35.4273C42.1395 34.921 41.7359 34.4148 41.4638 33.8559L41.5692 33.6114V33.6028L41.6129 33.4894L41.7272 33.2099L42.1398 32.2061L41.306 31.6211L40.8232 32.5027L39.3398 31.8828L39.0237 31.752L38.874 31.691Z" fill="#FFB791"/>
<path d="M55.7363 43.0748C56.6317 44.463 58.3434 46.3659 60.9416 46.2525C61.5649 45.5456 62.1879 44.8209 62.7851 44.105L65.7255 36.0824C64.8739 35.8118 63.6626 35.4103 62.232 34.9302L58.7471 39.3039L55.7363 43.0748Z" fill="#DB776E"/>
<path d="M67.9999 30.8651C67.9999 30.8651 63.7789 29.7354 55.7305 40.6763C55.7305 40.6763 57.9635 46.2731 62.7913 45.0729L67.9999 30.8651Z" fill="#D93502"/>
<path d="M55.9758 78.3776C55.9758 78.3776 55.9758 78.3776 55.9758 78.3729C56.2427 76.057 56.6998 73.7693 57.3378 71.534C58.2998 68.1665 59.6809 64.9127 61.4668 61.8674C62.4665 60.1676 63.5189 58.4914 64.6235 56.853H64.6227C64.2615 54.2499 59.3349 42.0952 59.5989 40.6646C59.8122 39.5129 61.5821 36.9486 62.4329 35.7664C62.6534 35.4609 62.7706 35.0949 62.7706 34.7312C62.7706 34.6147 62.7588 34.5005 62.7331 34.384C62.5643 33.5493 63.0238 32.7102 63.8138 32.4094L64.2217 32.2717L64.3396 32.224C64.8356 32.0236 65.3606 31.9143 65.8922 31.8523C66.8686 31.7384 67.877 31.247 68.3779 30.8568L68.5865 30.7846C68.856 30.6912 69.1328 30.6167 69.4093 30.5606C70.4641 30.3438 71.5519 30.3857 72.5928 30.6795C72.8693 30.7588 73.1414 30.8521 73.4062 30.9663L74.0298 31.2322L76.6717 32.3512L76.7466 32.3838L76.7841 32.4003L76.8473 32.4258L76.8754 32.4375L76.9105 32.454L77.0698 32.5215C79.1537 33.6987 79.4069 34.4283 79.203 35.6408C79.0069 36.8065 73.0169 51.7213 72.3113 56.8528L77.6777 63.7855C79.8874 66.6413 81.1112 70.0324 81.3686 73.5373C81.5306 75.7442 81.3115 77.9988 80.7162 80.1867C80.7115 80.1961 80.7115 80.2104 80.7068 80.2198L80.24 81.9199H55.709C55.7473 80.7315 55.8377 79.5522 55.9758 78.3776Z" fill="#FFB791"/>
<path d="M58.4551 67.9479C59.7036 68.8131 60.9521 69.518 62.2008 70.0628C67.6946 72.4582 73.2448 71.7611 78.9239 68.2764L79.9874 67.6194C78.3764 63.8221 76.0078 60.3853 73.0194 57.5335L72.3106 56.8526C73.0194 51.7175 79.0047 36.8087 79.2062 35.6391C79.4076 34.4292 79.1578 33.7004 77.0715 32.5226L76.9103 32.4507L76.8781 32.4345L76.8458 32.4264L76.8055 32.4105L76.7814 32.4025L76.7491 32.3866L76.6684 32.3545L74.0343 31.2331L73.406 30.9687C73.1402 30.8485 72.8663 30.7604 72.5924 30.6804C71.5533 30.384 70.4658 30.3439 69.4105 30.5602C69.1851 30.6085 68.9353 30.6483 68.7177 30.7206C68.476 30.8087 68.2666 30.9849 68.0168 31.0811C67.2917 31.3454 66.5507 31.5297 65.8097 31.738C65.8016 31.738 65.8016 31.738 65.8016 31.738C65.3505 31.8582 64.8993 31.9864 64.4564 32.1465C63.9408 32.3227 63.4171 32.5151 63.0789 32.9556C62.7568 33.3563 62.6359 33.8849 62.7324 34.3815C62.7565 34.5017 62.7725 34.6138 62.7725 34.734C62.7725 35.0945 62.6517 35.4631 62.4341 35.7673C62.2973 35.9516 62.1683 36.144 62.0312 36.3361C61.9022 36.5204 61.7733 36.7047 61.6527 36.8887C61.6205 36.9367 61.5882 36.9769 61.556 37.0248C61.3547 37.3293 61.1452 37.6416 60.9439 37.9541C60.9279 37.9781 60.9117 38.0102 60.8954 38.0342C60.8794 38.0582 60.8632 38.0902 60.8472 38.1142C60.6459 38.4346 60.4443 38.763 60.2753 39.0834C60.2671 39.0993 60.259 39.1236 60.243 39.1395C60.1544 39.2836 60.0821 39.4358 60.0095 39.5719C59.9935 39.604 59.9853 39.628 59.9772 39.66C59.9209 39.7721 59.8645 39.8842 59.8241 39.9885C59.8082 40.0286 59.7919 40.0607 59.7759 40.0928C59.7437 40.165 59.7114 40.2369 59.6954 40.3172C59.6472 40.4455 59.615 40.5575 59.5987 40.6618C59.5825 40.7658 59.5906 40.9262 59.6228 41.1344C59.6792 41.5109 59.8082 42.0398 59.9935 42.6805L60.1707 43.2574C60.211 43.3776 60.2514 43.5058 60.2836 43.6338C60.2836 43.6419 60.2836 43.6419 60.2915 43.6497C61.6045 47.8315 64.3596 54.9374 64.6254 56.8521C64.6094 56.8761 64.2629 57.3729 63.7958 58.0457C62.1203 60.457 60.6703 63.0125 59.47 65.6883L58.4551 67.9479Z" fill="#F4EFEC"/>
<path d="M65.1977 38.2586C65.8826 38.7552 66.8087 38.7633 67.6627 38.7312C68.5245 38.6992 69.4027 38.635 70.2323 38.3869C72.2139 37.8022 74.1232 36.1117 75.541 34.2851C76.0244 33.6602 76.4514 33.0273 76.8058 32.4105L76.7817 32.4025L76.7494 32.3866L76.6687 32.3545L74.0346 31.2331L73.4063 30.9687C73.1405 30.8485 72.8666 30.7604 72.5927 30.6804C71.5536 30.384 70.4661 30.3439 69.4108 30.5602C69.1854 30.6085 68.9356 30.6483 68.718 30.7206C68.4763 30.8087 68.2669 30.9849 68.0171 31.0811C67.292 31.3454 66.5429 31.5297 65.8019 31.738C65.2622 32.563 64.8352 33.4525 64.5371 34.3896C64.1104 35.7191 64.0538 37.4333 65.1977 38.2586Z" fill="#FFB791"/>
<path d="M68.7437 36.1863C70.4478 36.0833 72.1951 35.68 73.6845 34.8253C74.2944 34.4752 74.9311 34.0041 75.3259 33.4129C75.8019 32.6999 75.1746 32.5701 74.6202 32.1786C73.6284 31.4781 72.6512 30.4995 72.5062 29.2389C72.4053 28.3622 72.4171 27.5812 72.4782 26.9285C72.6048 25.5531 72.9539 24.7325 72.9539 24.7325L70.1408 24.3037L69.2032 25.7818C69.2032 25.7818 70.2111 27.2575 70.0425 28.5794C70.0168 28.7798 69.9699 29.0014 69.8973 29.2321C69.6701 29.9386 69.0627 30.9338 68.0994 31.6822C67.8071 31.9093 67.5031 32.1259 67.1741 32.2977C66.917 32.4322 66.3938 32.4883 66.1961 32.6707C65.6819 33.146 65.6153 34.7351 65.9804 35.2963C66.5005 36.0966 67.9117 36.2366 68.7437 36.1863Z" fill="#FFB791"/>
<path d="M68.5642 42.3042C68.7495 38.9956 74.7912 31.5532 74.7912 31.5532L76.668 32.3543L76.7487 32.3864L76.781 32.4023L76.8051 32.4103L76.8455 32.4262L76.8777 32.4343L76.9099 32.4505L77.0711 32.5224C79.1576 33.7002 79.4074 34.429 79.2059 35.6389C79.1333 36.0473 78.36 38.1302 77.3529 40.878L73.446 56.9163C83.7408 65.9368 81.9768 75.4462 81.9768 75.4462C78.247 78.8509 69.9983 76.9602 69.9983 76.9602C69.9983 76.9602 69.8856 74.7491 69.7163 71.4405C69.2651 62.292 68.4353 44.7316 68.5642 42.3042Z" fill="#D93502"/>
<path d="M55.5791 73.0028C56.1752 75.438 60.6299 75.7826 60.6299 75.7826L62.2008 70.0628L65.7534 57.1568C65.7534 57.1568 62.5796 43.8664 62.3057 41.399C62.0561 39.0837 67.4129 31.8337 68.0171 31.0806C68.0171 31.0806 65.9468 31.7695 65.81 31.7375C65.8019 31.7375 65.8019 31.7375 65.8019 31.7375C65.3508 31.8576 64.8996 31.9859 64.4567 32.146C63.9411 32.3222 63.4173 32.5146 63.0792 32.9551C62.7571 33.3558 62.6362 33.8844 62.7327 34.381C62.7568 34.5012 62.7728 34.6133 62.7728 34.7335C62.7728 35.094 62.6519 35.4626 62.4344 35.7668C62.2976 35.9511 62.1686 36.1435 62.0315 36.3356C61.9025 36.5199 61.7736 36.7042 61.653 36.8882C61.6208 36.9362 61.5885 36.9763 61.5563 37.0243C61.355 37.3288 61.1455 37.6411 60.9442 37.9536C60.9282 37.9776 60.912 38.0097 60.8957 38.0337C60.8797 38.0576 60.8635 38.0897 60.8475 38.1137C60.6462 38.4341 60.4609 38.7625 60.2755 39.0829C60.2674 39.0988 60.2593 39.123 60.2433 39.1389C60.1547 39.2831 60.0824 39.4353 60.0098 39.5714C59.9938 39.6035 59.9856 39.6275 59.9775 39.6595C59.9212 39.7716 59.8648 39.8837 59.8244 39.988C59.8084 40.0281 59.7922 40.0602 59.7762 40.0922C59.744 40.1645 59.7117 40.2364 59.6957 40.3167C59.6475 40.4449 59.6153 40.557 59.599 40.6613C59.5828 40.7653 59.5909 40.9256 59.6231 41.1339C59.6795 41.5103 59.8084 42.0393 59.9938 42.68L60.171 43.2569C60.2113 43.3771 60.2517 43.5053 60.2839 43.6333C60.2839 43.6414 60.2839 43.6414 60.2918 43.6492C60.3966 44.0097 60.5012 44.3783 60.6139 44.7308C60.9683 45.9406 61.3308 47.1421 61.6934 48.3519C62.1122 49.7619 62.5311 51.1797 62.9581 52.5897C63.2884 53.7114 63.6187 54.8248 63.9489 55.9384C64.0538 56.275 64.1502 56.6193 64.2551 56.9559C59.6955 62.0594 55.5791 73.0028 55.5791 73.0028Z" fill="#D93502"/>
<path d="M67.6218 32.0259C67.6218 32.0259 67.5977 32.0499 67.5654 32.0981L67.6218 32.1062V32.0259Z" fill="#D93502"/>
<path d="M63.8306 2.33067C63.8306 2.33067 59.7538 4.26778 59.3135 7.73586C58.8731 11.2039 62.4765 14.7197 63.5043 16.2165L65.7006 8.02782C65.7006 8.02782 70.2566 1.05048 63.8306 2.33067Z" fill="#27274D"/>
<path d="M70.0356 28.5776C70.0099 28.7781 69.963 28.9997 69.8904 29.2304C70.8516 28.8386 71.7774 27.8433 72.4712 26.927C72.5978 25.5517 72.947 24.7311 72.947 24.7311L70.1339 24.3022L69.1963 25.7803C69.1963 25.7803 70.2044 27.256 70.0356 28.5776Z" fill="#DB776E"/>
<path d="M60.7073 18.3685C61.7141 15.4205 61.4038 16.2726 61.4871 11.0424C61.5603 6.46588 64.7891 4.51392 65.5951 4.09735C65.7456 4.01967 65.8937 3.93625 66.0399 3.85101C67.9807 2.71966 69.9526 2.33933 71.5639 2.27129C73.998 2.16858 76.4181 2.85417 78.4166 4.2402C83.8477 8.00676 82.2792 14.1997 82.2792 14.1997C82.2792 14.1997 80.7712 26.9459 70.1731 27.7537C59.7155 28.5509 59.7005 21.3165 60.7073 18.3685Z" fill="#FFB791"/>
<path d="M64.2222 14.2372C64.2222 14.2372 62.3139 12.8249 61.2969 14.5649C61.2969 14.5649 62.105 11.8796 64.2222 14.2372Z" fill="#323245"/>
<path d="M70.373 14.2139C70.373 14.2139 73.5127 13.046 74.9864 14.9085C74.9864 14.9085 73.9198 12.1302 70.373 14.2139Z" fill="#323245"/>
<path d="M69.6962 27.1788C80.294 26.3709 81.8023 13.6247 81.8023 13.6247C81.8023 13.6247 82.8859 9.33238 80.1153 5.72119C83.4856 9.43405 82.2796 14.1998 82.2796 14.1998C82.2796 14.1998 80.7716 26.946 70.1735 27.7538C65.3942 28.118 62.7968 26.8047 61.4805 24.9901C62.9122 26.4966 65.4388 27.5033 69.6962 27.1788Z" fill="#DB776E"/>
<path d="M67.4892 16.3188C67.4892 16.3188 62.2735 19.0083 63.7118 20.2488C65.1501 21.4894 67.3503 21.0431 67.4177 20.3234C67.485 19.6039 67.4892 16.3188 67.4892 16.3188Z" fill="url(#paint0_linear_736_6293)"/>
<path d="M64.4715 23.1818C64.4715 23.1818 63.3637 22.3092 64.5727 22.2018C65.7816 22.0944 67.5829 23.266 68.7774 22.7041C68.7774 22.7041 67.6922 24.424 65.7312 24.3434C63.7703 24.2629 64.4715 23.1818 64.4715 23.1818Z" fill="#D93502"/>
<path d="M82.935 6.05633C81.1735 3.26081 78.2795 1.56509 75.0611 0.958227C73.5814 0.6793 72.0632 0.616216 70.5618 0.708757C69.9678 0.745513 69.4627 0.800776 69.0323 0.895924C68.9031 0.893839 68.7744 0.884716 68.6446 0.887583C66.9961 0.926424 65.2095 1.11359 63.6646 1.85731C62.2903 2.51891 61.1333 3.52488 59.9715 4.46645C58.8995 5.33529 58.5068 6.98696 59.1278 8.2244C59.6538 9.27259 60.7477 9.93811 61.8761 10.2746C63.0045 10.6112 64.1941 10.6714 65.3605 10.8346C65.6483 10.875 65.9382 10.9224 66.215 11.0077C66.3204 11.0403 66.4239 11.0783 66.5248 11.1234C67.106 11.3838 67.5579 11.8627 68.1033 12.1906C68.7379 12.572 69.4999 12.7391 70.2368 12.6586C70.6289 12.6158 71.0121 12.5053 71.4058 12.4766C71.7993 12.4479 72.2236 12.5136 72.5175 12.7753C72.7191 12.5585 72.6609 12.1906 72.4648 11.9688C72.2685 11.747 71.9744 11.6401 71.6887 11.5603C71.4661 11.4983 71.236 11.4454 71.0415 11.321C70.847 11.1967 70.6921 10.9813 70.7136 10.7525C70.74 10.4725 71.0239 10.2728 71.3049 10.2421C71.5859 10.2113 71.8632 10.3083 72.1293 10.4039C72.6795 10.6015 73.2294 10.7991 73.7793 10.9967C73.9599 11.0616 74.1398 11.1286 74.3188 11.198C75.1361 11.8637 75.7985 12.675 75.8986 13.6679C76.0776 15.4429 74.0425 16.8112 74.388 18.5205C74.6176 19.6562 76.3033 20.2709 76.1177 21.4148C75.9539 22.4244 74.3972 22.8026 74.3508 23.8242C74.3185 24.5322 75.3757 25.4329 75.9227 25.8176C75.7031 25.2249 75.8886 24.5067 76.4386 24.1571C77.0582 23.7632 78.0053 23.8553 78.388 23.2309C78.8648 22.4536 77.9911 21.2571 78.626 20.6012C78.8173 20.4033 79.1046 20.3202 79.2981 20.1244C79.6771 19.7407 79.5599 19.1182 79.5678 18.5804C79.573 18.2204 79.7507 17.7215 79.9895 17.3179C80.1245 17.3252 80.2493 17.3935 80.34 17.6227C80.4566 17.9175 80.3738 18.2478 80.3119 18.5585C80.1911 19.1638 80.1544 19.7858 80.2032 20.401C80.2081 20.4636 80.2147 20.5287 80.2485 20.5816C80.3521 20.7443 80.5916 20.6744 80.7615 20.567C80.7348 20.8327 80.7261 21.1004 80.7683 21.3723C80.8228 21.7226 81.0734 22.0962 81.0925 22.4369C81.096 22.4982 80.9033 23.4233 80.9038 23.423C81.7216 22.9325 82.1717 22.0766 82.5966 21.2615C85.0613 16.5369 85.9051 10.7699 82.935 6.05633Z" fill="#27274D"/>
<path d="M81.0925 22.4465C80.6859 22.753 80.2726 22.9133 79.9221 22.8508C79.2844 22.7392 78.822 22.5302 78.5067 22.2306C78.4225 21.6313 78.2264 21.0112 78.6257 20.5998C78.8149 20.4048 79.1022 20.3212 79.2983 20.1259C79.6768 19.7427 79.5575 19.1155 79.5646 18.5788C79.5717 18.1677 79.8029 17.5613 80.0972 17.1432C80.3774 16.9899 80.6859 16.8713 81.0361 16.8155C81.3795 16.7527 81.7578 16.7527 82.1785 16.8294C84.5892 17.2683 82.8304 21.1501 81.0925 22.4465Z" fill="#DB776E"/>
<path d="M78.5451 3.46644C78.9905 3.71982 79.4062 4.02507 79.7745 4.38038C80.2917 4.87958 80.7847 5.41058 81.1669 6.01797C81.6484 6.78306 81.9412 7.64773 82.23 8.50328C82.1142 8.16023 81.8177 7.91832 81.6156 7.63079C81.4091 7.33753 81.1126 7.1123 80.8224 6.89802C80.1721 6.41785 79.4544 6.03804 78.7409 5.6611C79.3373 6.21999 79.775 6.93165 80.0786 7.6884C80.2243 8.05179 80.3417 8.44072 80.2977 8.82939C80.2536 9.21807 80.0138 9.60648 79.6387 9.72483C79.228 9.85412 78.7391 9.63489 78.3415 9.52958C77.9003 9.41279 77.4644 9.27698 77.0366 9.11849C76.6099 8.96051 76.1913 8.78039 75.7853 8.57575C75.5887 8.47669 75.3949 8.37164 75.2046 8.26059C75.0773 8.1863 74.7103 8.0398 74.6448 7.90946C75.0382 8.69071 75.5436 9.41618 76.141 10.0569C75.2626 10.2037 74.2296 9.74307 73.4529 9.35649C72.667 8.96521 71.9695 8.41961 71.3077 7.84429C70.8631 7.4577 70.4254 7.04374 70.1079 6.54402C69.8301 6.10686 69.4642 5.36992 69.7142 4.86003C69.8526 4.57771 70.152 4.39915 70.461 4.33476C70.7701 4.27037 71.0909 4.30583 71.4026 4.35588C72.494 4.53131 73.568 4.88584 74.6731 4.85821C74.7242 4.8569 74.7784 4.85377 74.8196 4.8238C74.8812 4.77896 74.8909 4.69111 74.8833 4.61551C74.8332 4.10719 74.2838 3.69662 74.3837 3.19559C74.4332 2.9469 74.6432 2.75296 74.8794 2.65677C75.1153 2.56058 75.3763 2.54702 75.6311 2.54363C76.0141 2.53842 76.2911 2.65025 76.655 2.73315C77.0463 2.82256 77.4301 2.9456 77.8004 3.1007C78.0555 3.20758 78.3045 3.32958 78.5451 3.46644Z" fill="#2F2F70"/>
<path d="M60.1228 24.0664C61.0693 24.5275 62.0874 25.7272 62.982 26.4073C64.0871 27.2475 65.145 28.1864 65.8842 29.3582C66.6234 30.5302 67.0192 31.9676 66.7178 33.3182C66.382 34.8226 65.2208 36.1411 65.2968 37.6801C65.3484 38.7267 65.9801 39.7025 65.9141 40.7483C65.8265 42.1338 64.5851 43.1278 63.4512 43.9375C63.5288 41.9646 62.1317 40.2687 61.5196 38.3905C61.307 37.738 61.1886 37.0571 60.9595 36.4098C60.5804 35.339 59.8677 34.3093 59.7291 33.1652C59.6169 32.2395 59.6302 31.33 59.5243 30.3853C59.3107 28.4847 59.3249 25.8328 60.1228 24.0664Z" fill="#27274D"/>
<path d="M61.2969 15.8413H62.6313C62.9847 15.8413 63.2712 16.434 63.2712 17.1648C63.2712 17.8959 62.9847 18.4886 62.6313 18.4886C62.2777 18.4886 61.9912 17.8959 61.9912 17.1648C61.9912 16.815 62.0573 16.4978 62.1645 16.2612L61.2969 15.8413Z" fill="#323245"/>
<path d="M70.4248 16.0923H71.7593C72.1126 16.0923 72.3991 16.685 72.3991 17.4158C72.3991 18.1469 72.1126 18.7395 71.7593 18.7395C71.4057 18.7395 71.1192 18.1469 71.1192 17.4158C71.1192 17.066 71.1852 16.7488 71.2924 16.5122L70.4248 16.0923Z" fill="#323245"/>
<path d="M60.2559 19.4967C60.2559 19.8217 60.9775 20.0852 61.8674 20.0852C62.7576 20.0852 63.4789 19.8217 63.4789 19.4967C63.4789 19.1717 62.7573 18.9082 61.8674 18.9082C60.9775 18.9082 60.2559 19.1717 60.2559 19.4967Z" fill="#D93502"/>
<path d="M71.832 19.7238C71.832 20.0488 72.5536 20.3123 73.4436 20.3123C74.3337 20.3123 75.0551 20.0488 75.0551 19.7238C75.0551 19.3988 74.3335 19.1353 73.4436 19.1353C72.5536 19.1353 71.832 19.3988 71.832 19.7238Z" fill="#D93502"/>
<path d="M60.9049 28.1694C61.6734 27.4244 61.2493 26.1265 60.1872 25.9732L52.2478 24.826C51.826 24.765 51.4614 24.5017 51.273 24.1216L47.7223 16.9667C47.2473 16.0098 45.8751 16.0098 45.4001 16.9667L41.8494 24.1216C41.6609 24.5017 41.2963 24.765 40.8746 24.826L32.9352 25.9732C31.8733 26.1267 31.4492 27.4247 32.2175 28.1694L37.9627 33.7386C38.2678 34.0345 38.407 34.4607 38.3351 34.8783L36.9789 42.7422C36.7975 43.794 37.9076 44.5961 38.8575 44.0995L45.959 40.3867C46.3362 40.1894 46.7867 40.1894 47.1639 40.3867L54.2653 44.0995C55.2153 44.5961 56.3254 43.794 56.144 42.7422L54.7878 34.8783C54.7157 34.4607 54.8551 34.0345 55.1602 33.7386L60.9049 28.1694Z" fill="#FFBE4C"/>
<path d="M37.9372 37.1858C38.3539 37.208 38.7739 37.2231 39.1988 37.2231C48.2559 37.2231 55.5982 32.0781 55.5982 25.7316C55.5982 25.5895 55.5903 25.4487 55.583 25.308L52.248 24.826C51.8262 24.765 51.4616 24.5017 51.2732 24.1216L47.7224 16.9667C47.2475 16.0098 45.8753 16.0098 45.4003 16.9667L41.8496 24.1216C41.6611 24.5017 41.2965 24.765 40.8748 24.826L32.9351 25.9732C31.8732 26.1267 31.4491 27.4247 32.2177 28.1694L37.9629 33.7386C38.268 34.0345 38.4071 34.4607 38.3353 34.8783L37.9372 37.1858Z" fill="#FFAC0E"/>
<path d="M106.394 51.502H19.1703C17.4125 51.502 15.9873 52.9193 15.9873 54.6674V102.503C15.9873 104.251 17.4125 105.669 19.1703 105.669H106.394C108.152 105.669 109.577 104.251 109.577 102.503V54.6674C109.577 52.919 108.152 51.502 106.394 51.502Z" fill="#A1B5DD"/>
<path d="M106.394 51.502H19.1703C17.4125 51.502 15.9873 52.9193 15.9873 54.6674V59.8739H109.577V54.6674C109.577 52.919 108.152 51.502 106.394 51.502Z" fill="#353576"/>
<path d="M21.4046 57.1575C22.423 57.1575 23.2486 56.3364 23.2486 55.3236C23.2486 54.3108 22.423 53.4897 21.4046 53.4897C20.3861 53.4897 19.5605 54.3108 19.5605 55.3236C19.5605 56.3364 20.3861 57.1575 21.4046 57.1575Z" fill="white"/>
<path d="M28.5003 57.1575C29.5187 57.1575 30.3443 56.3364 30.3443 55.3236C30.3443 54.3108 29.5187 53.4897 28.5003 53.4897C27.4818 53.4897 26.6562 54.3108 26.6562 55.3236C26.6562 56.3364 27.4818 57.1575 28.5003 57.1575Z" fill="white"/>
<path d="M35.596 57.1575C36.6144 57.1575 37.44 56.3364 37.44 55.3236C37.44 54.3108 36.6144 53.4897 35.596 53.4897C34.5776 53.4897 33.752 54.3108 33.752 55.3236C33.752 56.3364 34.5776 57.1575 35.596 57.1575Z" fill="white"/>
<path d="M102.12 67.481H26.4037C25.3468 67.481 24.4902 68.3329 24.4902 69.3839V98.1423C24.4902 99.1934 25.3468 100.045 26.4037 100.045H102.12C103.177 100.045 104.034 99.1931 104.034 98.1423V69.3839C104.034 68.3329 103.177 67.481 102.12 67.481Z" fill="#788ACF"/>
<path d="M99.7922 65.166H24.0756C23.0187 65.166 22.1621 66.0182 22.1621 67.069V95.8274C22.1621 96.8784 23.0187 97.7303 24.0756 97.7303H99.7922C100.849 97.7303 101.706 96.8784 101.706 95.8274V67.069C101.706 66.0179 100.849 65.166 99.7922 65.166Z" fill="#FEFFFF"/>
<path d="M67.6675 88.756C67.9747 88.4583 67.8051 87.9393 67.3807 87.878L64.2069 87.4195C64.0384 87.3952 63.8927 87.2899 63.8172 87.1379L62.3978 84.278C62.208 83.8956 61.6594 83.8956 61.4696 84.278L60.0502 87.1379C59.9747 87.2899 59.8292 87.3952 59.6604 87.4195L56.4867 87.878C56.062 87.9393 55.8927 88.458 56.1999 88.756L58.4963 90.9822C58.6182 91.1005 58.6741 91.2707 58.6452 91.4378L58.1032 94.5814C58.0306 95.0019 58.4743 95.3225 58.8541 95.1239L61.6927 93.6398C61.8434 93.5611 62.0235 93.5611 62.1744 93.6398L65.013 95.1239C65.3925 95.3225 65.8366 95.0016 65.7639 94.5814L65.2219 91.4378C65.193 91.2707 65.2489 91.1005 65.3708 90.9822L67.6675 88.756Z" fill="#FFBE4C"/>
<path d="M58.4864 92.3599C58.6531 92.3688 58.8209 92.3748 58.9907 92.3748C62.6111 92.3748 65.5461 90.3183 65.5461 87.7811C65.5461 87.7242 65.543 87.6679 65.5401 87.6116L64.2069 87.419C64.0384 87.3947 63.8927 87.2894 63.8172 87.1374L62.3978 84.2775C62.208 83.8951 61.6594 83.8951 61.4696 84.2775L60.0502 87.1374C59.975 87.2894 59.8292 87.3947 59.6604 87.419L56.4867 87.8775C56.062 87.9388 55.8927 88.4575 56.1999 88.7555L58.4963 90.9817C58.6182 91.1 58.6741 91.2703 58.6452 91.4373L58.4864 92.3599Z" fill="#FFAC0E"/>
<path d="M55.238 89.8416C55.4933 89.5942 55.3523 89.163 54.9997 89.1119L52.3622 88.7308C52.2223 88.7105 52.1012 88.6232 52.0385 88.4967L50.859 86.1199C50.7012 85.8018 50.2453 85.8018 50.0875 86.1199L48.908 88.4967C48.8453 88.6229 48.7242 88.7105 48.5843 88.7308L45.9468 89.1119C45.594 89.163 45.4532 89.5939 45.7085 89.8416L47.617 91.6916C47.7185 91.7899 47.7646 91.9315 47.7408 92.0701L47.2902 94.6824C47.2299 95.0317 47.5987 95.2981 47.9143 95.1334L50.2734 93.9001C50.3987 93.8347 50.5484 93.8347 50.6737 93.9001L53.0328 95.1334C53.3483 95.2984 53.7172 95.032 53.6569 94.6824L53.2063 92.0701C53.1824 91.9315 53.2286 91.7899 53.33 91.6916L55.238 89.8416Z" fill="#FFBE4C"/>
<path d="M47.6091 92.8368C47.7475 92.8441 47.887 92.849 48.0282 92.849C51.0369 92.849 53.4759 91.14 53.4759 89.0317C53.4759 88.9845 53.4733 88.9378 53.4709 88.8909L52.3632 88.7308C52.2232 88.7105 52.1021 88.6232 52.0395 88.4967L50.8599 86.1199C50.7021 85.8018 50.2463 85.8018 50.0885 86.1199L48.909 88.4967C48.8463 88.6229 48.7252 88.7105 48.5853 88.7308L45.9478 89.1119C45.595 89.163 45.4542 89.5939 45.7095 89.8416L47.618 91.6916C47.7195 91.7899 47.7656 91.9315 47.7417 92.0701L47.6091 92.8368Z" fill="#FFAC0E"/>
<path d="M43.777 89.8416C44.0324 89.5942 43.8913 89.163 43.5388 89.1119L40.9013 88.7308C40.7613 88.7105 40.6402 88.6232 40.5776 88.4967L39.398 86.1199C39.2402 85.8018 38.7844 85.8018 38.6266 86.1199L37.4471 88.4967C37.3844 88.6229 37.2633 88.7105 37.1233 88.7308L34.4859 89.1119C34.133 89.163 33.9923 89.5939 34.2476 89.8416L36.1561 91.6916C36.2576 91.7899 36.3037 91.9315 36.2798 92.0701L35.8292 94.6824C35.769 95.0317 36.1378 95.2981 36.4534 95.1334L38.8125 93.9001C38.9377 93.8347 39.0874 93.8347 39.2127 93.9001L41.5718 95.1334C41.8874 95.2984 42.2562 95.032 42.1959 94.6824L41.7453 92.0701C41.7215 91.9315 41.7676 91.7899 41.8691 91.6916L43.777 89.8416Z" fill="#FFBE4C"/>
<path d="M36.1482 92.8368C36.2866 92.8441 36.426 92.849 36.5673 92.849C39.5759 92.849 42.015 91.14 42.015 89.0317C42.015 88.9845 42.0124 88.9378 42.01 88.8909L40.9023 88.7308C40.7623 88.7105 40.6412 88.6232 40.5786 88.4967L39.399 86.1199C39.2412 85.8018 38.7854 85.8018 38.6276 86.1199L37.448 88.4967C37.3854 88.6229 37.2643 88.7105 37.1243 88.7308L34.4868 89.1119C34.134 89.163 33.9933 89.5939 34.2486 89.8416L36.1571 91.6916C36.2585 91.7899 36.3047 91.9315 36.2808 92.0701L36.1482 92.8368Z" fill="#FFAC0E"/>
<path d="M78.1589 89.8416C78.4142 89.5942 78.2732 89.163 77.9206 89.1119L75.2831 88.7308C75.1432 88.7105 75.0221 88.6232 74.9594 88.4967L73.7799 86.1199C73.6221 85.8018 73.1662 85.8018 73.0084 86.1199L71.8289 88.4967C71.7662 88.6229 71.6451 88.7105 71.5052 88.7308L68.8677 89.1119C68.5149 89.163 68.3741 89.5939 68.6294 89.8416L70.5379 91.6916C70.6394 91.7899 70.6855 91.9315 70.6617 92.0701L70.2111 94.6824C70.1508 95.0317 70.5196 95.2981 70.8352 95.1334L73.1943 93.9001C73.3196 93.8347 73.4693 93.8347 73.5945 93.9001L75.9536 95.1334C76.2692 95.2984 76.6381 95.032 76.5778 94.6824L76.1272 92.0701C76.1033 91.9315 76.1495 91.7899 76.2509 91.6916L78.1589 89.8416Z" fill="#FFBE4C"/>
<path d="M70.5293 92.8368C70.6677 92.8441 70.8071 92.849 70.9484 92.849C73.9571 92.849 76.3961 91.14 76.3961 89.0317C76.3961 88.9845 76.3935 88.9378 76.3911 88.8909L75.2834 88.7308C75.1434 88.7105 75.0223 88.6232 74.9594 88.4967L73.7799 86.1199C73.6221 85.8018 73.1662 85.8018 73.0084 86.1199L71.8289 88.4967C71.7662 88.6229 71.6451 88.7105 71.5052 88.7308L68.8677 89.1119C68.5149 89.163 68.3741 89.5939 68.6294 89.8416L70.5379 91.6916C70.6394 91.7899 70.6855 91.9315 70.6617 92.0701L70.5293 92.8368Z" fill="#FFAC0E"/>
<path d="M89.7868 89.8416C90.0421 89.5942 89.9011 89.163 89.5485 89.1119L86.9111 88.7308C86.7711 88.7105 86.65 88.6232 86.5874 88.4967L85.4078 86.1199C85.25 85.8018 84.7942 85.8018 84.6364 86.1199L83.4568 88.4967C83.3942 88.6229 83.2731 88.7105 83.1331 88.7308L80.4956 89.1119C80.1428 89.163 80.0021 89.5939 80.2574 89.8416L82.1659 91.6916C82.2673 91.7899 82.3135 91.9315 82.2896 92.0701L81.839 94.6824C81.7787 95.0317 82.1475 95.2981 82.4631 95.1334L84.8222 93.9001C84.9475 93.8347 85.0972 93.8347 85.2225 93.9001L87.5816 95.1334C87.8972 95.2984 88.266 95.032 88.2057 94.6824L87.7551 92.0701C87.7313 91.9315 87.7774 91.7899 87.8788 91.6916L89.7868 89.8416Z" fill="#A4C5CF"/>
<path d="M82.157 92.8368C82.2954 92.8441 82.4348 92.849 82.5761 92.849C85.5847 92.849 88.0238 91.14 88.0238 89.0317C88.0238 88.9845 88.0212 88.9378 88.0188 88.8909L86.9111 88.7308C86.7711 88.7105 86.65 88.6232 86.5873 88.4967L85.4078 86.1199C85.25 85.8018 84.7942 85.8018 84.6364 86.1199L83.4568 88.4967C83.3942 88.6229 83.2731 88.7105 83.1331 88.7308L80.4956 89.1119C80.1428 89.163 80.0021 89.5939 80.2574 89.8416L82.1659 91.6916C82.2673 91.7899 82.3134 91.9315 82.2896 92.0701L82.157 92.8368Z" fill="#D5F0F0"/>
<path d="M39.8715 80.8872C42.8714 77.9038 42.8714 73.0669 39.8715 70.0835C36.8716 67.1001 32.0078 67.1001 29.0079 70.0835C26.0081 73.0669 26.0081 77.9039 29.0079 80.8872C32.0078 83.8706 36.8716 83.8706 39.8715 80.8872Z" fill="#C9BAF2"/>
<path d="M38.294 78.9067L35.6641 76.9582C36.9763 76.4655 37.9113 75.2085 37.9113 73.7312C37.9113 71.8249 36.3571 70.2793 34.4402 70.2793C32.5233 70.2793 30.9692 71.8249 30.9692 73.7312C30.9692 75.2087 31.9042 76.4657 33.2164 76.9582L30.5865 78.9067C30.2722 79.1395 30.0869 79.5066 30.0869 79.8963V81.7792C31.3244 82.6272 32.8235 83.125 34.44 83.125C36.0565 83.125 37.5556 82.6274 38.793 81.7792V79.8963C38.7936 79.5066 38.6082 79.1398 38.294 78.9067Z" fill="#8C7ED1"/>
<path d="M96.1093 72.3862H47.7084C47.1571 72.3862 46.71 72.8306 46.71 73.379C46.71 73.9271 47.1569 74.3717 47.7084 74.3717H96.109C96.6602 74.3717 97.1074 73.9274 97.1074 73.379C97.1074 72.8306 96.6605 72.3862 96.1093 72.3862Z" fill="#AB6BF3"/>
<path d="M96.1093 76.5996H47.7084C47.1571 76.5996 46.71 77.044 46.71 77.5924C46.71 78.1407 47.1569 78.5851 47.7084 78.5851H96.109C96.6602 78.5851 97.1074 78.1407 97.1074 77.5924C97.1074 77.044 96.6605 76.5996 96.1093 76.5996Z" fill="#AB6BF3"/>
<path d="M77.0144 39.2405C76.8333 39.2121 76.3665 39.07 75.671 38.8521C74.7945 38.5734 73.5667 38.1673 72.1177 37.6814C71.9756 37.6337 71.8173 37.6793 71.7243 37.7961L68.097 42.3483L64.8291 46.4415L60.859 51.4233C60.7138 51.6058 60.4339 51.6009 60.295 51.4134L50.462 38.1415C50.1668 37.7259 49.4386 37.0294 49.376 36.5135C49.3309 36.1418 49.8316 35.3785 50.0001 34.9573C50.1485 34.5863 50.3 34.2107 50.4953 33.8632C50.6746 33.5444 50.2843 33.1901 49.986 33.4031C49.9833 33.4049 49.9807 33.407 49.9778 33.4088C49.7123 33.602 49.5286 33.8838 49.3556 34.1622C49.1946 34.4213 49.0342 34.6877 48.8101 34.8939C48.7773 34.9242 48.7385 34.9507 48.6961 34.9651C48.2971 35.1019 47.9301 34.659 47.5619 34.5644C47.5131 34.5519 47.4664 34.5347 47.4261 34.505C46.8761 34.1004 46.2675 33.7751 45.6224 33.5486C45.355 33.4547 45.0727 33.3762 44.791 33.408C44.7516 33.4125 44.7105 33.4198 44.6796 33.4443C44.6169 33.4938 44.6222 33.5952 44.6685 33.6599C44.7149 33.7245 44.7902 33.7613 44.862 33.7959C45.5121 34.1111 46.1383 34.474 46.7351 34.8804C46.6657 34.9338 46.598 34.9883 46.5343 35.0438C45.9417 34.5795 45.2743 34.2091 44.5629 33.9594C44.2955 33.8655 44.0132 33.7871 43.7315 33.8189C43.6921 33.8233 43.6513 33.8306 43.6201 33.8551C43.5574 33.9046 43.5627 34.006 43.6091 34.0707C43.6554 34.1353 43.7307 34.1721 43.8025 34.2068C44.4581 34.5245 45.0895 34.8908 45.6908 35.3011C45.809 35.3816 45.9254 35.4653 46.0418 35.5493C46.036 35.5568 46.0305 35.5649 46.0248 35.5727C45.5681 35.2774 45.0767 35.0349 44.5629 34.8546C44.2955 34.7607 44.0132 34.6822 43.7315 34.714C43.6921 34.7185 43.6513 34.7258 43.6201 34.7503C43.5574 34.7998 43.5627 34.9012 43.6091 34.9659C43.6554 35.0305 43.7307 35.0673 43.8025 35.1019C44.4581 35.4197 45.0895 35.786 45.6908 36.1963C45.6937 36.1984 45.6963 36.2002 45.6992 36.2023C45.6898 36.2341 45.6824 36.2661 45.6754 36.2979C45.2051 36.2028 44.726 36.1533 44.246 36.1572C43.9624 36.1595 43.6701 36.1817 43.4161 36.3071C43.3807 36.3245 43.3446 36.3454 43.3239 36.379C43.2819 36.4468 43.3218 36.5404 43.3876 36.5855C43.4534 36.6306 43.5367 36.6394 43.6161 36.6478C44.2526 36.715 44.89 36.8037 45.4937 37.02C45.9328 37.1775 46.3747 37.3821 46.8245 37.4947C47.2337 37.5974 47.6581 37.6519 48.0394 37.8414C48.4195 38.0432 48.5189 38.4371 48.7084 38.8226C48.7147 38.8351 57.8661 56.1093 57.8661 56.1093C58.3521 57.1041 59.3618 57.7391 60.4672 57.7391C60.5338 57.7391 60.61 57.7391 60.6766 57.7297C61.372 57.6729 62.0294 57.3791 62.5248 56.8864L70.4608 49.9046C70.4724 49.8944 70.4831 49.8838 70.4933 49.872C71.1649 49.1101 71.8359 48.3296 72.4789 47.5585C72.7646 47.2269 73.0409 46.8857 73.3172 46.5541C75.534 43.8438 77.4325 41.3017 78.4427 39.8111C78.6207 39.5486 78.3895 39.2186 78.0755 39.2707C77.7623 39.3239 77.4144 39.3012 77.0144 39.2405Z" fill="#FFB791"/>
<path d="M64.8291 46.4412C65.8008 47.9477 67.6587 50.0133 70.4786 49.89C71.1552 49.1226 71.8314 48.3361 72.4794 47.5593L75.671 38.8518C74.7468 38.558 73.4322 38.1222 71.8791 37.6011L68.0967 42.348L64.8291 46.4412Z" fill="#DB776E"/>
<path d="M78.1257 33.2263C78.0505 33.1968 77.9726 33.1742 77.8927 33.159C77.1032 33.0099 76.0169 33.4646 75.2867 33.7998C74.5118 34.1554 73.7821 34.6053 73.088 35.0975C69.813 37.4206 67.179 40.6356 64.8227 43.8388C64.602 44.1396 65.7606 45.6378 65.9614 45.8958C66.651 46.7821 67.4951 47.8064 68.418 48.4573C68.9281 48.817 69.5098 49.0636 70.0977 49.2755C71.0848 49.6314 72.1147 49.8993 73.1643 49.9338C73.3118 49.9387 73.467 49.9371 73.5962 49.8662C73.7045 49.8068 73.7818 49.7054 73.8557 49.6069C74.7184 48.4544 75.7171 47.2652 76.3852 46.0009C77.1061 44.6368 77.7771 43.2468 78.3957 41.8339C79.0772 40.2782 79.706 38.6393 79.6502 36.9431C79.6321 36.3972 79.5433 35.856 79.4321 35.3214C79.3367 34.8615 79.2216 34.397 78.9813 33.9927C78.7826 33.6585 78.4851 33.3668 78.1257 33.2263Z" fill="#D93502"/>
<defs>
<linearGradient id="paint0_linear_736_6293" x1="63.2949" y1="18.699" x2="66.4026" y2="18.5934" gradientUnits="userSpaceOnUse">
<stop offset="0.0514" stop-color="#DB5C82"/>
<stop offset="1" stop-color="#DB5C82" stop-opacity="0"/>
</linearGradient>
</defs>
</svg>
