<svg width="20" height="21" viewBox="0 0 20 21" fill="none" xmlns="http://www.w3.org/2000/svg">
<path d="M15 5.5C15 2.7425 12.7575 0.5 10 0.5C7.2425 0.5 5 2.7425 5 5.5C5.00151 6.68118 5.42052 7.82381 6.18298 8.72595C6.94543 9.62809 8.00225 10.2317 9.16667 10.43V19.6667C9.16667 19.8877 9.25446 20.0996 9.41074 20.2559C9.56702 20.4122 9.77899 20.5 10 20.5C10.221 20.5 10.433 20.4122 10.5893 20.2559C10.7455 20.0996 10.8333 19.8877 10.8333 19.6667V10.43C11.9977 10.2317 13.0546 9.62809 13.817 8.72595C14.5795 7.82381 14.9985 6.68118 15 5.5ZM10 8.83333C8.16167 8.83333 6.66667 7.33833 6.66667 5.5C6.66667 3.66167 8.16167 2.16667 10 2.16667C11.8383 2.16667 13.3333 3.66167 13.3333 5.5C13.3333 7.33833 11.8383 8.83333 10 8.83333Z" fill="#D93502"/>

</svg>
