<svg width="33" height="32" viewBox="0 0 33 32" fill="none" xmlns="http://www.w3.org/2000/svg">
<rect x="5" y="4" width="24" height="24" rx="12" fill="white"/>
<path fill-rule="evenodd" clip-rule="evenodd" d="M20.25 9.16862C19.6631 9.16862 18.9705 9.3055 18.1723 9.57925C17.3741 9.85308 16.7989 9.99006 16.4467 9.99019C16.1728 9.99019 15.6192 9.86885 14.7858 9.62619C13.9524 9.38352 13.2422 9.26219 12.6553 9.26219C11.278 9.26219 10.1374 9.84139 9.23359 10.9998C8.32976 12.1576 7.87784 13.6561 7.87784 15.4953C7.88138 16.5133 8.03159 17.5254 8.32384 18.5006C8.64548 19.5661 9.09065 20.5903 9.65028 21.5524C10.245 22.5932 10.8437 23.3737 11.4463 23.8941C12.0488 24.4145 12.6552 24.6747 13.2657 24.6747C13.6726 24.6747 14.2028 24.5397 14.8563 24.2697C15.5097 23.9997 16.0829 23.8647 16.5759 23.8647C17.0689 23.8647 17.6734 23.9939 18.3895 24.2522C19.1055 24.5106 19.6669 24.6398 20.0739 24.6397C20.5904 24.6397 21.1069 24.444 21.6233 24.0526C22.1398 23.6612 22.6563 23.0704 23.1728 22.28C23.4997 21.7862 23.7957 21.2727 24.059 20.7423C24.2958 20.2659 24.4941 19.7713 24.6518 19.2632C23.9397 19.0521 23.3058 18.5474 22.7502 17.749C22.1981 16.9623 21.9066 16.0223 21.9168 15.0612C21.9191 14.4093 22.0654 13.7659 22.3453 13.1771C22.6309 12.5627 23.208 11.8878 24.0766 11.1524C23.521 10.4636 22.9341 9.96075 22.316 9.64375C21.6755 9.32166 20.9668 9.15868 20.25 9.16862H20.25ZM20.0505 4.63769C18.6497 4.9581 17.646 5.55283 17.0395 6.42187C16.4331 7.29046 16.122 8.31942 16.1064 9.50875C16.7168 9.47754 17.2059 9.37969 17.5737 9.21519C17.978 9.02514 18.344 8.76262 18.6536 8.44062C19.1356 7.97183 19.5153 7.40826 19.7688 6.78544C20.0036 6.19073 20.121 5.64302 20.121 5.14231C20.121 5.06406 20.117 4.98587 20.1092 4.90731C20.0985 4.81573 20.0788 4.72542 20.0505 4.63769ZM16.4992 0.539062C25.0527 0.539062 31.9867 7.47281 31.9867 16.0267C31.9867 24.5803 25.0527 31.5141 16.4992 31.5141C7.94572 31.5141 1.01172 24.5803 1.01172 16.0267C1.01172 7.47287 7.94572 0.539125 16.4992 0.539125V0.539062Z" fill="black"/>
</svg>
