<svg width="32" height="32" viewBox="0 0 32 32" fill="none" xmlns="http://www.w3.org/2000/svg">
<path d="M18.7008 11.3803C19.0948 10.9934 19.1005 10.3603 18.7136 9.96626C18.3266 9.5722 17.6933 9.56661 17.2993 9.95356L17.2955 9.95724L17.2859 9.96672L17.2503 10.002C17.2195 10.0326 17.175 10.0771 17.1186 10.1338C17.0059 10.2473 16.8458 10.4101 16.6541 10.6097C16.2714 11.0079 15.7585 11.5564 15.2433 12.1528C14.7317 12.7451 14.2004 13.4045 13.7915 14.0216C13.5873 14.3297 13.4001 14.6474 13.2608 14.9555C13.1294 15.2461 13.0001 15.6146 13.0001 16.0002C13.0001 16.3858 13.1294 16.7543 13.2608 17.0449C13.4001 17.353 13.5873 17.6707 13.7915 17.9789C14.2004 18.596 14.7317 19.2553 15.2433 19.8476C15.7585 20.444 16.2714 20.9926 16.654 21.3908C16.8458 21.5903 17.0059 21.7532 17.1186 21.8667C17.1749 21.9234 17.2195 21.9679 17.2503 21.9985L17.2859 22.0337L17.2955 22.0432L17.2994 22.0471C17.6935 22.434 18.3266 22.4283 18.7136 22.0342C19.1005 21.6402 19.0945 21.0068 18.7005 20.6199L18.6913 20.6108L18.66 20.5798C18.6322 20.5521 18.5908 20.5108 18.5378 20.4574C18.4317 20.3506 18.2793 20.1956 18.0961 20.005C17.7288 19.6227 17.2416 19.1015 16.7568 18.5402C16.2685 17.9749 15.7997 17.3887 15.4587 16.8741C15.2879 16.6163 15.1626 16.3966 15.0832 16.2209C15.0257 16.0938 15.0079 16.0236 15.0024 16.0002C15.0079 15.9768 15.0257 15.9066 15.0831 15.7795C15.1626 15.6038 15.2879 15.3841 15.4587 15.1264C15.7997 14.6117 16.2685 14.0256 16.7568 13.4602C17.2416 12.899 17.7288 12.3777 18.0961 11.9955C18.2793 11.8049 18.4317 11.6499 18.5378 11.543C18.5908 11.4896 18.6322 11.4483 18.66 11.4207L18.6913 11.3897L18.7008 11.3803Z" fill="#666D80"/>
<path fill-rule="evenodd" clip-rule="evenodd" d="M16.0001 1.66699C8.084 1.66699 1.66675 8.08424 1.66675 16.0003C1.66675 23.9164 8.084 30.3337 16.0001 30.3337C23.9162 30.3337 30.3334 23.9164 30.3334 16.0003C30.3334 8.08424 23.9162 1.66699 16.0001 1.66699ZM3.66675 16.0003C3.66675 9.18881 9.18857 3.66699 16.0001 3.66699C22.8116 3.66699 28.3334 9.18881 28.3334 16.0003C28.3334 22.8118 22.8116 28.3337 16.0001 28.3337C9.18857 28.3337 3.66675 22.8118 3.66675 16.0003Z" fill="#666D80"/>
</svg>
