<svg width="32" height="32" viewBox="0 0 32 32" fill="none" xmlns="http://www.w3.org/2000/svg">
<path d="M13.2999 20.6201C12.9059 21.0071 12.9002 21.6402 13.2871 22.0342C13.6741 22.4283 14.3074 22.4339 14.7015 22.0469L14.7052 22.0432L14.7148 22.0338L14.7504 21.9985C14.7812 21.9679 14.8258 21.9234 14.8821 21.8667C14.9948 21.7532 15.1549 21.5904 15.3467 21.3908C15.7293 20.9926 16.2422 20.4441 16.7574 19.8477C17.269 19.2554 17.8003 18.596 18.2092 17.9789C18.4134 17.6708 18.6006 17.3531 18.74 17.0449C18.8713 16.7544 19.0007 16.3859 19.0007 16.0003C19.0007 15.6147 18.8713 15.2462 18.74 14.9556C18.6006 14.6475 18.4134 14.3298 18.2092 14.0216C17.8003 13.4045 17.2691 12.7452 16.7574 12.1529C16.2422 11.5564 15.7294 11.0079 15.3467 10.6097C15.1549 10.4101 14.9948 10.2473 14.8822 10.1338C14.8258 10.0771 14.7813 10.0326 14.7505 10.002L14.7149 9.96674L14.7052 9.95726L14.7013 9.95341C14.3073 9.56645 13.6741 9.5722 13.2872 9.96626C12.9002 10.3603 12.9063 10.9937 13.3003 11.3806L13.3095 11.3897L13.3407 11.4207C13.3685 11.4483 13.4099 11.4896 13.463 11.543C13.569 11.6499 13.7214 11.8049 13.9047 11.9955C14.272 12.3777 14.7591 12.899 15.2439 13.4603C15.7323 14.0256 16.201 14.6118 16.5421 15.1264C16.7129 15.3842 16.8382 15.6039 16.9176 15.7796C16.975 15.9067 16.9929 15.9769 16.9983 16.0003C16.9929 16.0237 16.975 16.0939 16.9176 16.221C16.8382 16.3966 16.7129 16.6164 16.5421 16.8741C16.201 17.3888 15.7323 17.9749 15.2439 18.5403C14.7591 19.1015 14.272 19.6228 13.9046 20.005C13.7214 20.1956 13.569 20.3506 13.4629 20.4574C13.4099 20.5108 13.3685 20.5521 13.3407 20.5798L13.3094 20.6108L13.2999 20.6201Z" fill="#666D80"/>
<path fill-rule="evenodd" clip-rule="evenodd" d="M16.0007 30.3335C23.9167 30.3335 30.334 23.9162 30.334 16.0002C30.334 8.08408 23.9167 1.66683 16.0007 1.66683C8.08457 1.66683 1.66732 8.08408 1.66732 16.0002C1.66732 23.9162 8.08457 30.3335 16.0007 30.3335ZM28.334 16.0002C28.334 22.8117 22.8122 28.3335 16.0007 28.3335C9.18914 28.3335 3.66732 22.8117 3.66732 16.0002C3.66732 9.18865 9.18914 3.66683 16.0007 3.66683C22.8122 3.66683 28.334 9.18865 28.334 16.0002Z" fill="#666D80"/>
</svg>
