<svg width="28" height="20" viewBox="0 0 28 20" fill="none" xmlns="http://www.w3.org/2000/svg">
<g clip-path="url(#clip0_5147_5449)">
<path d="M8.1147 0.000152584C8.87537 0.000152584 9.63604 0.0785834 10.3605 0.235446C10.9763 0.392309 11.5558 0.666818 12.0992 1.05897C12.5701 1.45113 12.9685 1.96094 13.2221 2.54917C13.5119 3.29427 13.6567 4.07858 13.6205 4.8629C13.6567 5.72564 13.4394 6.58839 13.041 7.33348C12.6063 8.03937 11.9905 8.58839 11.3023 8.94133C12.2803 9.21584 13.1134 9.8825 13.6567 10.7452C14.2001 11.6864 14.4536 12.7845 14.4536 13.8825C14.4536 14.7845 14.3087 15.6472 13.9465 16.4315C13.6205 17.1374 13.1496 17.7256 12.6063 18.2354C12.0267 18.706 11.3385 19.059 10.6503 19.2551C9.92582 19.4904 9.16515 19.5688 8.40448 19.5688H0.000854492V-0.0390625H8.1147V0.000152584ZM7.60758 7.92172C8.18714 7.96094 8.80292 7.76486 9.27382 7.3727C9.74471 6.94133 9.99827 6.27466 9.92582 5.56878C9.92582 5.17662 9.85338 4.78447 9.70849 4.43153C9.5636 4.15702 9.38248 3.92172 9.12893 3.76486C8.87537 3.60799 8.58559 3.45113 8.29581 3.41192C7.96981 3.33348 7.6438 3.33349 7.3178 3.33349H3.768V7.92172H7.60758ZM7.82492 16.3139C8.18714 16.3139 8.54937 16.2747 8.87537 16.1962C9.20137 16.1178 9.49115 15.9609 9.78093 15.7649C10.0345 15.5688 10.2518 15.2943 10.3967 14.9805C10.5778 14.5884 10.6503 14.157 10.6141 13.7256C10.6865 12.9021 10.3967 12.1178 9.85338 11.5688C9.27382 11.0982 8.58559 10.9021 7.86114 10.9413H3.768V16.3531H7.82492V16.3139Z" fill="#115EFA"/>
<path d="M19.8144 16.235C20.4302 16.8232 21.2271 17.137 22.024 17.0978C22.676 17.0978 23.2918 16.9017 23.7989 16.5095C24.2336 16.1958 24.5234 15.7644 24.7045 15.2546H27.711C27.3849 16.7056 26.5881 17.9997 25.5014 18.9017C24.4509 19.686 23.1831 20.0389 21.8791 19.9997C20.9736 19.9997 20.068 19.8429 19.1987 19.4507C18.438 19.0978 17.7498 18.588 17.2064 17.9213C16.6631 17.2154 16.2284 16.4311 15.9386 15.5683C15.6126 14.588 15.4677 13.5683 15.504 12.5487C15.504 11.5291 15.6489 10.5487 15.9749 9.56835C16.8442 6.82325 19.2349 4.98012 21.9154 5.01933C22.8934 4.98012 23.8351 5.25462 24.7045 5.72521C25.4652 6.1958 26.1534 6.82325 26.6605 7.60757C27.1676 8.43109 27.5661 9.33306 27.7472 10.3134C27.9645 11.3331 28.037 12.4311 28.0007 13.4899H19.0176C18.9089 14.4703 19.1987 15.4507 19.8144 16.235ZM23.7265 8.74482C23.2194 8.1958 22.5311 7.92129 21.8067 7.96051C21.3358 7.96051 20.8649 8.03894 20.4665 8.27423C20.1404 8.47031 19.8507 8.74482 19.5971 9.05854C19.3798 9.37227 19.2349 9.686 19.1262 10.0782C19.0538 10.3919 18.9813 10.7056 18.9813 11.0193H24.5596C24.4872 10.1958 24.1974 9.41149 23.7265 8.74482Z" fill="#115EFA"/>
<path d="M25.2116 1.29492H18.2568V3.21649H25.2116V1.29492Z" fill="#115EFA"/>
</g>
<defs>
<clipPath id="clip0_5147_5449">
<rect width="28" height="20" fill="white"/>
</clipPath>
</defs>
</svg>
