<svg width="24" height="24" viewBox="0 0 24 24" fill="none" xmlns="http://www.w3.org/2000/svg">
<path opacity="0.4" d="M12 6.43945V9.76945" stroke="#D93502" stroke-width="1.5" stroke-miterlimit="10" stroke-linecap="round"/>
<path d="M12.02 2C8.33996 2 5.35996 4.98 5.35996 8.66V10.76C5.35996 11.44 5.07996 12.46 4.72996 13.04L3.45996 15.16C2.67996 16.47 3.21996 17.93 4.65996 18.41C9.43996 20 14.61 20 19.39 18.41C20.74 17.96 21.32 16.38 20.59 15.16L19.32 13.04C18.97 12.46 18.69 11.43 18.69 10.76V8.66C18.68 5 15.68 2 12.02 2Z" stroke="#D93502" stroke-width="1.5" stroke-miterlimit="10" stroke-linecap="round"/>
<path opacity="0.4" d="M15.33 18.8203C15.33 20.6503 13.83 22.1503 12 22.1503C11.09 22.1503 10.25 21.7703 9.64998 21.1703C9.04998 20.5703 8.66998 19.7303 8.66998 18.8203" stroke="#D93502" stroke-width="1.5" stroke-miterlimit="10"/>
</svg>
