<svg width="15" height="16" viewBox="0 0 15 16" fill="none" xmlns="http://www.w3.org/2000/svg">
<path fill-rule="evenodd" clip-rule="evenodd" d="M3.49996 0.833496C3.7761 0.833496 3.99996 1.05735 3.99996 1.3335V1.57743C4.75733 1.50014 5.68931 1.50015 6.82612 1.50016H8.1738C9.31061 1.50015 10.2426 1.50014 11 1.57743V1.3335C11 1.05735 11.2238 0.833496 11.5 0.833496C11.7761 0.833496 12 1.05735 12 1.3335V1.75669C12.5365 1.90875 12.989 2.15589 13.3656 2.56307C13.8842 3.12373 14.1147 3.83211 14.2251 4.71984C14.3333 5.5897 14.3333 6.70448 14.3333 8.12688V8.54012C14.3333 9.96251 14.3333 11.0773 14.2251 11.9472C14.1147 12.8349 13.8842 13.5433 13.3656 14.1039C12.8419 14.6701 12.1715 14.9269 11.3324 15.0488C10.5204 15.1669 9.48293 15.1668 8.1738 15.1668H6.82612C5.51699 15.1668 4.4795 15.1669 3.66748 15.0488C2.82847 14.9269 2.15806 14.6701 1.63432 14.1039C1.11572 13.5433 0.885192 12.8349 0.774792 11.9472C0.666613 11.0773 0.666619 9.96252 0.666626 8.54014V8.12685C0.666619 6.70447 0.666613 5.5897 0.774792 4.71984C0.885192 3.83211 1.11572 3.12373 1.63432 2.56307C2.01096 2.15589 2.46345 1.90875 2.99996 1.75669V1.3335C2.99996 1.05735 3.22382 0.833496 3.49996 0.833496ZM3.49996 3.16683C3.27141 3.16683 3.07867 3.01348 3.01903 2.80406C2.74749 2.9121 2.54131 3.0552 2.36842 3.24211C2.05359 3.58248 1.86698 4.04907 1.76837 4.8335H13.2316C13.1329 4.04907 12.9463 3.58248 12.6315 3.24211C12.4586 3.0552 12.2524 2.9121 11.9809 2.80406C11.9212 3.01348 11.7285 3.16683 11.5 3.16683C11.2238 3.16683 11 2.94297 11 2.66683V2.58322C10.2926 2.5012 9.37838 2.50016 8.13329 2.50016H6.86663C5.62154 2.50016 4.7073 2.5012 3.99996 2.58322V2.66683C3.99996 2.94297 3.7761 3.16683 3.49996 3.16683ZM13.3073 5.8335H1.69257C1.66699 6.47142 1.66663 7.23403 1.66663 8.16233V8.50467C1.66663 9.9702 1.66754 11.0228 1.76715 11.8237C1.86543 12.6141 2.05228 13.0831 2.36842 13.4249C2.67943 13.7611 3.09815 13.9556 3.81132 14.0592C4.54313 14.1656 5.50788 14.1668 6.86663 14.1668H8.13329C9.49204 14.1668 10.4568 14.1656 11.1886 14.0592C11.9018 13.9556 12.3205 13.7611 12.6315 13.4249C12.9476 13.0831 13.1345 12.6141 13.2328 11.8237C13.3324 11.0228 13.3333 9.9702 13.3333 8.50467V8.16233C13.3333 7.23403 13.3329 6.47142 13.3073 5.8335Z" fill="#D93502"/>
</svg>
