<svg width="17" height="16" viewBox="0 0 17 16" fill="none" xmlns="http://www.w3.org/2000/svg">
<path fill-rule="evenodd" clip-rule="evenodd" d="M4.49996 0.833496C4.7761 0.833496 4.99996 1.05735 4.99996 1.3335V1.57743C5.75733 1.50014 6.68931 1.50015 7.82612 1.50016H9.1738C10.3106 1.50015 11.2426 1.50014 12 1.57743V1.3335C12 1.05735 12.2238 0.833496 12.5 0.833496C12.7761 0.833496 13 1.05735 13 1.3335V1.75669C13.5365 1.90875 13.989 2.15589 14.3656 2.56307C14.8842 3.12373 15.1147 3.83211 15.2251 4.71984C15.3333 5.5897 15.3333 6.70448 15.3333 8.12688V8.54012C15.3333 9.96251 15.3333 11.0773 15.2251 11.9472C15.1147 12.8349 14.8842 13.5433 14.3656 14.1039C13.8419 14.6701 13.1715 14.9269 12.3324 15.0488C11.5204 15.1669 10.4829 15.1668 9.1738 15.1668H7.82612C6.51699 15.1668 5.4795 15.1669 4.66748 15.0488C3.82847 14.9269 3.15806 14.6701 2.63432 14.1039C2.11572 13.5433 1.88519 12.8349 1.77479 11.9472C1.66661 11.0773 1.66662 9.96252 1.66663 8.54014V8.12685C1.66662 6.70447 1.66661 5.5897 1.77479 4.71984C1.88519 3.83211 2.11572 3.12373 2.63432 2.56307C3.01096 2.15589 3.46345 1.90875 3.99996 1.75669V1.3335C3.99996 1.05735 4.22382 0.833496 4.49996 0.833496ZM4.49996 3.16683C4.27141 3.16683 4.07867 3.01348 4.01903 2.80406C3.74749 2.9121 3.54131 3.0552 3.36842 3.24211C3.05359 3.58248 2.86698 4.04907 2.76837 4.8335H14.2316C14.1329 4.04907 13.9463 3.58248 13.6315 3.24211C13.4586 3.0552 13.2524 2.9121 12.9809 2.80406C12.9212 3.01348 12.7285 3.16683 12.5 3.16683C12.2238 3.16683 12 2.94297 12 2.66683V2.58322C11.2926 2.5012 10.3784 2.50016 9.13329 2.50016H7.86663C6.62154 2.50016 5.7073 2.5012 4.99996 2.58322V2.66683C4.99996 2.94297 4.7761 3.16683 4.49996 3.16683ZM14.3073 5.8335H2.69257C2.66699 6.47142 2.66663 7.23403 2.66663 8.16233V8.50467C2.66663 9.9702 2.66754 11.0228 2.76715 11.8237C2.86543 12.6141 3.05228 13.0831 3.36842 13.4249C3.67943 13.7611 4.09815 13.9556 4.81132 14.0592C5.54313 14.1656 6.50788 14.1668 7.86663 14.1668H9.13329C10.492 14.1668 11.4568 14.1656 12.1886 14.0592C12.9018 13.9556 13.3205 13.7611 13.6315 13.4249C13.9476 13.0831 14.1345 12.6141 14.2328 11.8237C14.3324 11.0228 14.3333 9.9702 14.3333 8.50467V8.16233C14.3333 7.23403 14.3329 6.47142 14.3073 5.8335Z" fill="#D93502"/>
</svg>
