<svg width="16" height="17" viewBox="0 0 16 17" fill="none" xmlns="http://www.w3.org/2000/svg">
<path d="M5.6267 11.4861C5.81001 11.2796 6.12603 11.2608 6.33255 11.4441C6.67948 11.752 7.27925 11.9847 8.00064 11.9847C8.72202 11.9847 9.3218 11.752 9.66873 11.4441C9.87525 11.2608 10.1913 11.2796 10.3746 11.4861C10.5579 11.6927 10.5391 12.0087 10.3326 12.192C9.76735 12.6937 8.91499 12.9847 8.00064 12.9847C7.08629 12.9847 6.23392 12.6937 5.66873 12.192C5.4622 12.0087 5.44339 11.6927 5.6267 11.4861Z" fill="#F5758D"/>
<path fill-rule="evenodd" clip-rule="evenodd" d="M13.7998 2.97664C13.74 2.74839 13.6325 2.48974 13.4134 2.27655C12.9211 1.79742 12.24 1.64877 11.8488 1.66874L4.11138 1.68806C3.38921 1.65467 2.87229 1.92314 2.54883 2.32241C2.24398 2.69871 2.14394 3.14921 2.14394 3.45853C2.14394 3.62188 2.13434 3.80813 2.05269 4.06993C1.96881 4.33887 1.80287 4.70593 1.46681 5.21234C1.1096 5.75064 0.87731 6.19119 0.840453 6.63552C0.801726 7.10239 0.986239 7.48384 1.18722 7.85566C1.2733 8.01492 1.38102 8.15257 1.50064 8.27129L1.50064 10.8647C1.50062 11.7776 1.50061 12.5133 1.57831 13.0919C1.65896 13.6925 1.83149 14.1982 2.23265 14.5999C2.6339 15.0016 3.1392 15.1745 3.73939 15.2553C4.3174 15.3331 5.05231 15.333 5.964 15.333L10.0373 15.333C10.9489 15.333 11.6839 15.3331 12.2619 15.2553C12.862 15.1745 13.3673 15.0016 13.7686 14.5999C14.1698 14.1982 14.3423 13.6925 14.423 13.0919C14.5007 12.5133 14.5006 11.7776 14.5006 10.8647L14.5006 8.23998C14.5361 8.20878 14.5687 8.179 14.5983 8.15122C15.2102 7.57784 15.4881 6.41868 14.5921 5.26951C14.1399 4.68953 13.9597 4.15943 13.8991 3.60559L13.8947 3.56432C13.8765 3.39626 13.8533 3.18105 13.7998 2.97664ZM11.8965 2.66762C11.9572 2.66364 12.0971 2.6746 12.2659 2.73049C12.4305 2.78497 12.5914 2.872 12.716 2.9932C12.758 3.03412 12.7989 3.10218 12.8324 3.23002C12.8663 3.35965 12.8822 3.50476 12.9027 3.6927L12.9051 3.71426C12.9847 4.44312 13.2314 5.15064 13.8035 5.88438C14.3927 6.64015 14.1358 7.21418 13.9146 7.42152C13.5099 7.80069 12.8973 8.19843 12.2348 7.92507C11.8315 7.75865 11.6105 7.5755 11.4719 7.37071C11.3285 7.15877 11.2376 6.87117 11.1897 6.42969C11.1634 6.18713 10.9659 5.99895 10.7224 5.98445C10.4788 5.96995 10.2603 6.13335 10.2055 6.37108C10.1398 6.65546 9.95684 6.99198 9.68223 7.2879C9.40869 7.58267 9.07581 7.80312 8.74331 7.89548C8.37737 7.99713 7.76935 8.04789 7.19459 7.85091C6.64724 7.66332 6.09954 7.24325 5.80258 6.32909C5.72659 6.09517 5.49176 5.95125 5.24884 5.98972C5.00591 6.02819 4.82704 6.23761 4.82704 6.48357C4.82704 6.79008 4.69914 7.19053 4.43091 7.50518C4.17738 7.80257 3.8023 8.02097 3.27455 8.01387C3.10423 7.99618 2.84788 7.93897 2.60502 7.82703C2.35065 7.70978 2.16242 7.55682 2.06693 7.38015C1.86743 7.01105 1.82501 6.86308 1.83703 6.71819C1.85092 6.55075 1.94705 6.29722 2.30004 5.76527C2.6742 5.20144 2.88851 4.74867 3.00733 4.36768C3.12838 3.97955 3.14394 3.68579 3.14394 3.45853C3.14394 3.33112 3.19245 3.11656 3.32585 2.95189C3.43853 2.8128 3.6449 2.66532 4.0741 2.68743C4.08308 2.68789 4.09208 2.68811 4.10107 2.68809L11.865 2.6687C11.8755 2.66867 11.886 2.66832 11.8965 2.66762ZM13.5006 8.86295C13.0342 9.04093 12.4698 9.10384 11.8534 8.84946C11.3246 8.63126 10.9219 8.3422 10.6437 7.93112C10.6147 7.88818 10.5874 7.84447 10.5617 7.80003C10.5146 7.85761 10.4657 7.91373 10.4152 7.96812C10.046 8.36598 9.56028 8.70641 9.01095 8.859C8.49672 9.00184 7.67698 9.07333 6.87038 8.79689C6.35175 8.61915 5.85121 8.30096 5.45119 7.79141C5.37599 7.91763 5.28956 8.03938 5.19192 8.15392C4.75759 8.66341 4.09748 9.03294 3.23431 9.0133C3.22287 9.01304 3.21145 9.01238 3.20006 9.01134C3.00684 8.99364 2.75923 8.94629 2.50064 8.85952L2.50064 10.8282C2.50064 11.7862 2.5017 12.4546 2.56941 12.9588C2.6352 13.4488 2.75557 13.7083 2.94019 13.8932C3.12473 14.078 3.38373 14.1984 3.8728 14.2642C4.37631 14.332 5.04367 14.333 6.00064 14.333L10.0006 14.333C10.9576 14.333 11.6249 14.332 12.1285 14.2642C12.6175 14.1984 12.8765 14.078 13.0611 13.8932C13.2457 13.7083 13.3661 13.4488 13.4319 12.9588C13.4996 12.4546 13.5006 11.7862 13.5006 10.8282L13.5006 8.86295Z" fill="#F5758D"/>
</svg>
