<svg width="17" height="24" viewBox="0 0 17 24" fill="none" xmlns="http://www.w3.org/2000/svg">
<path d="M8.13484 0.043427C7.5651 0.283784 7.41377 1.02266 7.84997 1.44996C8.02801 1.6369 8.17935 1.69922 8.44641 1.69922C9.47906 1.69922 9.60369 0.185861 8.57995 0.00781853C8.43751 -0.00998569 8.23276 -0.00108358 8.13484 0.043427Z" fill="white"/>
<path d="M1.64538 0.0729028C0.968818 0.277651 0.327867 0.865191 0.123118 1.47053C-0.0549236 1.99576 -0.0371194 3.4201 0.158727 3.92752C0.345671 4.40823 0.93321 4.99577 1.40502 5.16491C1.69879 5.27173 1.7344 5.31624 1.77891 5.68123C1.86793 6.33108 2.25072 7.6486 2.54449 8.27174C2.96289 9.17976 3.71067 10.2213 4.43174 10.9157L5.0994 11.5655L4.43174 12.2065C3.71067 12.9097 2.96289 13.9513 2.54449 14.8593C2.25072 15.4824 1.86793 16.8 1.77891 17.4498C1.7344 17.8148 1.69879 17.8593 1.40502 17.9661C0.93321 18.1353 0.345671 18.7228 0.158727 19.2035C-0.0371194 19.7109 -0.0549236 21.1353 0.123118 21.6605C0.274454 22.0967 0.772972 22.6486 1.23588 22.8979L1.60087 23.0938H8.5H15.3991L15.7641 22.8979C16.227 22.6486 16.7255 22.0967 16.8769 21.6605C17.0549 21.1353 17.0371 19.7109 16.8413 19.2035C16.6543 18.7228 16.0668 18.1353 15.595 17.9661C15.3012 17.8593 15.2656 17.8148 15.2211 17.4498C15.1321 16.8 14.7493 15.4824 14.4555 14.8593C14.0371 13.9513 13.2893 12.9097 12.5683 12.2065L11.9006 11.5655L12.5683 10.9157C13.2893 10.2213 14.0371 9.17976 14.4555 8.27174C14.7493 7.6486 15.1321 6.33108 15.2211 5.68123C15.2656 5.31624 15.3012 5.27173 15.595 5.16491C16.0668 4.99577 16.6543 4.40823 16.8413 3.92752C17.0371 3.4201 17.0549 1.99576 16.8769 1.47053C16.7255 1.03433 16.227 0.4824 15.7641 0.233141C15.4347 0.0550993 15.2478 0.0372951 13.6721 0.0105887C11.8561 -0.0250197 11.5534 0.0283922 11.3042 0.384476C11.1528 0.598127 11.1261 1.08774 11.2597 1.337C11.4644 1.71089 11.7849 1.77321 13.4318 1.77321C15.2478 1.77321 15.2656 1.78211 15.2656 2.66342C15.2656 2.96609 15.2122 3.23315 15.1232 3.35778L14.9896 3.55363H8.5H2.01036L1.87683 3.35778C1.78781 3.23315 1.7344 2.96609 1.7344 2.66342C1.7344 1.78211 1.7522 1.77321 3.56823 1.77321C5.21512 1.77321 5.5356 1.71089 5.74035 1.337C5.85607 1.11445 5.85607 0.65154 5.74035 0.428987C5.5356 0.0550985 5.22403 -0.00721511 3.49702 0.001687C2.5979 0.001687 1.77001 0.0372943 1.64538 0.0729028ZM13.4318 5.5744C13.2181 6.54473 13.0846 6.97203 12.8086 7.55067C12.2122 8.81477 11.3487 9.80291 10.1736 10.5685C9.89763 10.7465 9.61276 10.9958 9.53265 11.1293C9.22997 11.6456 9.42582 12.0818 10.1736 12.5626C11.3487 13.3281 12.2122 14.3163 12.8086 15.5804C13.0846 16.159 13.2181 16.5863 13.4318 17.5477L13.2493 14.6815H4.19138L3.51482 17.797L3.56823 17.5477C3.78188 16.5863 3.91542 16.159 4.19138 15.5804C4.78782 14.3163 5.65133 13.3281 6.8264 12.5626C7.10237 12.3845 7.38724 12.1353 7.46736 12.0017C7.77003 11.4854 7.57418 11.0492 6.8264 10.5685C5.65133 9.80291 4.78782 8.81477 4.19138 7.55067C3.91542 6.97203 3.78188 6.54473 3.56823 5.5744L3.51482 5.33405H8.5H13.4852L13.4318 5.5744ZM15.1232 19.7733C15.2122 19.8979 15.2656 20.165 15.2656 20.4676C15.2656 20.7703 15.2122 21.0374 15.1232 21.162L14.9896 21.3578H8.5H2.01036L1.87683 21.162C1.78781 21.0374 1.7344 20.7703 1.7344 20.4676C1.7344 20.165 1.78781 19.8979 1.87683 19.7733L2.01036 19.5774H8.5H14.9896L15.1232 19.7733Z" fill="white"/>
</svg>
