<svg width="40" height="40" viewBox="0 0 40 40" fill="none" xmlns="http://www.w3.org/2000/svg">
<rect width="40" height="40" rx="20" fill="#D1F0FA"/>
<path fill-rule="evenodd" clip-rule="evenodd" d="M14.4306 11.0719C14.9029 11.1696 15.279 11.4868 15.5126 11.906L16.257 13.2414C16.5311 13.7332 16.7619 14.1471 16.9125 14.5069C17.0724 14.8886 17.1673 15.265 17.1239 15.6811C17.0805 16.0973 16.91 16.446 16.6748 16.7865C16.4532 17.1074 16.142 17.4648 15.7722 17.8895L13.9157 20.0221C15.3881 22.4354 17.5622 24.6105 19.978 26.0843L22.1105 24.2278C22.5352 23.858 22.8926 23.5469 23.2136 23.3252C23.5541 23.0901 23.9027 22.9195 24.3189 22.8761C24.735 22.8327 25.1114 22.9276 25.4931 23.0875C25.8529 23.2382 26.2668 23.4689 26.7586 23.7431L28.094 24.4874C28.5132 24.7211 28.8305 25.0971 28.9281 25.5694C29.0267 26.0466 28.8812 26.5262 28.5599 26.9204C27.3942 28.3507 25.5265 29.2614 23.5671 28.8661C22.3627 28.6232 21.1744 28.2184 19.7371 27.3941C16.8493 25.738 14.2601 23.1473 12.6059 20.2629C11.7816 18.8256 11.3769 17.6373 11.1339 16.4329C10.7387 14.4736 11.6494 12.6058 13.0797 11.4401C13.4739 11.1188 13.9535 10.9733 14.4306 11.0719ZM21.1423 26.7281C22.1142 27.207 22.9596 27.4684 23.8143 27.6408C25.2277 27.9259 26.6545 27.2796 27.591 26.1306C27.714 25.9798 27.7147 25.8745 27.704 25.8224C27.6922 25.7654 27.6444 25.6679 27.4854 25.5792L26.18 24.8516C25.6503 24.5563 25.2976 24.3608 25.0102 24.2405C24.7374 24.1262 24.5809 24.1056 24.4485 24.1194C24.3162 24.1332 24.1673 24.1857 23.9239 24.3538C23.6675 24.5308 23.3628 24.7949 22.9054 25.1931L21.1423 26.7281ZM13.272 18.8578L14.807 17.0946C15.2052 16.6372 15.4692 16.3325 15.6463 16.0761C15.8143 15.8328 15.8669 15.6839 15.8807 15.5515C15.8945 15.4191 15.8738 15.2626 15.7596 14.9898C15.6392 14.7024 15.4437 14.3497 15.1484 13.82L14.4208 12.5146C14.3321 12.3556 14.2347 12.3079 14.1776 12.2961C14.1256 12.2853 14.0202 12.2861 13.8694 12.409C12.7204 13.3455 12.0741 14.7724 12.3592 16.1857C12.5316 17.0404 12.793 17.8858 13.272 18.8578Z" fill="#0C4E6E"/>
</svg>
