<svg width="33" height="32" viewBox="0 0 33 32" fill="none" xmlns="http://www.w3.org/2000/svg">
<path d="M9.51341 29.3337H23.4867C27.1667 29.3337 28.6334 27.0803 28.8067 24.3337L29.5001 13.3203C29.6867 10.4403 27.3934 8.00033 24.5001 8.00033C23.6867 8.00033 22.9401 7.53366 22.5667 6.81366L21.6067 4.88033C20.9934 3.66699 19.3934 2.66699 18.0334 2.66699H14.9801C13.6067 2.66699 12.0067 3.66699 11.3934 4.88033L10.4334 6.81366C10.0601 7.53366 9.31341 8.00033 8.50008 8.00033C5.60675 8.00033 3.31341 10.4403 3.50008 13.3203L4.19341 24.3337C4.35341 27.0803 5.83341 29.3337 9.51341 29.3337Z" stroke="#231F20" stroke-width="2" stroke-linecap="round" stroke-linejoin="round"/>
<path opacity="0.4" d="M14.5 10.667H18.5" stroke="#231F20" stroke-width="2" stroke-linecap="round" stroke-linejoin="round"/>
<path opacity="0.4" d="M16.5 23.9997C18.8867 23.9997 20.8334 22.053 20.8334 19.6663C20.8334 17.2797 18.8867 15.333 16.5 15.333C14.1134 15.333 12.1667 17.2797 12.1667 19.6663C12.1667 22.053 14.1134 23.9997 16.5 23.9997Z" stroke="#231F20" stroke-width="2" stroke-linecap="round" stroke-linejoin="round"/>
</svg>
