<svg width="18" height="17" viewBox="0 0 18 17" fill="none" xmlns="http://www.w3.org/2000/svg">
<path d="M8.82443 0.0986328C9.47259 0.0986722 10.0985 0.334776 10.5853 0.7628L10.7136 0.883633L11.2953 1.4653C11.4549 1.62389 11.6634 1.72401 11.8869 1.74947L11.9994 1.75613H12.8328C13.5138 1.75609 14.169 2.01661 14.6641 2.48425C15.1591 2.95189 15.4565 3.59122 15.4953 4.27113L15.4994 4.4228V5.25613C15.4994 5.48113 15.5761 5.7003 15.7144 5.8753L15.7894 5.95863L16.3703 6.5403C16.8517 7.01901 17.1324 7.66332 17.1552 8.34186C17.1779 9.0204 16.941 9.68207 16.4928 10.192L16.3719 10.3203L15.7903 10.902C15.6317 11.0616 15.5316 11.2701 15.5061 11.4936L15.4994 11.6061V12.4395C15.4995 13.1205 15.239 13.7757 14.7713 14.2708C14.3037 14.7658 13.6643 15.0632 12.9844 15.102L12.8328 15.1061H11.9994C11.7748 15.1062 11.5566 15.1819 11.3803 15.3211L11.2969 15.3961L10.7153 15.977C10.2366 16.4584 9.59225 16.7391 8.91371 16.7619C8.23517 16.7846 7.57349 16.5477 7.0636 16.0995L6.93527 15.9786L6.3536 15.397C6.19397 15.2384 5.98551 15.1383 5.76193 15.1128L5.64943 15.1061H4.8161C4.13508 15.1062 3.47986 14.8457 2.98479 14.378C2.48972 13.9104 2.19233 13.271 2.1536 12.5911L2.14943 12.4395V11.6061C2.14936 11.3815 2.07362 11.1633 1.93443 10.987L1.85943 10.9036L1.2786 10.322C0.797166 9.84326 0.516451 9.19895 0.493688 8.52041C0.470926 7.84187 0.70783 7.18019 1.1561 6.6703L1.27693 6.54197L1.8586 5.9603C2.01719 5.80067 2.11731 5.59221 2.14277 5.36863L2.14943 5.25613V4.4228L2.1536 4.27113C2.19081 3.61734 2.46729 3.00009 2.93034 2.53704C3.39339 2.07399 4.01064 1.79751 4.66443 1.7603L4.8161 1.75613H5.64943C5.87411 1.75606 6.09222 1.68032 6.2686 1.54113L6.35193 1.46613L6.9336 0.8853C7.18138 0.636041 7.47599 0.43822 7.80049 0.303216C8.12499 0.168211 8.47297 0.0986837 8.82443 0.0986328Z" fill="#D93502"/>
<path d="M6.39995 4.91C6.1266 4.63662 5.68339 4.63659 5.41 4.90995C5.13662 5.1833 5.13659 5.62652 5.40995 5.8999L7.71506 8.20524L5.41054 10.51C5.13719 10.7834 5.13722 11.2266 5.4106 11.5C5.68398 11.7733 6.1272 11.7733 6.40055 11.4999L8.70496 9.19522L11.0094 11.4999C11.2827 11.7733 11.726 11.7733 11.9993 11.5C12.2727 11.2266 12.2727 10.7834 11.9993 10.51L9.69485 8.20524L12 5.8999C12.2733 5.62652 12.2733 5.1833 11.9999 4.90995C11.7265 4.63659 11.2833 4.63662 11.0099 4.91L8.70496 7.21525L6.39995 4.91Z" fill="white"/>
</svg>
