<svg width="21" height="22" viewBox="0 0 21 22" fill="none" xmlns="http://www.w3.org/2000/svg">
<path fill-rule="evenodd" clip-rule="evenodd" d="M5 0.75C5 0.335786 4.66421 0 4.25 0C3.83579 0 3.5 0.335786 3.5 0.75V1.38479C2.69524 1.61288 2.0165 1.9836 1.45154 2.59436C0.673634 3.43535 0.327849 4.49792 0.162249 5.82951C-1.94311e-05 7.13431 -1.07254e-05 8.80647 1.78315e-07 10.94V11.56C-1.07254e-05 13.6935 -1.94311e-05 15.3657 0.162249 16.6705C0.327849 18.0021 0.673634 19.0647 1.45154 19.9056C2.20097 20.7158 3.14095 21.1057 4.31883 21.2986C5.46621 21.4864 6.91966 21.4988 8.74953 21.4999C9.16374 21.5002 9.49974 21.1646 9.5 20.7504C9.50026 20.3362 9.16468 20.0002 8.75047 19.9999C6.88501 19.9987 5.56412 19.9825 4.5612 19.8183C3.58877 19.6591 3.00248 19.3733 2.55269 18.8871C2.07849 18.3744 1.79821 17.6709 1.65078 16.4854C1.50137 15.2839 1.5 13.7051 1.5 11.5068V10.9932C1.5 9.6008 1.50055 8.45689 1.53892 7.5H18.961C18.9922 8.27881 18.9986 9.18454 18.9997 10.2508C19.0002 10.665 19.3363 11.0004 19.7505 11C20.1647 10.9996 20.5002 10.6634 20.4997 10.2492C20.4977 8.32921 20.4809 6.80471 20.3067 5.59769C20.13 4.37381 19.7806 3.3859 19.0485 2.59436C18.4835 1.9836 17.8048 1.61288 17 1.38479V0.75C17 0.335786 16.6642 0 16.25 0C15.8358 0 15.5 0.335786 15.5 0.75V1.11589C14.3639 0.999971 12.966 0.999984 11.2608 1H9.23924C7.53402 0.999984 6.13606 0.999971 5 1.11589V0.75ZM18.8474 6H1.65261C1.80052 4.82336 2.08044 4.12347 2.55269 3.61292C2.81203 3.33256 3.12129 3.11791 3.5286 2.95584C3.61806 3.26998 3.90717 3.5 4.25 3.5C4.66421 3.5 5 3.16421 5 2.75V2.62459C6.06101 2.50156 7.43237 2.5 9.3 2.5H11.2C13.0676 2.5 14.439 2.50156 15.5 2.62459V2.75C15.5 3.16421 15.8358 3.5 16.25 3.5C16.5928 3.5 16.8819 3.26998 16.9714 2.95585C17.3787 3.11791 17.688 3.33256 17.9473 3.61292C18.3939 4.09577 18.6685 4.74786 18.822 5.81197C18.8309 5.87356 18.8394 5.93622 18.8474 6Z" fill="#D93502"/>
<path d="M14.2804 13.2197C13.9875 12.9268 13.5126 12.9268 13.2197 13.2196C12.9268 13.5125 12.9268 13.9874 13.2196 14.2803L15.6894 16.7503L13.2203 19.2197C12.9274 19.5126 12.9274 19.9875 13.2203 20.2804C13.5133 20.5732 13.9881 20.5732 14.281 20.2803L16.75 17.811L19.219 20.2803C19.5119 20.5732 19.9868 20.5732 20.2797 20.2804C20.5726 19.9875 20.5726 19.5126 20.2797 19.2197L17.8106 16.7503L20.2804 14.2803C20.5732 13.9874 20.5732 13.5125 20.2803 13.2196C19.9874 12.9268 19.5125 12.9268 19.2196 13.2197L16.75 15.6896L14.2804 13.2197Z" fill="#D93502"/>
</svg>
