<svg width="25" height="25" viewBox="0 0 25 25" fill="none" xmlns="http://www.w3.org/2000/svg">
<path d="M16.5693 8.83245C16.1593 8.83245 15.8193 8.49245 15.8193 8.08245L15.8193 6.70245C15.8193 5.65245 15.3693 4.63245 14.5893 3.92245C13.7993 3.20245 12.7793 2.87245 11.6993 2.97245C9.89934 3.14245 8.31934 4.98245 8.31934 6.90245L8.31934 7.87245C8.31934 8.28245 7.97934 8.62245 7.56934 8.62245C7.15934 8.62245 6.81934 8.28245 6.81934 7.87245L6.81934 6.89245C6.81934 4.20245 8.98934 1.72245 11.5593 1.47245C13.0593 1.33245 14.4993 1.80245 15.5993 2.81245C16.6893 3.80245 17.3193 5.22245 17.3193 6.70245L17.3193 8.08245C17.3193 8.49245 16.9793 8.83245 16.5693 8.83245Z" fill="#818181"/>
<path d="M15.0692 22.9521L9.06915 22.9521C4.44915 22.9521 3.58915 20.8021 3.36915 18.7121L2.61915 12.7221C2.50915 11.6421 2.46915 10.0921 3.51915 8.93215C4.41915 7.93215 5.90915 7.45215 8.06915 7.45215L16.0692 7.45215C18.2392 7.45215 19.7292 7.94215 20.6192 8.93215C21.6592 10.0921 21.6292 11.6421 21.5192 12.7021L20.7692 18.7121C20.5492 20.8021 19.6892 22.9521 15.0692 22.9521ZM8.06915 8.95215C6.37915 8.95215 5.21915 9.28215 4.62915 9.94215C4.13915 10.4821 3.97915 11.3121 4.10915 12.5521L4.85915 18.5421C5.02915 20.1421 5.46915 21.4621 9.06915 21.4621L15.0692 21.4621C18.6692 21.4621 19.1092 20.1521 19.2792 18.5621L20.0292 12.5521C20.1592 11.3321 19.9992 10.5021 19.5092 9.95215C18.9192 9.28215 17.7592 8.95215 16.0692 8.95215L8.06915 8.95215Z" fill="#818181"/>
<path d="M14.15 16.3504H9.35C9.022 16.3504 8.75 16.0784 8.75 15.7504C8.75 15.4224 9.022 15.1504 9.35 15.1504H14.15C14.478 15.1504 14.75 15.4224 14.75 15.7504C14.75 16.0784 14.478 16.3504 14.15 16.3504Z" fill="#818181"/>
<path d="M11.7499 18.75C11.4219 18.75 11.1499 18.478 11.1499 18.15V13.35C11.1499 13.022 11.4219 12.75 11.7499 12.75C12.0779 12.75 12.3499 13.022 12.3499 13.35V18.15C12.3499 18.478 12.0779 18.75 11.7499 18.75Z" fill="#818181"/>
</svg>
