<svg width="24" height="25" viewBox="0 0 24 25" fill="none" xmlns="http://www.w3.org/2000/svg">
<path d="M23.1342 20.4373C23.1342 20.2181 23.1339 19.9989 23.1336 19.7797V19.7781C23.1322 18.9554 23.1294 18.1327 23.1347 17.3101C23.1451 15.6934 23.1668 14.0769 23.1766 12.4602L23.1771 12.3673L23.1777 12.2766C23.1796 11.9104 23.1558 11.5434 23.124 11.1771C23.1 10.9016 22.9946 10.8285 22.5768 10.7813C22.3931 10.7606 22.2074 10.7425 22.0215 10.7304C21.9111 10.7231 21.8007 10.7181 21.6901 10.7156H21.6892C21.5743 10.7131 21.4594 10.7107 21.3445 10.7085L21.2801 10.7072C21.1681 10.705 21.0562 10.7029 20.9442 10.7009L20.8941 10.7C19.918 10.6823 18.9417 10.6692 17.9657 10.6478C16.3752 10.6128 14.7849 10.5676 13.1944 10.5304C12.1339 10.5056 11.0733 10.4859 10.0127 10.4665C9.65091 10.4598 9.28883 10.4675 8.9273 10.4572C8.16451 10.4356 7.40194 10.4078 6.63943 10.38C6.00623 10.3569 5.37342 10.3233 4.74006 10.3069C4.64504 10.3045 4.55001 10.3022 4.45498 10.3H4.45482C4.31104 10.2967 4.16725 10.2936 4.02342 10.291L4.00625 10.2907C3.9383 10.2895 3.87042 10.2884 3.80247 10.2873L3.77874 10.287C3.71024 10.286 3.64169 10.2851 3.57319 10.2843L3.56469 10.2842C3.49754 10.2834 3.43039 10.2828 3.36323 10.2823L3.34408 10.2822C3.27862 10.2817 3.21316 10.2813 3.14769 10.2811L3.11292 10.281C3.04851 10.2808 2.98415 10.2807 2.91974 10.2808L2.88867 10.2808C2.82144 10.2809 2.75427 10.2812 2.68709 10.2816C2.56031 10.2824 2.43325 10.2942 2.30702 10.3111C2.18079 10.3279 2.05545 10.3498 1.93203 10.3707C1.85288 10.3841 1.78554 10.4047 1.73073 10.4325C1.72577 10.435 1.72085 10.4376 1.71611 10.4402C1.6891 10.4551 1.66405 10.4732 1.64154 10.4943C1.6278 10.5074 1.61544 10.5218 1.60467 10.5374C1.59679 10.5489 1.58985 10.561 1.58392 10.5736C1.56974 10.6041 1.56127 10.6369 1.55891 10.6705C1.55616 10.7051 1.55294 10.7396 1.54925 10.7741C1.54191 10.843 1.53297 10.912 1.52386 10.9809C1.51928 11.0153 1.5147 11.0497 1.51023 11.0842C1.50576 11.1187 1.5014 11.1531 1.49732 11.1876C1.48512 11.291 1.47557 11.3944 1.47336 11.4981C1.4724 11.5437 1.47157 11.5893 1.47088 11.635L1.47044 11.6686C1.46994 11.7041 1.46944 11.7396 1.46911 11.7751L1.46884 11.8047C1.46845 11.843 1.46817 11.8812 1.46795 11.9195L1.46784 11.9368C1.46481 12.4665 1.47275 12.9966 1.46166 13.5262C1.42683 15.1908 1.38704 16.8554 1.34768 18.52V18.5211C1.33582 19.0222 1.324 19.5233 1.31241 20.0244C1.31159 20.06 1.31225 20.0934 1.31462 20.1246C1.31539 20.135 1.31639 20.1452 1.3176 20.1551C1.32113 20.1849 1.32649 20.2126 1.33383 20.2384C1.34117 20.2642 1.3505 20.288 1.36209 20.3101C1.37167 20.3283 1.38294 20.3455 1.39576 20.3616C1.41375 20.384 1.435 20.4042 1.45984 20.4224C1.47049 20.4302 1.48181 20.4376 1.49384 20.4447C1.50587 20.4517 1.51857 20.4585 1.53198 20.4649C1.55574 20.4762 1.58018 20.4861 1.60517 20.4943C1.71633 20.532 1.86486 20.5555 2.05997 20.5715C2.07923 20.5731 2.09861 20.5739 2.11798 20.5746C2.13741 20.5753 2.15684 20.5758 2.17621 20.5765L2.17881 20.5766L2.3997 20.5848L2.47664 20.5877L2.62235 20.5933L2.71651 20.597L2.81305 20.6007C3.26018 20.6181 3.70726 20.636 4.15439 20.6521H4.1545C4.49042 20.6642 4.82633 20.6753 5.1623 20.6845C7.39957 20.7455 9.63711 20.798 11.8745 20.854L11.8746 20.8513C12.6637 20.8711 13.4527 20.8975 14.2417 20.9092C16.5051 20.9425 18.7684 20.9722 21.0319 20.9983C21.216 21.0004 21.4001 21.0009 21.5842 20.9997C21.8911 20.9979 22.1978 20.9919 22.5038 20.9829C22.512 20.9827 22.5201 20.9823 22.5281 20.982L22.5341 20.9817L22.5561 20.9807L22.5579 20.9806C22.5673 20.98 22.5768 20.9794 22.5862 20.9787C22.5931 20.9782 22.5999 20.9777 22.6066 20.9771L22.6089 20.977C22.6164 20.9763 22.6239 20.9756 22.6312 20.9749L22.6351 20.9745L22.655 20.9723L22.6571 20.9721L22.6787 20.9693L22.6809 20.969L22.7008 20.9661L22.7023 20.9659C22.7094 20.9648 22.7165 20.9636 22.7235 20.9623L22.7237 20.9623C22.7306 20.9611 22.7373 20.9598 22.744 20.9585L22.745 20.9583C22.7586 20.9556 22.7718 20.9526 22.7845 20.9494L22.785 20.9493C22.7979 20.9461 22.8103 20.9427 22.8224 20.939L22.8225 20.9389C23.0024 20.8842 23.0926 20.7774 23.1247 20.608C23.135 20.5518 23.1342 20.4943 23.1342 20.4373Z" fill="#66CC99"/>
<path d="M20.1208 19.2961C20.2503 19.0625 20.4237 18.8705 20.6446 18.7203C20.8635 18.5714 21.1042 18.4753 21.3663 18.4482C21.5431 18.4299 21.723 18.4302 21.9011 18.4364C21.9371 18.4377 21.9727 18.4406 22.008 18.445C22.0062 17.9778 22.0051 17.5107 22.0074 17.0436C22.0134 15.8249 22.0278 14.6064 22.0348 13.3877C21.895 13.3871 21.7554 13.3774 21.617 13.3506C21.2947 13.2884 21.02 13.1351 20.7771 12.9171C20.5217 12.6877 20.3298 12.4159 20.2195 12.091C20.1605 11.9175 20.1276 11.7459 20.1216 11.5764C19.205 11.5589 18.2884 11.5461 17.372 11.5257C15.9491 11.4942 14.5263 11.454 13.1035 11.4206C12.1548 11.3983 11.206 11.3802 10.2571 11.3623C9.93348 11.3562 9.6096 11.362 9.28615 11.3529C8.60378 11.3337 7.92152 11.3094 7.23937 11.2851C6.6729 11.265 6.10671 11.2361 5.54014 11.2215C5.18667 11.2124 4.83293 11.205 4.47935 11.2007C4.47039 11.2965 4.45312 11.3914 4.42774 11.4842C4.3991 11.5897 4.36239 11.693 4.32939 11.7973C4.19444 12.0828 4.03697 12.3506 3.79323 12.5574C3.55153 12.7625 3.27312 12.8827 2.95498 12.8987C2.84183 12.9044 2.72863 12.9069 2.6157 12.9021C2.6168 13.2274 2.61945 13.5527 2.61277 13.8779C2.58485 15.2357 2.55256 16.5935 2.5206 17.9512C2.54417 17.9518 2.56768 17.9525 2.59119 17.9533C2.83074 17.9617 3.05284 18.0426 3.26606 18.1478C3.34504 18.1867 3.4221 18.2297 3.50009 18.2707C3.63846 18.3433 3.76336 18.4336 3.86277 18.5552C3.90025 18.6011 3.93552 18.65 3.96367 18.702C4.03846 18.84 4.12368 18.9749 4.17777 19.1211C4.25223 19.3207 4.28279 19.5341 4.26735 19.7467C4.82327 19.7678 5.37919 19.7884 5.93528 19.8035C7.93681 19.8577 9.9385 19.9049 11.9402 19.955L11.9403 19.9528C12.6461 19.9704 13.352 19.9937 14.0579 20.0046C16.0073 20.0349 17.9566 20.0621 19.906 20.0869C19.9078 19.8176 19.9781 19.5537 20.1208 19.2961Z" fill="#339966"/>
<path d="M6.55653 15.8399C6.48875 15.9833 6.40966 16.1178 6.28718 16.2218C6.16575 16.3248 6.02589 16.3852 5.86605 16.3932C5.75726 16.3987 5.64825 16.3984 5.54062 16.3776C5.37868 16.3463 5.24069 16.2693 5.11871 16.1598C4.99038 16.0446 4.89401 15.908 4.83854 15.7448C4.75774 15.507 4.77402 15.2764 4.89677 15.0549C4.96024 14.939 5.05043 14.8398 5.15989 14.7657C5.26983 14.6909 5.39076 14.6426 5.5224 14.6289C5.61127 14.6197 5.70162 14.6199 5.79109 14.623C5.91142 14.6272 6.02302 14.6679 6.13015 14.7207C6.16984 14.7403 6.20853 14.7619 6.24772 14.7825C6.31726 14.819 6.37997 14.8643 6.42992 14.9255C6.44874 14.9485 6.46646 14.9731 6.48059 14.9992C6.51817 15.0685 6.56095 15.1363 6.58816 15.2097C6.64534 15.3641 6.64915 15.5234 6.60593 15.6827C6.59158 15.7356 6.57315 15.7875 6.55653 15.8399ZM19.7586 16.1701C19.6908 16.3135 19.6118 16.4481 19.4893 16.552C19.3678 16.655 19.228 16.7154 19.0681 16.7235C18.9594 16.7289 18.8503 16.7286 18.7427 16.7078C18.5808 16.6766 18.4427 16.5996 18.3207 16.49C18.1924 16.3748 18.096 16.2383 18.0406 16.075C17.9598 15.8373 17.9761 15.6066 18.0988 15.3852C18.1623 15.2692 18.2525 15.17 18.3619 15.0959C18.4719 15.0211 18.5928 14.9728 18.7244 14.9592C18.8133 14.95 18.9037 14.9501 18.9931 14.9533C19.1135 14.9575 19.2251 14.9981 19.3322 15.051C19.3719 15.0706 19.4106 15.0921 19.4498 15.1127C19.5193 15.1492 19.582 15.1946 19.632 15.2557C19.6508 15.2787 19.6685 15.3033 19.6826 15.3294C19.7202 15.3987 19.763 15.4665 19.7902 15.5399C19.8474 15.6943 19.8512 15.8537 19.808 16.013C19.7937 16.0658 19.7752 16.1177 19.7586 16.1701Z" fill="#66CC99"/>
<path d="M15.6791 17.038C15.4348 17.6246 15.0417 18.152 14.5153 18.5422C13.2382 19.4891 11.3728 19.49 10.108 18.5194C10.0716 18.4913 10.0357 18.4626 10.0003 18.4333C8.14001 16.8873 8.15806 13.7099 10.403 12.527C11.86 11.7593 13.907 12.0284 15.056 13.2297C16.0436 14.2623 16.2008 15.7851 15.6791 17.038Z" fill="#66CC99"/>
<path d="M12.5756 17.818C12.5725 17.9422 12.5698 18.0816 12.5653 18.221C12.5617 18.3353 12.5464 18.354 12.4301 18.3509C12.2742 18.3469 12.1185 18.3363 11.963 18.3247C11.8705 18.3178 11.8472 18.2894 11.8483 18.1929C11.8497 18.0655 11.8542 17.938 11.8576 17.8036C11.8033 17.789 11.7585 17.7757 11.713 17.7648C11.3538 17.6787 11.0913 17.4661 10.9069 17.1507C10.8265 17.0132 10.803 16.8576 10.7667 16.7066C10.7483 16.6303 10.7797 16.5871 10.8575 16.563C10.8956 16.551 10.9353 16.545 10.9752 16.5452C11.127 16.5473 11.2789 16.5539 11.4308 16.5573C11.5015 16.5589 11.5359 16.5957 11.5582 16.6609C11.5916 16.7589 11.6295 16.8559 11.6747 16.949C11.7575 17.1198 11.9102 17.196 12.0879 17.2203C12.2861 17.2475 12.4869 17.2239 12.6614 17.1321C13.0786 16.9125 13.1301 16.5049 12.8138 16.1694C12.678 16.0254 12.493 15.9488 12.3099 15.8759C11.9795 15.7442 11.6462 15.6165 11.349 15.4171C11.2398 15.3434 11.1392 15.2577 11.0492 15.1615C10.8459 14.9441 10.8021 14.682 10.881 14.4015C11.0069 13.954 11.303 13.6784 11.7532 13.5674C11.8111 13.5531 11.8701 13.5429 11.9411 13.5282C11.9449 13.4672 11.9498 13.4049 11.9522 13.3426C11.9552 13.2667 11.9555 13.1906 11.9582 13.1147C11.9612 13.031 11.9826 12.9985 12.0603 12.9973C12.2279 12.9946 12.3956 13.0001 12.5632 13.0044C12.6296 13.0061 12.6654 13.0487 12.6745 13.1099C12.6844 13.1769 12.6904 13.2449 12.6921 13.3127C12.694 13.3881 12.6892 13.4637 12.6872 13.5435C12.7442 13.5616 12.7887 13.5763 12.8336 13.5897C13.3654 13.7494 13.5727 14.143 13.7072 14.6425C13.7274 14.7175 13.6961 14.7663 13.6205 14.7882C13.5791 14.8003 13.5339 14.8046 13.4907 14.8034C13.3868 14.8006 13.2831 14.7902 13.1791 14.7872C13.0933 14.7847 13.0418 14.7508 13.0094 14.6659C12.9785 14.5853 12.9279 14.5112 12.8796 14.4384C12.654 14.0986 12.0844 14.1368 11.8396 14.4035C11.7183 14.5356 11.7066 14.7344 11.818 14.8765C11.8922 14.972 11.9919 15.0444 12.1057 15.0854C12.2331 15.1317 12.3639 15.1688 12.4923 15.2123C12.6663 15.2712 12.8429 15.3241 13.0123 15.3941C13.5011 15.596 13.8417 16.1082 13.8133 16.6094C13.8008 16.8304 13.7352 17.0341 13.5996 17.2103C13.461 17.3903 13.2922 17.5364 13.0801 17.6241C12.9221 17.6893 12.761 17.7471 12.5756 17.818Z" fill="white"/>
<path d="M23.1242 16.3905C22.916 14.1266 23.3473 13.2549 22.9525 11.0674C22.9051 10.8727 22.3828 10.7056 21.9579 10.714C21.6596 10.7199 21.3571 10.7313 21.0588 10.7565C15.2591 11.2482 9.46142 11.7688 3.65698 12.1979C2.93597 12.2685 1.41877 10.8993 1.27355 10.205C0.747217 7.68909 0.770289 12.5064 0.75351 13.3558C0.949672 15.0306 1.07496 16.7122 1.21814 18.3922C1.24844 18.7522 1.27874 19.1121 1.30927 19.4721C1.3107 19.6227 1.4159 19.7411 1.56763 19.7651C1.82915 19.8222 2.22616 19.7786 2.52984 19.7577C3.0952 19.7165 3.66062 19.6765 4.22592 19.6344C6.82554 19.435 9.42328 19.2115 12.022 19L12.0219 18.9981C14.7474 18.7836 17.469 18.5229 20.1917 18.2774C21.0428 18.1999 21.8956 18.1256 22.7434 18.0199C23.0152 18 23.2728 17.9285 23.1242 16.3905Z" fill="#2B8958"/>
<path d="M23.014 17.0594C22.9906 16.8415 22.9669 16.6236 22.9432 16.4057L22.943 16.4041C22.8538 15.5862 22.7632 14.7685 22.6806 13.95C22.5182 12.3415 22.3671 10.732 22.2041 9.12348L22.1947 9.03103L22.1856 8.94085C22.1484 8.5765 22.0855 8.21415 22.0148 7.85334C21.9615 7.58201 21.8489 7.52057 21.4285 7.51831C21.2435 7.51732 21.057 7.51919 20.8709 7.52698C20.7603 7.53161 20.6498 7.53829 20.5398 7.54767L20.539 7.54773C20.4244 7.5575 20.31 7.56743 20.1955 7.57748L20.1313 7.58311C20.0197 7.59288 19.9082 7.60276 19.7966 7.61264L19.7467 7.61711C18.7743 7.70377 17.8022 7.79506 16.8294 7.87796C15.2443 8.01308 13.6583 8.13798 12.0729 8.27089C11.0158 8.35953 9.95917 8.4532 8.90257 8.54714C8.54215 8.57921 8.183 8.62552 7.82241 8.65394C7.06172 8.71394 6.30052 8.76775 5.53939 8.82157C4.90735 8.86622 4.27454 8.90039 3.64312 8.95177C3.5484 8.9595 3.45363 8.96734 3.35892 8.97529H3.35875C3.21541 8.98732 3.07213 8.99968 2.92884 9.01249L2.91173 9.01403C2.84406 9.02011 2.77639 9.02623 2.70878 9.03247L2.68516 9.03468C2.61694 9.04102 2.54871 9.04743 2.48049 9.05394L2.47205 9.05477C2.40521 9.06117 2.33837 9.06774 2.27153 9.07442L2.25243 9.07629C2.1873 9.08281 2.12217 9.08948 2.05704 9.09622L2.02243 9.09981C1.95841 9.10648 1.89438 9.11327 1.83035 9.12023L1.7995 9.1236C1.73272 9.13088 1.66587 9.13828 1.59914 9.14589C1.47319 9.16019 1.34812 9.18552 1.22437 9.21577C1.10068 9.24602 0.978368 9.28112 0.857933 9.31507C0.78066 9.33687 0.715917 9.36452 0.66442 9.39797C0.65978 9.40097 0.655198 9.40406 0.650677 9.40724C0.625413 9.42486 0.602457 9.44557 0.582346 9.46889C0.569816 9.48374 0.559164 9.49936 0.550278 9.51575C0.543654 9.52806 0.538024 9.54076 0.533498 9.55395C0.522686 9.58582 0.517767 9.61939 0.518982 9.65302C0.519976 9.68763 0.520417 9.72229 0.520417 9.75696C0.520472 9.82634 0.518982 9.89583 0.517271 9.96532C0.516443 10.0001 0.515505 10.0348 0.514732 10.0695C0.513959 10.1042 0.513297 10.139 0.512911 10.1737C0.511807 10.2778 0.513408 10.3816 0.522239 10.4849C0.530123 10.5769 0.538568 10.6689 0.547573 10.7608L0.550443 10.7903C0.554141 10.8283 0.55795 10.8664 0.561813 10.9045L0.563579 10.9216C0.617174 11.4487 0.681641 11.9748 0.727177 12.5026C0.870352 14.1614 1.00861 15.8207 1.14726 17.4799L1.14737 17.481C1.1891 17.9805 1.23088 18.48 1.27289 18.9795C1.27587 19.0151 1.28012 19.0482 1.2858 19.079C1.28768 19.0892 1.28978 19.0992 1.29198 19.109C1.29872 19.1382 1.307 19.1652 1.31704 19.1901C1.32709 19.2149 1.33896 19.2376 1.35281 19.2583C1.35968 19.2686 1.36713 19.2784 1.37511 19.2879C1.39963 19.3167 1.42904 19.341 1.46198 19.3596C1.47341 19.3662 1.48544 19.3724 1.49814 19.3781C1.51083 19.3839 1.52419 19.3892 1.53821 19.3942C1.55692 19.4008 1.57679 19.4067 1.59798 19.4119C1.60328 19.4132 1.60864 19.4144 1.6141 19.4157C1.72869 19.4413 1.87882 19.4488 2.07454 19.4437C2.09385 19.4433 2.11323 19.4421 2.1326 19.4407C2.15197 19.4393 2.17135 19.4377 2.19072 19.4364L2.19332 19.4362C2.26678 19.431 2.3403 19.4259 2.41382 19.4208L2.49065 19.4155L2.63609 19.4054L2.73008 19.399L2.82646 19.3924C3.27287 19.3619 3.71929 19.332 4.16559 19.3002H4.1657C4.50095 19.2764 4.83615 19.2516 5.17118 19.2248C7.40216 19.0466 9.63252 18.8597 11.8632 18.6764L11.8629 18.6738C12.6496 18.6091 13.4369 18.5512 14.2227 18.4786C16.1246 18.3026 18.0263 18.1238 19.9276 17.9427L19.9301 17.9425C20.2813 17.909 20.6323 17.8755 20.9835 17.8419C21.1668 17.8243 21.3499 17.8051 21.5328 17.7843C21.8455 17.7486 22.1577 17.7091 22.4694 17.6659L22.4754 17.665L22.497 17.6616L22.4988 17.6613L22.5216 17.6574L22.5267 17.6565L22.5468 17.6527L22.549 17.6523C22.5642 17.6494 22.5792 17.6462 22.5942 17.6427C22.6093 17.6392 22.6242 17.6355 22.6391 17.6316L22.6406 17.6312C22.6476 17.6293 22.6545 17.6274 22.6612 17.6254L22.6615 17.6254C22.6682 17.6234 22.6748 17.6214 22.6812 17.6194L22.6822 17.6191C22.6954 17.6149 22.7082 17.6106 22.7206 17.606L22.7211 17.6059C22.7336 17.6013 22.7455 17.5965 22.7571 17.5916L22.7573 17.5916C22.9302 17.5179 23.0086 17.4021 23.0223 17.2303C23.027 17.1731 23.0201 17.1161 23.014 17.0594Z" fill="#66CC99"/>
<path d="M19.8962 16.247C19.9999 16.0009 20.1519 15.7915 20.3554 15.6186C20.5572 15.4472 20.7862 15.3259 21.0439 15.2709C21.2179 15.2338 21.3967 15.2149 21.5745 15.2021C21.6101 15.1995 21.6459 15.1985 21.6817 15.1991C21.63 14.7348 21.579 14.2705 21.5314 13.8058C21.4072 12.5934 21.2913 11.3803 21.1681 10.1679C21.029 10.1821 20.8893 10.1874 20.7488 10.1756C20.4217 10.1482 20.1322 10.0251 19.8674 9.83426C19.5889 9.63351 19.3692 9.38376 19.2247 9.07251C19.1476 8.90627 19.0966 8.73919 19.0724 8.57129C18.1592 8.65176 17.2465 8.73698 16.3331 8.81459C14.915 8.93513 13.4962 9.04723 12.0779 9.16596C11.1322 9.24511 10.1868 9.32845 9.24158 9.41202C8.91914 9.44055 8.59774 9.48084 8.27512 9.50634C7.59457 9.56016 6.91369 9.6089 6.23281 9.65763C5.66739 9.69809 5.10142 9.72983 4.53651 9.77586C4.18399 9.80433 3.83167 9.83521 3.47958 9.86848C3.48088 9.9647 3.47385 10.0609 3.45855 10.1559C3.44133 10.2638 3.41589 10.3705 3.39419 10.4777C3.29048 10.776 3.16254 11.059 2.94226 11.2907C2.72385 11.5205 2.45991 11.6698 2.14525 11.7197C2.03337 11.7374 1.92105 11.7519 1.80823 11.7592C1.84405 12.0826 1.88147 12.4057 1.90957 12.7297C2.0268 14.0828 2.13973 15.4362 2.25299 16.7896C2.2765 16.7877 2.29996 16.7859 2.32342 16.7842C2.56246 16.7669 2.79196 16.8236 3.01523 16.9054C3.09796 16.9357 3.1791 16.9702 3.26106 17.0026C3.40639 17.06 3.54024 17.1364 3.65206 17.2467C3.69423 17.2883 3.73453 17.3332 3.76808 17.3819C3.85717 17.5111 3.95635 17.6361 4.02573 17.7757C4.12109 17.9663 4.17425 18.1751 4.1816 18.3881C4.73659 18.3498 5.29151 18.3108 5.84606 18.2664C7.8419 18.1066 9.83725 17.9397 11.8328 17.7757L11.8326 17.7735C12.5363 17.7156 13.2407 17.6634 13.9437 17.5989C15.8852 17.4208 17.8262 17.2396 19.7671 17.056C19.74 16.7882 19.7817 16.5184 19.8962 16.247Z" fill="#339966"/>
<path d="M6.0401 14.2588C5.98799 14.4087 5.92375 14.5508 5.81308 14.6673C5.70335 14.7827 5.57078 14.8577 5.4127 14.8827C5.30512 14.8998 5.19672 14.911 5.08744 14.9019C4.92312 14.8881 4.77768 14.8263 4.64466 14.7304C4.5048 14.6296 4.39436 14.504 4.32177 14.3477C4.21608 14.1199 4.20763 13.8889 4.30599 13.6556C4.35671 13.5335 4.4358 13.4253 4.5367 13.3399C4.63804 13.2538 4.75312 13.1928 4.88255 13.1652C4.96993 13.1466 5.05978 13.1371 5.14909 13.1307C5.26919 13.122 5.38449 13.1505 5.49665 13.1916C5.53821 13.2068 5.579 13.2241 5.62018 13.2404C5.6932 13.2692 5.76043 13.3076 5.81661 13.3631C5.83781 13.384 5.85807 13.4065 5.8749 13.4309C5.91966 13.4959 5.96945 13.5587 6.00433 13.6288C6.07763 13.7761 6.09844 13.9342 6.0725 14.0971C6.06378 14.1514 6.05097 14.2049 6.0401 14.2588ZM19.2019 13.177C19.1498 13.3269 19.0855 13.4691 18.9749 13.5855C18.8652 13.7009 18.7326 13.7759 18.5745 13.801C18.4669 13.818 18.3585 13.8293 18.2492 13.8201C18.0849 13.8063 17.9395 13.7445 17.8065 13.6486C17.6666 13.5478 17.5562 13.4223 17.4836 13.266C17.3778 13.0382 17.3694 12.8071 17.4678 12.5738C17.5185 12.4517 17.5976 12.3435 17.6985 12.2581C17.7998 12.172 17.9149 12.1111 18.0444 12.0835C18.1317 12.0648 18.2216 12.0553 18.3109 12.0489C18.431 12.0403 18.5463 12.0687 18.6585 12.1098C18.7 12.125 18.7408 12.1424 18.782 12.1586C18.855 12.1875 18.9222 12.2259 18.9784 12.2813C18.9996 12.3022 19.0199 12.3247 19.0367 12.3492C19.0815 12.4141 19.1312 12.477 19.1661 12.547C19.2394 12.6944 19.2602 12.8524 19.2343 13.0154C19.2256 13.0696 19.2128 13.1232 19.2019 13.177Z" fill="#66CC99"/>
<path d="M15.2386 14.4759C15.0584 15.0852 14.7238 15.6517 14.2422 16.0959C13.0735 17.1737 11.2189 17.3739 9.8577 16.544C9.81852 16.5199 9.77973 16.4952 9.74135 16.4699C7.72657 15.1314 7.40512 11.9702 9.51085 10.5544C10.8775 9.63542 12.9416 9.68438 14.2123 10.756C15.3046 11.6772 15.6235 13.1745 15.2386 14.4759Z" fill="#66CC99"/>
<path d="M12.236 15.5837C12.2461 15.7074 12.2583 15.8464 12.2687 15.9854C12.2773 16.0995 12.2642 16.1196 12.1481 16.1291C11.9928 16.1417 11.8367 16.1478 11.6809 16.1528C11.5882 16.1558 11.562 16.1301 11.5528 16.0341C11.5406 15.9072 11.5314 15.7801 11.5204 15.6461C11.4649 15.6373 11.4189 15.6289 11.3725 15.6229C11.0062 15.5757 10.7226 15.3923 10.5054 15.0984C10.4108 14.9703 10.3709 14.8181 10.3186 14.6719C10.2922 14.598 10.3188 14.5517 10.3936 14.5194C10.4302 14.5034 10.469 14.4932 10.5086 14.4891C10.6599 14.4749 10.8115 14.4653 10.9629 14.4525C11.0334 14.4465 11.0716 14.4795 11.1007 14.5419C11.1443 14.6357 11.1924 14.7282 11.2472 14.8158C11.3478 14.9768 11.5078 15.0362 11.6871 15.0414C11.8871 15.0473 12.0842 15.0024 12.2479 14.8925C12.6393 14.6295 12.6469 14.2188 12.2967 13.9191C12.1463 13.7904 11.9541 13.7339 11.7643 13.681C11.4217 13.5854 11.0767 13.494 10.7599 13.3274C10.6434 13.2659 10.5343 13.1914 10.4345 13.1053C10.2091 12.9109 10.1376 12.655 10.1861 12.3677C10.2636 11.9093 10.5284 11.6037 10.9642 11.4451C11.0203 11.4247 11.0779 11.4083 11.1469 11.3861C11.1441 11.3251 11.1423 11.2626 11.1381 11.2003C11.133 11.1245 11.1252 11.0489 11.1197 10.9731C11.1138 10.8896 11.1316 10.855 11.2087 10.8455C11.375 10.825 11.5424 10.8125 11.7095 10.7988C11.7757 10.7934 11.8158 10.832 11.8314 10.8919C11.8485 10.9576 11.8616 11.0243 11.8706 11.0916C11.8806 11.1664 11.8839 11.2421 11.8904 11.3217C11.949 11.3335 11.9948 11.3434 12.0408 11.352C12.5867 11.454 12.8348 11.8231 13.0219 12.3054C13.05 12.3779 13.024 12.4296 12.9512 12.4595C12.9114 12.4759 12.8669 12.485 12.8238 12.4885C12.7202 12.4967 12.616 12.4975 12.5123 12.5056C12.4267 12.5124 12.3719 12.4841 12.3306 12.4032C12.2913 12.3263 12.2331 12.258 12.1773 12.1909C11.9166 11.8771 11.3544 11.9759 11.1395 12.2673C11.033 12.4116 11.0426 12.6104 11.1685 12.7398C11.2525 12.8268 11.3594 12.8882 11.4769 12.9168C11.6085 12.9492 11.7425 12.9721 11.8749 13.0017C12.0541 13.0416 12.2353 13.0754 12.4113 13.1269C12.9188 13.2754 13.3122 13.7483 13.3375 14.2497C13.3487 14.4708 13.3052 14.6803 13.1892 14.87C13.0707 15.0637 12.9184 15.2271 12.7169 15.3369C12.5667 15.4186 12.4126 15.4934 12.236 15.5837Z" fill="white"/>
<path d="M23.1785 13.8946C22.5987 11.7478 22.2498 9.53838 21.5976 7.41382C21.5276 7.22622 21.4134 7.19796 21.0017 7.25591C20.7127 7.29659 20.4203 7.34306 20.1337 7.4029C14.5611 8.56739 8.99392 9.76032 3.40898 10.8633C2.71734 11.0175 1.07562 9.83583 0.849269 9.16388C0.0290198 6.7288 0.643172 11.5062 0.731152 12.3511C1.12734 13.9901 1.45558 15.644 1.80105 17.2944C1.87468 17.648 1.94836 18.0017 2.02221 18.3552C2.04214 18.5046 2.15882 18.6098 2.30912 18.6159C2.57013 18.6421 2.95037 18.5524 3.24279 18.4963C3.78685 18.3894 4.33112 18.2838 4.87501 18.1761C7.37544 17.6749 9.87107 17.1502 12.3691 16.6371L12.3687 16.6353C14.9897 16.1044 17.6009 15.5283 20.2153 14.9671C21.0324 14.7908 21.8516 14.6177 22.6621 14.4138C22.9235 14.3623 23.3007 14.1986 23.1785 13.8946Z" fill="#2B8958"/>
<path d="M23.5999 13.2959C23.5503 13.0824 23.5004 12.8689 23.4504 12.6555L23.45 12.654C23.2625 11.8529 23.0735 11.0522 22.8924 10.2497C22.5365 8.67265 22.1917 7.09325 21.8352 5.51634L21.8147 5.42571L21.7947 5.33728C21.7137 4.98012 21.6074 4.62803 21.4934 4.27848C21.4077 4.01559 21.2885 3.96823 20.8709 4.01692C20.6872 4.03833 20.5023 4.06278 20.3185 4.09303C20.2093 4.11086 20.1006 4.13109 19.9924 4.15369L19.9915 4.15385C19.8791 4.17742 19.7666 4.20116 19.6542 4.22494L19.5912 4.2383C19.4816 4.26154 19.372 4.28478 19.2625 4.30812L19.2136 4.31855C18.2588 4.52233 17.3049 4.73058 16.3493 4.93072C14.7922 5.25676 13.2329 5.57275 11.6753 5.89663C10.6368 6.11255 9.59925 6.33349 8.56181 6.55466C8.2079 6.63011 7.85697 6.71958 7.50251 6.79145C6.75468 6.94307 6.00557 7.08867 5.25658 7.23422C4.63459 7.35509 4.01061 7.4656 3.39 7.5931C3.29689 7.61225 3.20377 7.63146 3.11072 7.65083L3.11055 7.65088C2.96975 7.68019 2.829 7.70983 2.68831 7.73986L2.67153 7.74345C2.60508 7.75763 2.53868 7.77193 2.47228 7.78633L2.4491 7.79135C2.38213 7.80586 2.3152 7.82051 2.2483 7.83529L2.24002 7.83711C2.17445 7.85157 2.10888 7.8662 2.04336 7.88088L2.02465 7.88508C1.96079 7.89943 1.89693 7.91394 1.83312 7.92851L1.79918 7.9363C1.73642 7.9507 1.67366 7.96522 1.61096 7.97984L1.58072 7.98691C1.51526 8.00225 1.44985 8.01765 1.3845 8.03327C1.26119 8.06275 1.1401 8.10304 1.02099 8.14802C0.901876 8.19301 0.784698 8.24268 0.66923 8.29098C0.595159 8.32194 0.534224 8.35721 0.487143 8.39668C0.482912 8.40022 0.478753 8.40384 0.474668 8.40755C0.451694 8.42808 0.431406 8.45143 0.414285 8.47704C0.403688 8.49332 0.394967 8.5101 0.388178 8.52743C0.383111 8.54039 0.379087 8.55374 0.376146 8.56734C0.369253 8.60027 0.368448 8.63418 0.373772 8.66741C0.378961 8.70163 0.383542 8.73601 0.387792 8.7704C0.396237 8.83923 0.403191 8.90839 0.40987 8.9776C0.413237 9.01221 0.416548 9.04681 0.419971 9.08137C0.423393 9.11592 0.42698 9.15047 0.430789 9.18497C0.442324 9.2884 0.456454 9.39134 0.477759 9.49279C0.487142 9.53744 0.496691 9.58209 0.506295 9.62669L0.513471 9.65953C0.521032 9.69425 0.528594 9.72891 0.536266 9.76363L0.542724 9.7925C0.551003 9.82986 0.559392 9.86718 0.567837 9.90449L0.571646 9.92132C0.688659 10.438 0.816324 10.9525 0.925444 11.4709C1.26842 13.1002 1.60649 14.7305 1.94506 16.3608L1.94528 16.3619C2.04717 16.8527 2.14911 17.3434 2.25128 17.8342C2.25856 17.8691 2.26673 17.9014 2.27617 17.9313C2.27932 17.9412 2.28257 17.9509 2.28594 17.9603C2.29615 17.9885 2.30763 18.0143 2.3206 18.0378C2.33357 18.0612 2.34809 18.0823 2.36437 18.1012C2.37782 18.1167 2.39269 18.131 2.4088 18.1437C2.43138 18.1615 2.45666 18.1764 2.48497 18.1884C2.49712 18.1936 2.50981 18.1983 2.52311 18.2025C2.53641 18.2067 2.55032 18.2104 2.56484 18.2136C2.59054 18.2192 2.61657 18.2233 2.64277 18.2257C2.75962 18.2373 2.90959 18.2265 3.10326 18.1978C3.12236 18.195 3.14146 18.1915 3.1605 18.1878C3.17954 18.1841 3.19859 18.1801 3.21763 18.1764L3.22017 18.1759C3.29247 18.1619 3.36483 18.1479 3.43714 18.134L3.51275 18.1194L3.65593 18.0919L3.74844 18.0741L3.84332 18.0559C4.28278 17.9716 4.72229 17.8877 5.16148 17.8023H5.16159C5.49154 17.7382 5.8212 17.6726 6.15057 17.6056C8.34357 17.1586 10.5349 16.7031 12.7269 16.2511L12.7264 16.2484C13.4994 16.089 14.274 15.9362 15.0452 15.7689C17.2573 15.289 19.4686 14.8055 21.6791 14.3184C21.8589 14.2788 22.0384 14.2376 22.2174 14.1947C22.5156 14.1233 22.813 14.0484 23.1094 13.97C23.1262 13.9656 23.143 13.9609 23.1597 13.9561L23.1614 13.9556L23.1836 13.9489L23.1886 13.9474L23.2081 13.9412L23.2103 13.9405C23.2175 13.9382 23.2246 13.9358 23.2316 13.9334L23.2352 13.9322L23.2541 13.9255L23.2561 13.9248C23.263 13.9223 23.2698 13.9198 23.2766 13.9172L23.2786 13.9164C23.285 13.914 23.2912 13.9115 23.2974 13.909L23.2988 13.9085C23.3055 13.9058 23.3121 13.903 23.3186 13.9003L23.3188 13.9001C23.3252 13.8974 23.3315 13.8946 23.3376 13.8919L23.3386 13.8914C23.3512 13.8857 23.3633 13.8798 23.375 13.8739L23.3755 13.8737C23.3873 13.8676 23.3987 13.8615 23.4095 13.8552L23.4097 13.8551C23.5725 13.761 23.6362 13.6366 23.6291 13.4643C23.6266 13.4073 23.6128 13.3515 23.5999 13.2959Z" fill="#66CC99"/>
<path d="M20.4065 12.8672C20.4797 12.6104 20.6052 12.3841 20.7863 12.1878C20.9658 11.9932 21.1786 11.8451 21.4277 11.7593C21.5958 11.7014 21.7711 11.661 21.9459 11.6267C21.981 11.6199 22.0164 11.6146 22.052 11.6108C21.9441 11.1563 21.8381 10.7014 21.7341 10.246C21.4641 9.05757 21.2022 7.86741 20.9332 6.67879C20.7968 6.70981 20.6587 6.73194 20.5179 6.73724C20.1899 6.7496 19.8876 6.66251 19.6016 6.50509C19.3009 6.33956 19.0525 6.11818 18.8715 5.82675C18.7748 5.6711 18.7039 5.51136 18.6596 5.34766C17.7629 5.53808 16.8672 5.73314 15.9699 5.92085C14.5768 6.21223 13.1819 6.49527 11.7884 6.78482C10.8593 6.97789 9.93102 7.17505 9.00276 7.37248C8.6861 7.43981 8.37193 7.51874 8.05484 7.5831C7.38582 7.71893 6.71581 7.84975 6.04586 7.98056C5.4895 8.08918 4.93153 8.18919 4.37633 8.30328C4.02986 8.37423 3.68387 8.44753 3.33839 8.52318C3.35131 8.61701 3.35589 8.71305 3.3523 8.81102C3.34833 8.92025 3.33596 9.0292 3.32741 9.13827C3.26057 9.44686 3.16784 9.74331 2.97725 10C2.78826 10.2545 2.54436 10.4347 2.23803 10.5223C2.12913 10.5534 2.01935 10.5814 1.90829 10.6024C1.98303 10.919 2.05925 11.2353 2.12637 11.5535C2.40659 12.8824 2.68251 14.2122 2.95882 15.542C2.98189 15.5372 3.00501 15.5326 3.02809 15.5281C3.26333 15.482 3.49796 15.5105 3.72945 15.5647C3.81522 15.5847 3.89994 15.6092 3.98522 15.6314C4.13645 15.6707 4.27852 15.7305 4.40288 15.8264C4.44979 15.8625 4.49522 15.9023 4.53441 15.9465C4.6385 16.064 4.75204 16.1761 4.83787 16.3062C4.9556 16.4838 5.03367 16.6847 5.06676 16.8952C5.61302 16.7899 6.15917 16.6842 6.70422 16.5729C8.66607 16.1726 10.6265 15.7654 12.5875 15.361L12.587 15.3589C13.2786 15.2163 13.9714 15.0791 14.6615 14.93C16.567 14.5181 18.472 14.1035 20.3763 13.6861C20.3171 13.4234 20.3259 13.1505 20.4065 12.8672Z" fill="#339966"/>
<path d="M6.41182 12.5718C6.37826 12.7268 6.33168 12.8758 6.23592 13.0047C6.14098 13.1326 6.01845 13.223 5.86457 13.267C5.75986 13.297 5.65361 13.3213 5.54399 13.3254C5.37918 13.3316 5.2274 13.2879 5.08373 13.2088C4.93266 13.1256 4.80786 13.0145 4.7169 12.868C4.58438 12.6547 4.548 12.4264 4.61744 12.1829C4.65298 12.0556 4.71839 11.9385 4.80825 11.8416C4.89844 11.7438 5.00529 11.6694 5.13042 11.6263C5.21487 11.5972 5.30296 11.5769 5.39077 11.5598C5.50895 11.5366 5.62684 11.5509 5.74314 11.5781C5.78624 11.5882 5.8288 11.6005 5.87163 11.6116C5.94758 11.6314 6.019 11.6614 6.08148 11.7096C6.10505 11.7278 6.12784 11.7477 6.14755 11.7699C6.19982 11.829 6.25689 11.8853 6.3 11.9506C6.39063 12.0881 6.43042 12.2424 6.42435 12.4073C6.42236 12.4623 6.41613 12.5171 6.41182 12.5718ZM19.3459 9.90452C19.3123 10.0596 19.2657 10.2085 19.17 10.3374C19.075 10.4653 18.9525 10.5558 18.7986 10.5997C18.6939 10.6297 18.5877 10.654 18.4781 10.6581C18.3132 10.6643 18.1615 10.6206 18.0178 10.5415C17.8667 10.4583 17.7419 10.3472 17.651 10.2007C17.5184 9.98742 17.4821 9.75908 17.5515 9.51561C17.587 9.38828 17.6525 9.27126 17.7423 9.17429C17.8325 9.07654 17.9394 9.00214 18.0645 8.95903C18.1489 8.92994 18.237 8.90963 18.3248 8.89247C18.443 8.86928 18.5609 8.88363 18.6772 8.91084C18.7203 8.92095 18.7629 8.9332 18.8057 8.94435C18.8816 8.96411 18.9531 8.99413 19.0155 9.04232C19.0391 9.06048 19.0619 9.08046 19.0816 9.10265C19.1339 9.16171 19.191 9.218 19.2341 9.28335C19.3247 9.42079 19.3645 9.57511 19.3584 9.74004C19.3564 9.79501 19.3502 9.84976 19.3459 9.90452Z" fill="#66CC99"/>
<path d="M15.5687 11.6727C15.4635 12.2994 15.2001 12.9022 14.7757 13.4014C13.7461 14.6128 11.9294 15.036 10.4777 14.377C10.4359 14.3579 10.3944 14.338 10.3533 14.3176C8.19123 13.2328 7.48949 10.1338 9.40828 8.47343C10.6536 7.39581 12.7084 7.19446 14.0996 8.1044C15.2954 8.88662 15.7932 10.3343 15.5687 11.6727Z" fill="#66CC99"/>
<path d="M12.7226 13.1357C12.7477 13.2574 12.7766 13.3938 12.8038 13.5306C12.8262 13.6428 12.8155 13.6644 12.7015 13.6878C12.5488 13.7191 12.3947 13.744 12.2406 13.7679C12.149 13.7821 12.1199 13.7597 12.0991 13.6656C12.0716 13.5411 12.0471 13.416 12.02 13.2842C11.9639 13.2822 11.9172 13.2795 11.8704 13.2791C11.501 13.2767 11.1972 13.129 10.9462 12.8635C10.8367 12.7478 10.7787 12.6015 10.7091 12.4627C10.6738 12.3925 10.6946 12.3434 10.765 12.3022C10.7994 12.2819 10.8367 12.2671 10.8756 12.2582C11.024 12.2259 11.1734 12.1979 11.3221 12.1669C11.3914 12.1524 11.4332 12.1805 11.4696 12.239C11.5243 12.3268 11.5833 12.4128 11.6483 12.4932C11.7676 12.6408 11.9335 12.6804 12.1122 12.6639C12.3115 12.6456 12.5017 12.5771 12.6508 12.4481C13.0075 12.1398 12.9654 11.7312 12.5814 11.476C12.4166 11.3665 12.219 11.3337 12.0241 11.3041C11.6724 11.2507 11.3189 11.2018 10.9843 11.0748C10.8611 11.0278 10.7438 10.9671 10.6343 10.8937C10.3871 10.7279 10.2851 10.4826 10.2985 10.1915C10.3198 9.72714 10.5457 9.39172 10.9591 9.18154C11.0123 9.15449 11.0675 9.1312 11.1333 9.10079C11.1232 9.04057 11.1138 8.97881 11.1021 8.91749C11.0879 8.84286 11.071 8.76874 11.0564 8.69417C11.0403 8.61198 11.0539 8.57545 11.1292 8.55668C11.2918 8.51611 11.4564 8.48355 11.6207 8.44971C11.6857 8.43636 11.7303 8.46969 11.753 8.52732C11.7778 8.59035 11.799 8.6552 11.816 8.72077C11.835 8.7938 11.8474 8.86853 11.8636 8.9468C11.9232 8.95143 11.9698 8.95568 12.0166 8.95866C12.5708 8.99382 12.8618 9.33023 13.1059 9.78625C13.1426 9.85481 13.1231 9.90934 13.0544 9.94786C13.0169 9.96895 12.9738 9.98335 12.9314 9.99202C12.8296 10.0128 12.7262 10.0261 12.6243 10.0467C12.5401 10.0637 12.4823 10.0424 12.4315 9.96707C12.3832 9.89554 12.3172 9.83477 12.2536 9.77488C11.9568 9.49499 11.4107 9.66118 11.2327 9.9764C11.1445 10.1325 11.1782 10.3287 11.3188 10.4419C11.4126 10.5181 11.5262 10.5661 11.6463 10.5803C11.7809 10.5965 11.9166 10.6031 12.0516 10.6163C12.2344 10.6343 12.4184 10.6458 12.5993 10.6756C13.121 10.7616 13.5687 11.1834 13.6546 11.678C13.6924 11.8961 13.6746 12.1094 13.5824 12.3117C13.4882 12.5183 13.3569 12.699 13.1701 12.8324C13.031 12.9319 12.887 13.0247 12.7226 13.1357Z" fill="white"/>
</svg>
