<svg width="20" height="21" viewBox="0 0 20 21" fill="none" xmlns="http://www.w3.org/2000/svg">
<path d="M20.0009 10.2284C19.8804 8.27845 19.1919 6.40636 18.0203 4.84296C16.8486 3.27955 15.2451 2.09318 13.4074 1.4301C11.5696 0.76702 9.57802 0.656216 7.67807 1.11135C5.77812 1.56649 4.05289 2.56766 2.71507 3.99145C1.37724 5.41524 0.485308 7.19941 0.149226 9.12399C-0.186857 11.0486 0.0476043 13.0294 0.823704 14.8224C1.5998 16.6153 2.88361 18.1419 4.51686 19.2141C6.15011 20.2862 8.0614 20.8569 10.0151 20.8559H15.8343C16.939 20.8548 17.9982 20.4155 18.7793 19.6343C19.5605 18.8532 19.9998 17.794 20.0009 16.6893V10.2284ZM18.3343 16.6893C18.3343 17.3523 18.0709 17.9882 17.602 18.457C17.1332 18.9259 16.4973 19.1893 15.8343 19.1893H10.0151C8.83922 19.1887 7.67664 18.9404 6.60319 18.4604C5.52973 17.9803 4.5695 17.2795 3.78511 16.4034C2.99692 15.5278 2.40505 14.4938 2.04919 13.3708C1.69332 12.2477 1.58169 11.0615 1.72177 9.89177C1.94297 8.04672 2.77193 6.32776 4.07797 5.00587C5.38402 3.68399 7.09286 2.83436 8.93511 2.59094C9.29447 2.5459 9.65627 2.52308 10.0184 2.5226C11.9605 2.51731 13.8424 3.19586 15.3343 4.43927C16.2055 5.16339 16.9207 6.0569 17.4364 7.06563C17.9521 8.07436 18.2575 9.1773 18.3343 10.3076V16.6893Z" fill="#D93502"/>
<path d="M6.66732 8.35417H10.0007C10.2217 8.35417 10.4336 8.26637 10.5899 8.11009C10.7462 7.95381 10.834 7.74185 10.834 7.52083C10.834 7.29982 10.7462 7.08786 10.5899 6.93158C10.4336 6.7753 10.2217 6.6875 10.0007 6.6875H6.66732C6.4463 6.6875 6.23434 6.7753 6.07806 6.93158C5.92178 7.08786 5.83398 7.29982 5.83398 7.52083C5.83398 7.74185 5.92178 7.95381 6.07806 8.11009C6.23434 8.26637 6.4463 8.35417 6.66732 8.35417ZM13.334 10.0208H6.66732C6.4463 10.0208 6.23434 10.1086 6.07806 10.2649C5.92178 10.4212 5.83398 10.6332 5.83398 10.8542C5.83398 11.0752 5.92178 11.2871 6.07806 11.4434C6.23434 11.5997 6.4463 11.6875 6.66732 11.6875H13.334C13.555 11.6875 13.767 11.5997 13.9232 11.4434C14.0795 11.2871 14.1673 11.0752 14.1673 10.8542C14.1673 10.6332 14.0795 10.4212 13.9232 10.2649C13.767 10.1086 13.555 10.0208 13.334 10.0208ZM13.334 13.3542H6.66732C6.4463 13.3542 6.23434 13.442 6.07806 13.5982C5.92178 13.7545 5.83398 13.9665 5.83398 14.1875C5.83398 14.4085 5.92178 14.6205 6.07806 14.7768C6.23434 14.933 6.4463 15.0208 6.66732 15.0208H13.334C13.555 15.0208 13.767 14.933 13.9232 14.7768C14.0795 14.6205 14.1673 14.4085 14.1673 14.1875C14.1673 13.9665 14.0795 13.7545 13.9232 13.5982C13.767 13.442 13.555 13.3542 13.334 13.3542Z" fill="#D93502"/>
</svg>
