<svg width="17" height="17" viewBox="0 0 17 17" fill="none" xmlns="http://www.w3.org/2000/svg">
<path d="M8.66818 0.326172C9.31634 0.326211 9.94229 0.562315 10.429 0.990339L10.5573 1.11117L11.139 1.69284C11.2986 1.85143 11.5071 1.95155 11.7307 1.97701L11.8432 1.98367H12.6765C13.3575 1.98363 14.0128 2.24415 14.5078 2.71179C15.0029 3.17943 15.3003 3.81876 15.339 4.49867L15.3432 4.65034V5.48367C15.3432 5.70867 15.4198 5.92784 15.5582 6.10284L15.6332 6.18617L16.214 6.76784C16.6954 7.24654 16.9762 7.89085 16.9989 8.5694C17.0217 9.24794 16.7848 9.90961 16.3365 10.4195L16.2157 10.5478L15.634 11.1295C15.4754 11.2891 15.3753 11.4976 15.3498 11.7212L15.3432 11.8337V12.667C15.3432 13.348 15.0827 14.0032 14.6151 14.4983C14.1474 14.9934 13.5081 15.2908 12.8282 15.3295L12.6765 15.3337H11.8432C11.6185 15.3337 11.4004 15.4095 11.224 15.5487L11.1407 15.6237L10.559 16.2045C10.0803 16.6859 9.436 16.9667 8.75746 16.9894C8.07892 17.0122 7.41724 16.7753 6.90735 16.327L6.77902 16.2062L6.19735 15.6245C6.03772 15.4659 5.82926 15.3658 5.60568 15.3403L5.49318 15.3337H4.65985C3.97883 15.3337 3.32361 15.0732 2.82854 14.6056C2.33347 14.1379 2.03608 13.4986 1.99735 12.8187L1.99318 12.667V11.8337C1.99311 11.609 1.91737 11.3909 1.77818 11.2145L1.70318 11.1312L1.12235 10.5495C0.640916 10.0708 0.360201 9.42649 0.337438 8.74795C0.314676 8.06941 0.55158 7.40773 0.999848 6.89784L1.12068 6.76951L1.70235 6.18784C1.86094 6.02821 1.96106 5.81975 1.98652 5.59617L1.99318 5.48367V4.65034L1.99735 4.49867C2.03456 3.84488 2.31104 3.22763 2.77409 2.76458C3.23714 2.30153 3.85439 2.02505 4.50818 1.98784L4.65985 1.98367H5.49318C5.71786 1.9836 5.93597 1.90786 6.11235 1.76867L6.19568 1.69367L6.77735 1.11284C7.02513 0.863579 7.31974 0.66576 7.64424 0.530755C7.96874 0.39575 8.31672 0.326223 8.66818 0.326172ZM11.749 6.39451C11.5927 6.23828 11.3808 6.15052 11.1598 6.15052C10.9389 6.15052 10.727 6.23828 10.5707 6.39451L7.82652 9.13784L6.74901 8.06117L6.67068 7.992C6.50319 7.8625 6.29268 7.80159 6.08191 7.82167C5.87114 7.84175 5.67592 7.9413 5.53589 8.10011C5.39586 8.25891 5.32153 8.46506 5.32799 8.67669C5.33445 8.88831 5.42123 9.08954 5.57068 9.2395L7.23735 10.9062L7.31568 10.9753C7.47602 11.0997 7.67623 11.1613 7.87875 11.1486C8.08127 11.1358 8.27219 11.0497 8.41568 10.9062L11.749 7.57284L11.8182 7.49451C11.9426 7.33417 12.0042 7.13396 11.9914 6.93144C11.9787 6.72892 11.8925 6.538 11.749 6.39451Z" fill="#40C4AA"/>
</svg>
