<svg width="20" height="20" viewBox="0 0 20 20" fill="none" xmlns="http://www.w3.org/2000/svg">
<path d="M18.3333 18.9587C18.6785 18.9587 18.9583 18.6788 18.9583 18.3337C18.9583 17.9885 18.6785 17.7087 18.3333 17.7087V18.3337V18.9587ZM1.66663 17.7087C1.32145 17.7087 1.04163 17.9885 1.04163 18.3337C1.04163 18.6788 1.32145 18.9587 1.66663 18.9587V18.3337V17.7087ZM13.6785 2.15515L13.2365 2.59709V2.59709L13.6785 2.15515ZM16.7592 4.44788L16.412 4.96754L16.7592 4.44788ZM17.2191 4.90771L16.6994 5.25494V5.25494L17.2191 4.90771ZM3.24068 4.44788L3.58791 4.96754H3.58791L3.24068 4.44788ZM2.78084 4.90771L3.30051 5.25494L3.30051 5.25494L2.78084 4.90771ZM9.37496 18.3337C9.37496 18.6788 9.65478 18.9587 9.99996 18.9587C10.3451 18.9587 10.625 18.6788 10.625 18.3337H9.99996H9.37496ZM10.625 15.8337C10.625 15.4885 10.3451 15.2087 9.99996 15.2087C9.65478 15.2087 9.37496 15.4885 9.37496 15.8337H9.99996H10.625ZM8.33329 9.37533C7.98811 9.37533 7.70829 9.65515 7.70829 10.0003C7.70829 10.3455 7.98811 10.6253 8.33329 10.6253V10.0003V9.37533ZM11.6666 10.6253C12.0118 10.6253 12.2916 10.3455 12.2916 10.0003C12.2916 9.65515 12.0118 9.37533 11.6666 9.37533V10.0003V10.6253ZM4.58329 8.54199C4.23811 8.54199 3.95829 8.82181 3.95829 9.16699C3.95829 9.51217 4.23811 9.79199 4.58329 9.79199V9.16699V8.54199ZM5.83329 9.79199C6.17847 9.79199 6.45829 9.51217 6.45829 9.16699C6.45829 8.82181 6.17847 8.54199 5.83329 8.54199V9.16699V9.79199ZM4.58329 11.042C4.23811 11.042 3.95829 11.3218 3.95829 11.667C3.95829 12.0122 4.23811 12.292 4.58329 12.292V11.667V11.042ZM5.83329 12.292C6.17847 12.292 6.45829 12.0122 6.45829 11.667C6.45829 11.3218 6.17847 11.042 5.83329 11.042V11.667V12.292ZM14.1666 8.54199C13.8214 8.54199 13.5416 8.82181 13.5416 9.16699C13.5416 9.51217 13.8214 9.79199 14.1666 9.79199V9.16699V8.54199ZM15.4166 9.79199C15.7618 9.79199 16.0416 9.51217 16.0416 9.16699C16.0416 8.82181 15.7618 8.54199 15.4166 8.54199V9.16699V9.79199ZM14.1666 11.042C13.8214 11.042 13.5416 11.3218 13.5416 11.667C13.5416 12.0122 13.8214 12.292 14.1666 12.292V11.667V11.042ZM15.4166 12.292C15.7618 12.292 16.0416 12.0122 16.0416 11.667C16.0416 11.3218 15.7618 11.042 15.4166 11.042V11.667V12.292ZM4.58329 6.04199C4.23811 6.04199 3.95829 6.32181 3.95829 6.66699C3.95829 7.01217 4.23811 7.29199 4.58329 7.29199V6.66699V6.04199ZM5.83329 7.29199C6.17847 7.29199 6.45829 7.01217 6.45829 6.66699C6.45829 6.32181 6.17847 6.04199 5.83329 6.04199V6.66699V7.29199ZM14.1666 6.04199C13.8214 6.04199 13.5416 6.32181 13.5416 6.66699C13.5416 7.01217 13.8214 7.29199 14.1666 7.29199V6.66699V6.04199ZM15.4166 7.29199C15.7618 7.29199 16.0416 7.01217 16.0416 6.66699C16.0416 6.32181 15.7618 6.04199 15.4166 6.04199V6.66699V7.29199ZM8.33329 11.8753C7.98811 11.8753 7.70829 12.1551 7.70829 12.5003C7.70829 12.8455 7.98811 13.1253 8.33329 13.1253V12.5003V11.8753ZM11.6666 13.1253C12.0118 13.1253 12.2916 12.8455 12.2916 12.5003C12.2916 12.1551 12.0118 11.8753 11.6666 11.8753V12.5003V13.1253ZM9.37496 7.50033C9.37496 7.8455 9.65478 8.12533 9.99996 8.12533C10.3451 8.12533 10.625 7.8455 10.625 7.50033H9.99996H9.37496ZM10.625 4.16699C10.625 3.82181 10.3451 3.54199 9.99996 3.54199C9.65478 3.54199 9.37496 3.82181 9.37496 4.16699H9.99996H10.625ZM11.6666 6.45866C12.0118 6.45866 12.2916 6.17884 12.2916 5.83366C12.2916 5.48848 12.0118 5.20866 11.6666 5.20866V5.83366V6.45866ZM8.33329 5.20866C7.98811 5.20866 7.70829 5.48848 7.70829 5.83366C7.70829 6.17884 7.98811 6.45866 8.33329 6.45866V5.83366V5.20866ZM18.3333 18.3337V17.7087H1.66663V18.3337V18.9587H18.3333V18.3337ZM9.16663 1.66699V2.29199H10.8333V1.66699V1.04199H9.16663V1.66699ZM14.1666 5.00033H13.5416V18.3337H14.1666H14.7916V5.00033H14.1666ZM5.83329 18.3337H6.45829V5.00033H5.83329H5.20829V18.3337H5.83329ZM10.8333 1.66699V2.29199C11.6366 2.29199 12.1763 2.29332 12.5788 2.34744C12.9634 2.39914 13.1279 2.48849 13.2365 2.59709L13.6785 2.15515L14.1204 1.71321C13.7409 1.33365 13.2685 1.17892 12.7454 1.10858C12.2402 1.04066 11.6013 1.04199 10.8333 1.04199V1.66699ZM14.1666 5.00033H14.7916C14.7916 4.23232 14.793 3.59344 14.725 3.08826C14.6547 2.5651 14.5 2.09276 14.1204 1.71321L13.6785 2.15515L13.2365 2.59709C13.3451 2.70569 13.4345 2.87027 13.4862 3.25482C13.5403 3.65735 13.5416 4.19698 13.5416 5.00033H14.1666ZM9.16663 1.66699V1.04199C8.39862 1.04199 7.75974 1.04066 7.25456 1.10858C6.7314 1.17892 6.25906 1.33365 5.87951 1.71321L6.32145 2.15515L6.76339 2.59709C6.87199 2.48849 7.03657 2.39914 7.42112 2.34744C7.82365 2.29332 8.36328 2.29199 9.16663 2.29199V1.66699ZM5.83329 5.00033H6.45829C6.45829 4.19698 6.45962 3.65735 6.51374 3.25482C6.56544 2.87027 6.65479 2.70569 6.76339 2.59709L6.32145 2.15515L5.87951 1.71321C5.49995 2.09276 5.34522 2.5651 5.27489 3.08826C5.20697 3.59344 5.20829 4.23232 5.20829 5.00033H5.83329ZM17.5 7.08366H16.875V18.3337H17.5H18.125V7.08366H17.5ZM14.5833 4.16699V4.79199C15.1815 4.79199 15.5831 4.79275 15.8893 4.82389C16.185 4.85398 16.3216 4.90716 16.412 4.96754L16.7592 4.44788L17.1065 3.92821C16.7765 3.70771 16.4103 3.62045 16.0158 3.58031C15.6317 3.54124 15.1555 3.54199 14.5833 3.54199V4.16699ZM17.5 7.08366H18.125C18.125 6.51147 18.1257 6.03529 18.0866 5.65118C18.0465 5.25661 17.9592 4.89047 17.7387 4.56048L17.2191 4.90771L16.6994 5.25494C16.7598 5.34532 16.813 5.48196 16.8431 5.77768C16.8742 6.08385 16.875 6.48546 16.875 7.08366H17.5ZM16.7592 4.44788L16.412 4.96754C16.5258 5.04354 16.6234 5.1412 16.6994 5.25494L17.2191 4.90771L17.7387 4.56048C17.5715 4.31025 17.3567 4.0954 17.1065 3.92821L16.7592 4.44788ZM2.49996 7.08366H1.87496V18.3337H2.49996H3.12496V7.08366H2.49996ZM5.41663 4.16699V3.54199C4.84444 3.54199 4.36826 3.54124 3.98414 3.58031C3.58958 3.62045 3.22344 3.70771 2.89344 3.92821L3.24068 4.44788L3.58791 4.96754C3.67828 4.90716 3.81492 4.85398 4.11065 4.82389C4.41682 4.79275 4.81843 4.79199 5.41663 4.79199V4.16699ZM2.49996 7.08366H3.12496C3.12496 6.48546 3.12571 6.08385 3.15686 5.77768C3.18694 5.48196 3.24012 5.34532 3.30051 5.25494L2.78084 4.90771L2.26117 4.56048C2.04068 4.89047 1.95342 5.25661 1.91328 5.65118C1.8742 6.03529 1.87496 6.51147 1.87496 7.08366H2.49996ZM3.24068 4.44788L2.89344 3.92821C2.64322 4.0954 2.42837 4.31025 2.26117 4.56048L2.78084 4.90771L3.30051 5.25494C3.37651 5.1412 3.47417 5.04354 3.58791 4.96754L3.24068 4.44788ZM9.99996 18.3337H10.625V15.8337H9.99996H9.37496V18.3337H9.99996ZM8.33329 10.0003V10.6253H11.6666V10.0003V9.37533H8.33329V10.0003ZM4.58329 9.16699V9.79199H5.83329V9.16699V8.54199H4.58329V9.16699ZM4.58329 11.667V12.292H5.83329V11.667V11.042H4.58329V11.667ZM14.1666 9.16699V9.79199H15.4166V9.16699V8.54199H14.1666V9.16699ZM14.1666 11.667V12.292H15.4166V11.667V11.042H14.1666V11.667ZM4.58329 6.66699V7.29199H5.83329V6.66699V6.04199H4.58329V6.66699ZM14.1666 6.66699V7.29199H15.4166V6.66699V6.04199H14.1666V6.66699ZM8.33329 12.5003V13.1253H11.6666V12.5003V11.8753H8.33329V12.5003ZM9.99996 7.50033H10.625V4.16699H9.99996H9.37496V7.50033H9.99996ZM11.6666 5.83366V5.20866H8.33329V5.83366V6.45866H11.6666V5.83366Z" fill="#2E2E34"/>
</svg>
