<svg width="28" height="28" viewBox="0 0 28 28" fill="none" xmlns="http://www.w3.org/2000/svg">
<path d="M14 22.75C18.8325 22.75 22.75 18.8325 22.75 14C22.75 9.16751 18.8325 5.25 14 5.25C9.16751 5.25 5.25 9.16751 5.25 14C5.25 18.8325 9.16751 22.75 14 22.75Z" stroke="#1B5583" stroke-width="1.75" stroke-linecap="round" stroke-linejoin="round"/>
<path opacity="0.4" d="M14 17.5C15.933 17.5 17.5 15.933 17.5 14C17.5 12.067 15.933 10.5 14 10.5C12.067 10.5 10.5 12.067 10.5 14C10.5 15.933 12.067 17.5 14 17.5Z" stroke="#1B5583" stroke-width="1.75" stroke-linecap="round" stroke-linejoin="round"/>
<path opacity="0.4" d="M14 4.66732V2.33398" stroke="#1B5583" stroke-width="1.75" stroke-linecap="round" stroke-linejoin="round"/>
<path opacity="0.4" d="M4.66683 14H2.3335" stroke="#1B5583" stroke-width="1.75" stroke-linecap="round" stroke-linejoin="round"/>
<path opacity="0.4" d="M14 23.334V25.6673" stroke="#1B5583" stroke-width="1.75" stroke-linecap="round" stroke-linejoin="round"/>
<path opacity="0.4" d="M23.3335 14H25.6668" stroke="#1B5583" stroke-width="1.75" stroke-linecap="round" stroke-linejoin="round"/>
</svg>
