<svg width="24" height="24" viewBox="0 0 24 24" fill="none" xmlns="http://www.w3.org/2000/svg">
<rect width="24" height="24" rx="6" fill="#FFF0F3"/>
<path opacity="0.4" d="M17.055 14.4379C17.0039 15.2734 16.9633 15.9364 16.8801 16.466C16.7948 17.0091 16.6583 17.4613 16.3852 17.8569C16.1353 18.2189 15.8136 18.5243 15.4405 18.7539C15.0327 19.0048 14.5774 19.1145 14.0354 19.167L9.9516 19.1669C9.409 19.1143 8.95314 19.0044 8.54507 18.753C8.17176 18.523 7.84996 18.217 7.60019 17.8545C7.32715 17.4583 7.19104 17.0053 7.10638 16.4615C7.02383 15.9311 6.98415 15.2672 6.93415 14.4305L6.5 7.16699H17.5L17.055 14.4379Z" fill="#DF1C41"/>
<path fill-rule="evenodd" clip-rule="evenodd" d="M12.8982 4.85534C13.2749 4.88904 13.629 5.004 13.933 5.23077C14.1579 5.39848 14.3141 5.60378 14.4476 5.82611C14.5713 6.03215 14.6958 6.28903 14.837 6.58043L15.1215 7.1673H18C18.3682 7.1673 18.6666 7.46578 18.6666 7.83397C18.6666 8.20216 18.3682 8.50063 18 8.50063H5.99998C5.63179 8.50063 5.33331 8.20216 5.33331 7.83397C5.33331 7.46578 5.63179 7.1673 5.99998 7.1673H8.93982L9.17702 6.64694C9.31472 6.3448 9.436 6.07871 9.55782 5.86519C9.68923 5.63488 9.84479 5.42174 10.0724 5.24713C10.3802 5.011 10.7414 4.89129 11.1266 4.85622C11.389 4.83234 11.6532 4.83303 11.9168 4.83373L12 4.83392L12.0822 4.83403C12.3898 4.83436 12.667 4.83467 12.8982 4.85534ZM10.4052 7.1673H13.6398C13.4887 6.8557 13.392 6.65821 13.3044 6.5123C13.1762 6.29874 13.0226 6.20513 12.7794 6.18337C12.6065 6.16791 12.3813 6.1673 12.023 6.1673C11.6558 6.1673 11.4246 6.16794 11.2475 6.18406C10.9981 6.20677 10.8426 6.30395 10.7159 6.52594C10.6329 6.67141 10.5426 6.86614 10.4052 7.1673Z" fill="#DF1C41"/>
<path d="M9.49998 12.2111C9.49998 11.935 9.72384 11.7111 9.99998 11.7111H14C14.2761 11.7111 14.5 11.935 14.5 12.2111C14.5 12.4872 14.2761 12.7111 14 12.7111H9.99998C9.72384 12.7111 9.49998 12.4872 9.49998 12.2111Z" fill="#DF1C41"/>
<path d="M11 14.3231C10.7238 14.3231 10.5 14.5469 10.5 14.8231C10.5 15.0992 10.7238 15.3231 11 15.3231H13C13.2761 15.3231 13.5 15.0992 13.5 14.8231C13.5 14.5469 13.2761 14.3231 13 14.3231H11Z" fill="#DF1C41"/>
</svg>
