<svg width="32" height="32" viewBox="0 0 32 32" fill="none" xmlns="http://www.w3.org/2000/svg">
<rect x="0.5" y="0.5" width="31" height="31" rx="7.5" stroke="#DF1C41"/>
<path d="M14 15.3229C13.7239 15.3229 13.5 15.5468 13.5 15.8229C13.5 16.0991 13.7239 16.3229 14 16.3229H18C18.2761 16.3229 18.5 16.0991 18.5 15.8229C18.5 15.5468 18.2761 15.3229 18 15.3229H14Z" fill="#DF1C41"/>
<path d="M15 17.9359C14.7239 17.9359 14.5 18.1597 14.5 18.4359C14.5 18.712 14.7239 18.9359 15 18.9359H17C17.2761 18.9359 17.5 18.712 17.5 18.4359C17.5 18.1597 17.2761 17.9359 17 17.9359H15Z" fill="#DF1C41"/>
<path fill-rule="evenodd" clip-rule="evenodd" d="M16.044 8.83301H16.0013C15.6645 8.833 15.3787 8.83299 15.1416 8.85458C14.89 8.87749 14.6556 8.9271 14.4289 9.04762C14.3395 9.09518 14.2541 9.15008 14.1737 9.21175C13.9701 9.368 13.8277 9.5607 13.7025 9.78016C13.5845 9.98698 13.466 10.247 13.3263 10.5535L13.0469 11.1663H10C9.72386 11.1663 9.5 11.3902 9.5 11.6663C9.5 11.9425 9.72386 12.1663 10 12.1663H10.5293L10.9055 18.3991C10.9558 19.2322 10.9957 19.8933 11.0788 20.4213C11.1639 20.9629 11.3008 21.4139 11.5754 21.8085C11.8266 22.1695 12.1502 22.4742 12.5257 22.7032C12.9361 22.9535 13.3946 23.0629 13.9403 23.1153C14.4724 23.1664 15.1346 23.1663 15.9692 23.1663H16.021C16.8545 23.1663 17.516 23.1664 18.0474 23.1154C18.5925 23.0631 19.0505 22.9539 19.4606 22.704C19.8358 22.4754 20.1593 22.1713 20.4106 21.8109C20.6853 21.417 20.8226 20.9666 20.9084 20.4258C20.9921 19.8985 21.0329 19.2383 21.0843 18.4064L21.47 12.1663H22C22.2761 12.1663 22.5 11.9425 22.5 11.6663C22.5 11.3902 22.2761 11.1663 22 11.1663H19.017L18.6893 10.4904C18.546 10.1948 18.4243 9.94378 18.3046 9.74426C18.1774 9.53246 18.0345 9.34684 17.8333 9.19675C17.7538 9.13743 17.6695 9.08467 17.5815 9.03898C17.3586 8.92337 17.1293 8.87573 16.8832 8.85372C16.6514 8.83299 16.3725 8.833 16.044 8.83301ZM17.9057 11.1663H14.1459L14.2272 10.9879C14.3783 10.6565 14.4783 10.4383 14.5711 10.2757C14.6591 10.1214 14.7223 10.0513 14.7824 10.0052C14.8189 9.97713 14.8577 9.95218 14.8984 9.93056C14.9653 9.895 15.0553 9.86657 15.2323 9.85046C15.4187 9.83349 15.6587 9.83301 16.0229 9.83301C16.3782 9.83301 16.6122 9.83347 16.7941 9.84975C16.9668 9.86519 17.0551 9.89245 17.121 9.92663C17.161 9.9474 17.1993 9.97138 17.2354 9.99835C17.2949 10.0427 17.358 10.1103 17.4472 10.2589C17.5412 10.4156 17.6437 10.6259 17.7987 10.9456L17.9057 11.1663ZM11.9022 18.313L11.5311 12.1663H20.4681L20.0878 18.3189C20.0344 19.1824 19.996 19.7947 19.9208 20.2691C19.8468 20.7356 19.7437 21.019 19.5904 21.2389C19.4184 21.4855 19.1971 21.6936 18.9403 21.85C18.7114 21.9895 18.4221 22.0749 17.952 22.12C17.4738 22.1658 16.8603 22.1663 15.9952 22.1663C15.1289 22.1663 14.5146 22.1658 14.0358 22.1199C13.565 22.0747 13.2755 21.9892 13.0464 21.8494C12.7895 21.6927 12.5681 21.4843 12.3962 21.2373C12.2429 21.017 12.1401 20.7332 12.0666 20.266C11.9919 19.7909 11.9544 19.1777 11.9022 18.313Z" fill="#DF1C41"/>
</svg>
