<svg width="28" height="20" viewBox="0 0 28 20" fill="none" xmlns="http://www.w3.org/2000/svg">
<g clip-path="url(#clip0_5147_5529)">
<mask id="mask0_5147_5529" style="mask-type:luminance" maskUnits="userSpaceOnUse" x="0" y="0" width="28" height="20">
<path d="M28 0H0V20H28V0Z" fill="white"/>
</mask>
<g mask="url(#mask0_5147_5529)">
<path d="M23.7032 1.78168C21.9186 1.02663 20.0048 0.470338 18.0039 0.151727C17.9674 0.145578 17.931 0.160945 17.9123 0.19168C17.6661 0.59532 17.3935 1.1219 17.2026 1.53579C15.0505 1.2387 12.9094 1.2387 10.8014 1.53579C10.6104 1.1127 10.3279 0.59532 10.0807 0.19168C10.0619 0.16197 10.0255 0.146604 9.98906 0.151727C7.98923 0.46932 6.07549 1.02561 4.28976 1.78168C4.2743 1.78783 4.26105 1.79808 4.25225 1.81139C0.62229 6.8119 -0.372109 11.6895 0.11571 16.5066C0.117917 16.5302 0.132265 16.5527 0.152131 16.5671C2.54708 18.1888 4.86699 19.1734 7.14383 19.8259C7.18026 19.8362 7.21887 19.8239 7.24206 19.7962C7.78065 19.118 8.26075 18.403 8.67239 17.651C8.69668 17.6069 8.67349 17.5547 8.62384 17.5372C7.86232 17.2709 7.1372 16.9461 6.43968 16.5773C6.38451 16.5476 6.3801 16.4748 6.43085 16.44C6.57763 16.3386 6.72446 16.2331 6.86461 16.1265C6.88997 16.1071 6.92531 16.103 6.95512 16.1152C11.5375 18.0444 16.4985 18.0444 21.0268 16.1152C21.0566 16.1019 21.0919 16.106 21.1184 16.1255C21.2586 16.232 21.4054 16.3386 21.5533 16.44C21.604 16.4748 21.6007 16.5476 21.5455 16.5773C20.848 16.9533 20.1229 17.2709 19.3603 17.5362C19.3106 17.5536 19.2885 17.6069 19.3128 17.651C19.7333 18.4019 20.2134 19.117 20.742 19.7952C20.7641 19.8239 20.8038 19.8362 20.8403 19.8259C23.1282 19.1734 25.4481 18.1888 27.843 16.5671C27.864 16.5527 27.8772 16.5312 27.8794 16.5076C28.4633 10.9385 26.9016 6.10092 23.7396 1.81241C23.7319 1.79808 23.7186 1.78783 23.7032 1.78168ZM9.35669 13.5735C7.97708 13.5735 6.84032 12.4056 6.84032 10.9713C6.84032 9.53703 7.95504 8.36914 9.35669 8.36914C10.7694 8.36914 11.8951 9.54728 11.873 10.9713C11.873 12.4056 10.7583 13.5735 9.35669 13.5735ZM18.6605 13.5735C17.281 13.5735 16.1442 12.4056 16.1442 10.9713C16.1442 9.53703 17.2589 8.36914 18.6605 8.36914C20.0732 8.36914 21.199 9.54728 21.1769 10.9713C21.1769 12.4056 20.0732 13.5735 18.6605 13.5735Z" fill="#5865F2"/>
</g>
</g>
<defs>
<clipPath id="clip0_5147_5529">
<rect width="28" height="20" fill="white"/>
</clipPath>
</defs>
</svg>
