<svg width="20" height="20" viewBox="0 0 20 20" fill="none" xmlns="http://www.w3.org/2000/svg">
<path opacity="0.4" d="M1.72501 3.8334C2.39167 0.950065 6.73334 0.950065 7.39167 3.8334C7.78334 5.52507 6.70834 6.9584 5.77501 7.85007C5.09167 8.50007 4.01667 8.49173 3.33334 7.85007C2.40834 6.9584 1.33334 5.52507 1.72501 3.8334Z" stroke="#231F20" stroke-width="1.25"/>
<path opacity="0.4" d="M12.5583 13.8334C13.225 10.9501 17.5917 10.9501 18.2583 13.8334C18.65 15.5251 17.575 16.9584 16.6333 17.8501C15.95 18.5001 14.8667 18.4917 14.1833 17.8501C13.2417 16.9584 12.1667 15.5251 12.5583 13.8334Z" stroke="#231F20" stroke-width="1.25"/>
<path d="M10 4.16699H12.2333C13.775 4.16699 14.4917 6.07533 13.3333 7.09199L6.67501 12.917C5.51667 13.9253 6.23334 15.8337 7.76667 15.8337H10" stroke="#231F20" stroke-width="1.25" stroke-linecap="round" stroke-linejoin="round"/>
<path d="M4.57185 4.58366H4.58148" stroke="#231F20" stroke-width="1.66667" stroke-linecap="round" stroke-linejoin="round"/>
<path d="M15.4052 14.5837H15.4148" stroke="#231F20" stroke-width="1.66667" stroke-linecap="round" stroke-linejoin="round"/>
</svg>
