<svg width="20" height="20" viewBox="0 0 20 20" fill="none" xmlns="http://www.w3.org/2000/svg">
<path d="M4.52377 3.12533C4.86895 3.12533 5.14877 2.8455 5.14877 2.50033C5.14877 2.15515 4.86895 1.87533 4.52377 1.87533V2.50033V3.12533ZM10.2381 1.87533C9.89288 1.87533 9.61306 2.15515 9.61306 2.50033C9.61306 2.8455 9.89288 3.12533 10.2381 3.12533V2.50033V1.87533ZM13.0855 4.78011L12.4629 4.83517V4.83517L13.0855 4.78011ZM10.8154 2.51004L10.7604 3.13261L10.8154 2.51004ZM3.94641 2.51004L3.89136 1.88747L3.94641 2.51004ZM1.67634 4.78011L2.29891 4.83517V4.83517L1.67634 4.78011ZM10.625 1.66699C10.625 1.32181 10.3451 1.04199 9.99996 1.04199C9.65478 1.04199 9.37496 1.32181 9.37496 1.66699H9.99996H10.625ZM9.37496 3.33366C9.37496 3.67884 9.65478 3.95866 9.99996 3.95866C10.3451 3.95866 10.625 3.67884 10.625 3.33366H9.99996H9.37496ZM5.62496 1.66699C5.62496 1.32181 5.34514 1.04199 4.99996 1.04199C4.65478 1.04199 4.37496 1.32181 4.37496 1.66699H4.99996H5.62496ZM4.37496 3.33366C4.37496 3.67884 4.65478 3.95866 4.99996 3.95866C5.34514 3.95866 5.62496 3.67884 5.62496 3.33366H4.99996H4.37496ZM7.49996 11.8631H6.87496V14.167H7.49996H8.12496V11.8631H7.49996ZM11.6666 18.3337V18.9587H12.4019V18.3337V17.7087H11.6666V18.3337ZM7.49996 14.167H6.87496C6.87496 16.8134 9.02026 18.9587 11.6666 18.9587V18.3337V17.7087C9.71062 17.7087 8.12496 16.123 8.12496 14.167H7.49996ZM12.4019 18.3337V18.9587C14.2615 18.9587 15.8273 17.7079 16.307 16.0029L15.7054 15.8337L15.1037 15.6644C14.7717 16.8445 13.6869 17.7087 12.4019 17.7087V18.3337ZM4.52377 2.50033V1.87533H4.44737V2.50033V3.12533H4.52377V2.50033ZM1.66663 5.28107H1.04163V6.02974H1.66663H2.29163V5.28107H1.66663ZM13.0952 6.26783H13.7202V5.28107H13.0952H12.4702V6.26783H13.0952ZM10.3145 2.50033V1.87533H10.2381V2.50033V3.12533H10.3145V2.50033ZM13.0952 5.28107H13.7202C13.7202 5.03372 13.7208 4.86935 13.7081 4.72506L13.0855 4.78011L12.4629 4.83517C12.4696 4.91066 12.4702 5.00701 12.4702 5.28107H13.0952ZM10.3145 2.50033V3.12533C10.5885 3.12533 10.6849 3.12594 10.7604 3.13261L10.8154 2.51004L10.8705 1.88747C10.7262 1.87471 10.5618 1.87533 10.3145 1.87533V2.50033ZM13.0855 4.78011L13.7081 4.72506C13.5747 3.2166 12.3789 2.02086 10.8705 1.88747L10.8154 2.51004L10.7604 3.13261C11.6654 3.21265 12.3829 3.93009 12.4629 4.83517L13.0855 4.78011ZM13.0952 6.26783H12.4702C12.4702 9.01282 10.2449 11.2381 7.49996 11.2381V11.8631V12.4881C10.9353 12.4881 13.7202 9.70317 13.7202 6.26783H13.0952ZM1.66663 6.02974H1.04163C1.04163 9.59657 3.93312 12.4881 7.49996 12.4881V11.8631V11.2381C4.62348 11.2381 2.29163 8.90622 2.29163 6.02974H1.66663ZM4.44737 2.50033V1.87533C4.20002 1.87533 4.03565 1.87471 3.89136 1.88747L3.94641 2.51004L4.00147 3.13261C4.07696 3.12594 4.17331 3.12533 4.44737 3.12533V2.50033ZM1.66663 5.28107H2.29163C2.29163 5.00701 2.29224 4.91066 2.29891 4.83517L1.67634 4.78011L1.05377 4.72506C1.04101 4.86935 1.04163 5.03372 1.04163 5.28107H1.66663ZM3.94641 2.51004L3.89136 1.88747C2.3829 2.02086 1.18716 3.2166 1.05377 4.72506L1.67634 4.78011L2.29891 4.83517C2.37895 3.93009 3.09639 3.21265 4.00147 3.13261L3.94641 2.51004ZM18.3333 13.3337H17.7083C17.7083 14.3692 16.8688 15.2087 15.8333 15.2087V15.8337V16.4587C17.5592 16.4587 18.9583 15.0595 18.9583 13.3337H18.3333ZM15.8333 15.8337V15.2087C14.7978 15.2087 13.9583 14.3692 13.9583 13.3337H13.3333H12.7083C12.7083 15.0595 14.1074 16.4587 15.8333 16.4587V15.8337ZM13.3333 13.3337H13.9583C13.9583 12.2981 14.7978 11.4587 15.8333 11.4587V10.8337V10.2087C14.1074 10.2087 12.7083 11.6078 12.7083 13.3337H13.3333ZM15.8333 10.8337V11.4587C16.8688 11.4587 17.7083 12.2981 17.7083 13.3337H18.3333H18.9583C18.9583 11.6078 17.5592 10.2087 15.8333 10.2087V10.8337ZM9.99996 1.66699H9.37496V3.33366H9.99996H10.625V1.66699H9.99996ZM4.99996 1.66699H4.37496V3.33366H4.99996H5.62496V1.66699H4.99996Z" fill="#2E2E34"/>
</svg>
