<svg width="32" height="32" viewBox="0 0 32 32" fill="none" xmlns="http://www.w3.org/2000/svg">
<rect x="0.5" y="0.5" width="31" height="31" rx="7.5" stroke="#818181"/>
<path fill-rule="evenodd" clip-rule="evenodd" d="M18.1361 9.19588C18.9258 8.72621 19.8998 8.71149 20.703 9.15741C21.0362 9.34238 21.3401 9.65304 21.7921 10.1151L21.9148 10.2404C22.3684 10.7035 22.6719 11.0133 22.8521 11.3521C23.2845 12.1649 23.2705 13.148 22.8147 13.9477C22.6247 14.281 22.3123 14.5818 21.8457 15.0309L15.4333 21.2071C14.5127 22.0941 13.9453 22.6408 13.2274 22.9212C12.5084 23.2021 11.7266 23.1815 10.4618 23.1481L10.1372 23.1397C9.9518 23.1349 9.76441 23.13 9.6097 23.1042C9.43201 23.0746 9.22097 23.0064 9.054 22.8169C8.88853 22.6291 8.84607 22.4124 8.83613 22.2341C8.82735 22.0765 8.84211 21.8876 8.85693 21.6979L8.88421 21.3477C8.9704 20.2393 9.02309 19.5617 9.29064 18.9459C9.55854 18.3293 10.0162 17.8336 10.7629 17.0248L17.0752 10.1857C17.5138 9.71027 17.8085 9.39072 18.1361 9.19588ZM20.2176 10.0317C19.7258 9.75865 19.1313 9.76749 18.6473 10.0554C18.4617 10.1657 18.2714 10.3642 17.75 10.9291L17.6956 10.988L21.0839 14.3763L21.0894 14.3709C21.6418 13.8389 21.8369 13.6438 21.9459 13.4526C22.2317 12.951 22.2407 12.332 21.9693 11.8218C21.8658 11.6272 21.6763 11.4263 21.1395 10.8779C20.602 10.3289 20.4062 10.1364 20.2176 10.0317ZM11.5605 17.6351L17.0168 11.7234L20.3635 15.0701L14.8203 20.4091C13.792 21.3996 13.3727 21.7909 12.8636 21.9898C12.3555 22.1882 11.7899 22.1825 10.3767 22.1456L10.1901 22.1407C10.0837 22.1379 9.9995 22.1357 9.92718 22.1319C9.8897 22.1299 9.85888 22.1277 9.83335 22.1252C9.83361 22.0451 9.84175 21.9317 9.85596 21.7493L9.87396 21.5183C9.96987 20.2873 10.0151 19.7879 10.2078 19.3444C10.4001 18.9017 10.7311 18.5337 11.5605 17.6351Z" fill="#818181"/>
<path d="M17.3335 22.1663C17.0574 22.1663 16.8335 22.3902 16.8335 22.6663C16.8335 22.9425 17.0574 23.1663 17.3335 23.1663H22.6668C22.943 23.1663 23.1668 22.9425 23.1668 22.6663C23.1668 22.3902 22.943 22.1663 22.6668 22.1663H17.3335Z" fill="#818181"/>
</svg>
