<svg width="20" height="20" viewBox="0 0 20 20" fill="none" xmlns="http://www.w3.org/2000/svg">
<g clip-path="url(#clip0_1233_1529)">
<path d="M8.33329 19.0833C8.74751 19.0833 9.08329 18.7475 9.08329 18.3333C9.08329 17.9191 8.74751 17.5833 8.33329 17.5833V19.0833ZM2.41663 12.5C2.41663 12.0857 2.08084 11.75 1.66663 11.75C1.25241 11.75 0.916626 12.0857 0.916626 12.5H2.41663ZM19.0833 12.5C19.0833 12.0857 18.7475 11.75 18.3333 11.75C17.9191 11.75 17.5833 12.0857 17.5833 12.5H19.0833ZM11.6666 17.5833C11.2524 17.5833 10.9166 17.9191 10.9166 18.3333C10.9166 18.7475 11.2524 19.0833 11.6666 19.0833V17.5833ZM11.6666 0.916626C11.2524 0.916626 10.9166 1.25241 10.9166 1.66663C10.9166 2.08084 11.2524 2.41663 11.6666 2.41663V0.916626ZM17.5833 7.49996C17.5833 7.91417 17.9191 8.24996 18.3333 8.24996C18.7475 8.24996 19.0833 7.91417 19.0833 7.49996H17.5833ZM8.33329 2.41663C8.74751 2.41663 9.08329 2.08084 9.08329 1.66663C9.08329 1.25241 8.74751 0.916626 8.33329 0.916626V2.41663ZM0.916626 7.49996C0.916626 7.91417 1.25241 8.24996 1.66663 8.24996C2.08084 8.24996 2.41663 7.91417 2.41663 7.49996H0.916626ZM14.9166 6.66663C14.9166 6.25241 14.5808 5.91663 14.1666 5.91663C13.7524 5.91663 13.4166 6.25241 13.4166 6.66663H14.9166ZM13.4166 7.91663C13.4166 8.33084 13.7524 8.66663 14.1666 8.66663C14.5808 8.66663 14.9166 8.33084 14.9166 7.91663H13.4166ZM6.58329 6.66663C6.58329 6.25241 6.24751 5.91663 5.83329 5.91663C5.41908 5.91663 5.08329 6.25241 5.08329 6.66663H6.58329ZM5.08329 7.91663C5.08329 8.33084 5.41908 8.66663 5.83329 8.66663C6.24751 8.66663 6.58329 8.33084 6.58329 7.91663H5.08329ZM11.5833 6.66663C11.5833 6.25241 11.2475 5.91663 10.8333 5.91663C10.4191 5.91663 10.0833 6.25241 10.0833 6.66663H11.5833ZM9.16663 10.0833C8.75241 10.0833 8.41663 10.4191 8.41663 10.8333C8.41663 11.2475 8.75241 11.5833 9.16663 11.5833V10.0833ZM13.6687 14.0041C14.0392 13.8189 14.1894 13.3684 14.0041 12.9979C13.8189 12.6274 13.3684 12.4772 12.9979 12.6625L13.6687 14.0041ZM7.00204 12.6625C6.63155 12.4772 6.18105 12.6274 5.99581 12.9979C5.81056 13.3684 5.96073 13.8189 6.33122 14.0041L7.00204 12.6625ZM8.33329 18.3333V17.5833C6.74074 17.5833 5.62178 17.5817 4.77566 17.4679C3.95111 17.3571 3.49885 17.1522 3.17327 16.8267L2.64294 17.357L2.11261 17.8873C2.76334 18.538 3.5849 18.8213 4.57578 18.9546C5.54509 19.0849 6.78315 19.0833 8.33329 19.0833V18.3333ZM1.66663 12.5H0.916626C0.916626 14.0378 0.913744 15.0899 1.04983 15.8698C1.20085 16.7352 1.5258 17.3005 2.11261 17.8873L2.64294 17.357L3.17327 16.8267C2.78376 16.4371 2.62056 16.1452 2.5275 15.6119C2.41951 14.9931 2.41663 14.1048 2.41663 12.5H1.66663ZM18.3333 12.5H17.5833C17.5833 14.1048 17.5804 14.9931 17.4724 15.6119C17.3794 16.1452 17.2162 16.4371 16.8267 16.8267L17.357 17.357L17.8873 17.8873C18.4741 17.3005 18.7991 16.7352 18.9501 15.8698C19.0862 15.0899 19.0833 14.0378 19.0833 12.5H18.3333ZM11.6666 18.3333V19.0833C13.2168 19.0833 14.4548 19.0849 15.4241 18.9546C16.415 18.8213 17.2366 18.538 17.8873 17.8873L17.357 17.357L16.8267 16.8267C16.5011 17.1522 16.0488 17.3571 15.2243 17.4679C14.3781 17.5817 13.2592 17.5833 11.6666 17.5833V18.3333ZM11.6666 1.66663V2.41663C13.2592 2.41663 14.3781 2.41822 15.2243 2.53198C16.0488 2.64283 16.5011 2.84769 16.8267 3.17327L17.357 2.64294L17.8873 2.11261C17.2366 1.46187 16.415 1.17857 15.4241 1.04535C14.4548 0.915033 13.2168 0.916626 11.6666 0.916626V1.66663ZM18.3333 7.49996H19.0833C19.0833 5.96208 19.0862 4.91 18.9501 4.13013C18.7991 3.26467 18.4741 2.69941 17.8873 2.11261L17.357 2.64294L16.8267 3.17327C17.2162 3.56277 17.3794 3.85468 17.4724 4.38798C17.5804 5.00686 17.5833 5.89514 17.5833 7.49996H18.3333ZM8.33329 1.66663V0.916626C6.78315 0.916626 5.54509 0.915033 4.57578 1.04535C3.5849 1.17857 2.76334 1.46187 2.11261 2.11261L2.64294 2.64294L3.17327 3.17327C3.49885 2.84769 3.95111 2.64283 4.77566 2.53198C5.62178 2.41822 6.74074 2.41663 8.33329 2.41663V1.66663ZM1.66663 7.49996H2.41663C2.41663 5.89514 2.41951 5.00686 2.5275 4.38798C2.62056 3.85468 2.78376 3.56277 3.17327 3.17327L2.64294 2.64294L2.11261 2.11261C1.5258 2.69941 1.20085 3.26467 1.04983 4.13013C0.913744 4.91 0.916626 5.96208 0.916626 7.49996H1.66663ZM14.1666 6.66663H13.4166V7.91663H14.1666H14.9166V6.66663H14.1666ZM5.83329 6.66663H5.08329V7.91663H5.83329H6.58329V6.66663H5.83329ZM10.8333 6.66663H10.0833V9.83329H10.8333H11.5833V6.66663H10.8333ZM9.83329 10.8333V10.0833H9.16663V10.8333V11.5833H9.83329V10.8333ZM13.3333 13.3333L12.9979 12.6625C11.1106 13.6061 8.88927 13.6061 7.00204 12.6625L6.66663 13.3333L6.33122 14.0041C8.64074 15.1589 11.3592 15.1589 13.6687 14.0041L13.3333 13.3333ZM10.8333 9.83329H10.0833C10.0833 9.97136 9.97136 10.0833 9.83329 10.0833V10.8333V11.5833C10.7998 11.5833 11.5833 10.7998 11.5833 9.83329H10.8333Z" fill="#D93502"/>
</g>
<defs>
<clipPath id="clip0_1233_1529">
<rect width="20" height="20" rx="5" fill="white"/>
</clipPath>
</defs>
</svg>
