<svg width="20" height="20" viewBox="0 0 20 20" fill="none" xmlns="http://www.w3.org/2000/svg">
<path d="M9.99996 18.3346C14.5833 18.3346 18.3333 14.5846 18.3333 10.0013C18.3333 5.41797 14.5833 1.66797 9.99996 1.66797C5.41663 1.66797 1.66663 5.41797 1.66663 10.0013C1.66663 14.5846 5.41663 18.3346 9.99996 18.3346Z" stroke="#F9F8FF" stroke-width="1.25" stroke-linecap="round" stroke-linejoin="round"/>
<path opacity="0.34" d="M7 8.21906C7.01966 7.51351 7.30467 6.96728 7.85504 6.58037C8.40541 6.19346 9.13759 6 10.0516 6C10.6413 6 11.1572 6.07207 11.5995 6.21622C12.0418 6.36036 12.3858 6.57278 12.6315 6.85348C12.8772 7.1266 13 7.47179 13 7.88905C13 8.19251 12.9361 8.45424 12.8084 8.67425C12.6904 8.88668 12.5283 9.07634 12.3219 9.24324C12.1253 9.40256 11.9189 9.55429 11.7027 9.69844C11.4865 9.84258 11.2752 9.99052 11.0688 10.1422C10.8722 10.2864 10.7101 10.4533 10.5823 10.643C10.4644 10.8326 10.4054 11.0602 10.4054 11.3257H9.10811C9.10811 11.0147 9.16216 10.753 9.27027 10.5405C9.38821 10.3205 9.53071 10.1309 9.69779 9.97155C9.87469 9.81223 10.0614 9.66809 10.258 9.53912C10.4545 9.40256 10.6364 9.266 10.8034 9.12945C10.9803 8.99289 11.1229 8.84116 11.231 8.67425C11.3489 8.50735 11.4079 8.30631 11.4079 8.07112C11.4079 7.72214 11.2703 7.46799 10.9951 7.30868C10.7297 7.14177 10.3661 7.05832 9.90418 7.05832C9.4226 7.05832 9.04423 7.15695 8.76904 7.3542C8.49386 7.54386 8.34644 7.83594 8.32678 8.23044L7 8.21906ZM9.74202 12.5548C10.0074 12.5548 10.2285 12.623 10.4054 12.7596C10.5823 12.8886 10.6708 13.0593 10.6708 13.2717C10.6708 13.4841 10.5823 13.6586 10.4054 13.7952C10.2285 13.9317 10.0074 14 9.74202 14C9.47666 14 9.25553 13.9317 9.07862 13.7952C8.90172 13.6586 8.81327 13.4841 8.81327 13.2717C8.81327 13.0593 8.90172 12.8886 9.07862 12.7596C9.25553 12.623 9.47666 12.5548 9.74202 12.5548Z" fill="#F9F8FF"/>
</svg>
