<svg width="32" height="32" viewBox="0 0 32 32" fill="none" xmlns="http://www.w3.org/2000/svg">
<g clip-path="url(#clip0_12129_5350)">
<path d="M16 32C24.8366 32 32 24.8366 32 16C32 7.16344 24.8366 0 16 0C7.16344 0 0 7.16344 0 16C0 24.8366 7.16344 32 16 32Z" fill="#FC4581"/>
<path d="M26.0748 4C24.9641 4.75906 24.1235 5.92138 24.4162 7.66875C25.1831 12.2471 21.6507 14.5828 27.1714 17.0374C29.1342 17.9102 30.3705 18.9312 31.1403 19.8041C31.4805 18.5363 31.6624 17.2035 31.6624 15.8282C31.6624 11.0642 29.4867 6.80844 26.0748 4Z" fill="#FF7186"/>
<path d="M5.58763 4C6.69831 4.75906 7.53887 5.92138 7.24619 7.66875C6.47931 12.2471 10.0117 14.5828 4.491 17.0374C2.52819 17.9102 1.29194 18.9312 0.522125 19.8041C0.181875 18.5363 0 17.2035 0 15.8282C0 11.0642 2.17575 6.80844 5.58763 4Z" fill="#FF7186"/>
<path d="M19.9204 20.5363C21.4191 20.0049 20.9499 19.043 20.9499 19.043C20.2466 20.2537 19.7236 19.043 19.7236 19.043C20.9446 18.5993 20.5604 17.8626 20.5604 17.8626C18.8898 19.3862 19.4323 15.865 19.4323 15.865H11.3802C11.3802 15.865 11.9233 19.3886 10.252 17.8626C10.252 17.8626 9.86791 18.5993 11.0895 19.043C11.0895 19.043 10.5664 20.2537 9.86259 19.043C9.86259 19.043 9.39335 20.0049 10.8921 20.5363C10.8921 20.5363 10.6167 21.727 9.11914 21.313C9.11914 21.313 9.84368 25.5654 15.4065 25.3033C20.9688 25.5654 21.6933 21.313 21.6933 21.313C20.1964 21.727 19.9204 20.5363 19.9204 20.5363Z" fill="#7F3726"/>
<path d="M13.6973 18.1443H17.3312V24.3489H13.6973V18.1443Z" fill="#FAB3A7"/>
<path d="M19.5283 13.114C19.5283 13.114 19.7996 15.1504 21.0885 17.2817C21.0885 17.2817 21.7208 17.9034 21.6617 19.1788C21.66 19.1977 21.6657 19.2165 21.6775 19.2311C21.6893 19.2457 21.7063 19.2549 21.7247 19.2566C21.7431 19.2584 21.7614 19.2526 21.7757 19.2405C21.7899 19.2284 21.7989 19.211 21.8006 19.1922C21.8465 18.8623 21.8503 18.5278 21.8119 18.197C21.7357 17.5453 21.5184 16.9193 21.176 16.3646C20.8805 15.8749 20.4733 15.0196 20.585 14.1352L19.5283 13.114Z" fill="#7F3726"/>
<path d="M11.406 13.114C11.406 13.114 11.1347 15.1504 9.8458 17.2817C9.8458 17.2817 9.21345 17.9034 9.27255 19.1788C9.27428 19.1977 9.26861 19.2165 9.25681 19.2311C9.24501 19.2457 9.22803 19.2549 9.20961 19.2566C9.1912 19.2584 9.17285 19.2526 9.15861 19.2405C9.14437 19.2284 9.1354 19.211 9.13367 19.1922C9.08779 18.8623 9.08402 18.5278 9.12244 18.197C9.19959 17.5446 9.41783 16.918 9.76129 16.3628C10.0568 15.8731 10.464 15.0178 10.3523 14.1334L11.406 13.114Z" fill="#7F3726"/>
<path d="M21.8131 11.0017C21.7869 12.106 21.9662 13.2053 22.3414 14.2408C22.3414 14.2408 22.7084 14.7856 22.4826 15.6936C22.4807 15.7003 22.48 15.7072 22.4807 15.7141C22.4814 15.721 22.4834 15.7277 22.4866 15.7338C22.4931 15.7461 22.5041 15.7553 22.5172 15.7593C22.5303 15.7633 22.5444 15.7619 22.5564 15.7552C22.5684 15.7486 22.5774 15.7373 22.5813 15.7239C22.6613 15.4931 22.7118 15.2526 22.7314 15.0084C22.7699 14.5272 22.7029 14.0432 22.5352 13.5919C22.391 13.1936 22.2214 12.5163 22.4277 11.897L21.8131 11.0017Z" fill="#7F3726"/>
<path d="M21.1465 9.38601V13.317C21.1465 16.2499 18.8677 17.1912 17.2065 18.6803C16.7381 19.109 16.132 19.3459 15.5039 19.3459C14.8758 19.3459 14.2696 19.109 13.8013 18.6803C12.1406 17.1887 9.86182 16.2499 9.86182 13.317V9.38601C9.86182 9.3733 9.86182 9.35938 9.86182 9.34667C9.87482 7.29519 10.9498 5.51794 12.5212 4.63112C12.572 4.60207 13.9047 4.06453 14.5896 4.03487C14.657 4.03124 14.7256 4.03003 14.7935 4.03003H16.2225C17.377 4.03268 18.4908 4.46707 19.3547 5.25159C19.487 5.36989 19.6131 5.49537 19.7323 5.6275C20.5837 6.57569 21.0828 7.80016 21.1424 9.08698C21.1436 9.18686 21.1465 9.28553 21.1465 9.38601Z" fill="#FAB3A7"/>
<path d="M12.1134 13.317V9.38601C12.1134 6.57908 14.1003 4.27579 16.6297 4.04879C16.4938 4.03548 16.3567 4.03003 16.216 4.03003H14.79C12.0679 4.03003 9.86182 6.42836 9.86182 9.38601V11.3322C9.56685 11.3391 9.28623 11.4639 9.08 11.6801C8.87377 11.8962 8.7583 12.1864 8.7583 12.4886C8.7583 12.7909 8.87377 13.0811 9.08 13.2972C9.28623 13.5133 9.56685 13.6382 9.86182 13.6451H9.87305C10.0368 16.3219 12.2033 17.2469 13.8007 18.6803C14.1798 19.028 14.6519 19.2514 15.1561 19.3219C15.6603 19.3923 16.1735 19.3065 16.6297 19.0756C16.421 18.9705 16.2269 18.8376 16.0523 18.6803C14.3917 17.1894 12.1134 16.2493 12.1134 13.317Z" fill="#F58D89"/>
<path d="M21.1455 13.6454C21.7692 13.6454 22.2748 13.1275 22.2748 12.4886C22.2748 11.8497 21.7692 11.3318 21.1455 11.3318C20.5217 11.3318 20.0161 11.8497 20.0161 12.4886C20.0161 13.1275 20.5217 13.6454 21.1455 13.6454Z" fill="#FAB3A7"/>
<path d="M14.0317 10.8698C13.9919 10.8699 13.9529 10.8581 13.9194 10.8359C12.8125 10.1047 11.4929 10.8359 11.4799 10.8432C11.4561 10.8583 11.4295 10.8683 11.4019 10.8726C11.3742 10.8769 11.346 10.8754 11.3189 10.8682C11.2918 10.861 11.2664 10.8482 11.2443 10.8307C11.2222 10.8131 11.2038 10.7912 11.1902 10.7661C11.1766 10.7411 11.1681 10.7135 11.1652 10.685C11.1623 10.6565 11.1651 10.6277 11.1734 10.6003C11.1817 10.5729 11.1953 10.5475 11.2134 10.5257C11.2316 10.5039 11.2539 10.4861 11.2789 10.4733C11.3416 10.4376 12.8255 9.60893 14.144 10.48C14.1815 10.5048 14.2101 10.5414 14.2257 10.5843C14.2412 10.6272 14.2428 10.6741 14.2301 10.7179C14.2175 10.7618 14.1913 10.8003 14.1556 10.8277C14.1198 10.8551 14.0763 10.8699 14.0317 10.8698Z" fill="#27273D"/>
<path d="M16.8638 10.8698C16.8179 10.8701 16.7732 10.8547 16.7368 10.8261C16.7004 10.7974 16.6744 10.7572 16.6629 10.7117C16.6513 10.6661 16.655 10.618 16.6731 10.5748C16.6913 10.5317 16.7231 10.496 16.7633 10.4733C16.8224 10.4376 18.3099 9.60893 19.6278 10.48C19.6517 10.4946 19.6724 10.5139 19.6888 10.5369C19.7052 10.5598 19.717 10.5859 19.7233 10.6136C19.7297 10.6413 19.7305 10.67 19.7258 10.6981C19.7211 10.7261 19.7109 10.7529 19.6958 10.7768C19.6808 10.8007 19.6612 10.8213 19.6382 10.8373C19.6152 10.8533 19.5893 10.8644 19.5621 10.8699C19.5348 10.8754 19.5068 10.8752 19.4796 10.8694C19.4524 10.8636 19.4266 10.8522 19.4038 10.8359C18.2922 10.1017 16.9773 10.8359 16.9643 10.8432C16.9335 10.8607 16.899 10.8699 16.8638 10.8698Z" fill="#27273D"/>
<path d="M16.0163 13.6453H14.9455C14.7882 13.6453 14.6606 13.7759 14.6606 13.937V13.9903C14.6606 14.1514 14.7882 14.2821 14.9455 14.2821H16.0163C16.1737 14.2821 16.3012 14.1514 16.3012 13.9903V13.937C16.3012 13.7759 16.1737 13.6453 16.0163 13.6453Z" fill="#F58D89"/>
<path d="M9.89414 12.0289C9.83383 12.0266 9.77369 12.0369 9.71733 12.059C9.66096 12.081 9.60952 12.1146 9.56607 12.1575C9.52263 12.2004 9.48808 12.2518 9.46448 12.3087C9.44087 12.3656 9.42871 12.4268 9.42871 12.4886C9.42871 12.5504 9.44087 12.6116 9.46448 12.6685C9.48808 12.7254 9.52263 12.7769 9.56607 12.8198C9.60952 12.8627 9.66096 12.8962 9.71733 12.9183C9.77369 12.9404 9.83383 12.9506 9.89414 12.9484V12.0289Z" fill="#E07E7E"/>
<path d="M21.1465 12.9484C21.2068 12.9506 21.2669 12.9404 21.3233 12.9183C21.3797 12.8962 21.4311 12.8627 21.4746 12.8198C21.518 12.7769 21.5525 12.7254 21.5762 12.6685C21.5998 12.6116 21.6119 12.5504 21.6119 12.4886C21.6119 12.4268 21.5998 12.3656 21.5762 12.3087C21.5525 12.2518 21.518 12.2004 21.4746 12.1575C21.4311 12.1146 21.3797 12.081 21.3233 12.059C21.2669 12.0369 21.2068 12.0266 21.1465 12.0289V12.9484Z" fill="#F58D89"/>
<path d="M12.7074 13.0456C12.9679 13.0456 13.179 12.7342 13.179 12.3501C13.179 11.9659 12.9679 11.6545 12.7074 11.6545C12.447 11.6545 12.2358 11.9659 12.2358 12.3501C12.2358 12.7342 12.447 13.0456 12.7074 13.0456Z" fill="#27273D"/>
<path d="M13.5665 12.0484C13.5306 12.0486 13.4953 12.039 13.4643 12.0205C13.2355 11.8866 12.9766 11.8157 12.7131 11.815C12.4495 11.8142 12.1903 11.8836 11.9608 12.0163C11.9143 12.0462 11.8582 12.0559 11.8047 12.0434C11.7512 12.0308 11.7048 11.997 11.6757 11.9494C11.6465 11.9018 11.637 11.8443 11.6493 11.7895C11.6615 11.7348 11.6945 11.6872 11.741 11.6573C11.7782 11.6331 12.6723 11.069 13.6693 11.6531C13.7087 11.6764 13.7394 11.7124 13.7569 11.7554C13.7743 11.7984 13.7774 11.8461 13.7657 11.8911C13.754 11.9361 13.7281 11.9759 13.6921 12.0043C13.6561 12.0327 13.612 12.0482 13.5665 12.0484Z" fill="#27273D"/>
<path d="M18.1923 13.0449C18.4528 13.0449 18.6639 12.7335 18.6639 12.3493C18.6639 11.9652 18.4528 11.6538 18.1923 11.6538C17.9318 11.6538 17.7207 11.9652 17.7207 12.3493C17.7207 12.7335 17.9318 13.0449 18.1923 13.0449Z" fill="#27273D"/>
<path d="M19.0474 12.0484C19.0115 12.0487 18.9762 12.039 18.9452 12.0205C18.7163 11.8868 18.4575 11.8161 18.194 11.8154C17.9305 11.8147 17.6713 11.8839 17.4417 12.0163C17.3953 12.0462 17.3391 12.056 17.2856 12.0435C17.232 12.0311 17.1855 11.9973 17.1563 11.9497C17.1271 11.9021 17.1175 11.8446 17.1297 11.7897C17.1419 11.7349 17.1748 11.6873 17.2213 11.6573C17.2591 11.6331 18.1533 11.0695 19.1502 11.6531C19.1896 11.6764 19.2204 11.7123 19.2378 11.7554C19.2552 11.7984 19.2583 11.8461 19.2466 11.8911C19.2349 11.9361 19.209 11.9758 19.173 12.0043C19.137 12.0327 19.0929 12.0482 19.0474 12.0484Z" fill="#27273D"/>
<path d="M15.5038 15.2557C14.7024 15.1219 14.0039 15.6552 14.0039 15.6552C14.0039 16.0789 14.6753 16.4918 15.5038 16.4918C16.3312 16.4918 17.0037 16.0795 17.0037 15.6552C17.0037 15.6564 16.3058 15.1219 15.5038 15.2557Z" fill="#D54545"/>
<path d="M16.5711 15.6915H14.7562C14.7769 15.6242 14.8219 15.5674 14.8821 15.5329C15.178 15.3611 15.5078 15.2597 15.8472 15.2363C15.7326 15.2303 15.6177 15.2368 15.5044 15.2557C14.7024 15.1225 14.0039 15.6552 14.0039 15.6552C14.0039 16.079 14.6758 16.4918 15.5044 16.4918C15.6192 16.4916 15.734 16.4835 15.8478 16.4676C15.3661 16.3998 14.9737 16.1934 14.7946 15.9464C14.7769 15.9211 14.7635 15.8928 14.755 15.8629H16.5711C16.5827 15.8638 16.5943 15.8624 16.6053 15.8585C16.6163 15.8547 16.6264 15.8485 16.6349 15.8405C16.6435 15.8324 16.6503 15.8226 16.655 15.8118C16.6597 15.8009 16.6621 15.7891 16.6621 15.7772C16.6621 15.7653 16.6597 15.7535 16.655 15.7426C16.6503 15.7318 16.6435 15.722 16.6349 15.7139C16.6264 15.7059 16.6163 15.6997 16.6053 15.6959C16.5943 15.692 16.5827 15.6905 16.5711 15.6915Z" fill="#C11E1E"/>
<path d="M18.4949 7.0979C18.4949 7.0979 15.3491 6.24619 13.5732 8.02405V6.34123L15.5122 5.08032H17.0033L18.4949 7.0979Z" fill="#9E4830"/>
<path d="M11.8887 12.0442C12.3207 11.4244 12.7048 10.56 12.8047 9.38501L8.3724 13.0449C8.3724 13.0449 5.82233 16.8064 10.663 16.6472C10.663 16.6472 7.9008 15.0176 10.4184 13.3784C10.6656 13.2515 10.8964 13.0938 11.1057 12.9087C10.9349 13.7803 10.1506 14.9553 10.1506 14.9553C11.3025 14.2676 11.6854 12.8887 11.8887 12.0442Z" fill="#9E4830"/>
<path d="M23.8535 11.3325C23.8535 11.3325 24.0107 9.07578 22.7106 10.0843C22.7106 10.0843 22.1084 2.61204 19.5151 4.19256C16.6501 1.1889 12.9281 3.44195 12.0428 4.05212C11.9101 4.14292 11.7753 4.2313 11.6386 4.31726C8.48103 6.3082 8.73279 11.3325 8.73279 11.3325C8.62287 10.6012 8.22277 10.6 7.90838 10.7271C7.681 10.8205 7.48667 10.9824 7.35109 11.1914C6.58282 12.3579 6.9374 12.9233 7.39068 13.1932C7.57015 13.298 7.76991 13.361 7.9758 13.3778C8.18168 13.3946 8.38867 13.3649 8.58209 13.2907C11.5062 12.2011 13.3572 8.53824 13.8631 7.42322C14.0045 7.10539 14.189 6.80951 14.4109 6.54428C16.4492 4.14232 18.4951 7.09876 18.4951 7.09876C18.4951 7.09876 19.3816 6.79246 19.6859 7.72407C19.7313 7.86733 19.7536 8.01718 19.7521 8.16778C19.7521 8.81185 19.9235 11.4505 22.7502 12.4892C22.7502 12.4886 24.2081 12.8627 23.8535 11.3325Z" fill="#A65C3B"/>
<path d="M20.2662 10.3367C20.2662 10.3367 20.2113 12.3912 21.1462 14.7084C21.1462 14.7084 21.6716 15.4263 21.411 16.6751C21.4083 16.6927 21.4121 16.7107 21.4217 16.7256C21.4312 16.7405 21.4458 16.7512 21.4626 16.7558C21.4795 16.7603 21.4973 16.7582 21.5128 16.7501C21.5282 16.7419 21.5402 16.7281 21.5463 16.7114C21.644 16.3937 21.7006 16.0642 21.7147 15.7314C21.7429 15.0758 21.6276 14.422 21.3773 13.8179C21.1616 13.2852 20.8968 12.3742 21.1462 11.5177L20.2662 10.3367Z" fill="#9E4830"/>
<path d="M19.5447 4.59243C19.5878 5.09546 19.5382 5.82489 19.0364 6.37453C19.019 6.39336 19.0076 6.41715 19.0035 6.44276C18.9995 6.46838 19.0032 6.49464 19.0139 6.51812C19.0247 6.54159 19.0422 6.56119 19.064 6.57434C19.0859 6.58749 19.1111 6.59359 19.1363 6.59184C19.4685 6.56763 19.956 6.49681 20.2255 6.28918C20.2409 6.27685 20.259 6.26838 20.2782 6.26441C20.2974 6.26044 20.3172 6.2611 20.3361 6.26632C20.355 6.27155 20.3725 6.28119 20.3871 6.29451C20.4018 6.30782 20.4132 6.32444 20.4205 6.34305C20.4879 6.52465 20.5718 6.81582 20.5358 7.09487C20.5328 7.12261 20.5388 7.15056 20.5527 7.17454C20.5666 7.19852 20.5877 7.21723 20.6129 7.22787C20.6381 7.23851 20.6659 7.2405 20.6923 7.23355C20.7187 7.2266 20.7421 7.21107 20.7591 7.18931C20.9997 6.88664 21.2018 6.35092 20.9022 5.45442C20.8946 5.43221 20.8813 5.41254 20.8636 5.39752C20.846 5.38251 20.8246 5.37273 20.8019 5.36924C20.7792 5.36575 20.756 5.36868 20.7349 5.37772C20.7137 5.38676 20.6953 5.40156 20.6817 5.42052L20.6356 5.48651C20.6241 5.50325 20.6087 5.5169 20.5909 5.52632C20.5732 5.53574 20.5534 5.54066 20.5334 5.54066C20.5134 5.54066 20.4936 5.53574 20.4758 5.52632C20.4581 5.5169 20.4427 5.50325 20.4312 5.48651L19.7734 4.50829C19.7576 4.48506 19.7347 4.46781 19.7084 4.45921C19.682 4.45061 19.6536 4.45114 19.6276 4.46071C19.6016 4.47029 19.5794 4.48838 19.5644 4.51219C19.5494 4.53599 19.5425 4.56419 19.5447 4.59243Z" fill="#BC6F50"/>
<path d="M9.86264 14.4246C10.188 14.4246 10.4518 14.1544 10.4518 13.821C10.4518 13.4877 10.188 13.2175 9.86264 13.2175C9.53723 13.2175 9.27344 13.4877 9.27344 13.821C9.27344 14.1544 9.53723 14.4246 9.86264 14.4246Z" fill="white"/>
<path d="M21.1468 14.4246C21.4722 14.4246 21.736 14.1544 21.736 13.821C21.736 13.4877 21.4722 13.2175 21.1468 13.2175C20.8214 13.2175 20.5576 13.4877 20.5576 13.821C20.5576 14.1544 20.8214 14.4246 21.1468 14.4246Z" fill="white"/>
<path d="M13.9575 23.7949H17.0625C17.0625 23.7949 16.8303 26.146 15.5035 28.002C15.5041 28.005 14.2306 26.3882 13.9575 23.7949Z" fill="white"/>
<path d="M23.9998 29.1945C21.4609 31.0165 18.4369 31.9959 15.3369 32.0002C12.2368 32.0046 9.21029 31.0336 6.6665 29.2187C7.40936 25.8713 8.33069 21.9578 12.0237 20.9475C13.1867 23.7554 14.349 26.564 15.5105 29.3731C16.5955 26.5631 17.5665 23.6691 18.8046 20.9287C22.0307 22.2514 23.3226 25.4384 23.9147 28.7181C23.8911 28.5117 23.9023 28.5274 23.9998 29.1945Z" fill="#505075"/>
<path d="M18.38 24.138L19.6305 23.3208C19.7262 21.1761 18.5608 20.328 17.7872 20.0029C17.7181 19.9743 17.6429 19.9642 17.5689 19.9737C17.4948 19.9832 17.4244 20.012 17.3643 20.0573C17.3042 20.1025 17.2564 20.1628 17.2254 20.2323C17.1944 20.3018 17.1813 20.3783 17.1874 20.4545C17.5438 25.4122 15.5037 28.0048 15.5037 28.0048C15.5037 28.0048 13.4784 25.4116 13.8389 20.4533C13.8449 20.3772 13.8317 20.3008 13.8008 20.2314C13.7699 20.1619 13.7221 20.1017 13.6621 20.0564C13.6021 20.0111 13.5318 19.9823 13.4579 19.9726C13.384 19.9629 13.3089 19.9727 13.2397 20.0011C12.4619 20.3244 11.2835 21.1712 11.3793 23.3208L12.628 24.138L10.6943 24.7433C10.6943 24.7433 11.764 29.8583 15.5037 31.6743C19.244 29.8583 20.3131 24.7433 20.3131 24.7433L18.38 24.138Z" fill="#27273D"/>
</g>
<defs>
<clipPath id="clip0_12129_5350">
<rect width="32" height="32" fill="white"/>
</clipPath>
</defs>
</svg>
