<svg width="24" height="24" viewBox="0 0 24 24" fill="none" xmlns="http://www.w3.org/2000/svg">
<path opacity="0.4" d="M16.8355 8.11274C19.2507 10.4506 20.8805 13.5816 21.4339 16.8954C21.7172 18.5918 21.0625 20.0804 19.9372 21.12C18.8233 22.1493 17.2439 22.75 15.5967 22.75H8.40284C6.75564 22.75 5.17628 22.1493 4.06233 21.12C2.93711 20.0804 2.28236 18.5918 2.56567 16.8954C3.23577 12.883 5.31989 9.89741 7.13802 8.13796C7.23048 8.04847 7.32299 7.96078 7.42715 7.88473C7.65219 7.72042 8.0545 7.5576 8.33049 7.51914C8.46784 7.5 8.5666 7.5 8.76412 7.5H15.2355C15.433 7.5 15.5317 7.5 15.6691 7.51914C15.9451 7.5576 16.3474 7.72042 16.5724 7.88473C16.6844 7.9665 16.7348 8.01526 16.8355 8.11274Z" fill="#C1C7D0"/>
<path d="M11.9996 1.25C11.3523 1.25 10.8873 1.65936 10.6411 1.90644C10.5378 2.01 10.4419 2.13129 10.3449 2.25393C10.1612 2.48602 9.97374 2.723 9.72587 2.85411C9.45988 2.99481 9.12848 2.89996 8.84315 2.8183C8.79249 2.8038 8.74327 2.78972 8.69613 2.77744C8.3982 2.69989 7.9441 2.58244 7.46291 2.64649C7.25381 2.67432 6.97944 2.74083 6.76686 2.9301C6.51512 3.15425 6.47449 3.43315 6.5113 3.64394C6.55608 3.9004 6.71492 4.11086 6.87084 4.31102L7.76317 5.4599C7.77658 5.47722 7.78998 5.49456 7.80339 5.51191C8.01997 5.79212 8.23863 6.07503 8.52641 6.28636C8.75279 6.4526 9.03924 6.5 9.32011 6.5H14.679C14.9599 6.5 15.2464 6.4526 15.4727 6.28636C15.7605 6.07504 15.9792 5.79215 16.1957 5.51194C16.2091 5.49458 16.2226 5.47723 16.236 5.4599L17.1283 4.31102C17.2842 4.11086 17.4431 3.90039 17.4878 3.64394C17.5247 3.43315 17.484 3.15425 17.2323 2.9301C17.0197 2.74083 16.7453 2.67432 16.5362 2.64649C16.0551 2.58244 15.601 2.69989 15.303 2.77744C15.2559 2.78972 15.2067 2.80381 15.156 2.81831C14.8707 2.89996 14.5393 2.99481 14.2733 2.85411C14.0254 2.723 13.8379 2.48602 13.6543 2.25393C13.5573 2.13129 13.4613 2.01001 13.3581 1.90644C13.1119 1.65936 12.6468 1.25 11.9996 1.25Z" fill="#C1C7D0"/>
<path d="M12.6626 11.8047C12.6626 11.3905 12.3268 11.0547 11.9126 11.0547C11.4984 11.0547 11.1626 11.3905 11.1626 11.8047V11.9182C10.7743 12.0091 10.4158 12.1703 10.1146 12.3925C9.627 12.7523 9.24957 13.31 9.24957 13.9941C9.24957 14.5757 9.46041 15.1396 10.0153 15.5134C10.5068 15.8445 11.1686 15.954 11.9126 15.954C12.566 15.954 12.9066 16.0546 13.0681 16.1599C13.1621 16.2212 13.2496 16.3109 13.2496 16.6155C13.2496 16.8375 13.1707 16.9552 13.0021 17.0565C12.7881 17.185 12.4207 17.2771 11.9126 17.2771C11.3792 17.2771 10.9647 17.1019 10.7468 16.9069C10.4381 16.6307 9.96397 16.657 9.68774 16.9656C9.4115 17.2743 9.43778 17.7484 9.74644 18.0246C10.1227 18.3614 10.6187 18.5922 11.1626 18.7026V18.8047C11.1626 19.2189 11.4984 19.5547 11.9126 19.5547C12.3268 19.5547 12.6626 19.2189 12.6626 18.8047V18.7221C13.0584 18.6605 13.4419 18.5421 13.7745 18.3423C14.3613 17.9899 14.7496 17.4018 14.7496 16.6155C14.7496 15.9119 14.4892 15.2959 13.8875 14.9035C13.3534 14.5551 12.6506 14.454 11.9126 14.454C11.2653 14.454 10.9706 14.3484 10.8534 14.2694C10.7996 14.2332 10.7496 14.1921 10.7496 13.9941C10.7496 13.8987 10.8004 13.7506 11.0052 13.5995C11.2097 13.4486 11.5281 13.3326 11.9126 13.3326C12.4475 13.3326 12.8283 13.5521 12.9852 13.7585C13.2359 14.0883 13.7064 14.1524 14.0362 13.9018C14.3659 13.6511 14.4301 13.1806 14.1794 12.8508C13.8225 12.3813 13.2752 12.0619 12.6626 11.9185V11.8047Z" fill="#C1C7D0"/>
</svg>
