<svg width="33" height="32" viewBox="0 0 33 32" fill="none" xmlns="http://www.w3.org/2000/svg">
<path d="M12.5 29.3337H20.5C27.1666 29.3337 29.8333 26.667 29.8333 20.0003V12.0003C29.8333 5.33366 27.1666 2.66699 20.5 2.66699H12.5C5.83329 2.66699 3.16663 5.33366 3.16663 12.0003V20.0003C3.16663 26.667 5.83329 29.3337 12.5 29.3337Z" stroke="#231F20" stroke-width="2" stroke-linecap="round" stroke-linejoin="round"/>
<path opacity="0.4" d="M12.5 13.3333C13.9728 13.3333 15.1667 12.1394 15.1667 10.6667C15.1667 9.19391 13.9728 8 12.5 8C11.0273 8 9.83337 9.19391 9.83337 10.6667C9.83337 12.1394 11.0273 13.3333 12.5 13.3333Z" stroke="#231F20" stroke-width="2" stroke-linecap="round" stroke-linejoin="round"/>
<path opacity="0.4" d="M4.06018 25.2671L10.6335 20.8537C11.6868 20.1471 13.2068 20.2271 14.1535 21.0404L14.5935 21.4271C15.6335 22.3204 17.3135 22.3204 18.3535 21.4271L23.9002 16.6671C24.9402 15.7737 26.6202 15.7737 27.6602 16.6671L29.8335 18.5337" stroke="#231F20" stroke-width="2" stroke-linecap="round" stroke-linejoin="round"/>
</svg>
