<svg width="33" height="32" viewBox="0 0 33 32" fill="none" xmlns="http://www.w3.org/2000/svg">
<path d="M7.59187 19.3369L6.478 23.4951L2.40681 23.5812C1.19013 21.3246 0.5 18.7426 0.5 15.9989C0.5 13.3457 1.14525 10.8437 2.289 8.64062H2.28987L5.91437 9.30512L7.50212 12.9079C7.16981 13.8767 6.98869 14.9167 6.98869 15.9989C6.98881 17.1734 7.20156 18.2987 7.59187 19.3369Z" fill="#FBBB00"/>
<path d="M32.2203 13.0078C32.404 13.9757 32.4998 14.9753 32.4998 15.9968C32.4998 17.1423 32.3794 18.2597 32.1499 19.3375C31.3711 23.0052 29.3359 26.2078 26.5166 28.4742L26.5157 28.4733L21.9504 28.2404L21.3043 24.2069C23.1751 23.1098 24.6371 21.3929 25.4072 19.3375H16.8516V13.0078H32.2203Z" fill="#518EF8"/>
<path d="M26.5152 28.4744L26.5161 28.4752C23.7742 30.6792 20.2911 31.9979 16.4994 31.9979C10.4062 31.9979 5.10869 28.5922 2.40625 23.5803L7.59131 19.3359C8.9425 22.9421 12.4212 25.5091 16.4994 25.5091C18.2524 25.5091 19.8946 25.0352 21.3038 24.208L26.5152 28.4744Z" fill="#28B446"/>
<path d="M26.7128 3.6835L21.5295 7.927C20.0711 7.01537 18.3471 6.48875 16.5001 6.48875C12.3295 6.48875 8.78575 9.17356 7.50225 12.909L2.28994 8.64175H2.28906C4.95194 3.50769 10.3163 0 16.5001 0C20.3823 0 23.9418 1.38287 26.7128 3.6835Z" fill="#F14336"/>

</svg>
