<svg width="24" height="24" viewBox="0 0 24 24" fill="none" xmlns="http://www.w3.org/2000/svg">
<path opacity="0.4" d="M9.06165 4.82633L3.23911 9.92134C2.7398 10.3583 3.07458 11.1343 3.76238 11.1343C4.18259 11.1343 4.52324 11.4489 4.52324 11.8371V15.0806C4.52324 17.871 4.52324 19.2662 5.46176 20.1331C6.40029 21 7.91082 21 10.9319 21H13.0681C16.0892 21 17.5997 21 18.5382 20.1331C19.4768 19.2662 19.4768 17.871 19.4768 15.0806V11.8371C19.4768 11.4489 19.8174 11.1343 20.2376 11.1343C20.9254 11.1343 21.2602 10.3583 20.7609 9.92134L14.9383 4.82633C13.5469 3.60878 12.8512 3 12 3C11.1488 3 10.4531 3.60878 9.06165 4.82633Z" fill="#DD4C67"/>
<path d="M12 15C11.4477 15 11 15.4477 11 16C11 16.5523 11.4477 17 12 17H12.009C12.5613 17 13.009 16.5523 13.009 16C13.009 15.4477 12.5613 15 12.009 15H12Z" fill="#DD4C67"/>
<path fill-rule="evenodd" clip-rule="evenodd" d="M12 2.25C11.3712 2.25 10.8389 2.48307 10.3159 2.83353C9.82124 3.16499 9.26891 3.64833 8.60469 4.22959L2.74521 9.35692C2.23573 9.80273 2.13862 10.4595 2.36692 10.9887C2.59151 11.5093 3.11595 11.8843 3.76238 11.8843C3.76645 11.8843 3.77006 11.8846 3.77323 11.885L3.77323 15.1392C3.7732 16.4846 3.77318 17.5762 3.89837 18.4362C4.02945 19.3368 4.31096 20.0912 4.95287 20.6841C5.58631 21.2691 6.37798 21.5185 7.32344 21.6359C8.24228 21.75 9.41353 21.75 10.8803 21.75H13.1197C14.5864 21.75 15.7577 21.75 16.6765 21.6359C17.622 21.5185 18.4137 21.2691 19.0471 20.6841C19.689 20.0912 19.9705 19.3368 20.1016 18.4362C20.2268 17.5762 20.2268 16.4846 20.2268 15.1392V11.885C20.2288 11.8847 20.2311 11.8845 20.2335 11.8844C20.2348 11.8843 20.2362 11.8843 20.2376 11.8843C20.884 11.8843 21.4085 11.5093 21.6331 10.9887C21.8614 10.4595 21.7643 9.80273 21.2548 9.35692L15.3953 4.2296C14.7311 3.64834 14.1787 3.16499 13.6841 2.83353C13.1611 2.48307 12.6288 2.25 12 2.25ZM9.55554 5.39075C10.2662 4.76887 10.7462 4.35083 11.1509 4.07964C11.5364 3.82132 11.7775 3.75 12 3.75C12.2224 3.75 12.4636 3.82132 12.8491 4.07964C13.2538 4.35083 13.7338 4.76887 14.4444 5.39075L20.1537 10.3866C19.4084 10.4276 18.7268 11.0107 18.7268 11.8371V15.0806C18.7268 16.4987 18.7249 17.4807 18.6173 18.2202C18.5137 18.9315 18.326 19.3082 18.0293 19.5822C17.7243 19.864 17.2914 20.048 16.4917 20.1474C15.6761 20.2486 14.5983 20.25 13.0681 20.25H10.9319C9.40173 20.25 8.32387 20.2486 7.50829 20.1474C6.70859 20.048 6.27572 19.864 5.97064 19.5822C5.67403 19.3082 5.48627 18.9315 5.38272 18.2202C5.27509 17.4807 5.27323 16.4987 5.27323 15.0806V11.8371C5.27323 11.0107 4.5916 10.4276 3.84632 10.3866L9.55554 5.39075Z" fill="#DD4C67"/>
</svg>
