<svg width="24" height="24" viewBox="0 0 24 24" fill="none" xmlns="http://www.w3.org/2000/svg">
<path opacity="0.4" d="M7.5665 10.5081C7.04399 11.4042 6.06737 12.0071 4.94882 12.0071C4.20623 12.0071 3.5262 11.7413 3.00007 11.3005L3.00007 15.5047C3.00007 18.3312 3.00007 19.7445 3.87875 20.6226C4.75743 21.5007 6.17164 21.5007 9.00007 21.5007L15.0001 21.5007C17.8285 21.5007 19.2427 21.5007 20.1214 20.6226C21.0001 19.7445 21.0001 18.3312 21.0001 15.5047V11.3005C20.474 11.7413 19.7939 12.0071 19.0514 12.0071C17.9328 12.0071 16.9562 11.4042 16.4337 10.5081H15.248C14.4855 11.4219 13.3139 12.0071 12.0001 12.0071C10.6863 12.0071 9.51465 11.4219 8.7522 10.5081H7.5665Z" fill="#C1C7D0"/>
<path d="M8.4411 16.479C8.71607 16.1692 9.1901 16.1409 9.49989 16.4159C10.0203 16.8778 10.9199 17.2268 12.002 17.2268C13.0841 17.2268 13.9838 16.8778 14.5042 16.4159C14.8139 16.1409 15.288 16.1692 15.5629 16.479C15.8379 16.7887 15.8097 17.2628 15.4999 17.5377C14.6521 18.2902 13.3735 18.7268 12.002 18.7268C10.6305 18.7268 9.35194 18.2902 8.50415 17.5377C8.19436 17.2628 8.16614 16.7887 8.4411 16.479Z" fill="#C1C7D0"/>
<path fill-rule="evenodd" clip-rule="evenodd" d="M20.1212 2.66458C19.3827 1.94588 18.361 1.72291 17.7742 1.75286L6.16813 1.78184C5.08487 1.73176 4.30949 2.13447 3.8243 2.73337C3.36703 3.29782 3.21696 3.97357 3.21696 4.43755C3.21696 4.68257 3.20257 4.96195 3.08009 5.35466C2.95427 5.75806 2.70536 6.30865 2.20128 7.06827C1.66546 7.87572 1.31702 8.53655 1.26174 9.20303C1.20365 9.90334 1.48042 10.4755 1.78188 11.0332C1.91101 11.2721 2.07259 11.4786 2.25201 11.6567L2.25201 15.5469C2.25199 16.9162 2.25197 18.0197 2.36852 18.8876C2.4895 19.7886 2.74828 20.5471 3.35003 21.1495C3.95191 21.7522 4.70986 22.0114 5.61014 22.1326C6.47716 22.2493 7.57952 22.2493 8.94705 22.2493L15.057 22.2493C16.4245 22.2493 17.5268 22.2493 18.3939 22.1326C19.2941 22.0114 20.0521 21.7522 20.654 21.1496C21.2557 20.5471 21.5145 19.7886 21.6355 18.8876C21.7521 18.0197 21.752 16.9162 21.752 15.5468L21.752 11.6097C21.8052 11.5629 21.8541 11.5182 21.8986 11.4766C22.8164 10.6165 23.2331 8.87778 21.8892 7.15402C21.2109 6.28405 20.9406 5.4889 20.8498 4.65814L20.843 4.59624C20.8158 4.34415 20.781 4.02132 20.7007 3.71472C20.611 3.37234 20.4497 2.98436 20.1212 2.66458ZM17.8458 3.25119C17.9368 3.24521 18.1467 3.26165 18.3999 3.34549C18.6468 3.42721 18.8882 3.55775 19.075 3.73955C19.1381 3.80093 19.1994 3.90302 19.2496 4.09479C19.3006 4.28924 19.3243 4.50689 19.3551 4.78881L19.3586 4.82115C19.4782 5.91443 19.8481 6.97571 20.7062 8.07632C21.5901 9.20997 21.2048 10.071 20.8729 10.382C20.266 10.9508 19.3469 11.5474 18.3533 11.1374C17.7484 10.8877 17.4168 10.613 17.209 10.3058C16.9939 9.98791 16.8574 9.55651 16.7856 8.89429C16.7462 8.53044 16.4499 8.24818 16.0846 8.22643C15.7193 8.20467 15.3916 8.44978 15.3092 8.80638C15.2108 9.23294 14.9363 9.73772 14.5244 10.1816C14.1141 10.6238 13.6148 10.9544 13.116 11.093C12.5671 11.2454 11.6551 11.3216 10.7929 11.0261C9.97192 10.7447 9.15037 10.1146 8.70493 8.74339C8.59094 8.39251 8.23871 8.17663 7.87432 8.23433C7.50993 8.29203 7.24162 8.60617 7.24162 8.9751C7.24162 9.43488 7.04977 10.0355 6.64742 10.5075C6.26713 10.9536 5.7045 11.2812 4.91288 11.2706C4.6574 11.244 4.27287 11.1582 3.90858 10.9903C3.52703 10.8144 3.24469 10.585 3.10145 10.32C2.8022 9.76634 2.73858 9.54437 2.7566 9.32703C2.77744 9.07588 2.92163 8.69558 3.45112 7.89766C4.01235 7.05192 4.33382 6.37276 4.51206 5.80127C4.69363 5.21908 4.71696 4.77844 4.71696 4.43755C4.71696 4.24644 4.78973 3.92459 4.98983 3.67759C5.15885 3.46896 5.46841 3.24773 6.11221 3.2809C6.12568 3.28159 6.13917 3.28192 6.15267 3.28189L17.7985 3.2528C17.8143 3.25276 17.8301 3.25223 17.8458 3.25119ZM20.252 12.5442C19.5523 12.8111 18.7058 12.9055 17.7811 12.5239C16.988 12.1966 16.3839 11.7631 15.9667 11.1464C15.9231 11.082 15.8821 11.0165 15.8436 10.9498C15.773 11.0362 15.6996 11.1203 15.6239 11.2019C15.0701 11.7987 14.3415 12.3094 13.5175 12.5383C12.7461 12.7525 11.5165 12.8597 10.3066 12.4451C9.52869 12.1785 8.77787 11.7012 8.17784 10.9369C8.06505 11.1262 7.9354 11.3088 7.78893 11.4806C7.13744 12.2449 6.14728 12.7992 4.85252 12.7697C4.83537 12.7693 4.81823 12.7683 4.80115 12.7668C4.51132 12.7402 4.1399 12.6692 3.75201 12.539L3.75201 15.492C3.75201 16.9291 3.7536 17.9316 3.85517 18.688C3.95386 19.4229 4.13442 19.8123 4.41135 20.0895C4.68815 20.3667 5.07665 20.5473 5.81025 20.646C6.56553 20.7477 7.56657 20.7493 9.00201 20.7493L15.002 20.7493C16.4374 20.7493 17.4385 20.7477 18.1937 20.646C18.9273 20.5473 19.3158 20.3667 19.5927 20.0895C19.8696 19.8123 20.0502 19.4229 20.1488 18.688C20.2504 17.9316 20.252 16.9291 20.252 15.492L20.252 12.5442Z" fill="#C1C7D0"/>
</svg>
