<svg width="24" height="24" viewBox="0 0 24 24" fill="none" xmlns="http://www.w3.org/2000/svg">
<path opacity="0.4" d="M3.19143 4.45934C3.19143 2.95786 4.41603 1.75 5.91512 1.75L18.0849 1.75C19.584 1.75 20.8086 2.95786 20.8086 4.45934C20.8086 5.00972 20.9532 5.55089 21.2287 6.02939L22.2149 7.74274C22.4737 8.19195 22.6839 8.55669 22.7347 9.16669C22.7553 9.41456 22.7576 9.62312 22.726 9.82441C22.6958 10.0172 22.6381 10.1717 22.5956 10.2854L22.5894 10.3023C22.0565 11.7329 20.6723 12.75 19.0513 12.75C17.695 12.75 16.5023 12.037 15.8374 10.9644C14.9338 12.0575 13.5446 12.75 12 12.75C10.4554 12.75 9.06617 12.0575 8.16259 10.9644C7.49773 12.037 6.30506 12.75 4.94875 12.75C3.32768 12.75 1.94355 11.7329 1.41065 10.3022L1.40436 10.2854C1.3619 10.1717 1.30421 10.0172 1.27397 9.82441C1.2424 9.62312 1.24469 9.41457 1.26533 9.16669C1.31613 8.55668 1.52628 8.19195 1.78509 7.74274L2.77133 6.02939C3.04677 5.55089 3.19143 5.00972 3.19143 4.45934Z" fill="#DD4C67"/>
<path d="M1.99995 15.322L1.99996 11.3399C2.50153 11.9643 3.19932 12.4255 3.99996 12.6318L3.99996 15.2514C3.99996 16.6939 4.00208 17.6751 4.10087 18.41C4.1958 19.116 4.36317 19.443 4.58574 19.6656C4.80831 19.8882 5.13534 20.0556 5.84139 20.1505C6.57621 20.2493 7.55747 20.2514 8.99996 20.2514L15 20.2514C16.4424 20.2514 17.4237 20.2493 18.1585 20.1505C18.8646 20.0556 19.1916 19.8882 19.4142 19.6656C19.6367 19.443 19.8041 19.116 19.899 18.41C19.9978 17.6752 20 16.6939 20 15.2514L20 12.6318C20.8006 12.4255 21.4984 11.9643 22 11.3399L22 15.322C22 16.6761 22 17.7927 21.8812 18.6765C21.7565 19.6043 21.4845 20.4237 20.8284 21.0798C20.1723 21.7359 19.3529 22.0079 18.425 22.1327C17.5413 22.2515 16.4246 22.2514 15.0705 22.2514L8.92938 22.2514C7.57526 22.2514 6.45865 22.2515 5.57489 22.1327C4.64706 22.0079 3.82764 21.7359 3.17153 21.0798C2.51542 20.4237 2.24345 19.6043 2.11871 18.6765C1.99989 17.7927 1.99992 16.6761 1.99995 15.322Z" fill="#DD4C67"/>
<path d="M9.6638 16.2522C9.25076 15.8856 8.61872 15.9232 8.25209 16.3362C7.88546 16.7493 7.92308 17.3813 8.33612 17.7479C9.23851 18.5489 10.5803 19.0001 12 19.0001C13.4197 19.0001 14.7614 18.5489 15.6638 17.7479C16.0768 17.3813 16.1145 16.7493 15.7478 16.3362C15.3812 15.9232 14.7492 15.8856 14.3361 16.2522C13.8703 16.6657 13.0338 17.0001 12 17.0001C10.9662 17.0001 10.1296 16.6657 9.6638 16.2522Z" fill="#DD4C67"/>
</svg>
