<svg width="20" height="20" viewBox="0 0 20 20" fill="none" xmlns="http://www.w3.org/2000/svg">
<g clip-path="url(#clip0_512_5652)">
<mask id="mask0_512_5652" style="mask-type:luminance" maskUnits="userSpaceOnUse" x="0" y="0" width="20" height="20">
<path d="M5.87912 0.117732C4.8204 0.167702 4.09728 0.337282 3.4654 0.58488C2.81127 0.839887 2.25677 1.18163 1.70517 1.7355C1.15291 2.28969 0.813758 2.84517 0.560692 3.49996C0.315673 4.13346 0.149639 4.85691 0.102887 5.91629C0.0564686 6.97761 0.0458238 7.31612 0.0509979 10.0181C0.0561522 12.7198 0.0680766 13.0589 0.118688 14.1205C0.169296 15.179 0.338244 15.9018 0.58584 16.534C0.841169 17.1881 1.18257 17.7423 1.73675 18.2942C2.29062 18.8462 2.84642 19.185 3.5015 19.4384C4.13436 19.6831 4.85812 19.8498 5.91718 19.8962C6.97848 19.943 7.31729 19.9533 10.0186 19.9481C12.7212 19.943 13.06 19.931 14.1213 19.8807C15.18 19.8301 15.9025 19.6605 16.535 19.4136C17.1892 19.1576 17.7437 18.8168 18.2953 18.2627C18.8469 17.7088 19.186 17.153 19.4391 16.4979C19.6841 15.865 19.8508 15.1412 19.8969 14.0828C19.9433 13.0209 19.9543 12.6817 19.9491 9.98005C19.944 7.27808 19.9317 6.93957 19.8814 5.87858C19.8311 4.81919 19.6616 4.09671 19.4143 3.46417C19.1586 2.81004 18.8176 2.25616 18.2637 1.70391C17.7098 1.1523 17.154 0.812488 16.4989 0.560059C15.8658 0.315038 15.1423 0.148035 14.0833 0.102256C13.022 0.0551869 12.6831 0.0448764 9.98088 0.0500326C7.27926 0.0551888 6.94044 0.0667988 5.87912 0.117732ZM5.9952 18.1053C5.02512 18.0631 4.49834 17.9019 4.14726 17.7668C3.68238 17.5869 3.35064 17.3712 3.00149 17.0247C2.65299 16.6768 2.43666 16.346 2.25516 15.8821C2.11878 15.531 1.95469 15.0049 1.90924 14.0348C1.85991 12.986 1.84863 12.6714 1.84379 10.0145C1.83863 7.35836 1.8483 7.0437 1.89408 5.99399C1.93566 5.02455 2.09784 4.49712 2.23259 4.14635C2.41247 3.68082 2.62751 3.34972 2.97473 3.00057C3.32258 2.65142 3.65335 2.43573 4.11759 2.25423C4.46835 2.11721 4.9945 1.9544 5.96424 1.90831C7.01362 1.85865 7.32794 1.84801 9.9841 1.84286C12.6409 1.83769 12.9556 1.84705 14.0053 1.89315C14.9747 1.93538 15.5021 2.09594 15.8525 2.23166C16.3177 2.41155 16.6495 2.62595 16.9983 2.97381C17.3471 3.32168 17.5635 3.6518 17.745 4.11701C17.882 4.46681 18.0448 4.9936 18.0906 5.96304C18.1405 7.01243 18.1518 7.32708 18.1566 9.98328C18.1618 12.6401 18.1521 12.9548 18.106 14.0038C18.0638 14.9739 17.9029 15.501 17.7675 15.8524C17.5876 16.317 17.3726 16.6487 17.0251 16.9979C16.6775 17.3458 16.3468 17.5627 15.8822 17.7442C15.5321 17.8809 15.0053 18.0441 14.0362 18.0902C12.9868 18.1395 12.6725 18.1508 10.0154 18.1556C7.35921 18.1608 7.04489 18.1508 5.9952 18.1053ZM14.1068 4.68024C14.1081 5.33921 14.6439 5.87277 15.3029 5.87148C15.9621 5.87019 16.4957 5.3347 16.4947 4.67572C16.4934 4.01675 15.9576 3.48288 15.2984 3.48417C14.6391 3.48545 14.1055 4.02127 14.1068 4.68024ZM4.89102 10.0087C4.89649 12.8307 7.18835 15.1132 10.0096 15.1077C12.8311 15.1022 15.1149 12.811 15.1094 9.98909C15.104 7.16815 12.8118 4.88431 9.98991 4.88979C7.16867 4.89527 4.88553 7.18749 4.89102 10.0087ZM6.68316 10.0052C6.67994 8.17369 8.16229 6.68585 9.99345 6.68262C11.825 6.67908 13.3131 8.16079 13.3166 9.99263C13.3202 11.8245 11.8378 13.312 10.006 13.3155C8.17486 13.3191 6.68671 11.837 6.68316 10.0052Z" fill="white"/>
</mask>
<g mask="url(#mask0_512_5652)">
<mask id="mask1_512_5652" style="mask-type:luminance" maskUnits="userSpaceOnUse" x="-1" y="-1" width="22" height="22">
<path d="M20.7367 -0.730469H-0.755859V20.7624H20.7367V-0.730469Z" fill="white"/>
</mask>
<g mask="url(#mask1_512_5652)">
<mask id="mask2_512_5652" style="mask-type:luminance" maskUnits="userSpaceOnUse" x="-1" y="-1" width="22" height="22">
<path d="M20.8361 -0.830078H-0.855469V20.8618H20.8361V-0.830078Z" fill="white"/>
</mask>
<g mask="url(#mask2_512_5652)">
<mask id="mask3_512_5652" style="mask-type:luminance" maskUnits="userSpaceOnUse" x="-1" y="-1" width="22" height="22">
<path d="M20.8351 -0.830078H-0.856445V20.8618H20.8351V-0.830078Z" fill="white"/>
</mask>
<g mask="url(#mask3_512_5652)">
<rect x="-0.863281" y="-0.833984" width="21.7027" height="21.7027" fill="#FD2942"/>
</g>
</g>
</g>
</g>
</g>
<defs>
<clipPath id="clip0_512_5652">
<rect width="20" height="20" fill="white"/>
</clipPath>
</defs>
</svg>
