<svg width="20" height="20" viewBox="0 0 20 20" fill="none" xmlns="http://www.w3.org/2000/svg">
<path opacity="0.4" d="M6.23334 15.292L8.81667 17.292C9.15 17.6254 9.9 17.792 10.4 17.792H13.5667C14.5667 17.792 15.65 17.042 15.9 16.042L17.9 9.95871C18.3167 8.79205 17.5667 7.79205 16.3167 7.79205H12.9833C12.4833 7.79205 12.0667 7.37538 12.15 6.79205L12.5667 4.12538C12.7333 3.37538 12.2333 2.54205 11.4833 2.29205C10.8167 2.04205 9.98334 2.37538 9.65 2.87538L6.23334 7.95871" stroke="#231F20" stroke-width="1.25" stroke-miterlimit="10"/>
<path d="M1.98334 15.292V7.12533C1.98334 5.95866 2.48334 5.54199 3.65 5.54199H4.48334C5.65 5.54199 6.15 5.95866 6.15 7.12533V15.292C6.15 16.4587 5.65 16.8753 4.48334 16.8753H3.65C2.48334 16.8753 1.98334 16.4587 1.98334 15.292Z" stroke="#231F20" stroke-width="1.25" stroke-linecap="round" stroke-linejoin="round"/>
</svg>
