<svg width="24" height="20" viewBox="0 0 24 20" fill="none" xmlns="http://www.w3.org/2000/svg">
<path d="M19.0409 17.0413H16.0776V12.4004C16.0776 11.2937 16.0578 9.86912 14.5363 9.86912C12.9929 9.86912 12.7567 11.0749 12.7567 12.3199V17.041H9.79336V7.49741H12.6382V8.80165H12.678C12.9627 8.31485 13.3741 7.91439 13.8684 7.64291C14.3627 7.37143 14.9214 7.23911 15.4849 7.26003C18.4884 7.26003 19.0422 9.23567 19.0422 11.8059L19.0409 17.0413ZM6.44969 6.19287C6.10957 6.19293 5.77706 6.09213 5.49422 5.90321C5.21139 5.71429 4.99094 5.44574 4.86073 5.13153C4.73051 4.81731 4.69638 4.47153 4.76268 4.13792C4.82897 3.80431 4.99271 3.49785 5.23317 3.2573C5.47363 3.01675 5.78002 2.8529 6.11359 2.78649C6.44716 2.72007 6.79293 2.75406 7.10719 2.88417C7.42144 3.01428 7.69006 3.23465 7.87907 3.51743C8.06808 3.8002 8.16901 4.13268 8.16907 4.47282C8.16911 4.69866 8.12466 4.92229 8.03827 5.13095C7.95189 5.33962 7.82527 5.52922 7.66561 5.68895C7.50595 5.84867 7.31638 5.97538 7.10775 6.06184C6.89913 6.1483 6.67552 6.19282 6.44969 6.19287ZM7.93137 17.0413H4.96491V7.49741H7.93137V17.0413ZM20.5183 0.00136263H3.47583C3.08901 -0.00300274 2.71626 0.146386 2.43953 0.416702C2.1628 0.687018 2.00472 1.05614 2 1.44297V18.5567C2.00456 18.9438 2.16255 19.3131 2.43927 19.5837C2.71599 19.8543 3.08882 20.004 3.47583 19.9999H20.5183C20.9061 20.0047 21.28 19.8555 21.5578 19.5849C21.8356 19.3143 21.9946 18.9445 22 18.5567V1.44174C21.9945 1.05414 21.8353 0.684596 21.5575 0.414287C21.2797 0.143978 20.9059 -0.00498453 20.5183 0.000127351" fill="#2567B3"/>
</svg>
