<svg width="24" height="24" viewBox="0 0 24 24" fill="none" xmlns="http://www.w3.org/2000/svg">
<circle cx="12" cy="12" r="11.5" stroke="#D93502"/>
<path d="M11.8637 9.59867C10.5769 9.59867 9.53014 10.6454 9.53014 11.9322C9.53014 13.219 10.5769 14.2657 11.8637 14.2657C13.1505 14.2657 14.1972 13.219 14.1972 11.9322C14.1972 10.6448 13.1505 9.59867 11.8637 9.59867ZM11.8637 13.0987C11.2205 13.0987 10.6972 12.5753 10.6972 11.9322C10.6972 11.2891 11.2206 10.7657 11.8637 10.7657C12.5068 10.7657 13.0302 11.2891 13.0302 11.9322C13.0302 12.5748 12.5068 13.0987 11.8637 13.0987ZM11.8637 6.68161C8.96846 6.68161 6.61365 9.03642 6.61365 11.9316C6.61365 14.7322 11.0269 17.892 11.5301 18.2437L11.8636 18.4767L12.1972 18.2437C12.7004 17.8921 17.1136 14.7322 17.1136 11.9316C17.1136 9.03698 14.7589 6.68161 11.8637 6.68161ZM11.8637 17.0449C10.4735 16.0086 7.78013 13.6455 7.78013 11.9316C7.78013 9.68015 9.61218 7.8481 11.8637 7.8481C14.1152 7.8481 15.9472 9.68015 15.9472 11.9316C15.9472 13.6423 13.2533 16.0069 11.8637 17.0449Z" fill="#D93502"/>
</svg>
