<svg width="10" height="14" viewBox="0 0 10 14" fill="none" xmlns="http://www.w3.org/2000/svg">
<path opacity="0.4" d="M0.916672 8.75008C0.916672 6.49492 2.74484 4.66675 5 4.66675C7.25517 4.66675 9.08334 6.49492 9.08334 8.75008C9.08334 11.0052 7.25517 12.8334 5 12.8334C2.74484 12.8334 0.916672 11.0052 0.916672 8.75008Z" fill="#A4ACB9"/>
<path d="M5 7.72925C5.24163 7.72925 5.4375 7.92512 5.4375 8.16675V9.33341C5.4375 9.57504 5.24163 9.77091 5 9.77091C4.75838 9.77091 4.5625 9.57504 4.5625 9.33341V8.16675C4.5625 7.92512 4.75838 7.72925 5 7.72925Z" fill="#A4ACB9"/>
<path fill-rule="evenodd" clip-rule="evenodd" d="M5 0.729248C3.30863 0.729248 1.93751 2.10038 1.93751 3.79175V5.42454C1.04088 6.25066 0.479172 7.43477 0.479172 8.75008C0.479172 11.2469 2.50322 13.2709 5 13.2709C7.49679 13.2709 9.52084 11.2469 9.52084 8.75008C9.52084 7.43477 8.95913 6.25066 8.0625 5.42454V3.79175C8.0625 2.10038 6.69138 0.729248 5 0.729248ZM7.1875 4.79277V3.79175C7.1875 2.58363 6.20813 1.60425 5 1.60425C3.79188 1.60425 2.81251 2.58363 2.81251 3.79175V4.79277C3.46072 4.43369 4.20649 4.22925 5 4.22925C5.79352 4.22925 6.53929 4.43369 7.1875 4.79277ZM5 5.10425C2.98647 5.10425 1.35417 6.73654 1.35417 8.75008C1.35417 10.7636 2.98647 12.3959 5 12.3959C7.01354 12.3959 8.64584 10.7636 8.64584 8.75008C8.64584 6.73654 7.01354 5.10425 5 5.10425Z" fill="#A4ACB9"/>
</svg>
