<svg width="34" height="25" viewBox="0 0 34 25" fill="none" xmlns="http://www.w3.org/2000/svg">
<path d="M0.542561 4.84049C0.542561 2.74295 2.24295 1.04256 4.34049 1.04256H29.6595C31.757 1.04256 33.4574 2.74295 33.4574 4.84049V20.1595C33.4574 22.257 31.757 23.9574 29.6595 23.9574H4.34049C2.24295 23.9574 0.542561 22.257 0.542561 20.1595V4.84049Z" fill="white"/>
<path d="M0.542561 4.84049C0.542561 2.74295 2.24295 1.04256 4.34049 1.04256H29.6595C31.757 1.04256 33.4574 2.74295 33.4574 4.84049V20.1595C33.4574 22.257 31.757 23.9574 29.6595 23.9574H4.34049C2.24295 23.9574 0.542561 22.257 0.542561 20.1595V4.84049Z" stroke="#E5E7EB" stroke-width="1.08512"/>
<path d="M15.3836 13.3745H4.99982V16.8337H15.3836V13.3745Z" fill="#84B740"/>
<path d="M15.3837 8.6543H4.99988V12.1166H15.3837V8.6543Z" fill="#259BD6"/>
<path d="M25.7675 16.1308L25.7212 16.1401C25.5609 16.1709 25.5023 16.1832 25.3852 16.1832C25.1139 16.1832 24.7932 16.0445 24.7932 15.3909C24.7932 15.0548 24.8487 14.6078 25.3544 14.6078H25.3574C25.4438 14.614 25.5424 14.6232 25.7274 14.6787L25.7675 14.691V16.1308ZM25.8507 12.872L25.7675 12.8874V14.096L25.6935 14.0744L25.6719 14.0682C25.5887 14.0436 25.3975 13.9881 25.2125 13.9881C24.2013 13.9881 23.9886 14.7527 23.9886 15.394C23.9886 16.2726 24.4818 16.7783 25.342 16.7783C25.7058 16.7783 25.9741 16.7413 26.2454 16.6519C26.4951 16.5717 26.5845 16.4576 26.5845 16.2141V12.7456C26.344 12.7888 26.0943 12.8319 25.8507 12.872Z" fill="#27292D"/>
<path d="M28.7734 16.1524L28.7302 16.1647L28.5761 16.2048C28.4311 16.2418 28.3017 16.2634 28.203 16.2634C27.9656 16.2634 27.8238 16.1462 27.8238 15.9458C27.8238 15.8163 27.8824 15.5974 28.2708 15.5974H28.7734V16.1524ZM28.4188 13.9727C28.1074 13.9727 27.7868 14.0282 27.3891 14.1515L27.1301 14.2286L27.2164 14.8143L27.4692 14.7311C27.7344 14.6448 28.0643 14.5893 28.3109 14.5893C28.4219 14.5893 28.761 14.5893 28.761 14.9562V15.1165H28.2893C27.4291 15.1165 27.0314 15.3909 27.0314 15.9797C27.0314 16.4823 27.3983 16.7844 28.0149 16.7844C28.2061 16.7844 28.4712 16.7474 28.6994 16.6919L28.7117 16.6888L28.724 16.6919L28.8011 16.7043C29.0416 16.7474 29.2913 16.7906 29.5349 16.8368V14.913C29.5349 14.2902 29.1588 13.9727 28.4188 13.9727Z" fill="#27292D"/>
<path d="M22.7828 16.1524L22.7396 16.1647L22.5855 16.2048C22.4406 16.2418 22.3142 16.2634 22.2124 16.2634C21.975 16.2634 21.8332 16.1462 21.8332 15.9458C21.8332 15.8163 21.8918 15.5974 22.2772 15.5974H22.7797V16.1524H22.7828ZM22.4313 13.9727C22.1169 13.9727 21.7993 14.0282 21.4016 14.1515L21.1426 14.2286L21.2289 14.8143L21.4817 14.7311C21.7469 14.6448 22.0768 14.5893 22.3234 14.5893C22.4344 14.5893 22.7736 14.5893 22.7736 14.9562V15.1165H22.3018C21.4417 15.1165 21.0409 15.3909 21.0409 15.9797C21.0409 16.4823 21.4077 16.7844 22.0274 16.7844C22.2186 16.7844 22.4837 16.7474 22.7119 16.6919L22.7242 16.6888L22.7366 16.6919L22.8105 16.7043C23.0541 16.7474 23.3008 16.7906 23.5443 16.8399V14.9161C23.5474 14.2871 23.1713 13.9727 22.4313 13.9727Z" fill="#27292D"/>
<path d="M19.5365 13.9787C19.145 13.9787 18.8212 14.1082 18.701 14.1637L18.6702 14.1791L18.6424 14.1575C18.4759 14.0372 18.2324 13.9756 17.8932 13.9756C17.5942 13.9756 17.3136 14.0187 17.0084 14.1082C16.7463 14.1883 16.6446 14.3147 16.6446 14.5521V16.7504H17.4647V14.7186L17.5048 14.7063C17.6713 14.6508 17.7699 14.6415 17.8655 14.6415C18.1029 14.6415 18.2231 14.7679 18.2231 15.0146V16.7534H19.0309V14.9807C19.0309 14.8758 19.0093 14.8142 19.0062 14.8019L18.9785 14.7494L19.034 14.7248C19.1573 14.6693 19.293 14.6415 19.4348 14.6415C19.5982 14.6415 19.7924 14.7063 19.7924 15.0146V16.7534H20.5971V14.9344C20.5971 14.2901 20.2518 13.9787 19.5365 13.9787Z" fill="#27292D"/>
<path d="M28.1689 10.9111C28.0487 10.9111 27.8483 10.8988 27.6911 10.8679L27.6448 10.8587V9.67171C27.6448 9.57305 27.6263 9.51139 27.6232 9.50214L27.5986 9.45281L27.651 9.43123C27.6633 9.42507 27.6756 9.42198 27.6911 9.41582L27.7003 9.40965C27.7188 9.40348 27.7373 9.39732 27.7558 9.39115C27.7651 9.38807 27.7712 9.38499 27.7774 9.38499C27.9593 9.33566 28.1258 9.34182 28.1998 9.33566H28.2029C28.7054 9.33566 28.764 9.7827 28.764 10.1188C28.7609 10.7724 28.4372 10.9111 28.1689 10.9111ZM28.1659 8.6543C28.1597 8.6543 28.1504 8.6543 28.1443 8.6543C27.6726 8.6543 27.1885 8.78379 27.0159 9.0366C26.9234 9.15992 26.871 9.31408 26.8679 9.49598V10.72C26.8679 10.8248 26.8463 10.8649 26.8432 10.8741L26.8155 10.9265H25.3263V10.0756H25.3233C25.3048 9.17842 24.7745 8.68513 24.0068 8.68513H23.9174H23.2576C23.2268 8.90403 23.2021 9.05818 23.1713 9.27708H23.9174C24.3089 9.27708 24.5155 9.61005 24.5155 10.1218V10.9789L24.4631 10.9512C24.4538 10.9481 24.3891 10.9265 24.2873 10.9265H22.9986C22.974 11.0899 22.9431 11.3027 22.9092 11.5154H26.871C27.0066 11.4876 27.1639 11.463 27.2995 11.4414C27.4999 11.5401 27.873 11.5925 28.1289 11.5925C28.989 11.5925 29.5471 11.0159 29.5471 10.128C29.544 9.24933 29.0045 8.6728 28.1659 8.6543Z" fill="#27292D"/>
<path d="M21.2199 11.8759H21.2569C22.1171 11.8759 22.5179 11.5922 22.5179 10.8924C22.5179 10.3898 22.151 9.98905 21.5344 9.98905H20.742C20.5046 9.98905 20.3628 9.85339 20.3628 9.62524C20.3628 9.47109 20.4214 9.27994 20.8098 9.27994H22.5425C22.5795 9.05487 22.598 8.91305 22.6319 8.68799H20.8314C19.9928 8.68799 19.5704 9.03946 19.5704 9.62524C19.5704 10.2049 19.9373 10.507 20.5539 10.507H21.3463C21.5837 10.507 21.7255 10.6951 21.7255 10.8924C21.7255 11.0219 21.6669 11.2901 21.2815 11.2901H21.149L18.6116 11.2839H18.1491C17.7576 11.2839 17.4832 11.062 17.4832 10.5471V10.1925C17.4832 9.65607 17.6959 9.3231 18.1491 9.3231H18.9014C18.9353 9.09495 18.9569 8.95005 18.9877 8.73423H18.0505H17.9611C17.1934 8.73423 16.6631 9.24911 16.6446 10.1463V10.1802V10.5471C16.6631 11.4443 17.1934 11.8728 17.9611 11.8728H18.0505H18.7103L20.0853 11.8759H20.9054H21.2199Z" fill="#27292D"/>
</svg>
