<svg width="32" height="32" viewBox="0 0 32 32" fill="none" xmlns="http://www.w3.org/2000/svg">
<g clip-path="url(#clip0_12128_4986)">
<path d="M29.461 23.9927C30.6418 21.8214 31.3128 19.3328 31.3128 16.6874C31.3128 8.23044 24.4571 1.37476 16.0001 1.37476C7.54319 1.37476 0.6875 8.23044 0.6875 16.6874C0.6875 19.3328 1.35844 21.8215 2.53925 23.9928L29.461 23.9927Z" fill="#49B1F7"/>
<path d="M13.7728 21.9941C15.1791 22.7108 16.8439 22.6994 18.228 21.9941C19.2108 21.4933 20.3432 20.8173 21.358 19.7459C20.9491 19.6094 20.5313 19.4911 20.1014 19.392C19.4669 18.7575 19.3061 17.5545 19.2771 16.7129C18.946 17.0986 18.5985 17.4212 18.2664 17.679C17.6194 18.1815 16.8211 18.4543 15.9988 18.4543C15.1766 18.4543 14.3782 18.1815 13.7312 17.679C13.3992 17.4211 13.0516 17.0985 12.7205 16.7129C12.6915 17.5545 12.5307 18.7575 11.8961 19.392C11.4671 19.491 11.0502 19.609 10.6421 19.7451C11.6571 20.817 12.7898 21.4931 13.7728 21.9941Z" fill="#FFAA7B"/>
<path d="M12.7205 16.7129C12.6915 17.5545 12.5307 18.7575 11.8961 19.392C11.4671 19.491 11.0502 19.609 10.6421 19.7451C11.2452 20.382 11.8897 20.8785 12.5198 21.2821C13.2478 20.7166 14.1718 20.7233 14.1718 20.7233C15.7409 20.7233 15.9988 18.4543 15.9988 18.4543C15.1766 18.4543 14.3782 18.1815 13.7312 17.679C13.3992 17.4212 13.0516 17.0986 12.7205 16.7129Z" fill="#FC9460"/>
<path d="M17.0813 21.3457L16.3223 22.5403L17.6991 22.1707L17.0813 21.3457Z" fill="#D3DCFB"/>
<path d="M14.9152 21.3457L15.6742 22.5403L14.2974 22.1707L14.9152 21.3457Z" fill="#D3DCFB"/>
<path d="M27.3072 21.8855C27.0927 21.7843 26.8629 21.6976 26.6185 21.6254L22.5974 20.225C22.1192 20.0138 21.6326 19.8291 21.1319 19.6716C20.1557 20.7261 19.0567 21.3827 18.1061 21.8671C16.7978 22.5339 15.224 22.5446 13.8947 21.8671C13.4815 21.6566 13.0404 21.4134 12.5934 21.1192C12.0898 21.4573 11.6432 22.0284 11.5722 22.9956C11.387 23.0418 10.8659 23.1908 10.3382 23.5133C9.47523 24.0408 9.01904 24.7814 9.01904 25.655V30.3194C11.1125 31.3938 13.4856 32.0001 16.0004 32.0001C19.3624 32.0001 22.4712 30.9166 24.9969 29.0798C24.9969 27.9162 24.9969 26.8909 24.9969 26.2222C24.9969 24.231 26.778 22.8734 27.8357 22.1798C27.67 22.0722 27.4941 21.9737 27.3072 21.8855Z" fill="#88CE65"/>
<path d="M9.1123 30.3666C9.1123 29.4859 9.1123 27.2658 9.1123 25.6549C9.1123 23.6026 11.6609 23.0709 11.6609 23.0709C11.7141 22.0748 12.1678 21.5024 12.6751 21.1723C12.0672 20.78 11.4463 20.2959 10.8683 19.6716C10.3676 19.8291 9.88099 20.0138 9.40286 20.225L5.38174 21.6254C5.13743 21.6976 4.90761 21.7843 4.69311 21.8855C4.50618 21.9737 4.33024 22.0722 4.16455 22.1798C5.22218 22.8734 7.0033 24.231 7.0033 26.2222V29.0798C7.66786 29.5631 8.37311 29.9936 9.1123 30.3666Z" fill="#6FAF46"/>
<path d="M18.9643 21.3337C18.67 21.5089 18.3817 21.6641 18.1058 21.8047C16.7975 22.4714 15.2238 22.4821 13.8944 21.8047C13.6175 21.6635 13.328 21.5077 13.0327 21.3318V22.9483C13.1186 22.9934 13.2038 23.0377 13.288 23.0805C15.0003 23.9531 17.0272 23.9393 18.7123 23.0805C18.7954 23.0382 18.8795 22.9945 18.9643 22.9501V21.3337Z" fill="#B4D667"/>
<path d="M19.637 17.9417C19.565 17.9021 19.4757 17.9436 19.4592 18.0241C19.3523 18.5479 18.8883 20.1978 17.1652 21.1771C16.9955 21.2735 16.9549 21.4999 17.0833 21.6469L18.8244 23.6411C19.1859 24.0575 19.8515 23.9826 20.1124 23.4968C20.5535 22.6756 21.1681 21.4256 21.623 20.0817C21.7044 19.8411 21.6465 19.5751 21.4749 19.3877C20.9453 18.81 20.3247 18.3214 19.637 17.9417Z" fill="#DEEEFF"/>
<path d="M14.832 21.1768C14.5422 21.0121 14.2888 20.8281 14.0658 20.634C13.6041 20.6655 11.7766 20.9182 11.5806 22.9123C11.6877 23.1242 11.7904 23.3207 11.8848 23.4965C12.1458 23.9823 12.8113 24.0572 13.1728 23.6408L14.9139 21.6467C15.0423 21.4997 15.0017 21.2732 14.832 21.1768Z" fill="#DEEEFF"/>
<path d="M12.5379 18.0241C12.5215 17.9436 12.4321 17.902 12.3602 17.9418C11.6724 18.3214 11.0519 18.81 10.5224 19.3877C10.3507 19.575 10.2928 19.841 10.3742 20.0816C10.7564 21.2108 11.251 22.2725 11.6611 23.0705C11.7876 20.7053 14.1714 20.7233 14.1714 20.7233C12.9849 19.751 12.6296 18.4734 12.5379 18.0241Z" fill="#D3DCFB"/>
<path d="M10.3058 9.84224H21.7603C21.7806 9.01693 21.9182 6.83243 22.7808 5.2763C22.9007 5.05987 22.9221 4.80274 22.8386 4.5698C22.5256 3.69718 21.5907 1.65718 19.5518 1.11305C19.4432 1.08405 19.4145 0.943555 19.5029 0.874117L19.8085 0.634055C19.947 0.52518 19.8938 0.304055 19.7208 0.270742C18.2165 -0.0193826 13.2206 -0.713633 11.6687 2.47743C11.5761 2.66787 11.4015 2.80499 11.1965 2.85805C10.745 2.97493 9.93276 3.32718 9.40339 4.38274C9.29983 4.58918 9.2822 4.82862 9.35639 5.04731C9.61364 5.80549 10.2405 7.84137 10.3058 9.84224Z" fill="#945230"/>
<path d="M15.4311 4.7981C13.6016 2.01004 16.8018 0.000976562 16.8018 0.000976562C14.861 0.0261016 12.6191 0.523101 11.6687 2.47729C11.5761 2.66773 11.4015 2.80485 11.1965 2.85791C10.745 2.97479 9.93276 3.32704 9.40339 4.3826C9.29983 4.58904 9.2822 4.82848 9.35639 5.04716C9.61364 5.80535 10.2405 7.84123 10.3058 9.8421H12.9721C14.6596 8.47516 16.5183 6.45485 15.4311 4.7981Z" fill="#753616"/>
<path d="M22.2048 9.50841C21.9483 9.27341 21.375 9.39253 21.1542 9.53641C21.2025 9.83772 21.2053 10.146 21.1635 10.4503L20.9028 12.3486C20.9028 12.5016 20.898 12.6517 20.8892 12.7992C21.5247 12.9909 21.9029 12.4203 21.9561 12.0288C21.979 11.8602 22.0164 11.6941 22.0683 11.532C22.2375 11.0041 22.8473 10.0972 22.2048 9.50841Z" fill="#FFAA7B"/>
<path d="M9.79803 9.50841C10.0545 9.27341 10.6278 9.39253 10.8487 9.53641C10.8003 9.83772 10.7975 10.146 10.8393 10.4503L11.1 12.3486C11.1 12.5016 11.1048 12.6517 11.1137 12.7992C10.4781 12.9909 10.0999 12.4203 10.0467 12.0288C10.0238 11.8602 9.9864 11.6941 9.93446 11.532C9.7654 11.0041 9.15553 10.0972 9.79803 9.50841Z" fill="#FC9460"/>
<path d="M21.0594 8.94975C21.0007 8.79669 20.9268 8.64169 20.8336 8.4955C20.6758 8.24794 20.6064 7.955 20.6276 7.663C20.6884 6.82312 20.6557 5.18044 19.5532 4.68431C18.6165 4.26281 17.4674 4.50687 16.7347 4.7505C16.2764 4.90294 15.7812 4.90812 15.3202 4.76694C14.4853 5.40769 14.4657 6.85037 14.5221 7.61856C14.5437 7.91219 14.4714 8.20587 14.3127 8.45487C14.2213 8.59837 14.1481 8.75025 14.0896 8.90056C13.8998 9.38819 13.8444 9.91706 13.9156 10.4349L14.1797 12.3587C14.1797 15.1245 15.6561 17.0044 16.9119 17.9796C17.0972 18.1236 17.2956 18.2474 17.5026 18.3531C17.774 18.2327 18.0314 18.0799 18.2684 17.8958C19.5079 16.9334 20.9649 15.078 20.9649 12.3484L21.2256 10.4501C21.2951 9.94406 21.2424 9.42725 21.0594 8.94975Z" fill="#FFC7AB"/>
<path d="M16.9216 17.8961C15.6822 16.9336 14.2251 15.0782 14.2251 12.3486L13.9644 10.45C13.8942 9.93893 13.9489 9.41693 14.1362 8.93568C14.194 8.78731 14.2662 8.63743 14.3565 8.49581C14.5131 8.25006 14.5844 7.96024 14.5632 7.67043C14.5057 6.88818 14.5281 5.39737 15.4316 4.79824C15.3766 4.78437 15.3221 4.76874 15.268 4.75074C14.5352 4.50712 13.3862 4.26306 12.4495 4.68456C11.3437 5.18206 11.3141 6.83274 11.3757 7.67043C11.397 7.96024 11.3256 8.25006 11.169 8.49581C11.0787 8.63743 11.0065 8.78731 10.9487 8.93568C10.7614 9.41693 10.7068 9.93893 10.777 10.45L11.0377 12.3486C11.0377 15.0782 12.4948 16.9336 13.7342 17.8961C14.3811 18.3984 15.1795 18.6713 16.0017 18.6713C16.5571 18.6713 17.1012 18.5464 17.5955 18.3108C17.3579 18.1977 17.1317 18.0592 16.9216 17.8961Z" fill="#FFAA7B"/>
<path d="M27.7709 22.1399C26.7222 22.8209 24.8716 24.1926 24.8716 26.222V29.1695C26.7676 27.8195 28.3429 26.0484 29.461 23.9926C29.0687 23.2656 28.524 22.6108 27.7709 22.1399Z" fill="#B4D667"/>
<path d="M4.22913 22.1399C3.47606 22.6108 2.93125 23.2656 2.53906 23.9926C3.65712 26.0485 5.23244 27.8196 7.12844 29.1695C7.12844 27.9686 7.12844 26.908 7.12844 26.222C7.12844 24.1926 5.27781 22.8209 4.22913 22.1399Z" fill="#88CE65"/>
<path d="M26.4685 5.51294C25.0148 6.58756 23.206 8.39919 23.9728 10.669C25.1603 14.1843 19.7853 16.4011 25.7853 18.9489C28.1843 19.9676 29.5782 21.0305 30.3881 21.9396C30.9864 20.3014 31.3133 18.5327 31.3133 16.6874C31.3132 12.2793 29.4498 8.30681 26.4685 5.51294Z" fill="#73C3F9"/>
<path d="M5.53225 5.51294C6.986 6.58756 8.79481 8.39919 8.028 10.669C6.8405 14.1843 12.2155 16.4011 6.2155 18.9489C3.8165 19.9676 2.42256 21.0305 1.61269 21.9396C1.01444 20.3014 0.6875 18.5327 0.6875 16.6874C0.687563 12.2793 2.551 8.30681 5.53225 5.51294Z" fill="#73C3F9"/>
<path d="M19.5108 14.536C19.3658 13.6717 18.7423 12.8064 17.9098 12.6176L16.6373 12.2437C16.4161 12.1787 16.1946 12.2922 16.1056 12.4849C16.0893 12.5201 16.0401 12.5201 16.0239 12.4849C15.9348 12.2922 15.7133 12.1788 15.4921 12.2437L14.2197 12.6176C14.1769 12.6272 14.1348 12.6392 14.0931 12.6524C13.9705 12.8842 13.7778 13.3467 13.9095 13.7797C13.9835 14.0232 14.1497 14.2187 14.4017 14.3647C14.6249 14.2473 14.8649 14.1582 15.1172 14.1025L15.3445 14.0523C15.6758 13.9792 15.932 13.6558 16.0259 13.3112C16.0366 13.2717 16.0929 13.2717 16.1037 13.3112C16.1976 13.6558 16.4538 13.9792 16.785 14.0523L17.0123 14.1025C17.6656 14.2467 18.238 14.6122 18.6428 15.1232C18.559 15.4958 18.2962 16.0621 17.4817 16.3499C16.9352 16.5429 16.3388 16.1992 16.2688 15.6304C16.268 15.623 16.2671 15.6156 16.2662 15.6081C16.2547 15.5021 16.1659 15.4205 16.0578 15.4205C15.9497 15.4205 15.8609 15.5021 15.8494 15.6081C15.8486 15.6156 15.8477 15.6231 15.8468 15.6304C15.8076 15.9487 15.6036 16.1963 15.3357 16.3191C15.2773 16.6189 15.2026 17.3054 15.5545 17.9549C15.7346 18.2876 16.0013 18.5613 16.3501 18.7746C16.6963 18.7336 17.037 18.6322 17.3556 18.47C18.629 17.8217 20.322 16.6952 20.8635 13.7977C20.908 13.5594 20.9306 13.3171 20.9306 13.0747C20.7245 13.5833 20.296 14.1954 19.5108 14.536Z" fill="#945230"/>
<path d="M16.4987 18.7526C15.1342 17.9986 15.3699 16.5828 15.4446 16.2588C15.2146 16.4046 14.9179 16.4501 14.6339 16.3497C13.882 16.0841 13.5586 15.5809 13.4195 15.2119C13.7002 14.8279 14.0723 14.5188 14.5024 14.3137C13.5892 13.8366 14.0715 12.8714 14.22 12.6174L14.2197 12.6175C13.3708 12.81 12.7387 13.7061 12.6103 14.5871C11.7417 14.2595 11.2896 13.6098 11.0728 13.0746V13.0748C11.0728 13.3169 11.0953 13.5588 11.1398 13.7967C11.6803 16.6938 13.3651 17.8201 14.6386 18.4691C15.2186 18.7647 15.8718 18.8589 16.4987 18.7526Z" fill="#753616"/>
</g>
<defs>
<clipPath id="clip0_12128_4986">
<rect width="32" height="32" fill="white"/>
</clipPath>
</defs>
</svg>
