<svg width="33" height="32" viewBox="0 0 33 32" fill="none" xmlns="http://www.w3.org/2000/svg">
<rect x="0.5" width="32" height="32" rx="16" fill="#FBDEE1"/>
<path fill-rule="evenodd" clip-rule="evenodd" d="M16.4996 6C14.1425 6.00088 11.8823 6.93761 10.2156 8.60429C8.54893 10.271 7.61221 12.5312 7.61133 14.8883C7.61133 17.8673 8.98029 20.2597 10.6482 22.0464C13.0538 24.6243 16.0629 25.91 16.0629 25.91C16.201 25.9694 16.3498 26 16.5001 26C16.6505 26 16.7993 25.9694 16.9374 25.91C16.9374 25.91 19.9464 24.6243 22.3521 22.0464C24.02 20.2597 25.389 17.8673 25.389 14.8883C25.3878 12.5311 24.4508 10.2709 22.7839 8.60422C21.1171 6.93757 18.8567 6.00088 16.4996 6Z" fill="#D93502"/>
<path fill-rule="evenodd" clip-rule="evenodd" d="M16.4996 6C14.1425 6.00088 11.8823 6.93761 10.2156 8.60429C8.54893 10.271 7.61221 12.5312 7.61133 14.8883C7.61133 17.8673 8.98029 20.2597 10.6482 22.0464C13.0538 24.6243 16.0629 25.91 16.0629 25.91C16.2008 25.9694 16.3494 26.0001 16.4996 26V6Z" fill="#D93502"/>
<path d="M16.5003 18.405C18.9551 18.405 20.945 16.415 20.945 13.9603C20.945 11.5056 18.9551 9.51562 16.5003 9.51562C14.0456 9.51562 12.0557 11.5056 12.0557 13.9603C12.0557 16.415 14.0456 18.405 16.5003 18.405Z" fill="white"/>
</svg>
