<svg width="20" height="20" viewBox="0 0 20 20" fill="none" xmlns="http://www.w3.org/2000/svg">
<path d="M18.3334 7.49961V12.4996C18.3334 14.5829 17.9168 16.0413 16.9834 16.9829L11.6667 11.6663L18.1084 5.22461C18.2584 5.88294 18.3334 6.63294 18.3334 7.49961Z" stroke="#F9F8FF" stroke-width="1.25" stroke-linecap="round" stroke-linejoin="round"/>
<path d="M18.1084 5.22533L5.22507 18.1087C2.71674 17.5337 1.66675 15.8003 1.66675 12.5003V7.50032C1.66675 3.33366 3.33341 1.66699 7.50008 1.66699H12.5001C15.8001 1.66699 17.5334 2.717 18.1084 5.22533Z" stroke="#F9F8FF" stroke-width="1.25" stroke-linecap="round" stroke-linejoin="round"/>
<path d="M16.9834 16.9837C16.0418 17.917 14.5834 18.3337 12.5001 18.3337H7.50011C6.63344 18.3337 5.88343 18.2587 5.2251 18.1087L11.6668 11.667L16.9834 16.9837Z" stroke="#F9F8FF" stroke-width="1.25" stroke-linecap="round" stroke-linejoin="round"/>
<path opacity="0.4" d="M5.19997 6.64961C5.76664 4.20794 9.43332 4.20794 9.99998 6.64961C10.325 8.08294 9.42497 9.29961 8.6333 10.0496C8.0583 10.5996 7.14999 10.5996 6.56665 10.0496C5.77499 9.29961 4.86664 8.08294 5.19997 6.64961Z" stroke="#F9F8FF" stroke-width="1.25"/>
<path opacity="0.4" d="M7.57884 7.24967H7.58632" stroke="#F9F8FF" stroke-width="1.66667" stroke-linecap="round" stroke-linejoin="round"/>
</svg>
