<svg width="24" height="24" viewBox="0 0 24 24" fill="none" xmlns="http://www.w3.org/2000/svg">
<path fill-rule="evenodd" clip-rule="evenodd" d="M14 2.75C16.3472 2.75 18.25 4.65279 18.25 7C18.25 7.09029 18.2472 7.17985 18.2417 7.2686C17.6044 7.24321 16.8777 7.24322 16.0549 7.24324L9.75682 7.24324C9.7523 7.16279 9.75 7.08169 9.75 7C9.75 6.05012 10.0616 5.17302 10.5882 4.46536C10.5962 4.45525 10.604 4.44492 10.6115 4.43439C11.3875 3.41099 12.6166 2.75 14 2.75ZM9.64097 3.25C10.6954 2.02538 12.2572 1.25 14 1.25C17.1756 1.25 19.75 3.82436 19.75 7C19.75 7.13926 19.745 7.27746 19.7353 7.41442C20.4862 7.55397 21.128 7.81815 21.6518 8.34214C22.2536 8.94428 22.5125 9.70241 22.6335 10.6028C22.75 11.4702 22.75 12.573 22.75 13.9413V16.0519C22.75 17.4202 22.75 18.5231 22.6335 19.3904C22.5125 20.2908 22.2536 21.049 21.6518 21.6511C21.0499 22.2533 20.292 22.5123 19.3918 22.6334C18.5248 22.75 17.4225 22.75 16.0549 22.75H9.94355H9.94351C8.10579 22.75 6.65016 22.75 5.51093 22.5968C4.33844 22.4391 3.38946 22.1068 2.64112 21.3581C1.89282 20.6094 1.56074 19.6601 1.40313 18.4872C1.24997 17.3475 1.24998 15.8912 1.25 14.0525V14.0525V11.9388V11.9388C1.24998 10.1001 1.24997 8.64379 1.40313 7.50407C1.56074 6.33119 1.89282 5.3819 2.64112 4.63324C3.83136 3.44243 5.56165 3.28521 7.98915 3.25008L8 3.25H9.64097ZM8.70689 4.75H8.00545C5.47768 4.78686 4.39747 4.99787 3.70203 5.69365C3.27876 6.11712 3.02505 6.69717 2.88977 7.70385C2.75159 8.73207 2.75 10.0874 2.75 11.9952V13.9961C2.75 15.9039 2.75159 17.2592 2.88977 18.2875C3.02505 19.2941 3.27876 19.8742 3.70203 20.2977C4.12526 20.7211 4.70487 20.9749 5.7109 21.1102C6.73853 21.2484 8.09317 21.25 10 21.25H16C17.4354 21.25 18.4365 21.2484 19.1918 21.1468C19.9255 21.0481 20.3141 20.8676 20.5909 20.5907C20.8677 20.3137 21.0482 19.9249 21.1468 19.1906C21.2484 18.4348 21.25 17.4332 21.25 15.9971V13.9961C21.25 12.56 21.2484 11.5584 21.1468 10.8026C21.0482 10.0684 20.8677 9.6795 20.5909 9.40254C20.3141 9.12563 19.9255 8.94512 19.1918 8.84643C18.4365 8.74483 17.4354 8.74324 16 8.74324H7C6.58579 8.74324 6.25 8.40745 6.25 7.99324C6.25 7.57902 6.58579 7.24324 7 7.24324H8.25506C8.2517 7.16255 8.25 7.08145 8.25 7C8.25 6.20153 8.41275 5.44108 8.70689 4.75ZM17.5 13.25C17.9142 13.25 18.25 13.5858 18.25 14C18.25 14.4142 17.9142 14.75 17.5 14.75C17.0858 14.75 16.75 14.4142 16.75 14C16.75 13.5858 17.0858 13.25 17.5 13.25ZM19.75 14C19.75 12.7574 18.7426 11.75 17.5 11.75C16.2574 11.75 15.25 12.7574 15.25 14C15.25 15.2426 16.2574 16.25 17.5 16.25C18.7426 16.25 19.75 15.2426 19.75 14Z" fill="#D93502"/>
</svg>
