<svg width="16" height="18" viewBox="0 0 16 18" fill="none" xmlns="http://www.w3.org/2000/svg">
<path d="M3.00103 18H12.901C13.3266 17.9999 13.7473 17.9093 14.1352 17.7342C14.5231 17.559 14.8692 17.3033 15.1507 16.9841C15.4322 16.6649 15.6425 16.2895 15.7678 15.8827C15.893 15.476 15.9302 15.0472 15.877 14.625L14.9395 7.125C14.8475 6.40069 14.4947 5.73471 13.9473 5.25159C13.3998 4.76846 12.6952 4.50128 11.965 4.5H11.701V3.75C11.701 2.75544 11.3059 1.80161 10.6027 1.09835C9.89942 0.395088 8.94559 0 7.95103 0C6.95647 0 6.00264 0.395088 5.29938 1.09835C4.59612 1.80161 4.20103 2.75544 4.20103 3.75V4.5H3.93703C3.20663 4.50092 2.5016 4.76794 1.95384 5.25109C1.40608 5.73425 1.05313 6.40043 0.96103 7.125L0.02353 14.625C-0.0296842 15.0474 0.00760499 15.4762 0.132919 15.8831C0.258234 16.2899 0.468703 16.6655 0.750341 16.9847C1.03198 17.3039 1.37833 17.5596 1.76639 17.7346C2.15445 17.9097 2.57532 18.0001 3.00103 18ZM5.70103 3.75C5.70103 3.15326 5.93808 2.58097 6.36004 2.15901C6.782 1.73705 7.35429 1.5 7.95103 1.5C8.54777 1.5 9.12006 1.73705 9.54202 2.15901C9.96398 2.58097 10.201 3.15326 10.201 3.75V4.5H5.70103V3.75ZM1.51153 14.814L2.44903 7.314C2.49436 6.95128 2.67057 6.6176 2.94457 6.37564C3.21857 6.13368 3.57149 6.0001 3.93703 6H4.20103V7.5C4.20103 7.69891 4.28005 7.88968 4.4207 8.03033C4.56135 8.17098 4.75212 8.25 4.95103 8.25C5.14994 8.25 5.34071 8.17098 5.48136 8.03033C5.62201 7.88968 5.70103 7.69891 5.70103 7.5V6H10.201V7.5C10.201 7.69891 10.28 7.88968 10.4207 8.03033C10.5614 8.17098 10.7521 8.25 10.951 8.25C11.1499 8.25 11.3407 8.17098 11.4814 8.03033C11.622 7.88968 11.701 7.69891 11.701 7.5V6H11.965C12.3306 6.0001 12.6835 6.13368 12.9575 6.37564C13.2315 6.6176 13.4077 6.95128 13.453 7.314L14.3905 14.814C14.4169 15.0251 14.3981 15.2395 14.3353 15.4428C14.2725 15.6461 14.1671 15.8337 14.0263 15.9931C13.8854 16.1526 13.7122 16.2803 13.5182 16.3676C13.3242 16.455 13.1138 16.5002 12.901 16.5H3.00103C2.78838 16.4999 2.57817 16.4547 2.38435 16.3672C2.19053 16.2797 2.01753 16.152 1.87681 15.9926C1.7361 15.8331 1.6309 15.6456 1.56818 15.4424C1.50546 15.2392 1.48666 15.025 1.51303 14.814H1.51153Z" fill="#D93502"/>
</svg>
