<svg width="24" height="24" viewBox="0 0 24 24" fill="none" xmlns="http://www.w3.org/2000/svg">
<path d="M3.12111 18.1652C3.12111 19.0208 3.56364 20.2008 5.68778 20.9679C7.18849 21.4735 8.76596 21.7131 10.3491 21.6759C15.689 21.6759 17.5771 19.7878 17.5771 18.1652C17.5796 16.7755 17.1798 15.4149 16.4259 14.2475C15.6721 13.08 14.5964 12.1558 13.3288 11.5862C13.8126 11.1636 14.2 10.642 14.4647 10.0566C14.7293 9.47128 14.8652 8.8359 14.8629 8.1935C14.8629 6.99636 14.3874 5.84826 13.5409 5.00175C12.6944 4.15525 11.5462 3.67969 10.3491 3.67969C9.15197 3.67969 8.00387 4.15525 7.15736 5.00175C6.31086 5.84826 5.83529 6.99636 5.83529 8.1935C5.83307 8.8359 5.96889 9.47128 6.23357 10.0566C6.49825 10.642 6.8856 11.1636 7.3694 11.5862C6.10181 12.1558 5.02616 13.08 4.27231 14.2475C3.51846 15.4149 3.11864 16.7755 3.12111 18.1652ZM10.3491 5.44981C10.8918 5.44981 11.4222 5.61073 11.8734 5.91221C12.3246 6.21369 12.6763 6.64219 12.884 7.14354C13.0916 7.64488 13.1459 8.19655 13.0401 8.72877C12.9342 9.26099 12.6729 9.74987 12.2892 10.1336C11.9055 10.5173 11.4166 10.7786 10.8844 10.8845C10.3522 10.9903 9.80049 10.936 9.29914 10.7283C8.7978 10.5207 8.36929 10.169 8.06781 9.71782C7.76633 9.26662 7.60542 8.73615 7.60542 8.1935C7.60542 7.46583 7.89449 6.76796 8.40903 6.25342C8.92357 5.73888 9.62144 5.44981 10.3491 5.44981ZM10.3491 12.7073C11.7966 12.7073 13.1849 13.2823 14.2084 14.3059C15.232 15.3294 15.807 16.7177 15.807 18.1652C15.807 18.9913 13.5648 19.9058 10.3491 19.9058C7.13339 19.9058 4.89123 18.9913 4.89123 18.1652C4.89123 16.7177 5.46625 15.3294 6.48981 14.3059C7.51336 13.2823 8.90159 12.7073 10.3491 12.7073Z" fill="#ED8296"/>
<path d="M20.9403 5.18359H16.7215C16.4868 5.18359 16.2617 5.27684 16.0957 5.44282C15.9297 5.6088 15.8365 5.83392 15.8365 6.06866C15.8323 6.18599 15.8524 6.30292 15.8954 6.41217C15.9385 6.52141 16.0035 6.62063 16.0865 6.70366C16.1695 6.78668 16.2688 6.85172 16.378 6.89474C16.4873 6.93776 16.6042 6.95784 16.7215 6.95372H20.9403C21.0577 6.95784 21.1746 6.93776 21.2838 6.89474C21.3931 6.85172 21.4923 6.78668 21.5753 6.70366C21.6583 6.62063 21.7234 6.52141 21.7664 6.41217C21.8094 6.30292 21.8295 6.18599 21.8254 6.06866C21.8254 5.83392 21.7321 5.6088 21.5662 5.44282C21.4002 5.27684 21.1751 5.18359 20.9403 5.18359Z" fill="#ED8296"/>
</svg>
