<svg width="24" height="24" viewBox="0 0 24 24" fill="none" xmlns="http://www.w3.org/2000/svg">
<path d="M12.7499 7C12.7499 6.58579 12.4141 6.25 11.9999 6.25C11.5857 6.25 11.2499 6.58579 11.2499 7V9C11.2499 9.41421 11.5857 9.75 11.9999 9.75C12.4141 9.75 12.7499 9.41421 12.7499 9V7Z" fill="#D93502"/>
<path fill-rule="evenodd" clip-rule="evenodd" d="M11.9981 1.25C10.3168 1.25 8.94996 1.81794 7.75783 2.43555C7.39758 2.62218 7.06292 2.8068 6.74312 2.98321C5.96067 3.41484 5.26717 3.7974 4.50561 4.04039L4.48017 4.04851C4.03288 4.19121 3.66209 4.30951 3.38117 4.4196C3.11675 4.52321 2.8025 4.6652 2.57954 4.91299C2.37926 5.13558 2.27636 5.38547 2.20814 5.6245C2.14621 5.84148 2.09879 6.10462 2.04801 6.38644L2.04249 6.41705C0.804551 13.2827 3.51154 19.787 10.122 22.3179L10.1549 22.3305C10.8047 22.5793 11.2503 22.75 12.0014 22.75C12.7524 22.75 13.198 22.5793 13.8478 22.3305L13.8807 22.3179C20.4909 19.7869 23.1952 13.2824 21.9569 6.417L21.9514 6.38633C21.9006 6.1045 21.8532 5.84132 21.7912 5.62434C21.723 5.38529 21.6201 5.13537 21.4197 4.91278C21.1967 4.66499 20.8825 4.52304 20.618 4.41946C20.3371 4.30941 19.9663 4.19117 19.519 4.04854L19.4937 4.04044C18.7317 3.79744 18.0376 3.41479 17.2546 2.98309C16.9346 2.80671 16.5998 2.62212 16.2395 2.43554C15.0467 1.81795 13.6794 1.25 11.9981 1.25ZM7.59209 4.23024C7.88508 4.06859 8.17084 3.91093 8.44784 3.76742C9.55939 3.19156 10.6716 2.75 11.9981 2.75C13.3247 2.75 14.4375 3.19162 15.5498 3.76757C15.8269 3.91107 16.1128 4.06871 16.4059 4.23033C17.2368 4.68846 18.1257 5.17862 19.0379 5.46953C19.517 5.62233 19.8408 5.72599 20.0709 5.81613C20.2224 5.87546 20.2883 5.91295 20.3095 5.9254C20.3174 5.94137 20.3312 5.97432 20.3488 6.03609C20.3877 6.17222 20.4225 6.36018 20.4807 6.68325C21.6218 13.0095 19.132 18.701 13.3443 20.917C12.6799 21.1714 12.4618 21.25 12.0013 21.25C11.5409 21.25 11.3227 21.1714 10.6583 20.9171C4.86999 18.7009 2.37805 13.0093 3.51869 6.68322C3.57693 6.3602 3.6117 6.17228 3.65054 6.03618C3.66817 5.97443 3.68194 5.94148 3.68987 5.92552C3.71108 5.91307 3.77694 5.87556 3.92844 5.8162C4.15856 5.72602 4.48241 5.62229 4.96156 5.46941C5.87342 5.17847 6.7618 4.68833 7.59209 4.23024ZM20.304 5.91527C20.3027 5.91319 20.302 5.91237 20.3019 5.91248C20.3019 5.91255 20.3022 5.91298 20.3027 5.91369C20.303 5.91412 20.3034 5.91466 20.304 5.91527Z" fill="#D93502"/>
</svg>
