<svg width="24" height="24" viewBox="0 0 24 24" fill="none" xmlns="http://www.w3.org/2000/svg">
<path d="M13.9689 8.96975C14.2618 8.67686 14.7367 8.67686 15.0296 8.96975C15.3225 9.26265 15.3225 9.73752 15.0296 10.0304L10.0296 15.0304C9.73667 15.3233 9.2618 15.3233 8.9689 15.0304C8.67601 14.7375 8.67601 14.2626 8.9689 13.9698L13.9689 8.96975Z" fill="#D93502"/>
<path d="M9.49923 8.50008C8.94695 8.50008 8.49923 8.9478 8.49924 9.50008C8.49924 10.0524 8.94695 10.5001 9.49923 10.5001L9.51046 10.5001C10.0627 10.5001 10.5105 10.0524 10.5105 9.50008C10.5105 8.9478 10.0627 8.50008 9.51046 8.50008L9.49923 8.50008Z" fill="#D93502"/>
<path d="M14.488 13.5001C13.9357 13.5001 13.488 13.9478 13.488 14.5001C13.488 15.0524 13.9357 15.5001 14.488 15.5001L14.4992 15.5001C15.0515 15.5001 15.4992 15.0524 15.4992 14.5001C15.4992 13.9478 15.0515 13.5001 14.4992 13.5001L14.488 13.5001Z" fill="#D93502"/>
<path fill-rule="evenodd" clip-rule="evenodd" d="M9.94607 2.75008L14.0526 2.75008C15.6593 2.75007 16.9281 2.75006 17.9383 2.86279C18.9741 2.97836 19.8248 3.21971 20.5567 3.76224C21.0599 4.1352 21.4954 4.59688 21.8448 5.12516C22.49 6.10061 22.6803 7.28315 22.7482 8.84598C22.7806 9.59257 22.1516 10.0938 21.5344 10.0938C20.6025 10.0938 19.7752 10.9065 19.7752 12.0001C19.7752 13.0937 20.6025 13.9063 21.5344 13.9063C22.1516 13.9063 22.7806 14.4076 22.7482 15.1542C22.6803 16.717 22.49 17.8996 21.8448 18.875C21.4954 19.4033 21.0599 19.865 20.5567 20.2379C19.8248 20.7805 18.9741 21.0218 17.9383 21.1374C16.9281 21.2501 15.6593 21.2501 14.0526 21.2501L9.9461 21.2501C8.33941 21.2501 7.07055 21.2501 6.06031 21.1374C5.0246 21.0218 4.17384 20.7805 3.44193 20.2379C2.93878 19.865 2.50328 19.4033 2.15386 18.875C1.50858 17.8994 1.31826 16.7167 1.25044 15.1536C1.21806 14.4075 1.84662 13.9063 2.46365 13.9063C3.39554 13.9063 4.22283 13.0937 4.22283 12.0001C4.22283 10.9065 3.39554 10.0938 2.46365 10.0938C1.84662 10.0938 1.21805 9.59269 1.25043 8.84652C1.31826 7.28342 1.50858 6.10072 2.15385 5.12516C2.50328 4.59689 2.93878 4.1352 3.44193 3.76224C4.17384 3.21971 5.0246 2.97836 6.06031 2.86279C7.07056 2.75006 8.33935 2.75007 9.94607 2.75008ZM6.22665 4.35354C5.32509 4.45414 4.76977 4.64514 4.33516 4.96728C3.97516 5.23414 3.6599 5.56721 3.40494 5.95268C3.02749 6.52333 2.84142 7.2782 2.76433 8.60793C4.45573 8.76756 5.72283 10.2613 5.72283 12.0001C5.72283 13.7389 4.45573 15.2326 2.76433 15.3922C2.84142 16.722 3.02749 17.4768 3.40494 18.0475C3.65991 18.433 3.97516 18.766 4.33516 19.0329C4.76977 19.355 5.32509 19.546 6.22665 19.6466C7.14406 19.749 8.32919 19.7501 9.99198 19.7501L14.0067 19.7501C15.6695 19.7501 16.8546 19.749 17.772 19.6466C18.6736 19.546 19.2289 19.355 19.6635 19.0329C20.0235 18.766 20.3387 18.433 20.5937 18.0475C20.9712 17.4768 21.1572 16.722 21.2343 15.3923C19.5426 15.2329 18.2752 13.7391 18.2752 12.0001C18.2752 10.2611 19.5426 8.76723 21.2343 8.60788C21.1572 7.27817 20.9712 6.52332 20.5937 5.95268C20.3387 5.56721 20.0235 5.23414 19.6635 4.96728C19.2289 4.64513 18.6736 4.45414 17.772 4.35354C16.8546 4.25117 15.6695 4.25008 14.0067 4.25008L9.99198 4.25008C8.32919 4.25008 7.14406 4.25117 6.22665 4.35354Z" fill="#D93502"/>
</svg>
