<svg width="24" height="24" viewBox="0 0 24 24" fill="none" xmlns="http://www.w3.org/2000/svg">
<path fill-rule="evenodd" clip-rule="evenodd" d="M12 7.75C9.65279 7.75 7.75 9.65279 7.75 12C7.75 14.3472 9.65279 16.25 12 16.25C14.3472 16.25 16.25 14.3472 16.25 12C16.25 9.65279 14.3472 7.75 12 7.75ZM9.25 12C9.25 10.4812 10.4812 9.25 12 9.25C13.5188 9.25 14.75 10.4812 14.75 12C14.75 13.5188 13.5188 14.75 12 14.75C10.4812 14.75 9.25 13.5188 9.25 12Z" fill="#D93502"/>
<path fill-rule="evenodd" clip-rule="evenodd" d="M8.70208 1.94866C8.41768 1.91035 8.17792 1.99312 8.01469 2.06478C7.86464 2.13066 7.69535 2.22682 7.53113 2.32012L5.75646 3.32772C5.5888 3.42286 5.41702 3.52035 5.28197 3.61646C5.13616 3.72024 4.93913 3.88545 4.82604 4.15279C4.70258 4.44464 4.74241 4.7388 4.77174 4.90895C4.80348 5.09305 4.86215 5.31892 4.92515 5.56149L4.93233 5.58911C5.32857 7.11516 4.36065 8.7568 2.79378 9.17928L2.76618 9.18672C2.52912 9.25062 2.30699 9.31049 2.13327 9.3735C1.97074 9.43245 1.69912 9.54311 1.50772 9.79296C1.33182 10.0226 1.28519 10.2742 1.26684 10.4523C1.24992 10.6166 1.24996 10.8131 1.25 11.0043L1.25 12.9955C1.24996 13.1867 1.24992 13.3832 1.26684 13.5474C1.28519 13.7255 1.33181 13.9771 1.5077 14.2067C1.69909 14.4566 1.97071 14.5673 2.13322 14.6262C2.30694 14.6892 2.52907 14.7491 2.76613 14.813L2.79374 14.8205C4.36003 15.2429 5.32731 16.8842 4.93082 18.4105L4.92365 18.4381C4.86062 18.6806 4.80192 18.9065 4.77017 19.0906C4.74082 19.2608 4.70097 19.5549 4.82441 19.8468C4.93749 20.1141 5.13453 20.2794 5.28035 20.3832C5.41542 20.4793 5.58724 20.5768 5.75493 20.672L7.52952 21.6795C7.69374 21.7728 7.8631 21.869 8.01315 21.9349C8.17639 22.0066 8.41618 22.0893 8.70059 22.051C9.00977 22.0093 9.23894 21.8318 9.37072 21.7209C9.51065 21.6032 9.67142 21.4427 9.84237 21.2721L9.86249 21.252C11.0298 20.0872 12.9719 20.0872 14.1391 21.2519L14.1593 21.2721C14.3302 21.4427 14.491 21.6031 14.6309 21.7208C14.7627 21.8317 14.9918 22.0092 15.301 22.0509C15.5854 22.0892 15.8252 22.0065 15.9885 21.9348C16.1385 21.8689 16.3078 21.7727 16.472 21.6795L18.2467 20.6718C18.4144 20.5767 18.5862 20.4792 18.7213 20.383C18.8671 20.2792 19.0642 20.114 19.1772 19.8466C19.3007 19.5547 19.2608 19.2606 19.2314 19.0904C19.1997 18.9063 19.141 18.6805 19.0779 18.4381L19.0707 18.4103C18.674 16.8839 19.6406 15.2428 21.2063 14.8205L21.2339 14.813C21.471 14.7491 21.6931 14.6892 21.8668 14.6262C22.0293 14.5672 22.301 14.4566 22.4923 14.2067C22.6682 13.9771 22.7148 13.7255 22.7332 13.5474C22.7501 13.3831 22.7501 13.1866 22.75 12.9955V11.0043C22.7501 10.8131 22.7501 10.6166 22.7332 10.4523C22.7148 10.2742 22.6682 10.0226 22.4923 9.793C22.3009 9.54316 22.0293 9.43249 21.8668 9.37353C21.6931 9.31051 21.4709 9.25062 21.2339 9.18671L21.2063 9.17927C19.64 8.75687 18.6727 7.11551 19.0692 5.58927L19.0764 5.56169C19.1394 5.31914 19.1981 5.09326 19.2299 4.90915C19.2592 4.73899 19.2991 4.44484 19.1756 4.15296C19.0625 3.8856 18.8655 3.72037 18.7197 3.61658C18.5846 3.52046 18.4128 3.42297 18.2451 3.32782L16.4705 2.32022C16.3063 2.22693 16.137 2.13076 15.9869 2.06488C15.8237 1.99322 15.5839 1.91045 15.2995 1.94876C14.9904 1.99041 14.7612 2.16793 14.6294 2.27876C14.4895 2.39645 14.3287 2.55687 14.1577 2.72747L14.1376 2.74759C12.9711 3.91128 11.0306 3.91125 9.86405 2.74751L9.84389 2.7274C9.67292 2.5568 9.51213 2.39636 9.37221 2.27867C9.24043 2.16784 9.01124 1.99031 8.70208 1.94866ZM8.24685 3.63867C8.34177 3.58478 8.41633 3.54247 8.48104 3.50737L8.49106 3.50196C8.56658 3.57238 8.66484 3.66995 8.80465 3.80943C10.5566 5.55725 13.4449 5.55734 15.1969 3.80953C15.3368 3.67005 15.435 3.57248 15.5105 3.50205L15.5206 3.50747C15.5853 3.54257 15.6598 3.58487 15.7548 3.63876L17.4795 4.61799C17.5761 4.67289 17.6523 4.71615 17.7169 4.75453L17.7299 4.76228C17.7063 4.8684 17.6699 5.00992 17.6174 5.21212C17.0071 7.56117 18.4812 9.99796 20.8157 10.6275C21.0108 10.6801 21.1474 10.7173 21.2483 10.7483L21.2485 10.7613C21.25 10.8359 21.25 10.9227 21.25 11.0331V12.9667C21.25 13.0771 21.25 13.1639 21.2485 13.2384L21.2483 13.2515C21.1474 13.2824 21.0108 13.3196 20.8157 13.3722C18.4813 14.0019 17.0085 16.4389 17.6189 18.7876C17.6715 18.9898 17.7079 19.1313 17.7315 19.2374L17.7185 19.2451C17.6539 19.2835 17.5777 19.3268 17.481 19.3817L15.7563 20.3609C15.6614 20.4148 15.5868 20.4571 15.5221 20.4922L15.5121 20.4976C15.4366 20.4272 15.3384 20.3296 15.1986 20.1902C13.4458 18.4411 10.5557 18.4412 8.80295 20.1902C8.6632 20.3297 8.56497 20.4273 8.48947 20.4977L8.47947 20.4923C8.41476 20.4572 8.34019 20.4149 8.24526 20.361L6.52057 19.3818C6.42388 19.3269 6.34775 19.2836 6.28307 19.2452L6.27007 19.2375C6.29369 19.1313 6.33011 18.9898 6.38263 18.7876C6.99287 16.4386 5.51878 14.0018 3.18432 13.3722C2.98924 13.3196 2.85262 13.2824 2.75175 13.2515L2.75148 13.2384C2.75004 13.1639 2.75001 13.0771 2.75001 12.9667L2.75001 11.0331C2.75001 10.9227 2.75004 10.8359 2.75148 10.7613L2.75175 10.7483C2.85262 10.7173 2.98923 10.6802 3.18428 10.6276C5.5188 9.9981 6.99419 7.56148 6.38418 5.21213C6.33167 5.00988 6.29526 4.86833 6.27165 4.76218L6.28466 4.75443C6.34934 4.71605 6.42547 4.67279 6.52215 4.6179L8.24685 3.63867Z" fill="#D93502"/>
</svg>
