<svg width="20" height="20" viewBox="0 0 20 20" fill="none" xmlns="http://www.w3.org/2000/svg">
<circle cx="10.0003" cy="10.3275" r="8.33333" fill="#EC362A"/>
<path fill-rule="evenodd" clip-rule="evenodd" d="M1.66699 10.3275C1.66699 14.9298 5.39795 18.6608 10.0003 18.6608C14.6027 18.6608 18.3337 14.9298 18.3337 10.3275C18.3337 5.7251 14.6027 1.99414 10.0003 1.99414C5.39795 1.99414 1.66699 5.7251 1.66699 10.3275ZM3.33366 10.3275C3.33366 6.64558 6.31843 3.66081 10.0003 3.66081C13.6822 3.66081 16.667 6.64558 16.667 10.3275C16.667 14.0094 13.6822 16.9941 10.0003 16.9941C6.31843 16.9941 3.33366 14.0094 3.33366 10.3275ZM10.0002 5.11914C9.43179 5.11914 8.97747 5.59199 9.00019 6.15997L9.18775 10.8489C9.20519 11.285 9.56379 11.6296 10.0002 11.6296C10.4367 11.6296 10.7953 11.285 10.8127 10.8489L11.0003 6.15998C11.023 5.59199 10.5687 5.11914 10.0002 5.11914ZM8.80241 14.1035C8.80241 13.4563 9.32708 12.9316 9.97428 12.9316C10.6215 12.9316 11.1462 13.4563 11.1462 14.1035C11.1462 14.7507 10.6215 15.2754 9.97428 15.2754C9.32708 15.2754 8.80241 14.7507 8.80241 14.1035Z" fill="#FFEBEA"/>
<circle cx="10.0003" cy="10.3275" r="7.33333" stroke="#EC362A" stroke-width="2"/>
</svg>
