<svg width="24" height="24" viewBox="0 0 24 24" fill="none" xmlns="http://www.w3.org/2000/svg">
<path d="M10.275 5.80875L4.31626 16.125C4.06763 16.5556 4.00026 17.0674 4.12895 17.5477C4.25765 18.0281 4.57188 18.4376 5.00251 18.6863L10.6875 21.9713C10.5635 21.6625 10.4998 21.3328 10.5 21V9.08625C10.4994 8.0177 10.9135 6.99061 11.655 6.22125L14.0475 3.75L12.2625 4.2525C11.4237 4.49464 10.7113 5.05245 10.275 5.80875Z" fill="#D93502"/>
<path d="M1.81875 12.5926C1.46724 12.9442 1.26978 13.421 1.26978 13.9182C1.26978 14.4154 1.46724 14.8922 1.81875 15.2439L3.31875 16.7439C3.36667 16.3924 3.48531 16.0544 3.6675 15.7501C4.54125 14.2501 8.40375 7.54885 10.5 3.94885C10.2487 4.14385 10.7063 3.7126 1.81875 12.5926Z" fill="#D93502"/>
<path d="M16.3912 14.625H16.5V13.125H16.3912C16.1923 13.125 16.0016 13.204 15.8609 13.3447C15.7203 13.4853 15.6412 13.6761 15.6412 13.875C15.6412 14.0739 15.7203 14.2647 15.8609 14.4053C16.0016 14.546 16.1923 14.625 16.3912 14.625Z" fill="#D93502"/>
<path d="M19.125 1.07629C18.9741 1.95907 18.5939 2.7867 18.0225 3.47629C17.8478 3.29656 17.6388 3.15369 17.4078 3.05613C17.1769 2.95857 16.9288 2.90831 16.6781 2.90831C16.4274 2.90831 16.1793 2.95857 15.9484 3.05613C15.7175 3.15369 15.5085 3.29656 15.3337 3.47629L12.195 6.75004C11.5902 7.37756 11.2515 8.21474 11.25 9.08629V21C11.25 21.4973 11.4475 21.9742 11.7992 22.3259C12.1508 22.6775 12.6277 22.875 13.125 22.875H20.25C20.7473 22.875 21.2242 22.6775 21.5758 22.3259C21.9275 21.9742 22.125 21.4973 22.125 21V9.08629C22.1235 8.21474 21.7848 7.37756 21.18 6.75004L19.0762 4.56754C18.6061 5.07927 18.0321 5.48457 17.3925 5.75629C17.3464 5.88586 17.2656 6.00027 17.1589 6.08701C17.0522 6.17375 16.9237 6.22949 16.7875 6.24812C16.6512 6.26676 16.5125 6.24758 16.3864 6.19268C16.2603 6.13778 16.1518 6.04927 16.0726 5.93683C15.9934 5.8244 15.9467 5.69236 15.9375 5.55515C15.9283 5.41794 15.957 5.28085 16.0205 5.15886C16.084 5.03688 16.1798 4.93469 16.2974 4.86347C16.415 4.79225 16.55 4.75474 16.6875 4.75504C16.7915 4.75581 16.8943 4.77821 16.9892 4.82082C17.0841 4.86343 17.1691 4.92532 17.2388 5.00254C17.4692 4.89917 17.689 4.77358 17.895 4.62754C18.1311 4.45012 18.3519 4.25318 18.555 4.03879C19.256 3.22572 19.7136 2.23141 19.875 1.17004L19.125 1.07629ZM16.3912 12.375H16.5V11.4638H17.25V12.375H17.3588C17.7566 12.375 18.1381 12.5331 18.4194 12.8144C18.7007 13.0957 18.8588 13.4772 18.8588 13.875H18.1088C18.1088 13.6761 18.0297 13.4854 17.8891 13.3447C17.7484 13.2041 17.5577 13.125 17.3588 13.125H17.25V14.625H17.3588C17.7566 14.625 18.1381 14.7831 18.4194 15.0644C18.7007 15.3457 18.8588 15.7272 18.8588 16.125C18.8588 16.5229 18.7007 16.9044 18.4194 17.1857C18.1381 17.467 17.7566 17.625 17.3588 17.625H17.25V18.5363H16.5V17.625H16.3912C15.9934 17.625 15.6119 17.467 15.3306 17.1857C15.0493 16.9044 14.8912 16.5229 14.8912 16.125H15.6412C15.6412 16.324 15.7203 16.5147 15.8609 16.6554C16.0016 16.796 16.1923 16.875 16.3912 16.875H16.5V15.375H16.3912C15.9934 15.375 15.6119 15.217 15.3306 14.9357C15.0493 14.6544 14.8912 14.2729 14.8912 13.875C14.8912 13.4772 15.0493 13.0957 15.3306 12.8144C15.6119 12.5331 15.9934 12.375 16.3912 12.375Z" fill="#D93502"/>
<path d="M18.1088 16.125C18.1088 15.9261 18.0297 15.7353 17.8891 15.5947C17.7484 15.454 17.5577 15.375 17.3588 15.375H17.25V16.875H17.3588C17.5577 16.875 17.7484 16.796 17.8891 16.6553C18.0297 16.5147 18.1088 16.3239 18.1088 16.125Z" fill="#D93502"/>
</svg>
