<svg width="16" height="19" viewBox="0 0 16 19" fill="none" xmlns="http://www.w3.org/2000/svg">
<path d="M15.9286 12.4643V4.64077C15.9286 4.12648 15.7293 3.63791 15.3629 3.27791L12.9007 0.815714C12.5407 0.449296 12.0521 0.25 11.5378 0.25H6.28571C5.22501 0.25 4.35714 1.11787 4.35714 2.17857V4.10714H2.42857C1.36787 4.10714 0.5 4.97501 0.5 6.03571V16.3214C0.5 17.3821 1.36787 18.25 2.42857 18.25H10.1429C11.2036 18.25 12.0714 17.3821 12.0714 16.3214V14.3929H14C15.0607 14.3929 15.9286 13.525 15.9286 12.4643ZM14.3793 4.10714H12.7143C12.3607 4.10714 12.0714 3.81787 12.0714 3.46429V1.79928L14.3793 4.10714ZM10.7857 16.3214C10.7857 16.675 10.4964 16.9643 10.1428 16.9643H2.42853C2.07495 16.9643 1.78567 16.675 1.78567 16.3214V6.03571C1.78567 5.68213 2.07495 5.39286 2.42853 5.39286H6.92853V7.32143C6.92853 8.38213 7.7964 9.25 8.8571 9.25H10.7857V16.3214ZM8.21424 5.65638L10.5222 7.96429H8.85714C8.50356 7.96429 8.21429 7.67501 8.21429 7.32143L8.21424 5.65638ZM14 13.1071H12.0714V8.49791C12.0714 7.98362 11.8721 7.49505 11.5057 7.13505L9.04348 4.67286C8.68348 4.30644 8.19491 4.10714 7.68062 4.10714H5.64277V2.17857C5.64277 1.82499 5.93205 1.53571 6.28563 1.53571H10.7856V3.46429C10.7856 4.52499 11.6535 5.39286 12.7142 5.39286H14.6428V12.4643C14.6428 12.8179 14.3535 13.1071 14 13.1071Z" fill="white"/>
</svg>
