<svg width="24" height="24" viewBox="0 0 24 24" fill="none" xmlns="http://www.w3.org/2000/svg">
<path d="M6.55747 13.4983C6.28038 13.1904 5.80616 13.1654 5.49828 13.4425C5.19039 13.7196 5.16544 14.1938 5.44253 14.5017L6 14L6.55747 13.4983ZM12 16V16.75V16ZM18.5575 14.5017C18.8346 14.1938 18.8096 13.7196 18.5017 13.4425C18.1938 13.1654 17.7196 13.1904 17.4425 13.4983L18 14L18.5575 14.5017ZM22.75 14C22.75 13.5858 22.4142 13.25 22 13.25C21.5858 13.25 21.25 13.5858 21.25 14H22H22.75ZM14 21.25C13.5858 21.25 13.25 21.5858 13.25 22C13.25 22.4142 13.5858 22.75 14 22.75V22V21.25ZM10 22.75C10.4142 22.75 10.75 22.4142 10.75 22C10.75 21.5858 10.4142 21.25 10 21.25V22V22.75ZM2.75 14C2.75 13.5858 2.41421 13.25 2 13.25C1.58579 13.25 1.25 13.5858 1.25 14H2H2.75ZM10 2.75C10.4142 2.75 10.75 2.41421 10.75 2C10.75 1.58579 10.4142 1.25 10 1.25V2V2.75ZM1.25 10C1.25 10.4142 1.58579 10.75 2 10.75C2.41421 10.75 2.75 10.4142 2.75 10H2H1.25ZM14 1.25C13.5858 1.25 13.25 1.58579 13.25 2C13.25 2.41421 13.5858 2.75 14 2.75V2V1.25ZM21.25 10C21.25 10.4142 21.5858 10.75 22 10.75C22.4142 10.75 22.75 10.4142 22.75 10H22H21.25ZM6 14C5.44253 14.5017 5.44282 14.502 5.44312 14.5024C5.44323 14.5025 5.44353 14.5028 5.44375 14.5031C5.44419 14.5036 5.44465 14.5041 5.44515 14.5046C5.44613 14.5057 5.44724 14.5069 5.44846 14.5082C5.45089 14.5109 5.45379 14.514 5.45715 14.5176C5.46387 14.5248 5.47244 14.5339 5.4829 14.5447C5.5038 14.5662 5.53222 14.5947 5.56831 14.629C5.64047 14.6978 5.7434 14.7902 5.87835 14.8982C6.14828 15.1141 6.54651 15.3924 7.08276 15.6674C8.15891 16.2192 9.77574 16.75 12 16.75V16V15.25C10.0243 15.25 8.64109 14.7808 7.76724 14.3326C7.32849 14.1076 7.01422 13.8859 6.8154 13.7268C6.71597 13.6473 6.64546 13.5835 6.60279 13.5428C6.58146 13.5225 6.5671 13.508 6.55958 13.5003C6.55583 13.4964 6.55378 13.4942 6.55344 13.4938C6.55326 13.4937 6.55351 13.4939 6.55419 13.4947C6.55452 13.495 6.55497 13.4955 6.55551 13.4961C6.55579 13.4964 6.55609 13.4967 6.55641 13.4971C6.55658 13.4973 6.55684 13.4976 6.55692 13.4977C6.55719 13.498 6.55747 13.4983 6 14ZM12 16V16.75C14.2243 16.75 15.8411 16.2192 16.9172 15.6674C17.4535 15.3924 17.8517 15.1141 18.1216 14.8982C18.2566 14.7902 18.3595 14.6978 18.4317 14.629C18.4678 14.5947 18.4962 14.5662 18.5171 14.5447C18.5276 14.5339 18.5361 14.5248 18.5429 14.5176C18.5462 14.514 18.5491 14.5109 18.5515 14.5082C18.5528 14.5069 18.5539 14.5057 18.5549 14.5046C18.5553 14.5041 18.5558 14.5036 18.5562 14.5031C18.5565 14.5028 18.5568 14.5025 18.5569 14.5024C18.5572 14.502 18.5575 14.5017 18 14C17.4425 13.4983 17.4428 13.498 17.4431 13.4977C17.4432 13.4976 17.4434 13.4973 17.4436 13.4971C17.4439 13.4967 17.4442 13.4964 17.4445 13.4961C17.445 13.4955 17.4455 13.495 17.4458 13.4947C17.4465 13.4939 17.4467 13.4937 17.4466 13.4938C17.4462 13.4942 17.4442 13.4964 17.4404 13.5003C17.4329 13.508 17.4185 13.5225 17.3972 13.5428C17.3545 13.5835 17.284 13.6473 17.1846 13.7268C16.9858 13.8859 16.6715 14.1076 16.2328 14.3326C15.3589 14.7808 13.9757 15.25 12 15.25V16ZM22 14H21.25C21.25 15.9068 21.2484 17.2615 21.1102 18.2892C20.975 19.2952 20.7213 19.8749 20.2981 20.2981L20.8284 20.8284L21.3588 21.3588C22.1071 20.6104 22.4392 19.6614 22.5969 18.489C22.7516 17.3382 22.75 15.8644 22.75 14H22ZM14 22V22.75C15.8644 22.75 17.3382 22.7516 18.489 22.5969C19.6614 22.4392 20.6104 22.1071 21.3588 21.3588L20.8284 20.8284L20.2981 20.2981C19.8749 20.7213 19.2952 20.975 18.2892 21.1102C17.2615 21.2484 15.9068 21.25 14 21.25V22ZM10 22V21.25C8.09318 21.25 6.73851 21.2484 5.71085 21.1102C4.70476 20.975 4.12511 20.7213 3.7019 20.2981L3.17157 20.8284L2.64124 21.3588C3.38961 22.1071 4.33855 22.4392 5.51098 22.5969C6.66182 22.7516 8.13558 22.75 10 22.75V22ZM2 14H1.25C1.25 15.8644 1.24841 17.3382 1.40313 18.489C1.56076 19.6614 1.89288 20.6104 2.64124 21.3588L3.17157 20.8284L3.7019 20.2981C3.27869 19.8749 3.02502 19.2952 2.88976 18.2892C2.75159 17.2615 2.75 15.9068 2.75 14H2ZM10 2V1.25C8.13558 1.25 6.66182 1.24841 5.51098 1.40313C4.33855 1.56076 3.38961 1.89288 2.64124 2.64124L3.17157 3.17157L3.7019 3.7019C4.12511 3.27869 4.70476 3.02502 5.71085 2.88976C6.73851 2.75159 8.09318 2.75 10 2.75V2ZM2 10H2.75C2.75 8.09318 2.75159 6.73851 2.88976 5.71085C3.02502 4.70476 3.27869 4.12511 3.7019 3.7019L3.17157 3.17157L2.64124 2.64124C1.89288 3.38961 1.56076 4.33855 1.40313 5.51098C1.24841 6.66182 1.25 8.13558 1.25 10H2ZM14 2V2.75C15.9068 2.75 17.2615 2.75159 18.2892 2.88976C19.2952 3.02502 19.8749 3.27869 20.2981 3.7019L20.8284 3.17157L21.3588 2.64124C20.6104 1.89288 19.6614 1.56076 18.489 1.40313C17.3382 1.24841 15.8644 1.25 14 1.25V2ZM22 10H22.75C22.75 8.13558 22.7516 6.66182 22.5969 5.51098C22.4392 4.33855 22.1071 3.38961 21.3588 2.64124L20.8284 3.17157L20.2981 3.7019C20.7213 4.12511 20.975 4.70476 21.1102 5.71085C21.2484 6.73851 21.25 8.09318 21.25 10H22Z" fill="white"/>
</svg>
