<svg width="22" height="18" viewBox="0 0 22 18" fill="none" xmlns="http://www.w3.org/2000/svg">
<path d="M19.6342 2.16023C19.12 1.63976 18.507 1.22724 17.8312 0.946851C17.1554 0.666464 16.4304 0.523861 15.6987 0.527408C14.2191 0.527934 12.8001 1.11512 11.7527 2.16023L10.8003 3.12317L9.84779 2.16023C8.80043 1.11512 7.38141 0.527934 5.90181 0.527408C5.17016 0.523861 4.44516 0.666464 3.76936 0.946851C3.09355 1.22724 2.48055 1.63976 1.9663 2.16023C1.44823 2.67742 1.03723 3.29168 0.7568 3.96788C0.476374 4.64408 0.332031 5.36893 0.332031 6.10097C0.332031 6.83301 0.476374 7.55786 0.7568 8.23406C1.03723 8.91026 1.44823 9.52452 1.9663 10.0417L8.49757 16.573C8.79988 16.8755 9.15884 17.1156 9.55395 17.2793C9.94906 17.4431 10.3726 17.5273 10.8003 17.5273C11.228 17.5273 11.6515 17.4431 12.0466 17.2793C12.4417 17.1156 12.8007 16.8755 13.103 16.573L19.6342 10.0731C20.157 9.55536 20.572 8.93913 20.8552 8.26004C21.1385 7.58095 21.2843 6.85246 21.2843 6.11667C21.2843 5.38088 21.1385 4.65239 20.8552 3.9733C20.572 3.29421 20.157 2.67798 19.6342 2.16023ZM18.2945 8.6915L11.7632 15.2228C11.6368 15.3494 11.4867 15.4498 11.3215 15.5183C11.1563 15.5868 10.9791 15.6221 10.8003 15.6221C10.6214 15.6221 10.4443 15.5868 10.279 15.5183C10.1138 15.4498 9.9637 15.3494 9.83732 15.2228L3.30605 8.6915C2.62151 8.00312 2.23725 7.07178 2.23725 6.10097C2.23725 5.13016 2.62151 4.19882 3.30605 3.51044C3.6473 3.17202 4.05267 2.90512 4.4984 2.72539C4.94413 2.54565 5.42126 2.45671 5.90181 2.46376C6.38205 2.45903 6.8585 2.54903 7.30391 2.72863C7.74932 2.90824 8.15495 3.17391 8.49757 3.51044L10.1304 5.14326C10.3112 5.31479 10.551 5.41041 10.8003 5.41041C11.0495 5.41041 11.2893 5.31479 11.4701 5.14326L13.103 3.51044C13.4456 3.17391 13.8512 2.90824 14.2966 2.72863C14.742 2.54903 15.2185 2.45903 15.6987 2.46376C16.1793 2.45671 16.6564 2.54565 17.1021 2.72539C17.5479 2.90512 17.9532 3.17202 18.2945 3.51044C18.979 4.19882 19.3633 5.13016 19.3633 6.10097C19.3633 7.07178 18.979 8.00312 18.2945 8.6915Z" fill="#818181"/>
</svg>
