<svg width="25" height="25" viewBox="0 0 25 25" fill="none" xmlns="http://www.w3.org/2000/svg">
<path d="M7.25067 11.5694L5.25067 11.5694C2.83067 11.5694 1.50067 10.2394 1.50067 7.81937L1.50067 5.81937C1.50067 3.39937 2.83067 2.06937 5.25067 2.06937L7.25067 2.06937C9.67067 2.06937 11.0007 3.39937 11.0007 5.81937L11.0007 7.81937C11.0007 10.2394 9.67067 11.5694 7.25067 11.5694ZM5.25067 3.56937C3.67067 3.56937 3.00067 4.23937 3.00067 5.81937L3.00067 7.81937C3.00067 9.39937 3.67067 10.0694 5.25067 10.0694L7.25067 10.0694C8.83067 10.0694 9.50067 9.39937 9.50067 7.81937L9.50067 5.81937C9.50067 4.23937 8.83067 3.56937 7.25067 3.56937L5.25067 3.56937Z" fill="#818181"/>
<path d="M19.2507 11.5694L17.2507 11.5694C14.8307 11.5694 13.5007 10.2394 13.5007 7.81937L13.5007 5.81937C13.5007 3.39937 14.8307 2.06937 17.2507 2.06937L19.2507 2.06937C21.6707 2.06937 23.0007 3.39937 23.0007 5.81937L23.0007 7.81937C23.0007 10.2394 21.6707 11.5694 19.2507 11.5694ZM17.2507 3.56937C15.6707 3.56937 15.0007 4.23937 15.0007 5.81937L15.0007 7.81937C15.0007 9.39937 15.6707 10.0694 17.2507 10.0694L19.2507 10.0694C20.8307 10.0694 21.5007 9.39937 21.5007 7.81937L21.5007 5.81937C21.5007 4.23937 20.8307 3.56937 19.2507 3.56937L17.2507 3.56937Z" fill="#818181"/>
<path d="M19.2507 23.5694L17.2507 23.5694C14.8307 23.5694 13.5007 22.2394 13.5007 19.8194L13.5007 17.8194C13.5007 15.3994 14.8307 14.0694 17.2507 14.0694L19.2507 14.0694C21.6707 14.0694 23.0007 15.3994 23.0007 17.8194L23.0007 19.8194C23.0007 22.2394 21.6707 23.5694 19.2507 23.5694ZM17.2507 15.5694C15.6707 15.5694 15.0007 16.2394 15.0007 17.8194L15.0007 19.8194C15.0007 21.3994 15.6707 22.0694 17.2507 22.0694L19.2507 22.0694C20.8307 22.0694 21.5007 21.3994 21.5007 19.8194L21.5007 17.8194C21.5007 16.2394 20.8307 15.5694 19.2507 15.5694L17.2507 15.5694Z" fill="#818181"/>
<path d="M7.25067 23.5694L5.25067 23.5694C2.83067 23.5694 1.50067 22.2394 1.50067 19.8194L1.50067 17.8194C1.50067 15.3994 2.83067 14.0694 5.25067 14.0694L7.25067 14.0694C9.67067 14.0694 11.0007 15.3994 11.0007 17.8194L11.0007 19.8194C11.0007 22.2394 9.67067 23.5694 7.25067 23.5694ZM5.25067 15.5694C3.67067 15.5694 3.00067 16.2394 3.00067 17.8194L3.00067 19.8194C3.00067 21.3994 3.67067 22.0694 5.25067 22.0694L7.25067 22.0694C8.83067 22.0694 9.50067 21.3994 9.50067 19.8194L9.50067 17.8194C9.50067 16.2394 8.83067 15.5694 7.25067 15.5694L5.25067 15.5694Z" fill="#818181"/>
</svg>
