<svg width="21" height="18" viewBox="0 0 21 18" fill="none" xmlns="http://www.w3.org/2000/svg">
<path d="M20.0305 4.67145C19.6333 4.10207 18.9963 3.75453 18.2994 3.71756L6.27921 3.09642L6.18929 2.64535C5.97946 1.61013 5.05021 0.863281 3.98608 0.863281H1.46814C1.05597 0.863281 0.71875 1.19603 0.71875 1.60273C0.71875 2.00943 1.05597 2.34218 1.46814 2.34218H3.98608C4.34579 2.34218 4.65304 2.59359 4.72048 2.93374L6.36914 11.0529C6.64641 12.4283 7.8829 13.4339 9.30674 13.4339H15.9163C17.2203 13.4339 18.3743 12.6057 18.7715 11.3783L20.3228 6.6162C20.5401 5.95809 20.4352 5.24822 20.0305 4.67884V4.67145ZM18.8914 6.15774L17.3402 10.9198C17.1378 11.5335 16.5683 11.9476 15.9163 11.9476H9.30674C8.59482 11.9476 7.98032 11.4448 7.83794 10.7571L6.58646 4.58271L18.2245 5.18906C18.4568 5.20385 18.6666 5.31477 18.8015 5.50702C18.9364 5.69928 18.9664 5.93591 18.8989 6.15035L18.8914 6.15774Z" fill="#818181"/>
<path d="M9.71167 17.864C10.5394 17.864 11.2104 17.2019 11.2104 16.3851C11.2104 15.5684 10.5394 14.9062 9.71167 14.9062C8.88392 14.9062 8.21289 15.5684 8.21289 16.3851C8.21289 17.2019 8.88392 17.864 9.71167 17.864Z" fill="#818181"/>
<path d="M15.7058 17.864C16.5336 17.864 17.2046 17.2019 17.2046 16.3851C17.2046 15.5684 16.5336 14.9062 15.7058 14.9062C14.8781 14.9062 14.207 15.5684 14.207 16.3851C14.207 17.2019 14.8781 17.864 15.7058 17.864Z" fill="#818181"/>
</svg>
