<svg width="25" height="24" viewBox="0 0 25 24" fill="none" xmlns="http://www.w3.org/2000/svg">
<path d="M9.9607 16.4081C9.63384 16.1537 9.16261 16.2124 8.90817 16.5393C8.65374 16.8661 8.71245 17.3374 9.03931 17.5918C9.9729 18.3185 11.1859 18.75 12.5 18.75C13.8141 18.75 15.0271 18.3185 15.9607 17.5918C16.2876 17.3374 16.3463 16.8661 16.0918 16.5393C15.8374 16.2124 15.3662 16.1537 15.0393 16.4081C14.3739 16.9261 13.4864 17.25 12.5 17.25C11.5136 17.25 10.6262 16.9261 9.9607 16.4081Z" fill="#C1C7D0"/>
<path fill-rule="evenodd" clip-rule="evenodd" d="M12.5 1.25C11.6339 1.25 10.8597 1.52688 10.0238 1.99594C9.2139 2.45043 8.28586 3.12145 7.11887 3.96524L5.60984 5.05632C4.6733 5.73346 3.92528 6.27429 3.36109 6.77487C2.77855 7.29173 2.34274 7.807 2.0663 8.45513C1.78925 9.10469 1.72225 9.77045 1.75941 10.5381C1.79528 11.2789 1.93264 12.1727 2.10393 13.2872L2.41918 15.3387C2.66256 16.9225 2.85635 18.1836 3.14105 19.1662C3.43544 20.1821 3.85016 20.9887 4.5914 21.6052C5.32957 22.2192 6.2089 22.4926 7.28306 22.6231C8.328 22.75 9.64615 22.75 11.3111 22.75H13.6889C15.3539 22.75 16.672 22.75 17.7169 22.6231C18.7911 22.4926 19.6704 22.2192 20.4086 21.6052C21.1499 20.9887 21.5646 20.1821 21.859 19.1662C22.1437 18.1837 22.3374 16.9225 22.5808 15.3387L22.8961 13.2871C23.0674 12.1726 23.2047 11.2789 23.2406 10.5381C23.2778 9.77045 23.2108 9.10469 22.9337 8.45513C22.6573 7.807 22.2215 7.29173 21.6389 6.77487C21.0747 6.2743 20.3267 5.73347 19.3902 5.05633L17.8811 3.96525C16.7142 3.12146 15.7861 2.45043 14.9762 1.99594C14.1403 1.52688 13.3661 1.25 12.5 1.25ZM7.96043 5.20777C9.17318 4.33092 10.032 3.7114 10.7579 3.30406C11.4664 2.90645 11.983 2.75 12.5 2.75C13.017 2.75 13.5336 2.90645 14.2421 3.30406C14.968 3.7114 15.8268 4.33092 17.0396 5.20777L18.4794 6.24884C19.4551 6.95427 20.1418 7.45189 20.6434 7.8969C21.133 8.33129 21.3961 8.6735 21.554 9.04362C21.7112 9.41232 21.7731 9.83 21.7423 10.4655C21.7107 11.119 21.5862 11.9356 21.4073 13.0995L21.1063 15.0585C20.853 16.7066 20.6726 17.8709 20.4182 18.7487C20.1704 19.6038 19.8761 20.0971 19.4494 20.452C19.0197 20.8094 18.4613 21.0217 17.5361 21.134C16.5921 21.2487 15.365 21.25 13.6388 21.25H11.3612C9.63497 21.25 8.40793 21.2487 7.46392 21.134C6.53868 21.0217 5.98034 20.8094 5.5506 20.452C5.12394 20.0971 4.82959 19.6038 4.58178 18.7487C4.32742 17.8709 4.147 16.7066 3.89373 15.0585L3.59269 13.0995C3.41382 11.9356 3.2893 11.119 3.25766 10.4655C3.22689 9.83 3.28878 9.41232 3.44604 9.04362C3.6039 8.6735 3.86702 8.33129 4.35661 7.8969C4.85817 7.45189 5.54492 6.95427 6.52058 6.24884L7.96043 5.20777Z" fill="#C1C7D0"/>
</svg>
