<svg width="18" height="18" viewBox="0 0 18 18" fill="none" xmlns="http://www.w3.org/2000/svg">
<path d="M12.36 9.55831C13.1208 8.87783 13.657 7.98238 13.8978 6.99045C14.1385 5.99852 14.0724 4.95687 13.7082 4.00334C13.344 3.0498 12.6988 2.22933 11.8581 1.65049C11.0174 1.07165 10.0207 0.761719 8.99996 0.761719C7.97923 0.761719 6.98256 1.07165 6.14183 1.65049C5.30111 2.22933 4.65595 3.0498 4.29173 4.00334C3.92751 4.95687 3.8614 5.99852 4.10215 6.99045C4.3429 7.98238 4.87915 8.87783 5.63996 9.55831C4.23245 10.0512 3.01266 10.9688 2.14899 12.1846C1.28532 13.4003 0.820381 14.8542 0.818359 16.3455C0.818359 16.5742 0.909219 16.7936 1.07095 16.9553C1.23268 17.1171 1.45204 17.2079 1.68076 17.2079C1.90948 17.2079 2.12884 17.1171 2.29057 16.9553C2.4523 16.7936 2.54316 16.5742 2.54316 16.3455C2.54464 14.8934 3.12214 13.5012 4.14891 12.4745C5.17569 11.4477 6.56788 10.8702 8.01996 10.8687H10.0024C11.4544 10.8702 12.8466 11.4477 13.8734 12.4745C14.9002 13.5012 15.4777 14.8934 15.4792 16.3455C15.4792 16.5742 15.57 16.7936 15.7318 16.9553C15.8935 17.1171 16.1128 17.2079 16.3416 17.2079C16.5703 17.2079 16.7896 17.1171 16.9514 16.9553C17.1131 16.7936 17.204 16.5742 17.204 16.3455C17.2003 14.8515 16.7321 13.3956 15.8642 12.1795C14.9963 10.9635 13.7717 10.0474 12.36 9.55831ZM8.99996 2.53031C9.65232 2.53031 10.29 2.72376 10.8325 3.08619C11.3749 3.44863 11.7976 3.96377 12.0473 4.56647C12.2969 5.16917 12.3623 5.83237 12.235 6.4722C12.1077 7.11203 11.7936 7.69974 11.3323 8.16103C10.871 8.62232 10.2833 8.93647 9.64345 9.06374C9.00362 9.191 8.34042 9.12569 7.73772 8.87604C7.13501 8.62639 6.61987 8.20363 6.25744 7.66121C5.89501 7.11879 5.70156 6.48108 5.70156 5.82871C5.70156 5.39556 5.78687 4.96665 5.95263 4.56647C6.1184 4.16629 6.36135 3.80268 6.66764 3.49639C7.28621 2.87782 8.12517 2.53031 8.99996 2.53031Z" fill="#D93502"/>
</svg>
