<svg width="32" height="32" viewBox="0 0 32 32" fill="none" xmlns="http://www.w3.org/2000/svg">
<path fill-rule="evenodd" clip-rule="evenodd" d="M7.72882 6.94281L7.68984 7.48844C7.46321 7.50648 7.24628 7.52855 7.03881 7.55553C5.84805 7.71036 4.83603 8.04057 3.97713 8.79397C3.12375 9.54253 2.64521 10.5129 2.29643 11.6934C1.9595 12.8337 1.71049 14.2948 1.40087 16.1115L1.40085 16.1116L0.833404 19.4408C0.403154 21.9649 0.0608897 23.9728 0.00742275 25.5595C-0.0475009 27.1893 0.190832 28.5789 1.11026 29.7294C2.03796 30.8903 3.3267 31.3927 4.89436 31.6266C6.40515 31.8519 8.36095 31.8519 10.799 31.8519H19.5714C20.6858 31.8519 21.6994 31.8519 22.6158 31.8304C21.7484 31.2715 21.019 30.5169 20.4901 29.629C20.1668 29.6296 19.8298 29.6296 19.4784 29.6296H10.892C8.33924 29.6296 6.54993 29.6267 5.22219 29.4287C3.93215 29.2362 3.28108 28.8862 2.84625 28.3421C2.40315 27.7876 2.18146 27.0267 2.22838 25.6343C2.27616 24.2164 2.59053 22.3575 3.03847 19.7294L3.57957 16.5548C3.90391 14.6519 4.13249 13.3218 4.42758 12.323C4.71514 11.3498 5.02962 10.8268 5.44253 10.4646C5.84992 10.1072 6.38054 9.88205 7.32535 9.7592C7.39194 9.75054 7.45993 9.74246 7.52938 9.73492L7.41028 11.4023C7.36656 12.0144 7.82731 12.546 8.4394 12.5898C9.05149 12.6335 9.58313 12.1727 9.62685 11.5606L9.76441 9.63491C10.2641 9.62987 10.817 9.62963 11.4331 9.62963L18.9373 9.62963C19.5534 9.62963 20.1064 9.62987 20.6061 9.63492L20.7436 11.5606C20.7873 12.1727 21.319 12.6335 21.9311 12.5898C22.5432 12.5461 23.0039 12.0144 22.9602 11.4023L22.8411 9.73493C22.9105 9.74247 22.9784 9.75054 23.045 9.7592C23.9898 9.88205 24.5204 10.1072 24.9278 10.4646C25.3407 10.8268 25.6552 11.3498 25.9428 12.323C26.2379 13.3218 26.4664 14.6519 26.7908 16.5548L27.3175 19.6451C28.1886 19.7891 29.0028 20.1021 29.7251 20.5491C29.6649 20.1913 29.6019 19.822 29.537 19.441L29.5369 19.4407L28.9695 16.1115L28.9695 16.1114C28.6599 14.2947 28.4108 12.8337 28.0739 11.6934C27.7251 10.5129 27.2466 9.54253 26.3932 8.79397C25.5343 8.04057 24.5223 7.71036 23.3316 7.55553C23.1241 7.52855 22.9072 7.50649 22.6806 7.48844L22.6417 6.94281C22.3622 3.03089 19.1071 0 15.1852 0C11.2633 0 8.00824 3.03088 7.72882 6.94281ZM15.1852 2.22222C12.4292 2.22222 10.1417 4.35212 9.94539 7.10114L9.92326 7.41092C10.3744 7.40739 10.8517 7.4074 11.3564 7.40741H11.3572L19.0131 7.40741C19.5182 7.4074 19.9958 7.40739 20.4472 7.41092L20.4251 7.10114C20.2287 4.35211 17.9413 2.22222 15.1852 2.22222Z" fill="white"/>
<rect x="21.334" y="21.3335" width="10.6667" height="10.6667" rx="5.33333" fill="white"/>
</svg>
