<svg width="24" height="24" viewBox="0 0 24 24" fill="none" xmlns="http://www.w3.org/2000/svg">
<path d="M8.84828 8.51737L8.102 8.44274L8.84828 8.51737ZM15.1518 8.51737L14.4055 8.592L15.1518 8.51737ZM2.73183 8.34093L1.9964 8.19385L2.73183 8.34093ZM8.77549 9.24527L8.02921 9.17064L8.77549 9.24527ZM5.66628 2.10675L5.86457 2.83006L5.66628 2.10675ZM3.32975 5.35133L4.06519 5.49841L3.32975 5.35133ZM3.77791 3.65484L3.10753 3.31855L3.77791 3.65484ZM21.2682 8.34093L22.0036 8.19385L21.2682 8.34093ZM15.2245 9.24527L14.4783 9.3199L15.2245 9.24527ZM18.3338 2.10675L18.1355 2.83006L18.3338 2.10675ZM20.6703 5.35133L19.9348 5.49841L20.6703 5.35133ZM20.2221 3.65484L20.8925 3.31855L20.2221 3.65484ZM8.75002 21.5C8.75002 21.9142 9.0858 22.25 9.50002 22.25C9.91423 22.25 10.25 21.9142 10.25 21.5H9.50002H8.75002ZM13.75 21.5C13.75 21.9142 14.0858 22.25 14.5 22.25C14.9142 22.25 15.25 21.9142 15.25 21.5H14.5H13.75ZM13.75 16.201L14.125 15.5514L13.75 16.201ZM14.2991 16.75L13.6495 17.125L14.2991 16.75ZM9.70098 16.75L10.3505 17.125L9.70098 16.75ZM10.25 16.201L10.625 16.8505L10.25 16.201ZM12.5 22V21.25H11.5V22V22.75H12.5V22ZM3.50002 14H4.25002V11H3.50002H2.75002V14H3.50002ZM20.5 11H19.75V14H20.5H21.25V11H20.5ZM11.5 22V21.25C9.5932 21.25 8.23853 21.2484 7.21087 21.1102C6.20478 20.975 5.62513 20.7213 5.20192 20.2981L4.67159 20.8284L4.14126 21.3588C4.88962 22.1071 5.83857 22.4392 7.011 22.5969C8.16184 22.7516 9.6356 22.75 11.5 22.75V22ZM3.50002 14H2.75002C2.75002 15.8644 2.74843 17.3382 2.90315 18.489C3.06078 19.6614 3.3929 20.6104 4.14126 21.3588L4.67159 20.8284L5.20192 20.2981C4.77871 19.8749 4.52504 19.2952 4.38978 18.2892C4.25161 17.2615 4.25002 15.9068 4.25002 14H3.50002ZM12.5 22V22.75C14.3644 22.75 15.8382 22.7516 16.989 22.5969C18.1615 22.4392 19.1104 22.1071 19.8588 21.3588L19.3284 20.8284L18.7981 20.2981C18.3749 20.7213 17.7953 20.975 16.7892 21.1102C15.7615 21.2484 14.4068 21.25 12.5 21.25V22ZM20.5 14H19.75C19.75 15.9068 19.7484 17.2615 19.6103 18.2892C19.475 19.2952 19.2213 19.8749 18.7981 20.2981L19.3284 20.8284L19.8588 21.3588C20.6071 20.6104 20.9393 19.6614 21.0969 18.489C21.2516 17.3382 21.25 15.8644 21.25 14H20.5ZM9.50002 2V2.75H14.5V2V1.25H9.50002V2ZM14.5 2L13.7537 2.07463L14.4055 8.592L15.1518 8.51737L15.898 8.44274L15.2463 1.92537L14.5 2ZM8.84828 8.51737L9.59456 8.592L10.2463 2.07463L9.50002 2L8.75374 1.92537L8.102 8.44274L8.84828 8.51737ZM12 12V11.25C10.5698 11.25 9.45225 10.0151 9.59456 8.592L8.84828 8.51737L8.102 8.44274C7.87139 10.7489 9.68237 12.75 12 12.75V12ZM15.1518 8.51737L14.4055 8.592C14.5478 10.0151 13.4302 11.25 12 11.25V12V12.75C14.3177 12.75 16.1286 10.7489 15.898 8.44274L15.1518 8.51737ZM7.41771 2V2.75H9.50002V2V1.25H7.41771V2ZM9.50002 2L8.75374 1.92537L8.02921 9.17064L8.77549 9.24527L9.52177 9.3199L10.2463 2.07463L9.50002 2ZM2.73183 8.34093L3.46727 8.48802L4.06519 5.49841L3.32975 5.35133L2.59432 5.20424L1.9964 8.19385L2.73183 8.34093ZM5.73155 12V11.25C4.27439 11.25 3.18149 9.91689 3.46727 8.48802L2.73183 8.34093L1.9964 8.19385C1.52499 10.5509 3.32782 12.75 5.73155 12.75V12ZM8.77549 9.24527L8.02921 9.17064C7.91117 10.3511 6.91786 11.25 5.73155 11.25V12V12.75C7.68849 12.75 9.32705 11.2671 9.52177 9.3199L8.77549 9.24527ZM7.41771 2V1.25C6.55611 1.25 5.97865 1.24344 5.46799 1.38343L5.66628 2.10675L5.86457 2.83006C6.13269 2.75656 6.46326 2.75 7.41771 2.75V2ZM3.32975 5.35133L4.06519 5.49841C4.25237 4.56249 4.32363 4.23963 4.44829 3.99113L3.77791 3.65484L3.10753 3.31855C2.87011 3.79183 2.76329 4.35937 2.59432 5.20424L3.32975 5.35133ZM5.66628 2.10675L5.46799 1.38343C4.44238 1.66459 3.58437 2.36799 3.10753 3.31855L3.77791 3.65484L4.44829 3.99113C4.7344 3.42079 5.2492 2.99876 5.86457 2.83006L5.66628 2.10675ZM16.5823 2V1.25H14.5V2V2.75H16.5823V2ZM14.5 2L13.7537 2.07463L14.4783 9.3199L15.2245 9.24527L15.9708 9.17064L15.2463 1.92537L14.5 2ZM21.2682 8.34093L22.0036 8.19385L21.4057 5.20424L20.6703 5.35133L19.9348 5.49841L20.5328 8.48802L21.2682 8.34093ZM18.2685 12V12.75C20.6722 12.75 22.4751 10.5509 22.0036 8.19385L21.2682 8.34093L20.5328 8.48802C20.8185 9.91689 19.7257 11.25 18.2685 11.25V12ZM15.2245 9.24527L14.4783 9.3199C14.673 11.2671 16.3115 12.75 18.2685 12.75V12V11.25C17.0822 11.25 16.0889 10.3511 15.9708 9.17064L15.2245 9.24527ZM16.5823 2V2.75C17.5368 2.75 17.8673 2.75656 18.1355 2.83006L18.3338 2.10675L18.532 1.38343C18.0214 1.24344 17.4439 1.25 16.5823 1.25V2ZM20.6703 5.35133L21.4057 5.20424C21.2367 4.35937 21.1299 3.79183 20.8925 3.31855L20.2221 3.65484L19.5517 3.99113C19.6764 4.23963 19.7477 4.56249 19.9348 5.49841L20.6703 5.35133ZM18.3338 2.10675L18.1355 2.83006C18.7508 2.99876 19.2656 3.42079 19.5517 3.99113L20.2221 3.65484L20.8925 3.31855C20.4157 2.36799 19.5577 1.66459 18.532 1.38343L18.3338 2.10675ZM9.50002 21.5H10.25V18.5H9.50002H8.75002V21.5H9.50002ZM14.5 18.5H13.75V21.5H14.5H15.25V18.5H14.5ZM12 16V16.75C12.4811 16.75 12.7918 16.7507 13.0273 16.7721C13.2524 16.7925 13.3342 16.8269 13.375 16.8505L13.75 16.201L14.125 15.5514C13.8178 15.3741 13.4919 15.308 13.1627 15.2782C12.8438 15.2493 12.4535 15.25 12 15.25V16ZM14.5 18.5H15.25C15.25 18.0465 15.2507 17.6562 15.2218 17.3373C15.192 17.0082 15.1259 16.6822 14.9486 16.375L14.2991 16.75L13.6495 17.125C13.6731 17.1659 13.7076 17.2476 13.728 17.4727C13.7493 17.7082 13.75 18.0189 13.75 18.5H14.5ZM13.75 16.201L13.375 16.8505C13.489 16.9163 13.5837 17.011 13.6495 17.125L14.2991 16.75L14.9486 16.375C14.7511 16.033 14.4671 15.7489 14.125 15.5514L13.75 16.201ZM9.50002 18.5H10.25C10.25 18.0189 10.2507 17.7082 10.2721 17.4727C10.2925 17.2476 10.3269 17.1659 10.3505 17.125L9.70098 16.75L9.05146 16.375C8.87409 16.6822 8.80804 17.0082 8.7782 17.3373C8.7493 17.6562 8.75002 18.0465 8.75002 18.5H9.50002ZM12 16V15.25C11.5465 15.25 11.1562 15.2493 10.8374 15.2782C10.5082 15.308 10.1822 15.3741 9.87502 15.5514L10.25 16.201L10.625 16.8505C10.6659 16.8269 10.7476 16.7925 10.9728 16.7721C11.2082 16.7507 11.5189 16.75 12 16.75V16ZM9.70098 16.75L10.3505 17.125C10.4163 17.011 10.511 16.9163 10.625 16.8505L10.25 16.201L9.87502 15.5514C9.53298 15.7489 9.24894 16.033 9.05146 16.375L9.70098 16.75Z" fill="white"/>
</svg>
