<svg width="24" height="24" viewBox="0 0 24 24" fill="none" xmlns="http://www.w3.org/2000/svg">
<path d="M5.03907 5.70647L4.28966 5.73622L5.03907 5.70647ZM18.9612 5.70647L18.2118 5.67672L18.9612 5.70647ZM16.3771 2.34674L16.2524 3.08629L16.3771 2.34674ZM7.62318 2.34674L7.4984 1.60719L7.62318 2.34674ZM5.43937 3.22083L6.02161 3.69358V3.69358L5.43937 3.22083ZM11.25 19C11.25 19.4142 11.5857 19.75 12 19.75C12.4142 19.75 12.75 19.4143 12.75 19L12 19L11.25 19ZM8.5 22L7.76456 21.8529C7.7205 22.0732 7.77754 22.3017 7.91999 22.4755C8.06245 22.6493 8.27531 22.75 8.5 22.75V22ZM15.5 22V22.75C15.7247 22.75 15.9376 22.6493 16.08 22.4755C16.2225 22.3017 16.2795 22.0732 16.2354 21.8529L15.5 22ZM15.1608 20.3039L15.8962 20.1568L15.1608 20.3039ZM8.83922 20.3039L9.57466 20.451L8.83922 20.3039ZM21.9999 8.16234L21.2499 8.16232V8.16232L21.9999 8.16234ZM21.9999 8.23487L22.7499 8.23489V8.23489L21.9999 8.23487ZM19.2372 4.28849C18.8442 4.1575 18.4195 4.36987 18.2885 4.76283C18.1575 5.15579 18.3699 5.58053 18.7628 5.71151L19 5L19.2372 4.28849ZM19.9486 5.31621L20.1858 4.6047L19.9486 5.31621ZM20.4569 10.8572L20.0927 10.2016L20.4569 10.8572ZM17.1358 11.8444C16.7737 12.0455 16.6432 12.5022 16.8444 12.8642C17.0456 13.2263 17.5022 13.3568 17.8642 13.1556L17.5 12.5L17.1358 11.8444ZM21.7927 9.87809L21.1463 9.49774V9.49774L21.7927 9.87809ZM21.7168 6.20408L22.3253 5.76556L22.3253 5.76556L21.7168 6.20408ZM2 8.16234L1.25 8.16236V8.16236L2 8.16234ZM2 8.23487L2.75 8.23485V8.23484L2 8.23487ZM5.23711 5.71151C5.63007 5.58053 5.84244 5.15579 5.71145 4.76283C5.58047 4.36987 5.15573 4.1575 4.76277 4.28849L4.99994 5L5.23711 5.71151ZM3.54305 10.8572L3.90729 10.2016H3.90729L3.54305 10.8572ZM6.1357 13.1556C6.49779 13.3568 6.95439 13.2263 7.15556 12.8642C7.35672 12.5022 7.22627 12.0455 6.86418 11.8444L6.49994 12.5L6.1357 13.1556ZM2.20723 9.87809L2.85363 9.49774L2.85363 9.49774L2.20723 9.87809ZM2.2831 6.20408L1.67466 5.76556L1.67466 5.76556L2.2831 6.20408ZM10.4028 6.68841L10.5683 7.41992L10.5683 7.41992L10.4028 6.68841ZM11.0476 6.19887L11.7027 6.56405L11.7027 6.56405L11.0476 6.19887ZM9.68403 8.42898L9.11403 8.91642L9.11403 8.91642L9.68403 8.42898ZM10.2119 6.73161L10.0464 6.0001L10.0464 6.0001L10.2119 6.73161ZM10.0605 9.37327L9.31399 9.30093V9.30093L10.0605 9.37327ZM9.81418 8.58117L10.3842 8.09372L10.3842 8.09372L9.81418 8.58117ZM11.4227 10.6254L11.7364 11.3066L11.7364 11.3066L11.4227 10.6254ZM10.0408 9.57632L10.7873 9.64866L10.7873 9.64866L10.0408 9.57632ZM12.3986 10.5431L12.7122 9.8618L12.7122 9.86179L12.3986 10.5431ZM11.6014 10.5431L11.2878 9.86179L11.2878 9.8618L11.6014 10.5431ZM12 10.4075V9.65746V10.4075ZM13.9592 9.57632L13.2127 9.64866V9.64866L13.9592 9.57632ZM12.5773 10.6254L12.2636 11.3066L12.2636 11.3066L12.5773 10.6254ZM14.1858 8.58117L14.7558 9.06861V9.06861L14.1858 8.58117ZM13.9395 9.37327L14.686 9.30093V9.30093L13.9395 9.37327ZM13.7881 6.73161L13.9537 6.0001L13.9536 6.0001L13.7881 6.73161ZM14.316 8.42898L13.746 7.94153V7.94154L14.316 8.42898ZM12.9524 6.19887L12.2973 6.56404L12.2973 6.56405L12.9524 6.19887ZM13.5972 6.68841L13.4317 7.41992L13.4317 7.41992L13.5972 6.68841ZM12.8541 6.02251L13.5091 5.65734L13.5091 5.65734L12.8541 6.02251ZM11.1459 6.02251L10.4909 5.65734L10.4909 5.65734L11.1459 6.02251ZM6 21.25C5.58579 21.25 5.25 21.5858 5.25 22C5.25 22.4142 5.58579 22.75 6 22.75V22V21.25ZM18 22.75C18.4142 22.75 18.75 22.4142 18.75 22C18.75 21.5858 18.4142 21.25 18 21.25V22V22.75ZM5.03907 5.70647L4.28966 5.73622C4.38075 8.03065 4.68338 10.74 5.75601 12.8949C6.29821 13.9841 7.04908 14.9565 8.09017 15.6548C9.13625 16.3564 10.4293 16.75 12.0002 16.75V16V15.25C10.6911 15.25 9.69656 14.9261 8.92569 14.409C8.14983 13.8887 7.55432 13.1414 7.09884 12.2264C6.1761 10.3727 5.87815 7.93537 5.78848 5.67672L5.03907 5.70647ZM18.9612 5.70647L18.2118 5.67672C18.1222 7.93537 17.8242 10.3727 16.9015 12.2264C16.446 13.1414 15.8505 13.8887 15.0746 14.409C14.3037 14.9261 13.3092 15.25 12.0002 15.25V16V16.75C13.5711 16.75 14.8641 16.3564 15.9101 15.6548C16.9512 14.9565 17.7021 13.9841 18.2443 12.8949C19.3169 10.74 19.6196 8.03065 19.7106 5.73622L18.9612 5.70647ZM16.3771 2.34674L16.5019 1.60719C15.339 1.41099 13.8279 1.25 12.0002 1.25V2V2.75C13.7395 2.75 15.1671 2.90319 16.2524 3.08629L16.3771 2.34674ZM12.0002 2V1.25C10.1724 1.25 8.66129 1.41099 7.4984 1.60719L7.62318 2.34674L7.74796 3.08629C8.83319 2.90319 10.2608 2.75 12.0002 2.75V2ZM18.9612 5.70647L19.7106 5.73622C19.7574 4.55839 19.8326 3.59714 19.1432 2.74808L18.5609 3.22083L17.9787 3.69358C18.2407 4.01632 18.2656 4.32156 18.2118 5.67672L18.9612 5.70647ZM16.3771 2.34674L16.2524 3.08629C17.4593 3.28992 17.7128 3.3661 17.9787 3.69358L18.5609 3.22083L19.1432 2.74808C18.4576 1.90377 17.5725 1.78782 16.5019 1.60719L16.3771 2.34674ZM5.03907 5.70647L5.78848 5.67672C5.73468 4.32156 5.75956 4.01632 6.02161 3.69358L5.43937 3.22083L4.85712 2.74808C4.16774 3.59714 4.2429 4.55839 4.28966 5.73622L5.03907 5.70647ZM7.62318 2.34674L7.4984 1.60719C6.42785 1.78782 5.54266 1.90377 4.85712 2.74808L5.43937 3.22083L6.02161 3.69358C6.28751 3.3661 6.54104 3.28992 7.74796 3.08629L7.62318 2.34674ZM12.0002 16L11.2502 16L11.25 19L12 19L12.75 19L12.7502 16L12.0002 16ZM8.5 22V22.75H15.5V22V21.25H8.5V22ZM15.5 22L16.2354 21.8529L15.8962 20.1568L15.1608 20.3039L14.4253 20.451L14.7646 22.1471L15.5 22ZM14.1802 19.5V18.75H9.8198V19.5V20.25H14.1802V19.5ZM8.83922 20.3039L8.10379 20.1568L7.76456 21.8529L8.5 22L9.23544 22.1471L9.57466 20.451L8.83922 20.3039ZM9.8198 19.5V18.75C8.98561 18.75 8.26739 19.3388 8.10379 20.1568L8.83922 20.3039L9.57466 20.451C9.59803 20.3341 9.70063 20.25 9.8198 20.25V19.5ZM15.1608 20.3039L15.8962 20.1568C15.7326 19.3388 15.0144 18.75 14.1802 18.75V19.5V20.25C14.2994 20.25 14.402 20.3341 14.4253 20.451L15.1608 20.3039ZM21.9999 8.16234L21.2499 8.16232L21.2499 8.23485L21.9999 8.23487L22.7499 8.23489L22.7499 8.16236L21.9999 8.16234ZM19 5L18.7628 5.71151L19.7115 6.02772L19.9486 5.31621L20.1858 4.6047L19.2372 4.28849L19 5ZM20.4569 10.8572L20.0927 10.2016L17.1358 11.8444L17.5 12.5L17.8642 13.1556L20.8211 11.5129L20.4569 10.8572ZM21.9999 8.23487L21.2499 8.23485C21.2499 8.68003 21.2491 8.95925 21.2277 9.17263C21.2081 9.36935 21.1757 9.44786 21.1463 9.49774L21.7927 9.87809L22.4391 10.2584C22.617 9.95621 22.6881 9.64348 22.7203 9.3218C22.7508 9.01678 22.7499 8.65045 22.7499 8.23489L21.9999 8.23487ZM20.4569 10.8572L20.8211 11.5129C21.1844 11.311 21.505 11.1339 21.7569 10.9591C22.0225 10.7748 22.2613 10.5607 22.4391 10.2584L21.7927 9.87809L21.1463 9.49774C21.117 9.54762 21.0641 9.61408 20.9017 9.7268C20.7255 9.84906 20.4818 9.98542 20.0927 10.2016L20.4569 10.8572ZM21.9999 8.16234L22.7499 8.16236C22.75 7.65783 22.7511 7.21645 22.7097 6.85412C22.6662 6.47262 22.5692 6.10397 22.3253 5.76556L21.7168 6.20408L21.1084 6.6426C21.1476 6.69704 21.1922 6.78571 21.2194 7.02423C21.2488 7.28191 21.25 7.62324 21.2499 8.16232L21.9999 8.16234ZM19.9486 5.31621L19.7115 6.02772C20.2229 6.19819 20.5463 6.30721 20.7815 6.4166C20.9991 6.51786 21.0692 6.58817 21.1084 6.6426L21.7168 6.20408L22.3253 5.76556C22.0814 5.42714 21.7623 5.21853 21.4142 5.05657C21.0835 4.90274 20.6644 4.76424 20.1858 4.6047L19.9486 5.31621ZM2 8.16234L1.25 8.16236L1.25 8.23489L2 8.23487L2.75 8.23484L2.75 8.16231L2 8.16234ZM4.99994 5L4.76277 4.28849L3.81415 4.6047L4.05132 5.31621L4.28849 6.02772L5.23711 5.71151L4.99994 5ZM3.54305 10.8572L3.17881 11.5129L6.1357 13.1556L6.49994 12.5L6.86418 11.8444L3.90729 10.2016L3.54305 10.8572ZM2 8.23487L1.25 8.23489C1.25001 8.65045 1.24916 9.01678 1.27965 9.3218C1.31179 9.64348 1.38299 9.95621 1.56083 10.2584L2.20723 9.87809L2.85363 9.49774C2.82428 9.44786 2.79187 9.36935 2.77221 9.17263C2.75089 8.95925 2.75002 8.68003 2.75 8.23485L2 8.23487ZM3.54305 10.8572L3.90729 10.2016C3.51813 9.98542 3.27446 9.84906 3.09829 9.7268C2.93587 9.61408 2.88298 9.54762 2.85363 9.49774L2.20723 9.87809L1.56083 10.2584C1.73867 10.5607 1.97747 10.7748 2.24306 10.9591C2.4949 11.1339 2.81555 11.311 3.17881 11.5129L3.54305 10.8572ZM2 8.16234L2.75 8.16232C2.74999 7.62324 2.75111 7.28191 2.78052 7.02423C2.80775 6.78571 2.8523 6.69703 2.89153 6.6426L2.2831 6.20408L1.67466 5.76556C1.43075 6.10397 1.33375 6.47262 1.2902 6.85412C1.24884 7.21645 1.24999 7.65783 1.25 8.16236L2 8.16234ZM4.05132 5.31621L3.81415 4.6047C3.33551 4.76424 2.91642 4.90274 2.58576 5.05657C2.23762 5.21853 1.91857 5.42714 1.67466 5.76556L2.2831 6.20408L2.89153 6.6426C2.93076 6.58817 3.00079 6.51786 3.21846 6.4166C3.45362 6.30721 3.77707 6.19819 4.28849 6.02772L4.05132 5.31621ZM12.8541 6.02251L12.199 6.38769L12.2973 6.56404L12.9524 6.19887L13.6075 5.83369L13.5091 5.65734L12.8541 6.02251ZM13.5972 6.68841L13.4317 7.41992L13.6226 7.46312L13.7881 6.73161L13.9536 6.0001L13.7627 5.9569L13.5972 6.68841ZM14.316 8.42898L13.746 7.94154L13.6158 8.09372L14.1858 8.58117L14.7558 9.06861L14.886 8.91642L14.316 8.42898ZM13.9395 9.37327L13.193 9.4456L13.2127 9.64866L13.9592 9.57632L14.7057 9.50398L14.686 9.30093L13.9395 9.37327ZM12.5773 10.6254L12.891 9.9441L12.7122 9.8618L12.3986 10.5431L12.0849 11.2243L12.2636 11.3066L12.5773 10.6254ZM11.6014 10.5431L11.2878 9.8618L11.109 9.9441L11.4227 10.6254L11.7364 11.3066L11.9151 11.2243L11.6014 10.5431ZM10.0408 9.57632L10.7873 9.64866L10.807 9.4456L10.0605 9.37327L9.31399 9.30093L9.29432 9.50398L10.0408 9.57632ZM9.81418 8.58117L10.3842 8.09372L10.254 7.94153L9.68403 8.42898L9.11403 8.91642L9.24418 9.06861L9.81418 8.58117ZM10.2119 6.73161L10.3774 7.46312L10.5683 7.41992L10.4028 6.68841L10.2373 5.9569L10.0464 6.0001L10.2119 6.73161ZM11.0476 6.19887L11.7027 6.56405L11.801 6.38769L11.1459 6.02251L10.4909 5.65734L10.3925 5.8337L11.0476 6.19887ZM10.4028 6.68841L10.5683 7.41992C10.7135 7.38707 11.0114 7.3356 11.255 7.15071L10.8015 6.55334L10.348 5.95597C10.3704 5.93897 10.392 5.92657 10.4091 5.91837C10.4244 5.911 10.4317 5.90924 10.4236 5.91177C10.4148 5.91455 10.3975 5.91948 10.3642 5.92757C10.3308 5.93572 10.2914 5.94466 10.2373 5.95691L10.4028 6.68841ZM11.0476 6.19887L10.3925 5.83369C10.3647 5.88357 10.3442 5.92048 10.3261 5.95178C10.3081 5.98295 10.2974 5.99999 10.2911 6.00946C10.2805 6.0255 10.3 5.9924 10.348 5.95597L10.8015 6.55334L11.255 7.15071C11.4938 6.9694 11.6273 6.69929 11.7027 6.56405L11.0476 6.19887ZM9.68403 8.42898L10.254 7.94154C9.9864 7.62858 9.84227 7.45705 9.76377 7.33235C9.69038 7.21575 9.78734 7.31357 9.7334 7.48703L9.01723 7.26432L8.30106 7.04161C8.15934 7.49734 8.33817 7.88336 8.49436 8.13146C8.64544 8.37146 8.87861 8.64112 9.11403 8.91642L9.68403 8.42898ZM10.2119 6.73161L10.0464 6.0001C9.70288 6.07781 9.35777 6.1537 9.09576 6.25695C8.81962 6.36577 8.44532 6.5777 8.30106 7.04161L9.01723 7.26432L9.7334 7.48703C9.71027 7.56139 9.66552 7.62039 9.62535 7.65483C9.59639 7.67966 9.58954 7.67463 9.64573 7.65249C9.70028 7.63099 9.78317 7.60514 9.91197 7.57222C10.0395 7.53962 10.1898 7.50555 10.3774 7.46312L10.2119 6.73161ZM10.0605 9.37327L10.807 9.4456C10.8225 9.28513 10.8645 8.99424 10.7769 8.71261L10.0608 8.93532L9.34459 9.15802C9.3286 9.10661 9.33137 9.07326 9.33094 9.09432C9.33069 9.10676 9.32965 9.12771 9.32667 9.16419C9.32367 9.20085 9.31955 9.24356 9.31399 9.30093L10.0605 9.37327ZM9.81418 8.58117L9.24418 9.06861C9.281 9.11168 9.30814 9.14344 9.33095 9.17097C9.35362 9.19833 9.3657 9.21397 9.37227 9.22302C9.37839 9.23144 9.3751 9.22786 9.36842 9.21546C9.3609 9.20148 9.35196 9.18174 9.34459 9.15802L10.0608 8.93532L10.7769 8.71261C10.6884 8.42779 10.4866 8.21353 10.3842 8.09372L9.81418 8.58117ZM11.4227 10.6254L11.109 9.9441C10.9335 10.0249 10.7926 10.0897 10.6709 10.1418C10.5479 10.1944 10.4662 10.2244 10.4101 10.2404C10.3517 10.2572 10.3573 10.2479 10.4003 10.2505C10.4598 10.2542 10.5398 10.2774 10.61 10.3307L10.1565 10.9281L9.70306 11.5254C10.1025 11.8286 10.5436 11.7626 10.8233 11.6824C11.0934 11.605 11.4149 11.4546 11.7364 11.3066L11.4227 10.6254ZM10.0408 9.57632L9.29432 9.50398C9.25862 9.87233 9.22207 10.2305 9.23473 10.5145C9.24743 10.7997 9.31589 11.2315 9.70306 11.5254L10.1565 10.9281L10.61 10.3307C10.7674 10.4502 10.74 10.5985 10.7332 10.4477C10.7265 10.2957 10.747 10.0652 10.7873 9.64866L10.0408 9.57632ZM12.3986 10.5431L12.7122 9.86179C12.5788 9.80036 12.307 9.65746 12 9.65746V10.4075V11.1575C11.9698 11.1575 11.9437 11.154 11.9244 11.1499C11.9071 11.1463 11.9 11.1432 11.9082 11.1461C11.917 11.1493 11.9339 11.156 11.9655 11.17C11.9972 11.184 12.0342 11.201 12.0849 11.2243L12.3986 10.5431ZM11.6014 10.5431L11.9151 11.2243C11.9658 11.201 12.0028 11.184 12.0345 11.17C12.0661 11.156 12.083 11.1493 12.0918 11.1461C12.1 11.1432 12.0929 11.1463 12.0756 11.1499C12.0563 11.154 12.0302 11.1575 12 11.1575V10.4075V9.65746C11.693 9.65746 11.4212 9.80036 11.2878 9.86179L11.6014 10.5431ZM13.9592 9.57632L13.2127 9.64866C13.253 10.0652 13.2735 10.2957 13.2668 10.4477C13.26 10.5985 13.2326 10.4502 13.39 10.3307L13.8435 10.9281L14.2969 11.5254C14.6841 11.2315 14.7526 10.7997 14.7653 10.5145C14.7779 10.2305 14.7414 9.87233 14.7057 9.50398L13.9592 9.57632ZM12.5773 10.6254L12.2636 11.3066C12.5852 11.4546 12.9066 11.605 13.1767 11.6824C13.4564 11.7626 13.8975 11.8286 14.2969 11.5254L13.8435 10.9281L13.39 10.3307C13.4602 10.2774 13.5402 10.2542 13.5997 10.2505C13.6427 10.2479 13.6483 10.2572 13.5899 10.2404C13.5338 10.2244 13.4521 10.1944 13.3291 10.1418C13.2074 10.0897 13.0665 10.0249 12.891 9.9441L12.5773 10.6254ZM14.1858 8.58117L13.6158 8.09372C13.5134 8.21353 13.3116 8.42779 13.2231 8.71261L13.9392 8.93532L14.6554 9.15802C14.648 9.18174 14.6391 9.20148 14.6316 9.21546C14.6249 9.22786 14.6216 9.23144 14.6277 9.22302C14.6343 9.21397 14.6464 9.19833 14.6691 9.17097C14.6919 9.14344 14.719 9.11167 14.7558 9.06861L14.1858 8.58117ZM13.9395 9.37327L14.686 9.30093C14.6804 9.24356 14.6763 9.20085 14.6733 9.16419C14.6704 9.12771 14.6693 9.10676 14.6691 9.09432C14.6686 9.07326 14.6714 9.10661 14.6554 9.15802L13.9392 8.93532L13.2231 8.71261C13.1355 8.99424 13.1775 9.28513 13.193 9.4456L13.9395 9.37327ZM13.7881 6.73161L13.6226 7.46312C13.8102 7.50555 13.9605 7.53962 14.088 7.57222C14.2168 7.60515 14.2997 7.63099 14.3543 7.65249C14.4105 7.67463 14.4036 7.67966 14.3747 7.65483C14.3345 7.62039 14.2897 7.56139 14.2666 7.48703L14.9828 7.26432L15.6989 7.04161C15.5547 6.5777 15.1804 6.36577 14.9042 6.25695C14.6422 6.1537 14.2971 6.07781 13.9537 6.0001L13.7881 6.73161ZM14.316 8.42898L14.886 8.91642C15.1214 8.64112 15.3546 8.37146 15.5056 8.13146C15.6618 7.88336 15.8407 7.49734 15.6989 7.04161L14.9828 7.26432L14.2666 7.48703C14.2127 7.31357 14.3096 7.21575 14.2362 7.33235C14.1577 7.45705 14.0136 7.62857 13.746 7.94153L14.316 8.42898ZM12.9524 6.19887L12.2973 6.56405C12.3727 6.69928 12.5062 6.9694 12.745 7.15071L13.1985 6.55334L13.652 5.95597C13.7 5.99241 13.7195 6.0255 13.7089 6.00946C13.7026 5.99999 13.6919 5.98295 13.6739 5.95178C13.6558 5.92048 13.6353 5.88357 13.6075 5.83369L12.9524 6.19887ZM13.5972 6.68841L13.7627 5.95691C13.7086 5.94466 13.6692 5.93572 13.6358 5.92757C13.6025 5.91948 13.5852 5.91455 13.5764 5.91177C13.5683 5.90924 13.5756 5.911 13.5909 5.91837C13.608 5.92657 13.6296 5.93897 13.652 5.95597L13.1985 6.55334L12.745 7.15071C12.9886 7.3356 13.2865 7.38707 13.4317 7.41992L13.5972 6.68841ZM12.8541 6.02251L13.5091 5.65734C13.3314 5.33842 13.1583 5.02397 12.9865 4.79963C12.8143 4.57481 12.5017 4.25 12 4.25V5V5.75C11.9059 5.75 11.828 5.71748 11.7829 5.68731C11.7511 5.66607 11.7555 5.65924 11.7956 5.71163C11.834 5.76171 11.8845 5.83848 11.9549 5.95731C12.0246 6.07495 12.1025 6.21468 12.199 6.38769L12.8541 6.02251ZM11.1459 6.02251L11.801 6.38769C11.8975 6.21469 11.9754 6.07495 12.0451 5.95731C12.1155 5.83848 12.166 5.76172 12.2044 5.71163C12.2445 5.65924 12.2489 5.66607 12.2171 5.68731C12.172 5.71748 12.0941 5.75 12 5.75V5V4.25C11.4983 4.25 11.1857 4.57481 11.0135 4.79963C10.8417 5.02397 10.6686 5.33842 10.4909 5.65734L11.1459 6.02251ZM6 22V22.75H18V22V21.25H6V22Z" fill="white"/>
</svg>
