<svg width="18" height="18" viewBox="0 0 18 18" fill="none" xmlns="http://www.w3.org/2000/svg">
<path d="M12.4517 11.2526C13.5142 9.88505 14.0154 8.16397 13.8535 6.43979C13.6915 4.71561 12.8785 3.11799 11.5799 1.97224C10.2813 0.8265 8.59485 0.218788 6.86392 0.272852C5.13299 0.326917 3.48775 1.03869 2.26321 2.26324C1.03867 3.48779 0.326903 5.13304 0.272851 6.86397C0.218799 8.5949 0.826523 10.2813 1.97228 11.5799C3.11803 12.8785 4.71565 13.6915 6.43983 13.8535C8.16401 14.0154 9.8851 13.5141 11.2526 12.4516L15.8278 17.0266C15.9872 17.1832 16.2021 17.2705 16.4257 17.2695C16.6492 17.2685 16.8633 17.1793 17.0213 17.0212C17.1794 16.8631 17.2687 16.649 17.2697 16.4255C17.2707 16.202 17.1834 15.9871 17.0267 15.8276L12.4517 11.2526ZM2.01219 7.09972C2.01219 6.09348 2.31058 5.10983 2.86962 4.27316C3.42866 3.4365 4.22325 2.7844 5.15289 2.39933C6.08254 2.01426 7.1055 1.9135 8.09242 2.10981C9.07933 2.30612 9.98586 2.79067 10.6974 3.5022C11.4089 4.21372 11.8935 5.12026 12.0898 6.10717C12.2861 7.09408 12.1853 8.11704 11.8003 9.04669C11.4152 9.97634 10.7631 10.7709 9.92642 11.33C9.08976 11.889 8.10611 12.1874 7.09986 12.1874C5.75098 12.1859 4.45777 11.6494 3.50397 10.6956C2.55016 9.74181 2.01367 8.4486 2.01219 7.09972Z" fill="#818181"/>
</svg>
