<svg width="20" height="20" viewBox="0 0 20 20" fill="none" xmlns="http://www.w3.org/2000/svg">
<path d="M4.97976 6.08853C4.74834 5.90793 4.34688 5.60467 4.21241 5.5031C3.93449 5.2984 3.87511 4.90714 4.07979 4.62922C4.28449 4.35128 4.67614 4.2922 4.95407 4.4969L4.95589 4.49827C5.09668 4.60461 5.51253 4.91871 5.7488 5.1031C6.22278 5.473 6.85686 5.98169 7.49277 6.53382C8.12558 7.08325 8.77449 7.68798 9.27012 8.24891C9.5173 8.52866 9.73956 8.81223 9.90342 9.08404C10.0569 9.33868 10.208 9.66109 10.208 9.99985C10.208 10.3386 10.0569 10.661 9.90342 10.9157C9.73957 11.1875 9.5173 11.471 9.27012 11.7508C8.77449 12.3117 8.12557 12.9165 7.49276 13.4659C6.85684 14.018 6.22275 14.5267 5.74877 14.8966C5.5127 15.0808 5.09703 15.3948 4.95587 15.5014L4.95363 15.5031C4.6757 15.7078 4.28445 15.6484 4.07975 15.3705C3.87506 15.0925 3.93501 14.7009 4.21294 14.4962C4.34742 14.3946 4.74831 14.0918 4.97973 13.9112C5.44325 13.5494 6.05917 13.0552 6.67325 12.522C7.29044 11.9861 7.89152 11.4232 8.33339 10.9231C8.55496 10.6724 8.72332 10.4521 8.8329 10.2703C8.93596 10.0994 8.95739 10.0013 8.95739 10.0013C8.95739 10.0013 8.93596 9.90035 8.8329 9.72939C8.72331 9.54762 8.55495 9.32734 8.33339 9.07658C7.89152 8.57648 7.29044 8.01356 6.67326 7.47769C6.05918 6.94452 5.44327 6.45026 4.97976 6.08853Z" fill="#D93502"/>
<path d="M10.8131 6.08853C10.5817 5.90793 10.1802 5.60467 10.0457 5.5031C9.76783 5.2984 9.70844 4.90714 9.91313 4.62922C10.1178 4.35128 10.5095 4.2922 10.7874 4.4969L10.7892 4.49827C10.9301 4.60467 11.3459 4.91874 11.5821 5.1031C12.0561 5.473 12.6902 5.98169 13.3261 6.53382C13.9589 7.08325 14.6078 7.68798 15.1035 8.24891C15.3506 8.52866 15.5729 8.81223 15.7367 9.08404C15.8903 9.33868 16.0413 9.66109 16.0413 9.99985C16.0413 10.3386 15.8903 10.661 15.7368 10.9157C15.5729 11.1875 15.3506 11.471 15.1035 11.7508C14.6078 12.3117 13.9589 12.9165 13.3261 13.4659C12.6902 14.018 12.0561 14.5267 11.5821 14.8966C11.3461 15.0808 10.9305 15.3947 10.7893 15.5013L10.787 15.5031C10.509 15.7078 10.1178 15.6484 9.91309 15.3705C9.70839 15.0925 9.76834 14.7009 10.0463 14.4962C10.1808 14.3946 10.5816 14.0918 10.8131 13.9112C11.2766 13.5494 11.8925 13.0552 12.5066 12.522C13.1238 11.9861 13.7249 11.4232 14.1667 10.9231C14.3883 10.6724 14.5567 10.4521 14.6662 10.2703C14.7693 10.0994 14.7907 10.0013 14.7907 10.0013C14.7907 10.0013 14.7693 9.90035 14.6662 9.72939C14.5566 9.54762 14.3883 9.32734 14.1667 9.07658C13.7249 8.57648 13.1238 8.01356 12.5066 7.47769C11.8925 6.94452 11.2766 6.45026 10.8131 6.08853Z" fill="#D93502"/>
</svg>
