<svg width="32" height="32" viewBox="0 0 32 32" fill="none" xmlns="http://www.w3.org/2000/svg">
<g clip-path="url(#clip0_271_6034)">
<path d="M16 31.998C11.7262 31.998 7.70831 30.3337 4.68625 27.3118C1.66431 24.2897 0 20.2718 0 15.998C0 11.7243 1.66431 7.70636 4.68625 4.6843C7.70831 1.66236 11.7262 -0.00195312 16 -0.00195312C20.2738 -0.00195312 24.2917 1.66236 27.3137 4.6843C30.3357 7.70636 32 11.7243 32 15.998C32 20.2718 30.3357 24.2897 27.3137 27.3118C24.2917 30.3337 20.2738 31.998 16 31.998ZM16 2.49805C8.55606 2.49805 2.5 8.55411 2.5 15.998C2.5 23.442 8.55606 29.498 16 29.498C23.4439 29.498 29.5 23.442 29.5 15.998C29.5 8.55411 23.4439 2.49805 16 2.49805ZM15.9375 17.1855C12.6291 17.1855 9.9375 14.494 9.9375 11.1855C9.9375 7.87711 12.6291 5.18555 15.9375 5.18555C19.2459 5.18555 21.9375 7.87711 21.9375 11.1855C21.9375 14.494 19.2459 17.1855 15.9375 17.1855ZM15.9375 7.68555C14.0076 7.68555 12.4375 9.25567 12.4375 11.1855C12.4375 13.1154 14.0076 14.6855 15.9375 14.6855C17.8674 14.6855 19.4375 13.1154 19.4375 11.1855C19.4375 9.25567 17.8674 7.68555 15.9375 7.68555Z" fill="#1B5583"/>
<path d="M23.0657 24.748C22.7039 24.748 22.3451 24.5918 22.0979 24.2901C20.8072 22.7143 18.9004 21.8105 16.8666 21.8105H15.3834C13.3496 21.8105 11.4428 22.7143 10.1521 24.2901C9.7147 24.8241 8.92707 24.9025 8.39301 24.465C7.85888 24.0276 7.78057 23.24 8.21801 22.7059C9.98557 20.5481 12.5973 19.3105 15.3834 19.3105H16.8666C19.6528 19.3105 22.2644 20.5481 24.0319 22.706C24.4694 23.24 24.3911 24.0276 23.8569 24.4651C23.6247 24.6554 23.3443 24.748 23.0657 24.748Z" fill="#FF7514"/>
</g>
<defs>
<clipPath id="clip0_271_6034">
<rect width="32" height="32" fill="white"/>
</clipPath>
</defs>
</svg>
