<svg width="24" height="24" viewBox="0 0 24 24" fill="none" xmlns="http://www.w3.org/2000/svg">
<path d="M21.97 18.331C21.97 18.691 21.89 19.061 21.72 19.421C21.55 19.781 21.33 20.121 21.04 20.441C20.55 20.981 20.01 21.371 19.4 21.621C18.8 21.871 18.15 22.001 17.45 22.001C16.43 22.001 15.34 21.761 14.19 21.271C13.04 20.781 11.89 20.121 10.75 19.291C9.60002 18.451 8.51002 17.521 7.47002 16.491C6.44002 15.451 5.51002 14.361 4.68002 13.221C3.86002 12.081 3.20002 10.941 2.72002 9.81098C2.24002 8.67098 2.00002 7.58098 2.00002 6.54098C2.00002 5.86098 2.12002 5.21098 2.36002 4.61098C2.60002 4.00098 2.98002 3.44098 3.51002 2.94098C4.15002 2.31098 4.85002 2.00098 5.59002 2.00098C5.87002 2.00098 6.15002 2.06098 6.40002 2.18098C6.66002 2.30098 6.89002 2.48098 7.07002 2.74098L9.39002 6.01098C9.57002 6.26098 9.70002 6.49098 9.79002 6.71098C9.88002 6.92098 9.93002 7.13098 9.93002 7.32098C9.93002 7.56098 9.86002 7.80098 9.72002 8.03098C9.59002 8.26098 9.40002 8.50098 9.16002 8.74098L8.40002 9.53098C8.29002 9.64098 8.24002 9.77098 8.24002 9.93098C8.24002 10.011 8.25002 10.081 8.27002 10.161C8.30002 10.241 8.33002 10.301 8.35002 10.361C8.53002 10.691 8.84002 11.121 9.28002 11.641C9.73002 12.161 10.21 12.691 10.73 13.221C11.27 13.751 11.79 14.241 12.32 14.691C12.84 15.131 13.27 15.431 13.61 15.611C13.66 15.631 13.72 15.661 13.79 15.691C13.87 15.721 13.95 15.731 14.04 15.731C14.21 15.731 14.34 15.671 14.45 15.561L15.21 14.811C15.46 14.561 15.7 14.371 15.93 14.251C16.16 14.111 16.39 14.041 16.64 14.041C16.83 14.041 17.03 14.081 17.25 14.171C17.47 14.261 17.7 14.391 17.95 14.561L21.26 16.911C21.52 17.091 21.7 17.301 21.81 17.551C21.91 17.801 21.97 18.051 21.97 18.331Z" stroke="#231F20" stroke-width="1.5" stroke-miterlimit="10"/>
</svg>
