<svg width="24" height="24" viewBox="0 0 24 24" fill="none" xmlns="http://www.w3.org/2000/svg">
<g clip-path="url(#clip0_1130_1492)">
<path d="M8 22C7.474 22 6.959 21.786 6.586 21.414L0.586 15.414C0.214 15.041 0 14.526 0 14C0 13.474 0.214 12.959 0.586 12.586L9.586 3.586C9.959 3.214 10.474 3 11 3H17C17.129 3 17.251 3.015 17.371 3.045C18.281 3.184 19 4.028 19 5V11C19 11.526 18.786 12.041 18.414 12.414L9.414 21.414C9.041 21.786 8.526 22 8 22V22ZM11 4C10.737 4 10.48 4.107 10.293 4.293L1.293 13.293C1.107 13.48 1 13.737 1 14C1 14.263 1.107 14.52 1.293 14.707L7.293 20.707C7.666 21.08 8.333 21.08 8.706 20.707L17.706 11.707C17.893 11.52 18 11.263 18 11V5C18 4.517 17.645 4.097 17.173 4.024C17.087 4.004 17.048 4 17 4H11Z" fill="#D93502"/>
<path d="M21.93 24H13.07C12.525 24 11.994 23.789 11.612 23.419C11.223 23.043 11 22.525 11 22V18.62C11 18.487 11.053 18.36 11.146 18.266L17.706 11.706C17.893 11.52 18 11.263 18 11V4.99999C18 4.51699 17.645 4.09699 17.173 4.02399C16.932 3.98599 16.754 3.78099 16.75 3.53799C16.746 3.29499 16.918 3.08299 17.158 3.03799C17.808 2.91799 18.484 3.11999 18.958 3.58099L23.386 7.82899C23.777 8.20699 24 8.72499 24 9.24999V22C24 22.525 23.777 23.043 23.388 23.419C23.006 23.789 22.475 24 21.93 24V24ZM12 18.827V22C12 22.256 12.112 22.512 12.308 22.701C12.504 22.891 12.782 23 13.07 23H21.93C22.218 23 22.495 22.891 22.692 22.701C22.888 22.512 23 22.256 23 22V9.24999C23 8.99399 22.888 8.73799 22.692 8.54899L19 5.00699V11C19 11.526 18.786 12.041 18.414 12.414L12 18.827Z" fill="#D93502"/>
<path d="M15.5 8C14.673 8 14 7.327 14 6.5C14 5.673 14.673 5 15.5 5C16.327 5 17 5.673 17 6.5C17 7.327 16.327 8 15.5 8ZM15.5 6C15.224 6 15 6.224 15 6.5C15 6.776 15.224 7 15.5 7C15.776 7 16 6.776 16 6.5C16 6.224 15.776 6 15.5 6Z" fill="#D93502"/>
<path d="M21.5 7C21.224 7 21 6.776 21 6.5V3.5C21 2.122 19.878 1 18.5 1C17.122 1 16 2.122 16 3.5V5.5C16 5.776 15.776 6 15.5 6C15.224 6 15 5.776 15 5.5V3.5C15 1.57 16.57 0 18.5 0C20.43 0 22 1.57 22 3.5V6.5C22 6.776 21.776 7 21.5 7Z" fill="#D93502"/>
</g>
<defs>
<clipPath id="clip0_1130_1492">
<rect width="24" height="24" fill="white"/>
</clipPath>
</defs>
</svg>
