<svg width="42" height="42" viewBox="0 0 42 42" fill="none" xmlns="http://www.w3.org/2000/svg">
<path d="M23.1317 41.83H18.9034C18.5401 41.831 18.1857 41.7177 17.8903 41.5062C17.5948 41.2948 17.3733 40.9958 17.2571 40.6516L15.9747 36.7872C15.1046 36.5096 14.2585 36.1619 13.4446 35.7474L9.80545 37.567C9.48055 37.7273 9.11355 37.7818 8.75608 37.7227C8.39861 37.6637 8.06864 37.4941 7.81257 37.2377L4.81459 34.2398C4.55826 33.9837 4.38865 33.6537 4.32959 33.2962C4.27052 32.9388 4.32499 32.5718 4.48533 32.2469L6.21827 28.6077C5.8038 27.7939 5.45607 26.9477 5.17851 26.0776L1.31406 24.7952C0.95537 24.6747 0.646011 24.44 0.433227 24.1271C0.220444 23.8142 0.115933 23.4402 0.135658 23.0623V18.9206C0.13472 18.5573 0.247985 18.2029 0.459443 17.9075C0.670901 17.612 0.969858 17.3905 1.31406 17.2743L5.17851 15.9919C5.45607 15.1218 5.8038 14.2757 6.21827 13.4618L4.48533 9.82266C4.32499 9.49775 4.27052 9.13076 4.32959 8.77329C4.38865 8.41581 4.55826 8.08585 4.81459 7.82978L7.81257 4.8318C8.06864 4.57547 8.39861 4.40585 8.75608 4.34679C9.11355 4.28773 9.48055 4.3422 9.80545 4.50254L13.4446 6.23548C14.2585 5.82101 15.1046 5.47328 15.9747 5.19571L17.2571 1.33126C17.3876 1.00326 17.6152 0.72295 17.9094 0.527843C18.2037 0.332736 18.5504 0.232137 18.9034 0.239509H23.1317C23.5096 0.219784 23.8836 0.324295 24.1965 0.537079C24.5094 0.749862 24.7441 1.05922 24.8647 1.41791L26.1471 5.28236C27.0172 5.55992 27.8633 5.90765 28.6772 6.32212L32.3163 4.58918C32.6412 4.42885 33.0082 4.37438 33.3657 4.43344C33.7232 4.4925 34.0531 4.66212 34.3092 4.91844L37.3072 7.91642C37.5635 8.17249 37.7331 8.50246 37.7922 8.85993C37.8512 9.2174 37.7968 9.5844 37.6364 9.9093L35.8169 13.5485C36.2313 14.3623 36.5791 15.2085 36.8566 16.0786L40.7211 17.3609C41.0653 17.4772 41.3642 17.6987 41.5757 17.9941C41.7871 18.2895 41.9004 18.6439 41.8995 19.0072V23.2356C41.9192 23.6135 41.8147 23.9875 41.6019 24.3004C41.3891 24.6133 41.0798 24.848 40.7211 24.9685L36.8566 26.2509C36.5791 27.121 36.2313 27.9672 35.8169 28.781L37.6364 32.4202C37.7968 32.7451 37.8512 33.1121 37.7922 33.4695C37.7331 33.827 37.5635 34.157 37.3072 34.413L34.3092 37.411C34.0531 37.6674 33.7232 37.837 33.3657 37.896C33.0082 37.9551 32.6412 37.9006 32.3163 37.7403L28.6772 35.9207C27.8633 36.3352 27.0172 36.6829 26.1471 36.9605L24.8647 40.8249C24.7154 41.1513 24.4686 41.4232 24.1582 41.6033C23.8478 41.7833 23.4891 41.8625 23.1317 41.83ZM20.1511 38.3641H21.884L23.0624 34.8983C23.1546 34.6242 23.3139 34.3776 23.5258 34.1809C23.7376 33.9841 23.9954 33.8435 24.2755 33.7719C25.4913 33.4701 26.6582 32.9975 27.7414 32.3682C27.9943 32.2317 28.2771 32.1602 28.5645 32.1602C28.8519 32.1602 29.1348 32.2317 29.3877 32.3682L32.7322 34.1011L33.9626 32.8707L32.2297 29.5262C32.0932 29.2733 32.0217 28.9904 32.0217 28.703C32.0217 28.4156 32.0932 28.1328 32.2297 27.8799C32.859 26.7967 33.3316 25.6298 33.6334 24.414C33.705 24.1339 33.8456 23.8761 34.0423 23.6643C34.2391 23.4524 34.4857 23.2931 34.7598 23.2009L38.2256 22.0225V20.2896L34.7598 19.1112C34.4857 19.019 34.2391 18.8597 34.0423 18.6479C33.8456 18.436 33.705 18.1783 33.6334 17.8981C33.3316 16.6823 32.859 15.5154 32.2297 14.4323C32.0932 14.1794 32.0217 13.8965 32.0217 13.6091C32.0217 13.3217 32.0932 13.0389 32.2297 12.786L33.9626 9.44141L32.7322 8.21102L29.3877 9.94396C29.1348 10.0805 28.8519 10.1519 28.5645 10.1519C28.2771 10.1519 27.9943 10.0805 27.7414 9.94396C26.6582 9.31467 25.4913 8.84207 24.2755 8.54028C23.9954 8.46863 23.7376 8.32803 23.5258 8.13129C23.3139 7.93455 23.1546 7.68792 23.0624 7.41387L21.884 3.70539H20.1511L18.9727 7.17126C18.8805 7.44531 18.7212 7.69193 18.5094 7.88868C18.2975 8.08542 18.0398 8.22602 17.7596 8.29767C16.5438 8.59946 15.3769 9.07206 14.2938 9.70135C14.0409 9.83786 13.758 9.90933 13.4706 9.90933C13.1832 9.90933 12.9004 9.83786 12.6475 9.70135L9.3029 7.96841L8.07252 9.1988L9.80545 12.5434C9.94196 12.7963 10.0134 13.0791 10.0134 13.3665C10.0134 13.6539 9.94196 13.9368 9.80545 14.1897C9.17616 15.2728 8.70356 16.4397 8.40177 17.6555C8.33012 17.9357 8.18952 18.1934 7.99278 18.4053C7.79604 18.6171 7.54941 18.7764 7.27536 18.8686L3.68818 20.1683V21.9012L7.15406 23.0796C7.4281 23.1718 7.67473 23.3311 7.87147 23.543C8.06821 23.7548 8.20881 24.0126 8.28047 24.2927C8.58226 25.5085 9.05485 26.6754 9.68415 27.7586C9.82065 28.0115 9.89213 28.2943 9.89213 28.5817C9.89213 28.8691 9.82065 29.152 9.68415 29.4049L7.95121 32.7494L9.1816 33.9798L12.5262 32.2469C12.7791 32.1104 13.0619 32.0389 13.3493 32.0389C13.6367 32.0389 13.9196 32.1104 14.1725 32.2469C15.2556 32.8762 16.4225 33.3488 17.6383 33.6506C17.9184 33.7222 18.1762 33.8628 18.3881 34.0596C18.5999 34.2563 18.7592 34.5029 18.8514 34.777L20.1511 38.3641Z" fill="#818181"/>
<path d="M21.0175 29.6995C19.3038 29.6995 17.6285 29.1913 16.2036 28.2392C14.7787 27.2871 13.6682 25.9339 13.0123 24.3506C12.3565 22.7674 12.1849 21.0252 12.5193 19.3444C12.8536 17.6636 13.6788 16.1197 14.8906 14.9079C16.1024 13.6961 17.6463 12.8709 19.3271 12.5366C21.0079 12.2023 22.75 12.3738 24.3333 13.0297C25.9166 13.6855 27.2698 14.796 28.2219 16.2209C29.174 17.6458 29.6822 19.3211 29.6822 21.0348C29.6822 23.3328 28.7693 25.5367 27.1443 27.1616C25.5194 28.7866 23.3155 29.6995 21.0175 29.6995ZM21.0175 15.836C19.9893 15.836 18.9841 16.1409 18.1292 16.7121C17.2742 17.2834 16.6079 18.0953 16.2144 19.0453C15.8209 19.9952 15.718 21.0406 15.9186 22.049C16.1192 23.0575 16.6143 23.9838 17.3414 24.7109C18.0684 25.438 18.9948 25.9331 20.0032 26.1337C21.0117 26.3343 22.057 26.2313 23.007 25.8379C23.9569 25.4444 24.7689 24.778 25.3401 23.9231C25.9114 23.0681 26.2163 22.063 26.2163 21.0348C26.2163 19.656 25.6686 18.3336 24.6936 17.3587C23.7186 16.3837 22.3963 15.836 21.0175 15.836Z" fill="#818181"/>
</svg>
