<svg width="16" height="16" viewBox="0 0 16 16" fill="none" xmlns="http://www.w3.org/2000/svg">
<path fill-rule="evenodd" clip-rule="evenodd" d="M7.28621 2.51935C7.28613 2.51951 7.28629 2.51919 7.28621 2.51935L6.11426 4.88262C5.98984 5.1376 5.78174 5.35601 5.56745 5.51621C5.3527 5.67675 5.08544 5.81346 4.81001 5.86061L4.80823 5.86091L2.68205 6.21709C2.09081 6.31644 1.89654 6.55113 1.85099 6.69493C1.80485 6.84063 1.82985 7.14847 2.25428 7.5764L3.90743 9.24321C4.12192 9.45948 4.26522 9.74846 4.34421 10.0267C4.4233 10.3052 4.45275 10.6252 4.38714 10.9203L4.38641 10.9236L3.91311 12.9869C3.73649 13.7565 3.91487 14.0403 4.00704 14.1081C4.09667 14.1741 4.41487 14.2608 5.08883 13.8575L7.08567 12.6657C7.36327 12.5028 7.69588 12.4356 8.0011 12.4356C8.3058 12.4356 8.63857 12.5026 8.91478 12.6676C8.91472 12.6676 8.91485 12.6677 8.91478 12.6676L10.9075 13.857C10.9074 13.8569 10.9076 13.857 10.9075 13.857C11.587 14.2616 11.9048 14.1752 11.9928 14.1105C12.0829 14.0443 12.2613 13.7622 12.084 12.9866L11.61 10.9203C11.5444 10.6252 11.5739 10.3052 11.653 10.0267C11.732 9.74846 11.8753 9.45948 12.0898 9.24321L13.7429 7.5764L13.7441 7.57519C14.1713 7.14738 14.1951 6.84036 14.149 6.69583C14.103 6.55164 13.9069 6.31653 13.3151 6.21709L11.189 5.86091C10.9107 5.81415 10.6413 5.67797 10.4248 5.51691C10.2091 5.35638 10.0008 5.13775 9.87627 4.88262L8.7034 2.51748C8.4219 1.94685 8.13639 1.8335 7.99776 1.8335C7.85827 1.8335 7.57096 1.94839 7.28621 2.51935ZM9.60006 2.07477C9.24829 1.36185 8.69728 0.833496 7.99776 0.833496C7.29906 0.833496 6.74634 1.36088 6.39124 2.07321L6.39078 2.07414L5.21758 4.43994L5.21578 4.4436C5.18009 4.51707 5.09544 4.62052 4.96868 4.71529C4.84217 4.80987 4.71981 4.86133 4.64192 4.87484C4.6417 4.87488 4.64147 4.87492 4.64125 4.87496L2.51659 5.23087C1.74799 5.36003 1.10543 5.73699 0.897665 6.393C0.690504 7.0471 0.995464 7.72725 1.54427 8.28059L3.19742 9.9474C3.26289 10.0134 3.33623 10.1378 3.38223 10.2998C3.42792 10.4607 3.43197 10.6073 3.41125 10.702C3.41116 10.7024 3.41106 10.7029 3.41097 10.7033L2.93844 12.7633C2.93844 12.7633 2.93844 12.7633 2.93844 12.7633C2.74179 13.6202 2.81003 14.469 3.41444 14.9136C4.02139 15.3602 4.84973 15.1659 5.60229 14.7156L7.59167 13.5282C7.59208 13.528 7.5925 13.5277 7.59293 13.5275C7.68208 13.4756 7.82885 13.4356 8.0011 13.4356C8.17461 13.4356 8.31836 13.4762 8.40207 13.5262L10.3954 14.7159C11.1488 15.1646 11.9782 15.3624 12.5851 14.9163C13.1899 14.4717 13.2549 13.6213 13.0589 12.7638L12.5862 10.7033C12.5861 10.7029 12.586 10.7024 12.5859 10.702C12.5652 10.6073 12.5693 10.4607 12.615 10.2998C12.661 10.1378 12.7343 10.0134 12.7998 9.9474L14.4517 8.2818C14.4519 8.28162 14.4521 8.28144 14.4523 8.28126C15.0046 7.7279 15.3106 7.04716 15.1017 6.3921C14.8927 5.73649 14.249 5.35999 13.4809 5.23091L11.3544 4.8747C11.2727 4.86097 11.1485 4.80893 11.0217 4.71459C10.8948 4.62015 10.8104 4.51691 10.7747 4.4436L9.60006 2.07477C9.60011 2.07487 9.60001 2.07467 9.60006 2.07477Z" fill="#D93502"/>
</svg>
