<svg width="17" height="19" viewBox="0 0 17 19" fill="none" xmlns="http://www.w3.org/2000/svg">
<path d="M3.01923 3.71154C3.01923 3.32938 3.32938 3.01923 3.71154 3.01923H11.0962C11.4783 3.01923 11.7885 3.32938 11.7885 3.71154C11.7885 4.09369 11.4783 4.40385 11.0962 4.40385H3.71154C3.32938 4.40385 3.01923 4.09369 3.01923 3.71154ZM4.63462 8.55769H3.71154C3.32938 8.55769 3.01923 8.86785 3.01923 9.25C3.01923 9.63215 3.32938 9.94231 3.71154 9.94231H4.63462C5.01677 9.94231 5.32692 9.63215 5.32692 9.25C5.32692 8.86785 5.01677 8.55769 4.63462 8.55769ZM3.71154 7.17308H7.40385C7.786 7.17308 8.09615 6.86292 8.09615 6.48077C8.09615 6.09862 7.786 5.78846 7.40385 5.78846H3.71154C3.32938 5.78846 3.01923 6.09862 3.01923 6.48077C3.01923 6.86292 3.32938 7.17308 3.71154 7.17308ZM12.9008 12.25H11.7885V11.0638C11.7885 10.6817 11.4783 10.3715 11.0962 10.3715C10.714 10.3715 10.4038 10.6817 10.4038 11.0638V12.9423C10.4038 13.3245 10.714 13.6346 11.0962 13.6346H12.9008C13.2829 13.6346 13.5931 13.3245 13.5931 12.9423C13.5931 12.5602 13.2829 12.25 12.9008 12.25ZM16.4038 12.9423C16.4038 15.8685 14.0232 18.25 11.0962 18.25C9.98938 18.25 8.96108 17.9085 8.11 17.3269H2.78846C1.38815 17.3269 0.25 16.1888 0.25 14.7885V2.78846C0.25 1.38815 1.38815 0.25 2.78846 0.25H12.0192C13.4195 0.25 14.5577 1.38815 14.5577 2.78846V8.92785C15.6857 9.90169 16.4038 11.3389 16.4038 12.9423ZM2.78846 15.9423H6.72169C6.13369 15.0885 5.78846 14.0555 5.78846 12.9423C5.78846 10.0162 8.16908 7.63462 11.0962 7.63462C11.8328 7.63462 12.5352 7.786 13.1731 8.05831V2.78846C13.1731 2.15246 12.6552 1.63462 12.0192 1.63462H2.78846C2.15246 1.63462 1.63462 2.15246 1.63462 2.78846V14.7885C1.63462 15.4245 2.15246 15.9423 2.78846 15.9423ZM15.0192 12.9423C15.0192 10.7795 13.2598 9.01923 11.0962 9.01923C8.93246 9.01923 7.17308 10.7795 7.17308 12.9423C7.17308 15.1051 8.93246 16.8654 11.0962 16.8654C13.2598 16.8654 15.0192 15.1051 15.0192 12.9423Z" fill="white"/>
</svg>
