<svg width="24" height="24" viewBox="0 0 24 24" fill="none" xmlns="http://www.w3.org/2000/svg">
<path d="M17.4283 19H5.86372C5.36958 18.9995 4.89583 18.803 4.54643 18.4536C4.19702 18.1042 4.00051 17.6304 4 17.1363V2.86372C4.00051 2.36958 4.19702 1.89583 4.54643 1.54643C4.89583 1.19702 5.36958 1.00051 5.86372 1H17.4283C17.9225 1.00051 18.3962 1.19702 18.7456 1.54643C19.095 1.89583 19.2915 2.36958 19.292 2.86372V17.1363C19.2915 17.6304 19.095 18.1042 18.7456 18.4536C18.3962 18.803 17.9225 18.9995 17.4283 19ZM5.86372 2.27434C5.70745 2.27451 5.55764 2.33665 5.44715 2.44715C5.33665 2.55764 5.2745 2.70746 5.27434 2.86372V17.1363C5.2745 17.2925 5.33665 17.4424 5.44715 17.5529C5.55764 17.6633 5.70745 17.7255 5.86372 17.7257H17.4283C17.5846 17.7255 17.7344 17.6633 17.8449 17.5529C17.9554 17.4424 18.0175 17.2925 18.0177 17.1363V2.86372C18.0175 2.70746 17.9554 2.55764 17.8449 2.44715C17.7344 2.33665 17.5846 2.27451 17.4283 2.27434H5.86372Z" fill="white"/>
<path d="M16.1062 5.77873H7.50442C7.33543 5.77873 7.17336 5.7116 7.05387 5.59211C6.93438 5.47262 6.86725 5.31055 6.86725 5.14156C6.86725 4.97258 6.93438 4.81051 7.05387 4.69102C7.17336 4.57152 7.33543 4.50439 7.50442 4.50439H16.1062C16.2752 4.50439 16.4372 4.57152 16.5567 4.69102C16.6762 4.81051 16.7434 4.97258 16.7434 5.14156C16.7434 5.31055 16.6762 5.47262 16.5567 5.59211C16.4372 5.7116 16.2752 5.77873 16.1062 5.77873Z" fill="white"/>
<path d="M16.1062 8.96464H7.50442C7.33543 8.96464 7.17336 8.89751 7.05387 8.77802C6.93438 8.65853 6.86725 8.49646 6.86725 8.32748C6.86725 8.15849 6.93438 7.99642 7.05387 7.87693C7.17336 7.75744 7.33543 7.69031 7.50442 7.69031H16.1062C16.2752 7.69031 16.4372 7.75744 16.5567 7.87693C16.6762 7.99642 16.7434 8.15849 16.7434 8.32748C16.7434 8.49646 16.6762 8.65853 16.5567 8.77802C16.4372 8.89751 16.2752 8.96464 16.1062 8.96464Z" fill="white"/>
<path d="M16.1062 15.3362H7.50442C7.33543 15.3362 7.17336 15.2691 7.05387 15.1496C6.93438 15.0301 6.86725 14.868 6.86725 14.6991C6.86725 14.5301 6.93438 14.368 7.05387 14.2485C7.17336 14.129 7.33543 14.0619 7.50442 14.0619H16.1062C16.2752 14.0619 16.4372 14.129 16.5567 14.2485C16.6762 14.368 16.7434 14.5301 16.7434 14.6991C16.7434 14.868 16.6762 15.0301 16.5567 15.1496C16.4372 15.2691 16.2752 15.3362 16.1062 15.3362Z" fill="white"/>
<path d="M16.1062 12.1504H7.50442C7.33543 12.1504 7.17336 12.0833 7.05387 11.9638C6.93438 11.8443 6.86725 11.6823 6.86725 11.5133C6.86725 11.3443 6.93438 11.1822 7.05387 11.0627C7.17336 10.9432 7.33543 10.8761 7.50442 10.8761H16.1062C16.2752 10.8761 16.4372 10.9432 16.5567 11.0627C16.6762 11.1822 16.7434 11.3443 16.7434 11.5133C16.7434 11.6823 16.6762 11.8443 16.5567 11.9638C16.4372 12.0833 16.2752 12.1504 16.1062 12.1504Z" fill="white"/>
</svg>
