<svg width="34" height="25" viewBox="0 0 34 25" fill="none" xmlns="http://www.w3.org/2000/svg">
<path d="M0.542561 4.84049C0.542561 2.74295 2.24295 1.04256 4.34049 1.04256H29.6595C31.757 1.04256 33.4574 2.74295 33.4574 4.84049V20.1595C33.4574 22.257 31.757 23.9574 29.6595 23.9574H4.34049C2.24295 23.9574 0.542561 22.257 0.542561 20.1595V4.84049Z" fill="white"/>
<path d="M0.542561 4.84049C0.542561 2.74295 2.24295 1.04256 4.34049 1.04256H29.6595C31.757 1.04256 33.4574 2.74295 33.4574 4.84049V20.1595C33.4574 22.257 31.757 23.9574 29.6595 23.9574H4.34049C2.24295 23.9574 0.542561 22.257 0.542561 20.1595V4.84049Z" stroke="#E5E7EB" stroke-width="1.08512"/>
<path d="M14.7686 7.19629H13.4067C12.764 8.98106 11.6818 11.9446 11.0858 13.5695C11.0259 13.726 10.9526 13.8759 10.8627 14.0191H11.805C12.0614 14.0024 12.2912 13.8592 12.4144 13.6328C12.4344 13.5995 12.4543 13.5629 12.4677 13.5262L13.0371 11.9712C13.743 10.0366 14.6986 7.4094 14.7686 7.19629Z" fill="#929497"/>
<path d="M29.2433 10.6094L28.6739 12.1677C28.5673 12.4441 28.3109 12.6339 28.0146 12.6539H27.0723C27.1688 12.5007 27.2521 12.3375 27.312 12.1677L27.8814 10.6094H26.5162L25.9501 12.1677C25.8436 12.4441 25.5838 12.6339 25.2908 12.6539H24.3418C24.4384 12.5007 24.5183 12.3375 24.5816 12.1677L25.151 10.6094H23.7857L23.2197 12.1677C23.1131 12.4441 22.8567 12.6339 22.5604 12.6539H18.1983C18.2982 12.504 18.3781 12.3442 18.4414 12.1777L18.5846 11.7781C18.9575 10.7525 18.4281 9.92676 17.4058 9.92676H15.8541L15.358 11.2886H16.9163C17.1861 11.2886 17.3259 11.5051 17.226 11.7748L17.0762 12.1744C16.9696 12.4474 16.7132 12.6339 16.4202 12.6505H14.1759L13.6798 14.0158H27.5284C28.554 14.0158 29.6662 13.1933 30.0391 12.1744L30.6118 10.606L29.2433 10.6094Z" fill="#ED7624"/>
<path d="M7.60593 14.0192H3.99976L4.4959 12.654H8.1054C8.40176 12.634 8.66148 12.4442 8.77136 12.1678L8.91122 11.7815C9.00778 11.5118 8.87126 11.2954 8.60154 11.2954H6.36059L6.85673 9.93018H9.09436C10.1199 9.93018 10.6427 10.7593 10.2731 11.7815L10.1333 12.1678C9.76032 13.1934 8.62818 14.0158 7.60593 14.0192Z" fill="#ED7624"/>
<path d="M13.673 15.5742H13.5065L13.4432 15.744H13.6097L13.673 15.5742Z" fill="#929497"/>
<path d="M14.0293 16.0766C14.0093 16.1432 13.9627 16.1998 13.9028 16.2365C13.8495 16.2598 13.7895 16.2698 13.7296 16.2664H13.31C13.2435 16.2731 13.1735 16.2564 13.1169 16.2165C13.0736 16.1765 13.0703 16.1066 13.1069 16.0067L13.2035 15.7503H13.0337L12.9371 16.0067C12.8306 16.2964 12.9371 16.4429 13.2668 16.4429H13.8228C13.9727 16.4429 14.1059 16.343 14.1492 16.1965L14.3156 15.7437H14.1492L14.0293 16.0766Z" fill="#929497"/>
<path d="M13.9659 15.5742H13.7961L13.7361 15.744H13.9026L13.9659 15.5742Z" fill="#929497"/>
<path d="M15.1179 16.1037C15.1379 16.0471 15.1712 15.9972 15.2145 15.9539C15.2545 15.9106 15.3111 15.8873 15.371 15.8873C15.4509 15.8873 15.4909 15.9272 15.4909 16.0072L15.664 15.9372C15.6607 15.824 15.5675 15.7341 15.4543 15.7374C15.4476 15.7374 15.4409 15.7374 15.4343 15.7374C15.3277 15.7374 15.2245 15.7774 15.1413 15.844C15.0547 15.9106 14.9848 15.9972 14.9448 16.1004C14.9248 16.1503 14.9148 16.2069 14.9182 16.2636H14.6418C14.5985 16.2702 14.5519 16.2602 14.5153 16.2369C14.4919 16.2136 14.4919 16.1637 14.5153 16.0904L14.7517 15.4478H14.5852L14.3288 16.157C14.2988 16.2203 14.2955 16.2902 14.3188 16.3568C14.3521 16.4134 14.4154 16.4467 14.482 16.4367H15.4842L15.5475 16.2602H15.1113C15.088 16.2069 15.088 16.147 15.1113 16.0971" fill="#929497"/>
<path d="M17.4656 15.4307H17.2991L17.2358 15.6005H17.4023L17.4656 15.4307Z" fill="#929497"/>
<path d="M17.2726 15.7307C17.0562 15.7407 16.8664 15.8805 16.7965 16.0837C16.7732 16.1403 16.7665 16.2035 16.7732 16.2668H16.3536L16.4202 16.087C16.4934 15.8872 16.4202 15.7407 16.2271 15.7407C16.0173 15.7473 15.8308 15.8839 15.7576 16.0803C15.6843 16.2834 15.7775 16.4366 15.964 16.4366H16.1272C16.0839 16.5132 16.0006 16.5565 15.9141 16.5565L15.8641 16.6897C16.0473 16.6997 16.2137 16.5998 16.2903 16.4333H17.0129C17.2293 16.4233 17.4158 16.2834 17.4857 16.0803C17.559 15.8805 17.4791 15.7207 17.2726 15.7207M16.1804 16.2601H16.0273C15.934 16.2601 15.9007 16.1736 15.934 16.0703C15.9673 15.9704 16.0572 15.9038 16.1638 15.8972C16.2537 15.8972 16.2837 15.9604 16.257 16.0537L16.1804 16.2601ZM17.0728 16.2768C16.9696 16.2768 16.933 16.1869 16.9729 16.077C17.0029 15.9704 17.0961 15.8905 17.2094 15.8805C17.3126 15.8805 17.3525 15.9671 17.3092 16.0837C17.276 16.1902 17.1827 16.2668 17.0728 16.2768Z" fill="#929497"/>
<path d="M20.4257 16.1069C20.4124 16.1468 20.3957 16.1835 20.3724 16.2168C20.3391 16.2534 20.2925 16.27 20.2459 16.2667H19.8596C19.9062 16.2168 19.9429 16.1535 19.9595 16.0869L20.1926 15.4442H20.0228L19.7864 16.0869C19.773 16.1302 19.7531 16.1701 19.7264 16.2034C19.6931 16.2401 19.6465 16.2601 19.5999 16.2567H19.3435L19.3602 16.2134C19.3968 16.1335 19.3968 16.037 19.3602 15.957C19.3169 15.8838 19.2336 15.8438 19.1504 15.8538C19.0472 15.8538 18.9439 15.8904 18.864 15.9537C18.7774 16.0203 18.7142 16.1069 18.6775 16.2101C18.6775 16.2268 18.6642 16.2434 18.6609 16.2601H18.3046C18.4012 15.997 18.3579 15.8305 18.1781 15.7606C18.1514 15.7506 18.1215 15.7406 18.0948 15.7373H17.935L17.8784 15.8938C17.9283 15.8938 17.9783 15.8971 18.0282 15.9071C18.1714 15.9404 18.208 16.0569 18.1348 16.2601H17.5787L17.5154 16.4332H18.6709C18.7075 16.5231 18.8007 16.5731 18.8973 16.5597C19.0172 16.5597 19.1371 16.5131 19.2236 16.4332H20.2326C20.4024 16.4365 20.5522 16.32 20.5922 16.1535L20.8486 15.4409H20.6754L20.4257 16.1069ZM19.0871 16.3633C19.0472 16.3999 18.9972 16.4199 18.9439 16.4199C18.8374 16.4199 18.8041 16.33 18.844 16.2201C18.864 16.1701 18.894 16.1235 18.9339 16.0869C18.9739 16.0469 19.0272 16.027 19.0804 16.027C19.1271 16.0236 19.1704 16.0469 19.187 16.0902C19.2003 16.1368 19.197 16.1868 19.177 16.2301C19.1604 16.2767 19.1304 16.3233 19.0871 16.3633Z" fill="#929497"/>
<path d="M21.6544 15.7704C21.6278 15.7604 21.5978 15.7504 21.5712 15.7471H21.4113L21.3547 15.9036C21.4047 15.9036 21.4546 15.9069 21.5046 15.9169C21.6478 15.9502 21.6844 16.0667 21.6111 16.2698H21.0584L20.9951 16.443H21.7243L21.7876 16.2698C21.8775 16.0068 21.8342 15.8403 21.6544 15.7704Z" fill="#929497"/>
<path d="M21.8775 16.443H22.0473L22.4102 15.4507H22.2404L21.8775 16.443Z" fill="#929497"/>
<path d="M24.3716 16.0969C24.3316 16.2101 24.265 16.2667 24.1785 16.2667H24.0153C24.0652 16.2135 24.1019 16.1502 24.1185 16.0803L24.2451 15.744H24.0752L23.9487 16.0969C23.9087 16.2101 23.8422 16.2667 23.7556 16.2667H23.5957V16.2568C23.639 16.2035 23.669 16.1435 23.689 16.0769L23.8155 15.7406H23.6324L23.5058 16.0803C23.4626 16.2035 23.396 16.2601 23.3094 16.2601H22.9931C23.0863 16.0037 23.0463 15.8305 22.8665 15.7606C22.8399 15.7506 22.8099 15.7406 22.7833 15.7373H22.6234L22.5668 15.8938C22.6168 15.8938 22.6667 15.8971 22.7167 15.9071C22.8599 15.9404 22.8965 16.057 22.8232 16.2601H22.2672L22.2039 16.4332H24.1352C24.3416 16.4099 24.5114 16.2667 24.5647 16.067L24.6879 15.7373H24.5081L24.3716 16.0969Z" fill="#929497"/>
<path d="M25.9399 15.7439H25.507C25.2673 15.7539 25.0608 15.9204 24.9942 16.1534L24.8044 16.6929H24.9776L25.1641 16.1801C25.224 16.0136 25.3372 15.9104 25.4504 15.9104H25.577C25.5303 15.9636 25.4904 16.0236 25.4671 16.0902C25.3938 16.29 25.4771 16.4465 25.6835 16.4465C25.8966 16.4365 26.0831 16.2966 26.1563 16.0935C26.2296 15.8904 26.1497 15.7339 25.9432 15.7339M25.7468 16.29C25.6436 16.29 25.6036 16.2001 25.6469 16.0902C25.6769 15.9836 25.7701 15.9037 25.8833 15.8937C25.9899 15.8937 26.0232 15.9803 25.9832 16.0968C25.9499 16.2034 25.8567 16.28 25.7468 16.29Z" fill="#929497"/>
<path d="M27.9246 15.4341H27.7581L27.6949 15.6039H27.8613L27.9246 15.4341Z" fill="#929497"/>
<path d="M28.8302 15.4341H28.6637L28.6038 15.6039H28.7703L28.8302 15.4341Z" fill="#929497"/>
<path d="M28.5471 15.7441L28.4206 16.1037C28.4073 16.1437 28.3906 16.1803 28.3673 16.2136C28.334 16.2502 28.2874 16.2669 28.2408 16.2636H27.9644C28.0909 15.9139 28.0177 15.7374 27.758 15.7374C27.5948 15.7374 27.4183 15.8207 27.2085 16.0038L27.4316 15.4478H27.2618L26.9655 16.2636H26.6125C26.5692 16.2702 26.5226 16.2602 26.486 16.2369C26.4627 16.2136 26.4627 16.1637 26.486 16.0904L26.7224 15.4478H26.5559L26.2995 16.157C26.2695 16.2203 26.2629 16.2902 26.2895 16.3568C26.3228 16.4134 26.3861 16.4467 26.4527 16.4367H28.2141C28.384 16.44 28.5338 16.3235 28.5738 16.157L28.7269 15.7374L28.5471 15.7441ZM27.7779 16.2669H27.0953C27.2751 16.0538 27.5116 15.8939 27.6814 15.8939C27.8279 15.8939 27.8712 16.0205 27.8012 16.2169C27.7979 16.2336 27.7913 16.2502 27.7813 16.2669" fill="#929497"/>
</svg>
