<svg width="14" height="16" viewBox="0 0 14 16" fill="none" xmlns="http://www.w3.org/2000/svg">
<path fill-rule="evenodd" clip-rule="evenodd" d="M3.50002 1.3335C3.50002 1.05735 3.27616 0.833496 3.00002 0.833496C2.72388 0.833496 2.50002 1.05735 2.50002 1.3335V1.75669C1.96352 1.90875 1.51102 2.15589 1.13438 2.56307C0.615776 3.12373 0.385253 3.83211 0.274853 4.71984C0.166674 5.5897 0.16668 6.70447 0.166687 8.12685V8.54014C0.16668 9.96252 0.166674 11.0773 0.274853 11.9472C0.385253 12.8349 0.615776 13.5433 1.13438 14.1039C1.634 14.644 2.26065 14.904 3.0459 15.0325C3.81083 15.1578 4.77979 15.166 5.99971 15.1668C6.27585 15.1669 6.49985 14.9432 6.50002 14.6671C6.50019 14.3909 6.27648 14.1669 6.00033 14.1668C4.75669 14.166 3.8761 14.1552 3.20749 14.0457C2.5592 13.9395 2.16834 13.749 1.86848 13.4249C1.55234 13.0831 1.36549 12.6141 1.26721 11.8237C1.1676 11.0228 1.16669 9.9702 1.16669 8.50467V8.16233C1.16669 7.23403 1.16705 6.47142 1.19264 5.8335H12.8074C12.8282 6.3527 12.8324 6.95652 12.8332 7.66735C12.8335 7.94349 13.0576 8.16712 13.3337 8.16683C13.6098 8.16654 13.8335 7.94245 13.8332 7.66631C13.8318 6.3863 13.8206 5.36997 13.7045 4.56529C13.5867 3.74937 13.3538 3.09076 12.8657 2.56307C12.489 2.15589 12.0365 1.90875 11.5 1.75669V1.3335C11.5 1.05735 11.2762 0.833496 11 0.833496C10.7239 0.833496 10.5 1.05735 10.5 1.3335V1.57743C9.74265 1.50014 8.81067 1.50015 7.67386 1.50016H6.32618C5.18937 1.50015 4.25739 1.50014 3.50002 1.57743V1.3335ZM12.7316 4.8335H1.26843C1.36704 4.04907 1.55365 3.58248 1.86848 3.24211C2.04137 3.0552 2.24755 2.9121 2.51909 2.80406C2.57873 3.01348 2.77147 3.16683 3.00002 3.16683C3.27616 3.16683 3.50002 2.94297 3.50002 2.66683V2.58322C4.20736 2.5012 5.1216 2.50016 6.36669 2.50016H7.63335C8.87844 2.50016 9.79268 2.5012 10.5 2.58322V2.66683C10.5 2.94297 10.7239 3.16683 11 3.16683C11.2286 3.16683 11.4213 3.01348 11.481 2.80406C11.7525 2.9121 11.9587 3.0552 12.1316 3.24211C12.4293 3.56401 12.6123 3.99874 12.7147 4.70814C12.7206 4.7492 12.7263 4.79098 12.7316 4.8335Z" fill="#D93502"/>
<path fill-rule="evenodd" clip-rule="evenodd" d="M11.1667 8.66683C11.1667 8.39069 10.9428 8.16683 10.6667 8.16683C10.3905 8.16683 10.1667 8.39069 10.1667 8.66683V9.06851C9.60581 9.16968 9.1036 9.43803 8.71897 9.82035L8.27039 9.53196C8.03811 9.38263 7.72875 9.44987 7.57942 9.68215C7.43009 9.91444 7.49733 10.2238 7.72961 10.3731L8.15484 10.6465C8.01951 10.9603 7.94444 11.3051 7.94444 11.6668C7.94444 12.0286 8.01953 12.3735 8.1549 12.6873L7.72989 12.9605C7.49761 13.1099 7.43037 13.4192 7.5797 13.6515C7.72903 13.8838 8.03839 13.951 8.27067 13.8017L8.71908 13.5134C9.10369 13.8957 9.60586 14.164 10.1667 14.2651V14.6668C10.1667 14.943 10.3905 15.1668 10.6667 15.1668C10.9428 15.1668 11.1667 14.943 11.1667 14.6668V14.2651C11.7275 14.164 12.2296 13.8957 12.6142 13.5134L13.0627 13.8017C13.2949 13.951 13.6043 13.8838 13.7536 13.6515C13.903 13.4192 13.8357 13.1099 13.6034 12.9605L13.1784 12.6873C13.3138 12.3735 13.3889 12.0286 13.3889 11.6668C13.3889 11.3051 13.3138 10.9603 13.1785 10.6465L13.6037 10.3731C13.836 10.2238 13.9032 9.91444 13.7539 9.68215C13.6046 9.44987 13.2952 9.38263 13.0629 9.53196L12.6144 9.82035C12.2297 9.43803 11.7275 9.16968 11.1667 9.06851V8.66683ZM9.22847 10.7628C9.53469 10.3208 10.0614 10.024 10.6667 10.024C11.2719 10.024 11.7986 10.3208 12.1049 10.7628C12.2851 11.023 12.3889 11.3332 12.3889 11.6668C12.3889 12.0005 12.2851 12.3108 12.1048 12.571C11.7986 13.013 11.2719 13.3097 10.6667 13.3097C10.0615 13.3097 9.53477 13.013 9.22854 12.571C9.04827 12.3108 8.94444 12.0005 8.94444 11.6668C8.94444 11.3332 9.04824 11.023 9.22847 10.7628Z" fill="#D93502"/>
</svg>
