<svg width="20" height="20" viewBox="0 0 20 20" fill="none" xmlns="http://www.w3.org/2000/svg">
<path fill-rule="evenodd" clip-rule="evenodd" d="M9.16602 1.04175C4.6787 1.04175 1.04102 4.67943 1.04102 9.16675C1.04102 13.6541 4.6787 17.2917 9.16602 17.2917C11.1847 17.2917 13.0314 16.5556 14.4524 15.337L17.8907 18.7754C18.1348 19.0194 18.5305 19.0194 18.7746 18.7754C19.0187 18.5313 19.0187 18.1356 18.7746 17.8915L15.3363 14.4531C16.5548 13.0322 17.291 11.1854 17.291 9.16675C17.291 4.67943 13.6533 1.04175 9.16602 1.04175ZM2.29102 9.16675C2.29102 5.36979 5.36906 2.29175 9.16602 2.29175C12.963 2.29175 16.041 5.36979 16.041 9.16675C16.041 12.9637 12.963 16.0417 9.16602 16.0417C5.36906 16.0417 2.29102 12.9637 2.29102 9.16675Z" fill="#D93502"/>
</svg>
