<svg width="24" height="24" viewBox="0 0 24 24" fill="none" xmlns="http://www.w3.org/2000/svg">

<path d="M19.75 21V21.0002C19.7501 21.2299 19.7048 21.4574 19.6169 21.6696C19.5289 21.8818 19.4 22.0746 19.2374 22.2369L19.2369 22.2375C18.9093 22.5656 18.4645 22.75 18 22.75H3H2.99983C2.77011 22.7501 2.54262 22.7048 2.33039 22.6169C2.11817 22.5289 1.92538 22.4 1.76305 22.2374L1.76249 22.2369C1.43436 21.9093 1.25 21.4645 1.25 21L1.25 6L1.25 5.99983C1.24992 5.7701 1.29515 5.54262 1.3831 5.3304C1.47106 5.11817 1.6 4.92538 1.76255 4.76305L1.76312 4.76249C2.09066 4.43436 2.53553 4.25 3 4.25L18 4.25L18.0002 4.25C18.2299 4.24992 18.4574 4.29515 18.6696 4.3831C18.8818 4.47106 19.0746 4.6 19.2369 4.76255L19.2375 4.76312C19.5656 5.09066 19.75 5.53553 19.75 6V21Z" fill="#A9B9E3" stroke="#93A9E2"/>
<path fill-rule="evenodd" clip-rule="evenodd" d="M8.25002 14.2477C8.25002 14.6456 8.40805 15.0271 8.68936 15.3084C8.97066 15.5897 9.35219 15.7477 9.75002 15.7477H20.25V18.7477H13.5C13.1022 18.7477 12.7207 18.9058 12.4394 19.1871C12.1581 19.4684 12 19.8499 12 20.2477V23.2477H9.00002V20.2477C9.00002 19.8499 8.84198 19.4684 8.56068 19.1871C8.27937 18.9058 7.89784 18.7477 7.50002 18.7477H0.759766V15.7477H3.75002C4.14784 15.7477 4.52937 15.5897 4.81068 15.3084C5.09198 15.0271 5.25002 14.6456 5.25002 14.2477V3.75H8.25002V14.2477Z" fill="white"/>
<path fill-rule="evenodd" clip-rule="evenodd" d="M17.2492 0.75C15.6583 0.750596 14.1327 1.38285 13.0078 2.5078C11.8828 3.63275 11.2506 5.15833 11.25 6.74925C11.25 8.76 12.174 10.3748 13.2997 11.5807C14.9235 13.3208 16.9545 14.1885 16.9545 14.1885C17.0477 14.2286 17.1481 14.2493 17.2496 14.2493C17.3511 14.2493 17.4515 14.2286 17.5447 14.1885C17.5447 14.1885 19.5758 13.3208 21.1995 11.5807C22.3252 10.3748 23.2492 8.76 23.2492 6.74925C23.2485 5.15826 22.616 3.63268 21.491 2.50775C20.3659 1.38283 18.8402 0.750596 17.2492 0.75Z" fill="#D93502"/>
<path fill-rule="evenodd" clip-rule="evenodd" d="M17.2492 0.75C15.6583 0.750596 14.1327 1.38285 13.0078 2.5078C11.8828 3.63275 11.2506 5.15833 11.25 6.74925C11.25 8.76 12.174 10.3748 13.2997 11.5807C14.9235 13.3208 16.9545 14.1885 16.9545 14.1885C17.0476 14.2286 17.1479 14.2493 17.2492 14.2493V0.75Z" fill="#D93502"/>
<path d="M17.25 9.75C18.9069 9.75 20.25 8.40685 20.25 6.75C20.25 5.09315 18.9069 3.75 17.25 3.75C15.5931 3.75 14.25 5.09315 14.25 6.75C14.25 8.40685 15.5931 9.75 17.25 9.75Z" fill="white"/>

</svg>
