<svg width="21" height="20" viewBox="0 0 21 20" fill="none" xmlns="http://www.w3.org/2000/svg">
<path d="M16.0296 13.0588L17.4599 8.76766C18.7095 5.019 19.3343 3.14468 18.3449 2.15529C17.3555 1.1659 15.4812 1.79067 11.7325 3.04022L7.44139 4.47059C4.41587 5.4791 2.9031 5.98336 2.47322 6.72281C2.06427 7.42626 2.06427 8.29507 2.47322 8.99852C2.9031 9.73797 4.41587 10.2422 7.44139 11.2507C7.92719 11.4127 8.17009 11.4936 8.37311 11.6296C8.56987 11.7613 8.73889 11.9303 8.87061 12.1271C9.00653 12.3301 9.0875 12.573 9.24943 13.0588C10.2579 16.0843 10.7622 17.5971 11.5016 18.0269C12.2051 18.4359 13.0739 18.4359 13.7774 18.0269C14.5168 17.5971 15.0211 16.0843 16.0296 13.0588Z" stroke="white" stroke-width="1.25"/>
<path d="M14.0099 7.3732C14.2553 7.13048 14.2575 6.73475 14.0148 6.48933C13.7721 6.2439 13.3763 6.24171 13.1309 6.48443L13.5704 6.92881L14.0099 7.3732ZM8.94629 11.502L9.38577 11.9463L14.0099 7.3732L13.5704 6.92881L13.1309 6.48443L8.5068 11.0576L8.94629 11.502Z" fill="white"/>
</svg>
