<svg width="24" height="24" viewBox="0 0 24 24" fill="none" xmlns="http://www.w3.org/2000/svg">
<path d="M7.70062 11.9407C7.70062 10.4054 6.45598 9.1607 4.92062 9.1607C3.38527 9.1607 2.14062 10.4054 2.14062 11.9407C2.14062 13.4761 3.38527 14.7207 4.92062 14.7207C6.45598 14.7207 7.70062 13.4761 7.70062 11.9407Z" stroke="#F9F8FF" stroke-width="1.5" stroke-linecap="round" stroke-linejoin="round"/>
<path d="M19.9194 18.1692C19.9194 16.6339 18.6747 15.3892 17.1394 15.3892C15.604 15.3892 14.3594 16.6339 14.3594 18.1692C14.3594 19.7046 15.604 20.9492 17.1394 20.9492C18.6747 20.9492 19.9194 19.7046 19.9194 18.1692Z" stroke="#F9F8FF" stroke-width="1.5" stroke-linecap="round" stroke-linejoin="round"/>
<path d="M19.9194 5.82937C19.9194 4.29402 18.6747 3.04937 17.1394 3.04937C15.604 3.04937 14.3594 4.29402 14.3594 5.82937C14.3594 7.36473 15.604 8.60938 17.1394 8.60938C18.6747 8.60938 19.9194 7.36473 19.9194 5.82937Z" stroke="#F9F8FF" stroke-width="1.5" stroke-linecap="round" stroke-linejoin="round"/>
<path opacity="0.34" d="M14.5 7L7.5 10.5" stroke="#F9F8FF" stroke-width="1.5"/>
<path opacity="0.34" d="M14.5 17.5L7.5 14" stroke="#F9F8FF" stroke-width="1.5"/>
</svg>
