<svg width="20" height="20" viewBox="0 0 20 20" fill="none" xmlns="http://www.w3.org/2000/svg">
<path d="M17.5076 13.8775C17.442 13.6569 17.1279 13.5014 17.1279 13.5014C17.0982 13.4855 17.0716 13.4712 17.0498 13.4601C16.5263 13.203 16.0622 12.8935 15.6716 12.5428C15.3575 12.2603 15.0887 11.9493 14.8731 11.6192C14.609 11.2161 14.4855 10.8797 14.4324 10.6972C14.4027 10.5781 14.4074 10.5305 14.4324 10.4686C14.4527 10.4163 14.5137 10.3671 14.5418 10.3433C14.7184 10.2163 15.0028 10.029 15.1778 9.91477C15.3293 9.81479 15.459 9.72909 15.5356 9.67514C15.7809 9.50057 15.9497 9.32282 16.0481 9.1308C16.1763 8.88323 16.1919 8.61027 16.0919 8.34207C15.9575 7.98023 15.6247 7.7644 15.2012 7.7644C15.1075 7.7644 15.0106 7.77551 14.9137 7.79614C14.6715 7.8501 14.4418 7.93738 14.2496 8.01356C14.2355 8.01991 14.2199 8.0088 14.2215 7.99293C14.2418 7.5089 14.2652 6.85823 14.2121 6.2409C14.1652 5.68228 14.0511 5.21094 13.8668 4.79991C13.6808 4.38729 13.4386 4.08259 13.2495 3.862C13.0698 3.65252 12.7526 3.34306 12.2745 3.06533C11.6026 2.67494 10.8369 2.47656 9.99935 2.47656C9.16336 2.47656 8.39925 2.67494 7.72578 3.06533C7.2195 3.35893 6.89604 3.69061 6.74916 3.862C6.56008 4.08259 6.31788 4.38729 6.13193 4.79991C5.94599 5.21094 5.83348 5.68069 5.7866 6.2409C5.73347 6.86141 5.75535 7.4597 5.77723 7.99293C5.77723 8.0088 5.76316 8.01991 5.74754 8.01356C5.55534 7.93738 5.32564 7.8501 5.08344 7.79614C4.98812 7.77551 4.89124 7.7644 4.79592 7.7644C4.37402 7.7644 4.04119 7.98023 3.90524 8.34207C3.80524 8.61027 3.82086 8.88323 3.94899 9.1308C4.049 9.32282 4.2162 9.50057 4.46152 9.67514C4.53653 9.72909 4.66779 9.81479 4.81936 9.91477C4.98968 10.0274 5.26626 10.2099 5.44439 10.3353C5.46627 10.3512 5.54128 10.4083 5.56471 10.4686C5.58972 10.5321 5.5944 10.5797 5.56159 10.7067C5.5069 10.8908 5.38345 11.224 5.12406 11.6192C4.90843 11.9509 4.63966 12.2603 4.32558 12.5428C3.93493 12.8935 3.47084 13.203 2.94737 13.4601C2.92237 13.4728 2.89268 13.4871 2.86143 13.5061C2.86143 13.5061 2.54891 13.668 2.48953 13.8775C2.40203 14.1869 2.63486 14.4774 2.87081 14.6329C3.25833 14.8868 3.73023 15.0233 4.00369 15.0979C4.08025 15.1185 4.14901 15.1375 4.21151 15.1566C4.25057 15.1693 4.34902 15.2074 4.39121 15.2629C4.44434 15.3327 4.45059 15.4184 4.46934 15.5152C4.49903 15.6787 4.56622 15.8803 4.76467 16.0199C4.98343 16.1723 5.26001 16.1834 5.61159 16.1977C5.9788 16.2119 6.43508 16.2294 6.95855 16.4055C7.20075 16.4865 7.42107 16.6246 7.67421 16.7832C8.20549 17.1149 8.86647 17.5275 9.99466 17.5275C11.1244 17.5275 11.7901 17.1133 12.3245 16.7801C12.5776 16.623 12.7948 16.4865 13.0323 16.4071C13.5558 16.231 14.0121 16.2135 14.3793 16.1992C14.7309 16.185 15.0075 16.1754 15.2262 16.0215C15.4387 15.8723 15.4997 15.6501 15.5278 15.4835C15.5434 15.401 15.5528 15.3264 15.5997 15.2661C15.6403 15.2137 15.7309 15.1772 15.7731 15.1629C15.8372 15.1423 15.9091 15.1233 15.9888 15.101C16.2622 15.0265 16.606 14.9392 17.0232 14.6995C17.5264 14.4091 17.5607 14.0536 17.5076 13.8775Z" fill="#FFFC00"/>
<path d="M17.9425 13.7056C17.8316 13.3977 17.6191 13.2343 17.3784 13.0978C17.3331 13.0708 17.2909 13.0486 17.2566 13.0327C17.1847 12.9946 17.1112 12.9581 17.0378 12.9201C16.2862 12.5154 15.6987 12.0044 15.2924 11.3997C15.1549 11.195 15.0596 11.0109 14.9924 10.8601C14.958 10.7586 14.9596 10.7014 14.9846 10.6491C15.0033 10.6094 15.0533 10.5681 15.0814 10.5475C15.2111 10.4602 15.3439 10.3729 15.4346 10.3142C15.5955 10.2079 15.7237 10.1238 15.8049 10.0667C16.1143 9.84765 16.3299 9.61436 16.4643 9.3541C16.655 8.9875 16.6784 8.56854 16.5315 8.17497C16.3284 7.62904 15.819 7.28943 15.2033 7.28943C15.0752 7.28943 14.9455 7.30371 14.8174 7.33228C14.783 7.34021 14.7502 7.34815 14.7174 7.35608C14.7236 6.98473 14.7142 6.58798 14.6814 6.20075C14.5658 4.83595 14.0954 4.12021 13.6048 3.55049C13.4001 3.31244 13.0438 2.96489 12.5094 2.65384C11.7641 2.219 10.9203 2 9.99989 2C9.08265 2 8.23885 2.219 7.49349 2.65225C6.95596 2.9633 6.59969 3.31244 6.39655 3.5489C5.9059 4.11863 5.43556 4.83436 5.31993 6.19917C5.28711 6.58639 5.2793 6.98314 5.28399 7.35449C5.25117 7.34656 5.21679 7.33862 5.18398 7.33069C5.05585 7.30212 4.92459 7.28784 4.79802 7.28784C4.18236 7.28784 3.67295 7.62745 3.46982 8.17338C3.32293 8.56695 3.34637 8.98592 3.53701 9.35251C3.67139 9.61278 3.88859 9.84606 4.19642 10.0651C4.27924 10.1238 4.40581 10.2079 4.56676 10.3126C4.65426 10.3698 4.78083 10.4539 4.90584 10.538C4.92459 10.5507 4.99178 10.6015 5.01522 10.6491C5.04178 10.703 5.04178 10.7618 5.00272 10.8697C4.93709 11.0173 4.84177 11.1982 4.70739 11.3981C4.30893 11.9901 3.73858 12.4916 3.01198 12.8915C2.62602 13.0994 2.22599 13.2375 2.05723 13.704C1.9291 14.0563 2.01348 14.4578 2.33694 14.7959C2.44319 14.9117 2.57758 15.0149 2.74634 15.1101C3.14324 15.3323 3.48076 15.4418 3.7464 15.5164C3.79327 15.5306 3.90109 15.5656 3.94797 15.6084C4.06673 15.7132 4.04954 15.8719 4.20736 16.1035C4.30268 16.248 4.41206 16.3464 4.50269 16.4098C4.8324 16.6415 5.20429 16.6558 5.59807 16.6717C5.95278 16.686 6.35592 16.7018 6.81533 16.8558C7.00596 16.9193 7.20441 17.043 7.43255 17.1859C7.98258 17.5303 8.73731 18 9.99832 18C11.2609 18 12.0188 17.5271 12.5735 17.1827C12.8016 17.0415 12.9985 16.9177 13.1829 16.8558C13.6423 16.7018 14.0454 16.686 14.4001 16.6717C14.7939 16.6558 15.1643 16.6415 15.4955 16.4098C15.5987 16.3368 15.7299 16.2178 15.833 16.0369C15.9455 15.8417 15.944 15.7036 16.0502 15.61C16.094 15.5719 16.1893 15.5386 16.2409 15.5227C16.5081 15.4481 16.8503 15.3386 17.255 15.1117C17.4347 15.0117 17.5738 14.9022 17.6847 14.7768C17.6863 14.7752 17.6878 14.7737 17.6894 14.7721C17.991 14.4388 18.0675 14.05 17.9425 13.7056ZM16.8222 14.3166C16.1377 14.7007 15.683 14.6594 15.3299 14.8895C15.0299 15.0863 15.2064 15.51 14.9892 15.6624C14.7205 15.8512 13.9282 15.6497 12.9047 15.9925C12.0609 16.2765 11.5219 17.0907 10.0014 17.0907C8.47792 17.0907 7.95445 16.2797 7.09815 15.9925C6.07466 15.6497 5.28086 15.8512 5.01366 15.6624C4.79646 15.51 4.97303 15.0863 4.67301 14.8895C4.31987 14.6578 3.86515 14.6991 3.18074 14.3166C2.74477 14.0722 2.99166 13.9214 3.13698 13.85C5.61526 12.6328 6.00903 10.7506 6.02778 10.6094C6.04965 10.4412 6.07309 10.3079 5.89027 10.1349C5.7137 9.96826 4.92771 9.47471 4.71051 9.32077C4.34956 9.06527 4.19173 8.80976 4.30893 8.49554C4.39018 8.27812 4.5902 8.19718 4.80115 8.19718C4.86677 8.19718 4.93397 8.20512 4.99803 8.2194C5.39337 8.30668 5.77776 8.50823 5.99965 8.56219C6.0309 8.57013 6.05747 8.5733 6.08091 8.5733C6.19966 8.5733 6.24029 8.51299 6.23248 8.37493C6.20748 7.93533 6.14497 7.07836 6.21373 6.27693C6.30748 5.17556 6.6575 4.62964 7.07315 4.14561C7.27316 3.91391 8.21072 2.90776 10.003 2.90776C11.8 2.90776 12.7329 3.91391 12.9329 4.14561C13.3485 4.62805 13.6985 5.17397 13.7923 6.27693C13.8611 7.07836 13.8017 7.93533 13.7735 8.37493C13.7642 8.51934 13.8079 8.5733 13.9251 8.5733C13.9486 8.5733 13.9767 8.57013 14.0064 8.56219C14.2283 8.50823 14.6127 8.30668 15.008 8.2194C15.0721 8.20512 15.1392 8.19718 15.2049 8.19718C15.4158 8.19718 15.6158 8.27971 15.6971 8.49554C15.8143 8.80976 15.6549 9.06527 15.2955 9.32077C15.0783 9.47471 14.2923 9.96826 14.1158 10.1349C13.9329 10.3063 13.9564 10.4396 13.9782 10.6094C13.9954 10.7506 14.3908 12.6328 16.869 13.85C17.0097 13.9214 17.2581 14.0722 16.8222 14.3166Z" fill="black"/>
</svg>
