<svg width="20" height="20" viewBox="0 0 20 20" fill="none" xmlns="http://www.w3.org/2000/svg">
<g clip-path="url(#clip0_5147_5479)">
<path d="M15.827 8.88271C12.6522 6.99727 7.41533 6.82391 4.38456 7.74376C3.89785 7.89148 3.38315 7.61662 3.23572 7.13006C3.0882 6.64303 3.36266 6.12871 3.84974 5.98075C7.32886 4.92471 13.1124 5.12865 16.7673 7.29825C17.2051 7.55817 17.3487 8.12353 17.0892 8.56056C16.8295 8.9983 16.2637 9.1426 15.827 8.88271ZM15.723 11.6753C15.5003 12.0367 15.0277 12.1501 14.6668 11.9282C12.0199 10.3012 7.98382 9.82985 4.85239 10.7804C4.44631 10.9031 4.01739 10.6741 3.89404 10.2688C3.77168 9.86275 4.00076 9.43462 4.40611 9.31112C7.98332 8.22562 12.4304 8.75141 15.4704 10.6196C15.8314 10.8419 15.945 11.3147 15.723 11.6753ZM14.5179 14.3572C14.3408 14.6475 13.963 14.7384 13.6737 14.5615C11.3609 13.1479 8.44972 12.8287 5.02132 13.6118C4.69094 13.6875 4.36168 13.4805 4.28633 13.1502C4.21066 12.8199 4.41691 12.4906 4.74801 12.4152C8.4998 11.5575 11.7181 11.9267 14.3141 13.513C14.6036 13.6898 14.6947 14.0679 14.5179 14.3572ZM10.0009 0.151171C4.56135 0.151171 0.151611 4.56081 0.151611 10.0003C0.151611 15.4403 4.56135 19.8496 10.0009 19.8496C15.4405 19.8496 19.85 15.4403 19.85 10.0003C19.85 4.56081 15.4405 0.151171 10.0009 0.151171Z" fill="#1ED760"/>
</g>
<defs>
<clipPath id="clip0_5147_5479">
<rect width="20" height="20" fill="white"/>
</clipPath>
</defs>
</svg>
