<svg width="21" height="20" viewBox="0 0 21 20" fill="none" xmlns="http://www.w3.org/2000/svg">
    <path d="M11.9417 2.9252L13.4083 5.85853C13.6083 6.26686 14.1417 6.65853 14.5917 6.73353L17.25 7.1752C18.95 7.45853 19.35 8.69186 18.125 9.90853L16.0583 11.9752C15.7083 12.3252 15.5167 13.0002 15.625 13.4835L16.2167 16.0419C16.6833 18.0669 15.6083 18.8502 13.8167 17.7919L11.325 16.3169C10.875 16.0502 10.1333 16.0502 9.67499 16.3169L7.18332 17.7919C5.39999 18.8502 4.31665 18.0585 4.78332 16.0419L5.37499 13.4835C5.48332 13.0002 5.29165 12.3252 4.94165 11.9752L2.87499 9.90853C1.65832 8.69186 2.04999 7.45853 3.74999 7.1752L6.40832 6.73353C6.84999 6.65853 7.38332 6.26686 7.58332 5.85853L9.04999 2.9252C9.84999 1.33353 11.15 1.33353 11.9417 2.9252Z" fill="#e87803" stroke="#e87803" stroke-width="1.5" stroke-linecap="round" stroke-linejoin="round"/>
</svg>
