<svg width="18" height="18" viewBox="0 0 18 18" fill="none" xmlns="http://www.w3.org/2000/svg">
<path d="M7 8C6.20888 8 5.43552 7.76541 4.77772 7.32588C4.11992 6.88635 3.60723 6.26164 3.30448 5.53074C3.00173 4.79983 2.92252 3.99556 3.07686 3.21964C3.2312 2.44372 3.61216 1.73098 4.17157 1.17157C4.73098 0.612164 5.44372 0.231202 6.21964 0.0768607C6.99556 -0.0774802 7.79983 0.00173312 8.53074 0.304484C9.26164 0.607234 9.88635 1.11992 10.3259 1.77772C10.7654 2.43552 11 3.20888 11 4C11 5.06087 10.5786 6.07828 9.82843 6.82843C9.07828 7.57857 8.06087 8 7 8ZM7 2C6.60444 2 6.21776 2.1173 5.88886 2.33706C5.55996 2.55683 5.30362 2.86918 5.15224 3.23463C5.00087 3.60009 4.96126 4.00222 5.03843 4.39018C5.1156 4.77814 5.30608 5.13451 5.58579 5.41422C5.86549 5.69392 6.22186 5.8844 6.60982 5.96157C6.99778 6.03874 7.39992 5.99914 7.76537 5.84776C8.13082 5.69639 8.44318 5.44004 8.66294 5.11114C8.8827 4.78224 9 4.39556 9 4C9 3.46957 8.78929 2.96086 8.41422 2.58579C8.03914 2.21072 7.53044 2 7 2Z" fill="white"/>
<path d="M1 18C0.734784 18 0.48043 17.8946 0.292893 17.7071C0.105357 17.5196 0 17.2652 0 17V14C0.00158786 12.6744 0.528882 11.4036 1.46622 10.4662C2.40356 9.52888 3.67441 9.00159 5 9H9C9.26522 9 9.51957 9.10536 9.70711 9.29289C9.89464 9.48043 10 9.73478 10 10C10 10.2652 9.89464 10.5196 9.70711 10.7071C9.51957 10.8946 9.26522 11 9 11H5C4.20435 11 3.44129 11.3161 2.87868 11.8787C2.31607 12.4413 2 13.2044 2 14V17C2 17.2652 1.89464 17.5196 1.70711 17.7071C1.51957 17.8946 1.26522 18 1 18Z" fill="white"/>
<path d="M14 18C13.2089 18 12.4355 17.7654 11.7777 17.3259C11.1199 16.8864 10.6072 16.2616 10.3045 15.5307C10.0017 14.7998 9.92252 13.9956 10.0769 13.2196C10.2312 12.4437 10.6122 11.731 11.1716 11.1716C11.731 10.6122 12.4437 10.2312 13.2196 10.0769C13.9956 9.92252 14.7998 10.0017 15.5307 10.3045C16.2616 10.6072 16.8864 11.1199 17.3259 11.7777C17.7654 12.4355 18 13.2089 18 14C18 15.0609 17.5786 16.0783 16.8284 16.8284C16.0783 17.5786 15.0609 18 14 18ZM14 12C13.6044 12 13.2178 12.1173 12.8889 12.3371C12.56 12.5568 12.3036 12.8692 12.1522 13.2346C12.0009 13.6001 11.9613 14.0022 12.0384 14.3902C12.1156 14.7781 12.3061 15.1345 12.5858 15.4142C12.8655 15.6939 13.2219 15.8844 13.6098 15.9616C13.9978 16.0387 14.3999 15.9991 14.7654 15.8478C15.1308 15.6964 15.4432 15.44 15.6629 15.1111C15.8827 14.7822 16 14.3956 16 14C16 13.4696 15.7893 12.9609 15.4142 12.5858C15.0391 12.2107 14.5304 12 14 12Z" fill="white"/>
</svg>
