<svg width="34" height="25" viewBox="0 0 34 25" fill="none" xmlns="http://www.w3.org/2000/svg">
<path d="M0.542561 4.84049C0.542561 2.74295 2.24295 1.04256 4.34049 1.04256H29.6595C31.757 1.04256 33.4574 2.74295 33.4574 4.84049V20.1595C33.4574 22.257 31.757 23.9574 29.6595 23.9574H4.34049C2.24295 23.9574 0.542561 22.257 0.542561 20.1595V4.84049Z" fill="white"/>
<path d="M0.542561 4.84049C0.542561 2.74295 2.24295 1.04256 4.34049 1.04256H29.6595C31.757 1.04256 33.4574 2.74295 33.4574 4.84049V20.1595C33.4574 22.257 31.757 23.9574 29.6595 23.9574H4.34049C2.24295 23.9574 0.542561 22.257 0.542561 20.1595V4.84049Z" stroke="#E5E7EB" stroke-width="1.08512"/>
<path d="M25.7001 10.8037L24.3376 16.0114L24.3323 16.0218H25.3966L26.7641 10.8037H25.7001Z" fill="#292929"/>
<path d="M8.82415 13.7663C8.68378 13.8403 8.4925 13.8835 8.31126 13.8835C7.92868 13.8835 7.7116 13.8222 7.68882 13.5137V13.4933C7.68882 13.4805 7.68614 13.4678 7.68614 13.4551V12.5569L7.68882 12.4497V11.8146H7.68614V11.5442L7.68882 11.437V10.8243L6.73975 10.9492C7.38262 10.8243 7.75012 10.3164 7.75012 9.81122V9.5H6.68347V10.9569L6.62216 10.9747V13.6742C6.65801 14.4319 7.15784 14.8835 7.97692 14.8835C8.26771 14.8835 8.58663 14.8172 8.83152 14.7073L8.83655 14.7046V13.7579L8.82415 13.7663Z" fill="#292929"/>
<path d="M8.99278 10.6074L5.99985 11.0691V11.8268L8.99278 11.3652V10.6074Z" fill="#292929"/>
<path d="M8.99278 11.7173L5.99985 12.1789V12.9035L8.99278 12.4419V11.7173Z" fill="#292929"/>
<path d="M12.3482 12.0666C12.305 11.2248 11.7794 10.7246 10.9218 10.7246C10.4293 10.7246 10.0209 10.9159 9.74556 11.2757C9.46986 11.6355 9.32446 12.1635 9.32446 12.804C9.32446 13.4445 9.46986 13.9752 9.74556 14.3323C10.0213 14.6921 10.4293 14.8834 10.9218 14.8834C11.779 14.8834 12.3073 14.3809 12.3482 13.5336V14.8043H13.4149V10.811L12.3482 10.9742M12.4042 12.804C12.4042 13.5517 12.0112 14.0338 11.4065 14.0338C10.7814 14.0338 10.4089 13.5745 10.4089 12.804C10.4089 12.0308 10.7814 11.5665 11.4065 11.5665C11.71 11.5665 11.9653 11.6837 12.1415 11.9085C12.3124 12.1306 12.4042 12.4392 12.4042 12.804Z" fill="#292929"/>
<path d="M16.5249 10.7249C15.6649 10.7249 15.1393 11.2251 15.0984 12.0696V9.65088L14.0318 9.81403V14.8049H15.0984V13.5343C15.1393 14.3815 15.6673 14.884 16.5249 14.884C17.5302 14.884 18.1299 14.1058 18.1299 12.8046C18.1299 11.5035 17.5299 10.7249 16.5249 10.7249ZM16.0398 14.0341C15.4324 14.0341 15.0421 13.552 15.0421 12.8043C15.0421 12.4395 15.1339 12.1306 15.3048 11.9112C15.481 11.6867 15.7359 11.5691 16.0398 11.5691C16.6649 11.5691 17.0374 12.0311 17.0374 12.8066C17.0374 13.5748 16.6649 14.0341 16.0398 14.0341Z" fill="#292929"/>
<path d="M21.0306 10.7249C20.1707 10.7249 19.6451 11.2251 19.6042 12.0696V9.65088L18.5375 9.81403V14.8049H19.6042V13.5343C19.6451 14.3815 20.173 14.884 21.0306 14.884C22.036 14.884 22.6357 14.1058 22.6357 12.8046C22.6357 11.5035 22.036 10.7249 21.0306 10.7249ZM20.5482 14.0341C19.9409 14.0341 19.5506 13.552 19.5506 12.8043C19.5506 12.4395 19.6424 12.1306 19.8132 11.9112C19.9894 11.6867 20.2444 11.5691 20.5482 11.5691C21.1734 11.5691 21.5459 12.0311 21.5459 12.8066C21.5459 13.5748 21.1734 14.0341 20.5482 14.0341Z" fill="#292929"/>
<path d="M22.6381 10.8037H23.7761L24.7024 14.7993H23.6816L22.6381 10.8037Z" fill="#292929"/>
</svg>
