<svg width="34" height="25" viewBox="0 0 34 25" fill="none" xmlns="http://www.w3.org/2000/svg">
<path d="M0.542561 4.84049C0.542561 2.74295 2.24295 1.04256 4.34049 1.04256H29.6595C31.757 1.04256 33.4574 2.74295 33.4574 4.84049V20.1595C33.4574 22.257 31.757 23.9574 29.6595 23.9574H4.34049C2.24295 23.9574 0.542561 22.257 0.542561 20.1595V4.84049Z" fill="white"/>
<path d="M0.542561 4.84049C0.542561 2.74295 2.24295 1.04256 4.34049 1.04256H29.6595C31.757 1.04256 33.4574 2.74295 33.4574 4.84049V20.1595C33.4574 22.257 31.757 23.9574 29.6595 23.9574H4.34049C2.24295 23.9574 0.542561 22.257 0.542561 20.1595V4.84049Z" stroke="#E5E7EB" stroke-width="1.08512"/>
<g clip-path="url(#clip0_13488_26853)">
<path d="M17.2087 11.3168C16.839 11.1761 16.4812 11.1076 16.031 11.2044C15.6793 11.2794 15.3968 11.4231 15.2115 11.7808C15.2933 11.8481 15.3664 11.9119 15.4379 11.9752C15.5556 12.079 15.678 12.1857 15.8414 12.3099C15.9707 12.1228 16.1971 11.9119 16.4393 11.9071C16.7204 11.9014 16.99 12.0586 17.0345 12.2886C17.0525 12.3841 17.0649 12.7782 17.0649 12.7782L16.9173 12.8103C16.8882 12.8212 16.8561 12.8212 16.8265 12.8103L16.8034 12.8012L16.7846 12.7938C16.4816 12.6749 16.1603 12.6115 15.8354 12.6068C15.7263 12.6068 15.6172 12.6154 15.5094 12.6324C15.1781 12.6853 14.784 12.875 14.7909 13.4809C14.7934 13.7114 14.8409 13.8842 14.9411 14.0248C15.0292 14.1529 15.1469 14.257 15.2843 14.3282C15.4216 14.3994 15.5736 14.435 15.7276 14.4319C16.1038 14.4437 16.4714 14.3139 16.7589 14.0682C16.7649 14.0634 16.8334 14.0027 16.8535 13.987L17.0568 13.8273V14.428H17.9045V12.3285C17.9049 11.8533 17.6495 11.4856 17.2091 11.3176L17.2087 11.3168ZM16.9468 13.29C16.7658 13.619 16.4701 13.8047 16.1303 13.8047H16.0871C16.0156 13.8034 15.9446 13.7939 15.8748 13.7774C15.6206 13.7097 15.476 13.5022 15.4867 13.2231L15.4918 13.1011H17.0504L16.9468 13.29Z" fill="black"/>
<path d="M26.0638 11.3168C25.6941 11.1761 25.3363 11.1076 24.8866 11.2044C24.5344 11.2794 24.2519 11.4231 24.0671 11.7808C24.1488 11.8481 24.222 11.9119 24.2935 11.9752C24.4116 12.079 24.5335 12.1857 24.697 12.3099C24.8262 12.1228 25.053 11.9119 25.2948 11.9071C25.5764 11.9014 25.8456 12.0586 25.8901 12.2886C25.9081 12.3841 25.9205 12.7782 25.9205 12.7782L25.7733 12.8103C25.7442 12.8212 25.7121 12.8212 25.6825 12.8103C25.6753 12.8077 25.6671 12.8047 25.6594 12.8012L25.6402 12.7938C25.3372 12.6749 25.0158 12.6115 24.691 12.6068C24.5819 12.6068 24.4728 12.6154 24.3649 12.6324C24.0337 12.6853 23.6396 12.875 23.6464 13.4809C23.649 13.7114 23.6969 13.8842 23.7966 14.0248C23.8848 14.1529 24.0025 14.257 24.1398 14.3282C24.2768 14.3994 24.4291 14.435 24.5832 14.4319C24.9598 14.4437 25.3269 14.3139 25.6149 14.0682C25.6205 14.0634 25.6894 14.0027 25.7091 13.987L25.9123 13.8273V14.428H26.7601V12.3285C26.7601 11.8533 26.5046 11.4856 26.0643 11.3176L26.0638 11.3168ZM25.8019 13.29C25.6213 13.619 25.3252 13.8047 24.9859 13.8047H24.9426C24.8712 13.8034 24.8001 13.7939 24.7308 13.7774C24.4762 13.7097 24.3315 13.5022 24.3427 13.2231L24.3478 13.1011H25.9059L25.8019 13.29Z" fill="black"/>
<path d="M31.8559 11.3168C31.4861 11.1761 31.1284 11.1076 30.6782 11.2044C30.3264 11.2794 30.044 11.4231 29.8587 11.7808C29.9404 11.8481 30.0136 11.9119 30.0851 11.9752C30.2028 12.079 30.3252 12.1857 30.4886 12.3099C30.6179 12.1228 30.8442 11.9119 31.0865 11.9071C31.368 11.9014 31.6372 12.0586 31.6817 12.2886C31.6997 12.3841 31.7121 12.7782 31.7121 12.7782L31.5645 12.8103C31.5354 12.8212 31.5033 12.8212 31.4742 12.8103C31.4669 12.8077 31.4588 12.8047 31.4511 12.8012L31.4318 12.7938C31.1288 12.6749 30.8074 12.6115 30.4826 12.6068C30.3735 12.6068 30.2644 12.6154 30.1565 12.6324C29.8253 12.6853 29.4312 12.875 29.438 13.4809C29.4406 13.7114 29.4881 13.8842 29.5883 14.0248C29.6764 14.1529 29.7941 14.257 29.9315 14.3282C30.0684 14.3994 30.2207 14.435 30.3748 14.4319C30.7514 14.4437 31.1185 14.3139 31.4065 14.0682C31.4121 14.0634 31.481 14.0027 31.5007 13.987L31.704 13.8273V14.428H32.5517V12.3285C32.5521 11.8533 32.2967 11.4856 31.8563 11.3176L31.8559 11.3168ZM31.594 13.29C31.413 13.619 31.1173 13.8047 30.7775 13.8047H30.7343C30.6628 13.8034 30.5918 13.7939 30.522 13.7774C30.2678 13.7097 30.1232 13.5022 30.1339 13.2231L30.139 13.1011H31.6967L31.594 13.29Z" fill="black"/>
<path d="M29.0823 11.4292C28.808 11.4418 28.6124 11.5633 28.4832 11.8029C28.4691 11.8289 28.3775 12.0112 28.3775 12.0112L28.1742 11.9635V11.4717H27.3547V14.4337H28.1768V13.2769C28.1768 13.1784 28.1704 13.0768 28.1768 12.9748C28.1888 12.7964 28.2615 12.628 28.3831 12.4982C28.5046 12.3685 28.6664 12.286 28.8414 12.2643C28.9561 12.2478 29.2449 12.2465 29.2762 12.2461V11.4279C29.2077 11.427 29.1448 11.4266 29.0823 11.4296V11.4292Z" fill="black"/>
<path d="M14.1527 13.7419C14.0804 13.7406 14.0085 13.735 13.9371 13.7246C13.7214 13.6885 13.5836 13.5809 13.5249 13.4038C13.4984 13.3296 13.4839 13.2519 13.4817 13.1733V11.8508L13.6088 11.8451C13.881 11.8317 14.1698 11.8113 14.4437 11.7344L14.2691 11.1302L13.4817 11.2487V10.3594H12.5518V11.2487H11.9236V11.8586H12.5518C12.5518 11.8586 12.5518 13.116 12.557 13.4372C12.5574 13.6334 12.6134 13.8253 12.7179 13.9902C12.8428 14.1829 13.0247 14.3036 13.2904 14.3704C13.5763 14.4416 13.8664 14.4381 14.1728 14.4347H14.246V13.7458H14.2105L14.1523 13.7424L14.1527 13.7419Z" fill="black"/>
<path d="M21.2748 12.765C21.2748 12.4659 21.4734 12.2298 21.743 12.2042C22.0682 12.173 22.2968 12.3379 22.3554 12.6448C22.3639 12.6986 22.3678 12.7533 22.3661 12.808V14.4296H23.1856V12.4264C23.1864 12.3301 23.1787 12.2337 23.1625 12.1387C23.0944 11.7715 22.9001 11.5475 22.5728 11.4529C22.218 11.3522 21.6236 11.4277 21.3476 11.9169L21.2218 12.1721C21.1495 11.8058 20.9428 11.5401 20.6133 11.4442C20.2585 11.3435 19.7236 11.4281 19.4484 11.9173L19.3252 12.1361V11.4707H18.4676V14.433H19.3217V12.8262C19.3217 12.7706 19.3252 12.7155 19.332 12.6604C19.3419 12.5567 19.3834 12.4586 19.4506 12.3796C19.5177 12.3006 19.6076 12.2446 19.7073 12.2198C19.941 12.1586 20.184 12.2346 20.3111 12.4099C20.3865 12.5232 20.4233 12.6582 20.416 12.7949V14.4313H21.2753V12.765H21.2748Z" fill="black"/>
<path d="M2.73119 11.5114C2.56087 11.6915 2.42779 11.9038 2.3392 12.1364L5.05702 14.4212C5.19096 14.3379 5.31335 14.2381 5.42248 14.1235L5.47554 14.0675C6.50515 12.9776 5.82902 11.7966 5.41863 11.3994C5.06216 11.0535 4.58458 10.8651 4.09117 10.8759C3.59776 10.8868 3.12874 11.0956 2.78725 11.4567L2.73162 11.5114H2.73119Z" fill="black"/>
<path d="M8.33564 14.6839C9.3751 14.6839 10.2173 13.8297 10.2173 12.7762C10.2173 11.7228 9.37467 10.8682 8.33564 10.8682C7.29662 10.8682 6.45358 11.7224 6.45358 12.7762C6.45358 13.8301 7.29619 14.6839 8.33564 14.6839Z" fill="black"/>
</g>
<defs>
<clipPath id="clip0_13488_26853">
<rect width="30.3834" height="4.34049" fill="white" transform="translate(2.2551 10.3511)"/>
</clipPath>
</defs>
</svg>
