<svg width="20" height="20" viewBox="0 0 20 20" fill="none" xmlns="http://www.w3.org/2000/svg">
<g clip-path="url(#clip0_5147_6899)">
<path d="M10.0078 20.0156C15.5349 20.0156 20.0156 15.5349 20.0156 10.0078C20.0156 4.48064 15.5349 0 10.0078 0C4.48064 0 0 4.48064 0 10.0078C0 15.5349 4.48064 20.0156 10.0078 20.0156Z" fill="url(#paint0_linear_5147_6899)"/>
<path fill-rule="evenodd" clip-rule="evenodd" d="M4.52057 9.89911C7.43562 8.62085 9.38417 7.79466 10.3662 7.38936C13.141 6.23582 13.7178 6.03317 14.0919 6.01758C14.1698 6.01758 14.3569 6.03317 14.4816 6.1267C14.5751 6.20464 14.6063 6.31376 14.6219 6.3917C14.6375 6.46964 14.6531 6.64112 14.6375 6.78141C14.4816 8.35585 13.8425 12.2062 13.4995 13.9677C13.3592 14.7159 13.0786 14.9654 12.8136 14.9965C12.2369 15.0433 11.7848 14.6068 11.2236 14.2483C10.3507 13.6715 9.85183 13.313 8.99446 12.7518C8.01239 12.0971 8.65152 11.7385 9.2127 11.1618C9.353 11.0059 11.9251 8.68321 11.9719 8.46497C11.9719 8.43379 11.9874 8.34026 11.9251 8.29349C11.8627 8.24673 11.7848 8.26232 11.7224 8.27791C11.6289 8.29349 10.226 9.2288 7.49797 11.0682C7.09267 11.3488 6.73414 11.4735 6.40678 11.4735C6.04824 11.4735 5.36235 11.2709 4.84793 11.0994C4.22439 10.8968 3.72556 10.7876 3.77233 10.4447C3.8035 10.2732 4.05292 10.0862 4.52057 9.89911Z" fill="white"/>
</g>
<defs>
<linearGradient id="paint0_linear_5147_6899" x1="0" y1="10.0005" x2="20.0011" y2="10.0005" gradientUnits="userSpaceOnUse">
<stop stop-color="#2AABEE"/>
<stop offset="1" stop-color="#229ED9"/>
</linearGradient>
<clipPath id="clip0_5147_6899">
<rect width="20" height="20" fill="white"/>
</clipPath>
</defs>
</svg>
