<svg width="20" height="20" viewBox="0 0 20 20" fill="none" xmlns="http://www.w3.org/2000/svg">
<g clip-path="url(#clip0_5147_2784)">
<path d="M7.78585 7.87495V7.09435C7.48268 7.05773 7.17497 7.03516 6.86101 7.03516C3.07709 7.03516 -0.00170898 9.7557 -0.00170898 13.0998C-0.00170898 15.1516 1.15816 16.9672 2.92835 18.0648C1.78607 16.9812 1.08549 15.5299 1.08549 13.9356C1.08549 10.6396 4.07686 7.9517 7.78641 7.87495H7.78585Z" fill="#25F4EE"/>
<path d="M7.94782 16.7055C9.63625 16.7055 11.0136 15.5186 11.076 14.0402L11.0823 0.836281H13.8119C13.7551 0.564878 13.7239 0.285951 13.7239 0H9.99562L9.98938 13.2039C9.92693 14.6823 8.54961 15.8693 6.86118 15.8693C6.3366 15.8693 5.84211 15.7534 5.40723 15.5512C5.97666 16.249 6.90206 16.7055 7.94782 16.7055Z" fill="#25F4EE"/>
<path d="M18.9112 5.31821V4.58427C17.87 4.58427 16.8997 4.31086 16.0862 3.8418C16.8106 4.57674 17.7945 5.107 18.9112 5.31821Z" fill="#25F4EE"/>
<path d="M16.0868 3.84143C15.2931 3.03625 14.8111 1.98526 14.8111 0.835938H13.8125C14.0754 2.09111 14.9184 3.16819 16.0868 3.84143Z" fill="#FE2C55"/>
<path d="M6.86112 10.3303C5.13295 10.3303 3.72668 11.5729 3.72668 13.1C3.72668 14.1635 4.40966 15.0876 5.40717 15.5511C5.0353 15.0956 4.81389 14.5388 4.81389 13.9358C4.81389 12.4087 6.22016 11.166 7.94833 11.166C8.2708 11.166 8.58021 11.2132 8.87316 11.294V7.93029C8.56999 7.89367 8.26228 7.87109 7.94833 7.87109C7.89382 7.87109 7.84046 7.8736 7.78652 7.87461V10.4577C7.49357 10.3769 7.18416 10.3298 6.86169 10.3298L6.86112 10.3303Z" fill="#FE2C55"/>
<path d="M18.9113 5.31836V7.87887C16.9782 7.87887 15.1864 7.33256 13.7239 6.40497V13.1007C13.7239 16.4449 10.6451 19.1649 6.86121 19.1649C5.39874 19.1649 4.043 18.7575 2.92798 18.0657C4.18153 19.2552 5.96761 20.0007 7.94785 20.0007C11.7323 20.0007 14.8106 17.2801 14.8106 13.9365V7.24125C16.273 8.16884 18.0648 8.71515 19.9979 8.71515V5.4202C19.6249 5.4202 19.2616 5.38458 18.9113 5.31836Z" fill="#FE2C55"/>
<path d="M13.7239 13.1002V6.40445C15.1864 7.33204 16.9781 7.87835 18.9112 7.87835V5.31784C17.7945 5.10664 16.8106 4.57688 16.0862 3.84143C14.9178 3.16819 14.0747 2.09161 13.8119 0.835938H11.0822L11.076 14.0398C11.0135 15.5183 9.63624 16.7052 7.94781 16.7052C6.90205 16.7052 5.97665 16.2487 5.40721 15.5509C4.40971 15.0868 3.72673 14.1627 3.72673 13.0997C3.72673 11.5726 5.133 10.33 6.86117 10.33C7.18364 10.33 7.49305 10.3772 7.786 10.4579V7.87484C4.07645 7.9516 1.08508 10.6395 1.08508 13.9355C1.08508 15.5298 1.78566 16.9811 2.92794 18.0647C4.04239 18.756 5.3987 19.1639 6.86117 19.1639C10.6451 19.1639 13.7239 16.4433 13.7239 13.0997V13.1002Z" fill="black"/>
</g>
<defs>
<clipPath id="clip0_5147_2784">
<rect width="20" height="20" fill="white"/>
</clipPath>
</defs>
</svg>
