<svg xmlns="http://www.w3.org/2000/svg" width="24.545" height="23.259" viewBox="0 0 24.545 23.259">
  <g id="svgexport-7_1_" data-name="svgexport-7 (1)" transform="translate(-2.227 -2.251)">
    <g id="image-upload" transform="translate(2.227 2.251)">
      <path id="Path_2681" data-name="Path 2681" d="M26.744,10.328V20.523a4.246,4.246,0,0,1-4.709,4.709H6.965a4.246,4.246,0,0,1-4.709-4.709V7.965A4.246,4.246,0,0,1,6.965,3.256H18.016a.377.377,0,0,1,.358.458,5.635,5.635,0,0,0,7.854,6.26.377.377,0,0,1,.516.354Z" transform="translate(-2.227 -2.001)" fill="#727272" opacity="0.4"/>
      <path id="Path_2682" data-name="Path 2682" d="M24.36,15.376,18.769,9.785a1.263,1.263,0,0,0-1.783,0l-6.2,6.2a.628.628,0,0,1-.879,0l-1.18-1.18a1.263,1.263,0,0,0-1.783,0L3.861,17.887a.377.377,0,0,0-.111.266v.786c0,1.984.841,2.826,2.826,2.826h15.07c1.984,0,2.826-.841,2.826-2.826v-3.3a.377.377,0,0,0-.111-.266Z" transform="translate(-1.838 -0.418)" fill="#727272"/>
      <path id="Path_2683" data-name="Path 2683" d="M8.321,10.889A1.57,1.57,0,0,1,8.31,7.75h.011a1.57,1.57,0,1,1,0,3.139Z" transform="translate(-1.071 -0.844)" fill="#727272"/>
      <path id="Path_2684" data-name="Path 2684" d="M22.62,4.41,20.736,2.526a.943.943,0,0,0-1.331,0L17.521,4.41a.942.942,0,0,0,1.331,1.331l.276-.275V8.215a.942.942,0,1,0,1.884,0V5.466l.276.275A.942.942,0,0,0,22.62,4.41Z" transform="translate(1.62 -2.251)" fill="#727272"/>
    </g>
  </g>
</svg>
