<svg width="52" height="52" viewBox="0 0 52 52" fill="none" xmlns="http://www.w3.org/2000/svg">
<g clip-path="url(#clip0_1792_15161)">
<path d="M26 30.3333C18.85 30.3333 13 24.4833 13 17.3333C13 10.1833 18.85 4.33334 26 4.33334C33.15 4.33334 39 10.1833 39 17.3333C39 24.4833 33.15 30.3333 26 30.3333ZM26 8.66668C21.2333 8.66668 17.3333 12.5667 17.3333 17.3333C17.3333 22.1 21.2333 26 26 26C30.7667 26 34.6667 22.1 34.6667 17.3333C34.6667 12.5667 30.7667 8.66668 26 8.66668Z" fill="#D93502"/>
<path d="M45.4999 47.6667C44.1999 47.6667 43.3332 46.8 43.3332 45.5C43.3332 37.05 36.6166 30.3333 28.1666 30.3333H23.8333C15.3833 30.3333 8.66658 37.05 8.66658 45.5C8.66658 46.8 7.79992 47.6667 6.49992 47.6667C5.19992 47.6667 4.33325 46.8 4.33325 45.5C4.33325 34.6667 12.9999 26 23.8333 26H28.1666C38.9999 26 47.6666 34.6667 47.6666 45.5C47.6666 46.8 46.7999 47.6667 45.4999 47.6667Z" fill="#D93502"/>
</g>
<defs>
<clipPath id="clip0_1792_15161">
<rect width="52" height="52" fill="white"/>
</clipPath>
</defs>
</svg>
