<svg width="27" height="26" viewBox="0 0 27 26" fill="none" xmlns="http://www.w3.org/2000/svg">
<g clip-path="url(#clip0_1782_14658)">
<path d="M3.76515 5C2.79924 5 2 5.79924 2 6.76515V19.2273C2 20.1932 2.79924 21 3.76515 21H23.5076C24.4735 21 25.2727 20.1932 25.2727 19.2273V6.76515C25.2727 5.79924 24.4735 5 23.5076 5H3.76515ZM3.76515 6.45455H23.5076C23.6928 6.45455 23.8182 6.5799 23.8182 6.76515V19.2273C23.8182 19.4125 23.6928 19.5455 23.5076 19.5455H3.76515C3.5799 19.5455 3.45455 19.4125 3.45455 19.2273V6.76515C3.45455 6.5799 3.5799 6.45455 3.76515 6.45455ZM17.5152 7.90909C15.9171 7.90909 14.6061 9.22015 14.6061 10.8182C14.6061 11.7377 15.0391 12.5641 15.7121 13.0985C13.9412 13.7784 12.6667 15.419 12.6667 17.3636C12.6667 17.5565 12.7433 17.7415 12.8797 17.8779C13.0161 18.0143 13.2011 18.0909 13.3939 18.0909H21.6364C21.8292 18.0909 22.0142 18.0143 22.1506 17.8779C22.287 17.7415 22.3636 17.5565 22.3636 17.3636C22.3636 15.419 21.0891 13.7784 19.3182 13.0985C19.9912 12.5641 20.4242 11.7377 20.4242 10.8182C20.4242 9.22015 19.1132 7.90909 17.5152 7.90909ZM5.56061 8.87879C5.46509 8.88375 5.37148 8.90747 5.28513 8.94861C5.19879 8.98975 5.12139 9.04749 5.05736 9.11855C4.99333 9.1896 4.94392 9.27257 4.91196 9.36272C4.88 9.45287 4.86611 9.54843 4.87109 9.64395C4.87606 9.73946 4.8998 9.83307 4.94096 9.91941C4.98211 10.0057 5.03987 10.0831 5.11093 10.1472C5.182 10.2112 5.26497 10.2606 5.35513 10.2925C5.44528 10.3245 5.54085 10.3383 5.63636 10.3333H10.9697C11.0661 10.3347 11.1618 10.3169 11.2512 10.281C11.3406 10.245 11.422 10.1917 11.4906 10.124C11.5593 10.0563 11.6138 9.97569 11.651 9.88678C11.6882 9.79786 11.7073 9.70244 11.7073 9.60606C11.7073 9.50968 11.6882 9.41426 11.651 9.32534C11.6138 9.23643 11.5593 9.1558 11.4906 9.08813C11.422 9.02046 11.3406 8.9671 11.2512 8.93117C11.1618 8.89523 11.0661 8.87742 10.9697 8.87879H5.63636C5.61113 8.87747 5.58584 8.87747 5.56061 8.87879ZM17.5152 9.36364C18.3271 9.36364 18.9697 10.0062 18.9697 10.8182C18.9697 11.6301 18.3271 12.2727 17.5152 12.2727C16.7032 12.2727 16.0606 11.6301 16.0606 10.8182C16.0606 10.0062 16.7032 9.36364 17.5152 9.36364ZM5.56061 12.2727C5.46509 12.2777 5.37148 12.3014 5.28513 12.3425C5.19879 12.3837 5.12139 12.4414 5.05736 12.5125C4.99333 12.5835 4.94392 12.6665 4.91196 12.7567C4.88 12.8468 4.86611 12.9424 4.87109 13.0379C4.87606 13.1334 4.8998 13.227 4.94096 13.3133C4.98211 13.3997 5.03987 13.4771 5.11093 13.5411C5.182 13.6051 5.26497 13.6545 5.35513 13.6864C5.44528 13.7184 5.54085 13.7323 5.63636 13.7273H10.9697C11.0661 13.7286 11.1618 13.7108 11.2512 13.6749C11.3406 13.639 11.422 13.5856 11.4906 13.5179C11.5593 13.4503 11.6138 13.3696 11.651 13.2807C11.6882 13.1918 11.7073 13.0964 11.7073 13C11.7073 12.9036 11.6882 12.8082 11.651 12.7193C11.6138 12.6304 11.5593 12.5497 11.4906 12.4821C11.422 12.4144 11.3406 12.361 11.2512 12.3251C11.1618 12.2892 11.0661 12.2714 10.9697 12.2727H5.63636C5.61113 12.2714 5.58584 12.2714 5.56061 12.2727ZM17.5152 14.2121C19.146 14.2121 20.462 15.2546 20.8106 16.6364H14.2197C14.5683 15.2546 15.8843 14.2121 17.5152 14.2121ZM5.56061 15.6667C5.46509 15.6716 5.37148 15.6954 5.28513 15.7365C5.19879 15.7776 5.12139 15.8354 5.05736 15.9064C4.99333 15.9775 4.94392 16.0604 4.91196 16.1506C4.88 16.2407 4.86611 16.3363 4.87109 16.4318C4.87606 16.5273 4.8998 16.6209 4.94096 16.7073C4.98211 16.7936 5.03987 16.871 5.11093 16.935C5.182 16.9991 5.26497 17.0484 5.35513 17.0804C5.44528 17.1123 5.54085 17.1262 5.63636 17.1212H10.9697C11.0661 17.1226 11.1618 17.1048 11.2512 17.0688C11.3406 17.0329 11.422 16.9795 11.4906 16.9119C11.5593 16.8442 11.6138 16.7636 11.651 16.6747C11.6882 16.5857 11.7073 16.4903 11.7073 16.3939C11.7073 16.2976 11.6882 16.2021 11.651 16.1132C11.6138 16.0243 11.5593 15.9437 11.4906 15.876C11.422 15.8083 11.3406 15.755 11.2512 15.719C11.1618 15.6831 11.0661 15.6653 10.9697 15.6667H5.63636C5.61113 15.6654 5.58584 15.6654 5.56061 15.6667Z" fill="#818181"/>
</g>
<defs>
<clipPath id="clip0_1782_14658">
<rect width="27" height="26" fill="white"/>
</clipPath>
</defs>
</svg>
