<svg width="25" height="24" viewBox="0 0 25 24" fill="none" xmlns="http://www.w3.org/2000/svg">
<path d="M3.67889 23.2498C2.19307 21.7168 1.3286 19.6872 1.25271 17.5537C1.17682 15.4201 1.89491 13.3343 3.26806 11.6996C4.64121 10.0649 6.57184 8.99751 8.68646 8.704C10.8011 8.41048 12.9494 8.91166 14.7159 10.1106L16.5658 11.8067C16.99 12.3272 17.3519 12.8954 17.6443 13.4998L17 22.1117C16.7232 22.5167 16.4124 22.8975 16.0711 23.2498H3.67889Z" fill="#2D9739"/>
<path d="M17.6443 13.5C17.3519 12.8955 16.99 12.3273 16.5658 11.8068L14.7159 10.1103L14.6833 10.0882C13.5933 9.36145 12.3126 8.97363 11.0026 8.97363C9.69263 8.97363 8.41194 9.36145 7.32201 10.0882C6.27373 10.7913 5.39255 11.7159 4.74064 12.7967C4.08873 13.8775 3.68199 15.0883 3.54913 16.3435C3.41628 17.5987 3.56053 18.8677 3.97173 20.0611C4.38292 21.2545 5.05102 22.343 5.92889 23.25H16.0711C16.4124 22.8976 16.7232 22.5168 17 22.1118L17.6443 13.5Z" fill="#44BC59"/>
<path d="M17.1774 12.6604C16.991 12.3637 16.7867 12.0787 16.5658 11.8069L15.7382 11.0479C15.3398 11.3199 14.9078 11.5391 14.453 11.7L12.8135 12.2587C12.7213 12.291 12.6415 12.3513 12.5853 12.4312C12.5291 12.5111 12.4993 12.6065 12.5 12.7042V15.2805C12.4984 15.3627 12.5188 15.4439 12.5593 15.5154C12.5998 15.587 12.6588 15.6464 12.7302 15.6873C12.8015 15.7282 12.8825 15.7492 12.9648 15.748C13.047 15.7468 13.1274 15.7236 13.1975 15.6806L14.8449 14.6509C15.7129 14.1013 16.4982 13.4311 17.1774 12.6604Z" fill="#2D9739"/>
<path d="M11.75 7.125H8C7.58579 7.125 7.25 7.46079 7.25 7.875C7.25 8.28921 7.58579 8.625 8 8.625H11.75C12.1642 8.625 12.5 8.28921 12.5 7.875C12.5 7.46079 12.1642 7.125 11.75 7.125Z" fill="#FFC239"/>
<path d="M9.875 20.625C12.3603 20.625 14.375 18.6103 14.375 16.125C14.375 13.6397 12.3603 11.625 9.875 11.625C7.38972 11.625 5.375 13.6397 5.375 16.125C5.375 18.6103 7.38972 20.625 9.875 20.625Z" fill="#ABE4A3"/>
<path d="M9.87501 11.625C9.00264 11.6243 8.14911 11.8788 7.41951 12.357C6.85373 13.2213 6.6028 14.2541 6.70891 15.2816C6.81502 16.3092 7.2717 17.2689 8.00216 17.9994C8.73262 18.7298 9.69231 19.1865 10.7199 19.2926C11.7474 19.3987 12.7802 19.1478 13.6445 18.582C14.0882 17.9032 14.3401 17.1171 14.3735 16.3069C14.4069 15.4966 14.2206 14.6925 13.8343 13.9795C13.448 13.2665 12.876 12.6712 12.179 12.2567C11.482 11.8423 10.6859 11.624 9.87501 11.625Z" fill="#CDF8C8"/>
<path d="M8.00001 7.125L6.95751 5.25C6.70064 4.62675 7.05089 3.75 7.62501 3.75H12.125C12.6991 3.75 13.0494 4.62675 12.7925 5.25L11.75 7.125H8.00001ZM9.87501 15.75C9.72668 15.75 9.58167 15.706 9.45833 15.6236C9.335 15.5412 9.23887 15.4241 9.1821 15.287C9.12534 15.15 9.11048 14.9992 9.13942 14.8537C9.16836 14.7082 9.23979 14.5746 9.34468 14.4697C9.44957 14.3648 9.58321 14.2934 9.72869 14.2644C9.87418 14.2355 10.025 14.2503 10.162 14.3071C10.2991 14.3639 10.4162 14.46 10.4986 14.5833C10.581 14.7067 10.625 14.8517 10.625 15H11.375C11.3738 14.6684 11.2627 14.3466 11.0591 14.0848C10.8556 13.8231 10.5711 13.6361 10.25 13.5532V13.125H9.50001V13.5532C9.1469 13.6441 8.8391 13.8608 8.63438 14.1625C8.42966 14.4642 8.34209 14.8303 8.38812 15.192C8.43415 15.5537 8.61061 15.8862 8.88438 16.127C9.15814 16.3678 9.51039 16.5005 9.87501 16.5C10.0233 16.5 10.1684 16.544 10.2917 16.6264C10.415 16.7088 10.5112 16.8259 10.5679 16.963C10.6247 17.1 10.6395 17.2508 10.6106 17.3963C10.5817 17.5418 10.5102 17.6754 10.4053 17.7803C10.3005 17.8852 10.1668 17.9566 10.0213 17.9856C9.87584 18.0145 9.72504 17.9997 9.588 17.9429C9.45095 17.8861 9.33382 17.79 9.25141 17.6667C9.169 17.5433 9.12501 17.3983 9.12501 17.25H8.37501C8.37625 17.5816 8.48733 17.9034 8.69087 18.1652C8.89442 18.4269 9.17896 18.6139 9.50001 18.6968V19.125H10.25V18.6968C10.6031 18.6059 10.9109 18.3892 11.1156 18.0875C11.3204 17.7858 11.4079 17.4197 11.3619 17.058C11.3159 16.6963 11.1394 16.3638 10.8656 16.123C10.5919 15.8822 10.2396 15.7495 9.87501 15.75Z" fill="#2D9739"/>
<path d="M1.25 22.875H23.75V23.625H1.25V22.875ZM14.375 16.125H15.875V22.125H14.375V16.125ZM17 13.5H18.5V22.125H17V13.5ZM19.625 10.875H21.125V22.125H19.625V10.875Z" fill="#FFC239"/>
<path d="M14.2355 15.0313C13.9821 14.0206 13.3857 13.1294 12.548 12.5098C12.5186 12.5704 12.5026 12.6366 12.5011 12.704V15.2803C12.4995 15.3625 12.5199 15.4436 12.5604 15.5152C12.6009 15.5868 12.6599 15.6462 12.7313 15.6871C12.8026 15.728 12.8836 15.749 12.9659 15.7478C13.0481 15.7466 13.1285 15.7233 13.1986 15.6804L14.2355 15.0313Z" fill="#ABE4A3"/>
<path d="M22.25 8.625H23.75V22.125H22.25V8.625ZM11.75 17.625H13.25V22.125H11.75V17.625Z" fill="#FFC239"/>
<path d="M8.00002 7.125C7.87179 7.12577 7.74595 7.15975 7.63477 7.22363C7.6586 7.40332 7.74671 7.56831 7.8828 7.68806C8.01889 7.80781 8.19374 7.87422 8.37502 7.875H12.125C12.2532 7.87423 12.3791 7.84025 12.4903 7.77637C12.4664 7.59668 12.3783 7.43169 12.2422 7.31194C12.1061 7.19219 11.9313 7.12578 11.75 7.125H8.00002Z" fill="#FFD55D"/>
<path d="M12.7925 5.25012C13.0494 4.62687 12.6991 3.75012 12.125 3.75012H8.23889C8.14873 3.74828 8.05948 3.76829 7.97874 3.80844C7.898 3.84858 7.82817 3.90768 7.77523 3.98067C7.72228 4.05366 7.68779 4.13837 7.67469 4.22759C7.66159 4.3168 7.67028 4.40786 7.70001 4.49299L7.70301 4.50012L8.25839 5.49912C8.40617 5.76486 8.62236 5.98622 8.88454 6.14026C9.14671 6.29429 9.44531 6.37538 9.74939 6.37512H12.167L12.7925 5.25012Z" fill="#44BC59"/>
<path d="M12.5 17.625V21C12.5 21.1989 12.579 21.3897 12.7197 21.5303C12.8603 21.671 13.0511 21.75 13.25 21.75V17.625H12.5ZM15.125 16.125V21C15.125 21.1989 15.204 21.3897 15.3447 21.5303C15.4853 21.671 15.6761 21.75 15.875 21.75V16.125H15.125ZM17.75 13.5V21C17.75 21.1989 17.829 21.3897 17.9697 21.5303C18.1103 21.671 18.3011 21.75 18.5 21.75V13.5H17.75ZM20.375 10.875V21C20.375 21.1989 20.454 21.3897 20.5947 21.5303C20.7353 21.671 20.9261 21.75 21.125 21.75V10.875H20.375ZM23 8.625V21C23 21.1989 23.079 21.3897 23.2197 21.5303C23.3603 21.671 23.5511 21.75 23.75 21.75V8.625H23Z" fill="#FFD55D"/>
<path d="M22.8144 5.35051C22.8328 5.4148 22.8336 5.48282 22.8168 5.54753C22.8 5.61224 22.7662 5.67129 22.719 5.71856C22.6717 5.76584 22.6126 5.79961 22.5479 5.81639C22.4832 5.83317 22.4152 5.83235 22.3509 5.81401L20.375 5.24963C19.43 8.39101 17.5873 11.4454 14.8449 13.1591L13.1975 14.1889C13.1274 14.2318 13.047 14.2551 12.9648 14.2563C12.8825 14.2575 12.8015 14.2365 12.7302 14.1956C12.6588 14.1547 12.5998 14.0953 12.5593 14.0237C12.5188 13.9521 12.4984 13.871 12.5 13.7888V11.2121C12.4994 11.1146 12.5293 11.0193 12.5855 10.9395C12.6417 10.8598 12.7214 10.7996 12.8135 10.7674L14.453 10.2086C16.6468 9.46126 18.7967 7.19363 19.25 4.87463L17.5779 4.03876C17.5191 4.00938 17.4691 3.96507 17.4328 3.91027C17.3966 3.85547 17.3753 3.7921 17.3713 3.72651C17.3672 3.66092 17.3804 3.59541 17.4097 3.53655C17.4389 3.47769 17.4831 3.42754 17.5378 3.39113L21.0722 1.03463C21.1213 1.0019 21.1774 0.981224 21.236 0.974282C21.2946 0.967341 21.3541 0.974332 21.4095 0.994686C21.4649 1.01504 21.5147 1.04818 21.5548 1.09142C21.595 1.13466 21.6244 1.18677 21.6407 1.24351L22.8144 5.35051Z" fill="#F3A606"/>
<path d="M13.1975 13.2169L14.8449 12.1871C17.3923 10.5953 19.1634 7.84613 20.1602 4.94513C20.2232 4.7653 20.3528 4.61647 20.5222 4.52928C20.6916 4.44208 20.8881 4.42315 21.071 4.47638L22.3509 4.84201C22.4021 4.85682 22.4559 4.86033 22.5086 4.8523C22.5613 4.84427 22.6117 4.82489 22.6562 4.79551L21.6407 1.24351C21.6244 1.18677 21.595 1.13466 21.5548 1.09142C21.5147 1.04818 21.4649 1.01504 21.4095 0.994686C21.3541 0.974332 21.2946 0.967341 21.236 0.974282C21.1774 0.981224 21.1213 1.0019 21.0722 1.03463L17.5378 3.39113C17.4831 3.42754 17.4389 3.47769 17.4097 3.53655C17.3804 3.59541 17.3672 3.66092 17.3713 3.72651C17.3753 3.7921 17.3966 3.85547 17.4328 3.91027C17.4691 3.96507 17.5191 4.00938 17.5779 4.03876L19.25 4.87463C18.7967 7.19363 16.6468 9.46126 14.453 10.209L12.8135 10.7678C12.7215 10.7999 12.6418 10.8601 12.5856 10.9397C12.5294 11.0194 12.4995 11.1146 12.5 11.2121V12.8171C12.4984 12.8993 12.5189 12.9804 12.5595 13.052C12.6 13.1235 12.659 13.1828 12.7303 13.2237C12.8017 13.2646 12.8827 13.2855 12.9649 13.2843C13.0471 13.2831 13.1274 13.2598 13.1975 13.2169Z" fill="#FFC239"/>
</svg>
