<svg width="20" height="20" viewBox="0 0 20 20" fill="none" xmlns="http://www.w3.org/2000/svg">
<path d="M10 0C4.48595 0 0 4.48595 0 10C0 15.514 4.48595 20 10 20C15.514 20 20 15.514 20 10C20 4.48587 15.514 0 10 0ZM6.44227 16.869C6.66004 17.357 6.89913 17.7915 7.156 18.1707C6.15438 17.821 5.23627 17.2923 4.44002 16.6227C4.914 16.2239 5.4242 15.88 5.96307 15.5951C6.10541 16.0438 6.26461 16.4709 6.44227 16.869ZM7.20682 15.0593C8.09476 14.7573 9.03554 14.5996 10.0001 14.5996C10.9651 14.5996 11.9058 14.7572 12.7934 15.059C12.1084 17.2962 11.0185 18.6516 10.0001 18.6516C8.98169 18.6515 7.89174 17.2962 7.20682 15.0593ZM5.96307 4.4048C5.4242 4.11986 4.914 3.77601 4.44002 3.37721C5.23627 2.70764 6.15438 2.17889 7.15592 1.82922C6.89904 2.20838 6.65995 2.64291 6.44218 3.13096C6.26461 3.529 6.10541 3.95603 5.96307 4.4048ZM10 1.34834C11.0184 1.34834 12.1083 2.70376 12.7933 4.94096C11.9057 5.24276 10.965 5.40027 10 5.40027C9.03545 5.40027 8.09468 5.24259 7.20674 4.94063C7.89174 2.70368 8.98169 1.34834 10 1.34834ZM13.5578 3.13087C13.34 2.64283 13.101 2.2083 12.8441 1.82914C13.8457 2.1788 14.7638 2.70755 15.56 3.37713C15.086 3.77609 14.5758 4.11986 14.037 4.40488C13.8947 3.95611 13.7354 3.529 13.5578 3.13087ZM10 6.7487C11.078 6.7487 12.1298 6.57905 13.1254 6.25281C13.3151 7.17926 13.4396 8.21106 13.4756 9.3257H6.52452C6.56059 8.21098 6.68498 7.1791 6.87469 6.25264C7.8705 6.57913 8.92252 6.7487 10 6.7487ZM13.4756 10.6741C13.4395 11.7889 13.3151 12.8207 13.1254 13.7471C12.1299 13.4209 11.078 13.2512 10 13.2512C8.92252 13.2512 7.8705 13.4208 6.87469 13.7473C6.68498 12.8208 6.56051 11.7889 6.52452 10.6742L13.4756 10.6741ZM13.5578 16.869C13.7354 16.4709 13.8947 16.0438 14.037 15.595C14.5758 15.88 15.086 16.2238 15.56 16.6228C14.7637 17.2924 13.8456 17.8211 12.844 18.1708C13.101 17.7915 13.34 17.357 13.5578 16.869ZM14.3922 14.2625C14.6377 13.1466 14.7845 11.9329 14.8233 10.6741H18.6255C18.478 12.5788 17.7109 14.3124 16.5261 15.6734C15.8715 15.108 15.1547 14.6359 14.3922 14.2625ZM14.8233 9.3257C14.7845 8.06703 14.6377 6.85328 14.3922 5.73738C15.1546 5.36403 15.8715 4.89192 16.5261 4.32642C17.7109 5.6874 18.478 7.42105 18.6255 9.32579L14.8233 9.3257ZM3.47421 4.326C4.12871 4.89124 4.84539 5.3637 5.60776 5.73704C5.36226 6.85303 5.21545 8.06686 5.1766 9.3257H1.37447C1.52212 7.42089 2.28929 5.68707 3.47421 4.326ZM1.37455 10.6741H5.17669C5.21545 11.933 5.36235 13.1468 5.60784 14.2629C4.84548 14.6362 4.12879 15.1086 3.4743 15.6739C2.28929 14.3128 1.52212 12.579 1.37455 10.6741Z" fill="#1B5583"/>
<path d="M15.0966 12H4.90342C4.40654 12 4 11.6188 4 11.1529V8.84705C4 8.38117 4.40654 8 4.90342 8H15.0966C15.5935 8 16 8.38117 16 8.84705V11.1529C16 11.6188 15.5935 12 15.0966 12Z" fill="#1B5583"/>
<path d="M6.7432 11C6.70357 11 6.66641 10.989 6.63172 10.9671C6.59952 10.9427 6.57722 10.9135 6.56484 10.8793L6.01486 9.25594C5.99505 9.18038 5.99505 9.11944 6.01486 9.07313C6.03716 9.02438 6.08423 9 6.15607 9C6.20314 9 6.24154 9.01341 6.27127 9.04022C6.30348 9.06459 6.32949 9.10725 6.34931 9.16819L6.81752 10.6088H6.68746L7.12967 9.13894C7.14206 9.0975 7.16311 9.06459 7.19284 9.04022C7.22257 9.01341 7.26345 9 7.31547 9C7.36502 9 7.40466 9.01341 7.43438 9.04022C7.46659 9.06459 7.48765 9.0975 7.49756 9.13894L7.85801 10.521H7.80227L8.24076 9.16819C8.27544 9.05606 8.33985 9 8.43399 9C8.50336 9 8.55043 9.02438 8.5752 9.07313C8.59998 9.11944 8.59874 9.18038 8.57149 9.25594L8.02152 10.8793C8.01161 10.9135 7.99055 10.9427 7.95834 10.9671C7.92614 10.989 7.88898 11 7.84686 11C7.80723 11 7.77006 10.989 7.73538 10.9671C7.7007 10.9427 7.6784 10.9135 7.66849 10.8793L7.28574 9.48629H7.3229L6.92157 10.8793C6.91166 10.9135 6.88937 10.9427 6.85469 10.9671C6.82248 10.989 6.78532 11 6.7432 11Z" fill="white"/>
<path d="M9.44676 11C9.40712 11 9.36996 10.989 9.33527 10.9671C9.30307 10.9427 9.28077 10.9135 9.26839 10.8793L8.71842 9.25594C8.6986 9.18038 8.6986 9.11944 8.71842 9.07313C8.74071 9.02438 8.78778 9 8.85962 9C8.90669 9 8.94509 9.01341 8.97482 9.04022C9.00703 9.06459 9.03304 9.10725 9.05286 9.16819L9.52108 10.6088H9.39101L9.83322 9.13894C9.84561 9.0975 9.86667 9.06459 9.89639 9.04022C9.92612 9.01341 9.967 9 10.019 9C10.0686 9 10.1082 9.01341 10.1379 9.04022C10.1701 9.06459 10.1912 9.0975 10.2011 9.13894L10.5616 10.521H10.5058L10.9443 9.16819C10.979 9.05606 11.0434 9 11.1375 9C11.2069 9 11.254 9.02438 11.2788 9.07313C11.3035 9.11944 11.3023 9.18038 11.275 9.25594L10.7251 10.8793C10.7152 10.9135 10.6941 10.9427 10.6619 10.9671C10.6297 10.989 10.5925 11 10.5504 11C10.5108 11 10.4736 10.989 10.4389 10.9671C10.4043 10.9427 10.382 10.9135 10.372 10.8793L9.98929 9.48629H10.0265L9.62512 10.8793C9.61521 10.9135 9.59292 10.9427 9.55824 10.9671C9.52603 10.989 9.48887 11 9.44676 11Z" fill="white"/>
<path d="M12.1503 11C12.1107 11 12.0735 10.989 12.0388 10.9671C12.0066 10.9427 11.9843 10.9135 11.9719 10.8793L11.422 9.25594C11.4021 9.18038 11.4021 9.11944 11.422 9.07313C11.4443 9.02438 11.4913 9 11.5632 9C11.6102 9 11.6486 9.01341 11.6784 9.04022C11.7106 9.06459 11.7366 9.10725 11.7564 9.16819L12.2246 10.6088H12.0946L12.5368 9.13894C12.5492 9.0975 12.5702 9.06459 12.5999 9.04022C12.6297 9.01341 12.6705 9 12.7226 9C12.7721 9 12.8118 9.01341 12.8415 9.04022C12.8737 9.06459 12.8947 9.0975 12.9047 9.13894L13.2651 10.521H13.2094L13.6479 9.16819C13.6825 9.05606 13.747 9 13.8411 9C13.9105 9 13.9575 9.02438 13.9823 9.07313C14.0071 9.11944 14.0058 9.18038 13.9786 9.25594L13.4286 10.8793C13.4187 10.9135 13.3977 10.9427 13.3654 10.9671C13.3332 10.989 13.2961 11 13.254 11C13.2143 11 13.1772 10.989 13.1425 10.9671C13.1078 10.9427 13.0855 10.9135 13.0756 10.8793L12.6928 9.48629H12.73L12.3287 10.8793C12.3188 10.9135 12.2965 10.9427 12.2618 10.9671C12.2296 10.989 12.1924 11 12.1503 11Z" fill="white"/>
</svg>
