<svg width="24" height="24" viewBox="0 0 24 24" fill="none" xmlns="http://www.w3.org/2000/svg">
<mask id="mask0_837_5585" style="mask-type:luminance" maskUnits="userSpaceOnUse" x="0" y="0" width="24" height="24">
<path d="M23.82 0H0V24H23.82V0Z" fill="white"/>
</mask>
<g mask="url(#mask0_837_5585)">
<path d="M0.513788 11.8563C0.513228 13.8728 1.04011 15.8417 2.042 17.5771L0.417969 23.5066L6.4861 21.9155C8.1644 22.8292 10.0449 23.308 11.9558 23.3081H11.9609C18.2692 23.3081 23.4044 18.1748 23.4071 11.8653C23.4083 8.80791 22.2187 5.93291 20.0574 3.77001C17.8965 1.60718 15.0225 0.415462 11.9604 0.414062C5.6513 0.414062 0.516388 5.54711 0.513788 11.8563Z" fill="url(#paint0_linear_837_5585)"/>
<path d="M0.103436 11.8527C0.102786 13.9417 0.648556 15.981 1.68614 17.7786L0.00390625 23.9207L6.28959 22.2726C8.02149 23.2168 9.97149 23.7147 11.9556 23.7154H11.9608C18.4955 23.7154 23.8151 18.3975 23.8179 11.8621C23.819 8.6949 22.5866 5.7166 20.3481 3.4761C18.1093 1.23591 15.1326 0.0013 11.9608 0C5.42489 0 0.106046 5.3172 0.103436 11.8527ZM3.84679 17.469L3.61209 17.0965C2.62549 15.5277 2.10479 13.7149 2.10549 11.8534C2.10749 6.4213 6.52839 2.0019 11.9645 2.0019C14.597 2.003 17.0711 3.0292 18.9319 4.8912C20.7927 6.7533 21.8166 9.2287 21.8159 11.8614C21.8135 17.2935 17.3926 21.7135 11.9608 21.7135H11.9568C10.1882 21.7126 8.45359 21.2376 6.94079 20.34L6.58079 20.1265L2.85079 21.1045L3.84679 17.469Z" fill="url(#paint1_linear_837_5585)"/>
<path d="M8.9989 6.89772C8.7769 6.40442 8.5434 6.39442 8.3323 6.38582C8.1595 6.37832 7.9619 6.37892 7.7645 6.37892C7.5669 6.37892 7.2459 6.45322 6.9745 6.74952C6.7029 7.04612 5.9375 7.76272 5.9375 9.22032C5.9375 10.6779 6.9992 12.0866 7.1472 12.2845C7.2954 12.482 9.1968 15.5689 12.2081 16.7564C14.7108 17.7433 15.2201 17.547 15.7633 17.4975C16.3065 17.4482 17.5162 16.781 17.763 16.0892C18.01 15.3975 18.01 14.8046 17.9359 14.6807C17.8619 14.5572 17.6643 14.4831 17.368 14.335C17.0717 14.1869 15.6151 13.4701 15.3435 13.3712C15.0719 13.2724 14.8744 13.2231 14.6769 13.5197C14.4793 13.8159 13.9119 14.4831 13.739 14.6807C13.5662 14.8787 13.3933 14.9034 13.0971 14.7552C12.8007 14.6065 11.8465 14.2941 10.7145 13.2849C9.8338 12.4996 9.2392 11.5298 9.0663 11.2331C8.8935 10.9369 9.0478 10.7764 9.1964 10.6288C9.3295 10.496 9.4928 10.2828 9.641 10.1099C9.7888 9.93692 9.8381 9.81342 9.9369 9.61582C10.0357 9.41812 9.9862 9.24502 9.9123 9.09692C9.8381 8.94872 9.2623 7.48352 8.9989 6.89772Z" fill="white"/>
</g>
<defs>
<linearGradient id="paint0_linear_837_5585" x1="1149.87" y1="2309.67" x2="1149.87" y2="0.414062" gradientUnits="userSpaceOnUse">
<stop stop-color="#1FAF38"/>
<stop offset="1" stop-color="#60D669"/>
</linearGradient>
<linearGradient id="paint1_linear_837_5585" x1="1190.7" y1="2392.07" x2="1190.7" y2="0" gradientUnits="userSpaceOnUse">
<stop stop-color="#F9F9F9"/>
<stop offset="1" stop-color="white"/>
</linearGradient>
</defs>
</svg>
