<svg width="40" height="40" viewBox="0 0 40 40" fill="none" xmlns="http://www.w3.org/2000/svg">
<rect width="40" height="40" rx="20" fill="#D1F0FA"/>
<g clip-path="url(#clip0_13488_26204)">
<path d="M8.60119 19.8564C8.60063 21.8729 9.12751 23.8418 10.1294 25.5772L8.50537 31.5067L14.5735 29.9156C16.2518 30.8293 18.1323 31.3081 20.0432 31.3082H20.0483C26.3566 31.3082 31.4918 26.1749 31.4945 19.8654C31.4957 16.808 30.3061 13.933 28.1448 11.7701C25.9839 9.60727 23.1099 8.41555 20.0478 8.41415C13.7387 8.41415 8.60388 13.5472 8.60128 19.8564" fill="url(#paint0_linear_13488_26204)"/>
<path d="M8.19255 19.8527C8.1919 21.9417 8.73767 23.981 9.77525 25.7786L8.09302 31.9207L14.3787 30.2726C16.1106 31.2168 18.0606 31.7147 20.0447 31.7154H20.0499C26.5846 31.7154 31.9042 26.3975 31.907 19.8621C31.9081 16.6949 30.6757 13.7166 28.4372 11.4761C26.1984 9.23591 23.2217 8.0013 20.0499 8C13.514 8 8.19516 13.3172 8.19255 19.8527ZM11.9359 25.469L11.7012 25.0965C10.7146 23.5277 10.1939 21.7149 10.1946 19.8534C10.1966 14.4213 14.6175 10.0019 20.0536 10.0019C22.6861 10.003 25.1602 11.0292 27.021 12.8912C28.8818 14.7533 29.9057 17.2287 29.905 19.8614C29.9026 25.2935 25.4817 29.7135 20.0499 29.7135H20.0459C18.2773 29.7126 16.5427 29.2376 15.0299 28.34L14.6699 28.1265L10.9399 29.1045L11.9359 25.469Z" fill="url(#paint1_linear_13488_26204)"/>
<path d="M17.0863 14.8975C16.8643 14.4042 16.6308 14.3942 16.4197 14.3856C16.2469 14.3781 16.0493 14.3787 15.8519 14.3787C15.6543 14.3787 15.3333 14.453 15.0619 14.7493C14.7903 15.0459 14.0249 15.7625 14.0249 17.2201C14.0249 18.6777 15.0866 20.0864 15.2346 20.2843C15.3828 20.4818 17.2842 23.5687 20.2955 24.7562C22.7982 25.7431 23.3075 25.5468 23.8507 25.4973C24.3939 25.448 25.6036 24.7808 25.8504 24.089C26.0974 23.3973 26.0974 22.8044 26.0233 22.6805C25.9493 22.557 25.7517 22.4829 25.4554 22.3348C25.1591 22.1867 23.7025 21.4699 23.4309 21.371C23.1593 21.2722 22.9618 21.2229 22.7643 21.5195C22.5667 21.8157 21.9993 22.4829 21.8264 22.6805C21.6536 22.8785 21.4807 22.9032 21.1845 22.755C20.8881 22.6063 19.9339 22.2939 18.8019 21.2847C17.9212 20.4994 17.3266 19.5296 17.1537 19.2329C16.9809 18.9367 17.1352 18.7762 17.2838 18.6286C17.4169 18.4958 17.5802 18.2826 17.7284 18.1097C17.8762 17.9367 17.9255 17.8132 18.0243 17.6156C18.1231 17.4179 18.0736 17.2448 17.9997 17.0967C17.9255 16.9485 17.3497 15.4833 17.0863 14.8975Z" fill="white"/>
</g>
<defs>
<linearGradient id="paint0_linear_13488_26204" x1="1157.96" y1="2317.67" x2="1157.96" y2="8.41415" gradientUnits="userSpaceOnUse">
<stop stop-color="#1FAF38"/>
<stop offset="1" stop-color="#60D669"/>
</linearGradient>
<linearGradient id="paint1_linear_13488_26204" x1="1198.79" y1="2400.07" x2="1198.79" y2="8" gradientUnits="userSpaceOnUse">
<stop stop-color="#F9F9F9"/>
<stop offset="1" stop-color="white"/>
</linearGradient>
<clipPath id="clip0_13488_26204">
<rect width="23.82" height="24" fill="white" transform="translate(8.09009 8)"/>
</clipPath>
</defs>
</svg>
