<svg width="28" height="20" viewBox="0 0 28 20" fill="none" xmlns="http://www.w3.org/2000/svg">
<g clip-path="url(#clip0_5147_6721)">
<path d="M27.4149 3.12307C27.0929 1.89371 26.1442 0.925646 24.9394 0.597097C22.7559 0 14 0 14 0C14 0 5.24416 0 3.06057 0.597097C1.85589 0.925646 0.907066 1.89371 0.585093 3.12307C0 5.35118 0 10 0 10C0 10 0 14.6488 0.585093 16.8771C0.907066 18.1063 1.85589 19.0743 3.06057 19.403C5.24416 20 14 20 14 20C14 20 22.7559 20 24.9394 19.403C26.1442 19.0743 27.0929 18.1063 27.4149 16.8771C28 14.6488 28 10 28 10C28 10 28 5.35118 27.4149 3.12307Z" fill="#ED1D24"/>
<path d="M11.1365 14.2207L18.4547 10.0001L11.1365 5.77917V14.2207Z" fill="white"/>
</g>
<defs>
<clipPath id="clip0_5147_6721">
<rect width="28" height="20" fill="white"/>
</clipPath>
</defs>
</svg>
