<svg width="220" height="145" viewBox="0 0 220 145" fill="none" xmlns="http://www.w3.org/2000/svg">
<rect x="16" y="112" width="200" height="25" rx="12.5" fill="#ECEFF3"/>
<rect x="40" y="76" width="180" height="20" rx="10" fill="#ECEFF3"/>
<rect x="16" y="40" width="180" height="20" rx="10" fill="#ECEFF3"/>
<path fill-rule="evenodd" clip-rule="evenodd" d="M126.267 38.75C134.3 38.75 140.644 38.7499 145.696 39.3136C150.874 39.8914 155.128 41.0981 158.787 43.8108C161.303 45.6756 163.481 47.984 165.228 50.6254C168.454 55.5027 169.406 61.4154 169.745 69.2295C169.907 72.9624 166.762 75.4688 163.676 75.4688C159.016 75.4688 154.88 79.5319 154.88 85C154.88 90.4681 159.016 94.5312 163.676 94.5312C166.762 94.5312 169.907 97.0376 169.745 100.77C169.406 108.585 168.454 114.497 165.228 119.375C163.481 122.016 161.303 124.324 158.787 126.189C155.128 128.902 150.874 130.109 145.696 130.686C140.644 131.25 134.3 131.25 126.267 131.25H126.267H105.734H105.734C97.7004 131.25 91.3566 131.25 86.3054 130.686C81.1268 130.109 76.873 128.902 73.2135 126.189C70.6977 124.324 68.5202 122.016 66.7731 119.375C63.5467 114.497 62.5951 108.583 62.256 100.768C62.0941 97.037 65.2369 94.5312 68.3221 94.5312C72.9815 94.5312 77.118 90.4681 77.118 85C77.118 79.5319 72.9815 75.4688 68.3221 75.4688C65.2369 75.4688 62.0941 72.963 62.256 69.2322C62.5951 61.4167 63.5467 55.5032 66.7731 50.6254C68.5202 47.984 70.6977 45.6756 73.2135 43.8108C76.873 41.0981 81.1268 39.8914 86.3054 39.3136C91.3566 38.7499 97.7005 38.75 105.734 38.75H105.734H126.267H126.267ZM124.966 68.9645C126.918 67.0118 130.084 67.0118 132.037 68.9645C133.989 70.9171 133.989 74.0829 132.037 76.0355L107.037 101.036C105.084 102.988 101.918 102.988 99.9657 101.036C98.0131 99.0829 98.0131 95.9171 99.9657 93.9645L124.966 68.9645ZM103.557 67.5H103.501C100.74 67.5 98.5012 69.7386 98.5012 72.5C98.5012 75.2614 100.74 77.5 103.501 77.5H103.557C106.319 77.5 108.557 75.2614 108.557 72.5C108.557 69.7386 106.319 67.5 103.557 67.5ZM128.445 92.5C125.684 92.5 123.445 94.7386 123.445 97.5C123.445 100.261 125.684 102.5 128.445 102.5H128.501C131.263 102.5 133.501 100.261 133.501 97.5C133.501 94.7386 131.263 92.5 128.501 92.5H128.445Z" fill="#A4ACB9"/>
<path opacity="0.4" d="M208 10.25C208.414 10.25 208.75 10.5858 208.75 11C208.75 13.0061 209.761 15.0749 211.343 16.6572C212.925 18.2394 214.994 19.25 217 19.25C217.414 19.25 217.75 19.5858 217.75 20C217.75 20.4142 217.414 20.75 217 20.75C214.994 20.75 212.925 21.7606 211.343 23.3428C209.761 24.9251 208.75 26.9939 208.75 29C208.75 29.4142 208.414 29.75 208 29.75C207.586 29.75 207.25 29.4142 207.25 29C207.25 26.9939 206.239 24.9251 204.657 23.3428C203.075 21.7606 201.006 20.75 199 20.75C198.586 20.75 198.25 20.4142 198.25 20C198.25 19.5858 198.586 19.25 199 19.25C201.006 19.25 203.075 18.2394 204.657 16.6572C206.239 15.0749 207.25 13.0061 207.25 11C207.25 10.5858 207.586 10.25 208 10.25Z" fill="#C1C7D0"/>
<path d="M215.695 9.6062C215.648 9.39794 215.463 9.25 215.25 9.25C215.037 9.25 214.852 9.39794 214.805 9.6062L214.57 10.646C214.41 11.356 213.856 11.9105 213.146 12.0704L212.106 12.3046C211.898 12.3516 211.75 12.5365 211.75 12.75C211.75 12.9635 211.898 13.1484 212.106 13.1954L213.146 13.4296C213.856 13.5895 214.41 14.144 214.57 14.854L214.805 15.8938C214.852 16.1021 215.037 16.25 215.25 16.25C215.463 16.25 215.648 16.1021 215.695 15.8938L215.93 14.854C216.09 14.144 216.644 13.5895 217.354 13.4296L218.394 13.1954C218.602 13.1484 218.75 12.9635 218.75 12.75C218.75 12.5365 218.602 12.3516 218.394 12.3046L217.354 12.0704C216.644 11.9105 216.09 11.356 215.93 10.646L215.695 9.6062Z" fill="#C1C7D0"/>
<path d="M201.195 24.1062C201.148 23.8979 200.963 23.75 200.75 23.75C200.537 23.75 200.352 23.8979 200.305 24.1062L200.07 25.146C199.91 25.856 199.356 26.4105 198.646 26.5704L197.606 26.8046C197.398 26.8516 197.25 27.0365 197.25 27.25C197.25 27.4635 197.398 27.6484 197.606 27.6954L198.646 27.9296C199.356 28.0895 199.91 28.644 200.07 29.354L200.305 30.3938C200.352 30.6021 200.537 30.75 200.75 30.75C200.963 30.75 201.148 30.6021 201.195 30.3938L201.43 29.354C201.59 28.644 202.144 28.0895 202.854 27.9296L203.894 27.6954C204.102 27.6484 204.25 27.4635 204.25 27.25C204.25 27.0365 204.102 26.8516 203.894 26.8046L202.854 26.5704C202.144 26.4105 201.59 25.856 201.43 25.146L201.195 24.1062Z" fill="#C1C7D0"/>
<path opacity="0.4" d="M32.0173 2.32514C32.5421 2.40348 33.1135 2.59299 33.4411 3.16038C33.7678 3.72637 33.6484 4.31617 33.4563 4.81136C33.2715 5.2879 32.9438 5.86433 32.5621 6.53565L31.4611 8.47252C31.2529 8.8388 31.1188 9.07576 31.0334 9.25737C30.9693 9.39366 30.9576 9.4495 30.9557 9.45874C30.9589 9.56981 31.0176 9.67007 31.1089 9.7266C31.1188 9.72978 31.1729 9.74649 31.318 9.75782C31.5167 9.77336 31.8182 9.7739 32.238 9.7739C32.7268 9.77389 33.1369 9.77388 33.4567 9.79838C33.766 9.82206 34.1302 9.87463 34.4355 10.0776C35.0284 10.4716 35.3367 11.1749 35.2285 11.8773C35.1729 12.2386 34.9678 12.5434 34.7773 12.7893C34.5803 13.0435 34.3046 13.3484 33.9756 13.7121L28.384 19.8952C27.8711 20.4625 27.4393 20.94 27.088 21.2463C26.9093 21.402 26.6983 21.5621 26.4628 21.6576C26.2035 21.7629 25.8613 21.8076 25.5214 21.6305C25.1822 21.4538 25.0229 21.1486 24.9595 20.8774C24.9017 20.6304 24.9101 20.3659 24.9338 20.1296C24.9802 19.6648 25.1195 19.035 25.285 18.2864L25.9832 15.1277C26.1218 14.5012 26.2063 14.1103 26.2279 13.8242C26.2576 13.5884 26.0519 13.4872 25.9453 13.4662C25.6638 13.4254 25.2669 13.4236 24.628 13.4236L24.112 13.4236C23.4191 13.4236 22.8159 13.4237 22.3498 13.3543C21.8568 13.2808 21.3289 13.1044 20.9974 12.5916C20.6667 12.0801 20.7207 11.5262 20.8537 11.0454C20.9796 10.5899 21.2244 10.0364 21.506 9.39944L23.3563 5.21448L23.3563 5.21448C23.6169 4.62508 23.836 4.12946 24.0595 3.74142C24.2963 3.33017 24.5699 2.98046 24.9697 2.71931C25.3697 2.45798 25.7995 2.34835 26.2706 2.2977C26.7146 2.24997 27.2546 2.24998 27.8958 2.25L30.0836 2.25C30.8522 2.24995 31.5133 2.24991 32.0173 2.32514Z" fill="#C1C7D0"/>
<path opacity="0.4" d="M12 76.25C12.4142 76.25 12.75 76.5858 12.75 77C12.75 79.0061 13.7606 81.0749 15.3428 82.6572C16.9251 84.2394 18.9939 85.25 21 85.25C21.4142 85.25 21.75 85.5858 21.75 86C21.75 86.4142 21.4142 86.75 21 86.75C18.9939 86.75 16.9251 87.7606 15.3428 89.3428C13.7606 90.9251 12.75 92.9939 12.75 95C12.75 95.4142 12.4142 95.75 12 95.75C11.5858 95.75 11.25 95.4142 11.25 95C11.25 92.9939 10.2394 90.9251 8.65717 89.3428C7.07493 87.7606 5.00608 86.75 3 86.75C2.58579 86.75 2.25 86.4142 2.25 86C2.25 85.5858 2.58579 85.25 3 85.25C5.00608 85.25 7.07493 84.2394 8.65717 82.6572C10.2394 81.0749 11.25 79.0061 11.25 77C11.25 76.5858 11.5858 76.25 12 76.25Z" fill="#C1C7D0"/>
<path d="M19.6954 75.6062C19.6484 75.3979 19.4635 75.25 19.25 75.25C19.0365 75.25 18.8516 75.3979 18.8046 75.6062L18.5704 76.646C18.4105 77.356 17.856 77.9105 17.146 78.0704L16.1062 78.3046C15.8979 78.3516 15.75 78.5365 15.75 78.75C15.75 78.9635 15.8979 79.1484 16.1062 79.1954L17.146 79.4296C17.856 79.5895 18.4105 80.144 18.5704 80.854L18.8046 81.8938C18.8516 82.1021 19.0365 82.25 19.25 82.25C19.4635 82.25 19.6484 82.1021 19.6954 81.8938L19.9296 80.854C20.0895 80.144 20.644 79.5895 21.354 79.4296L22.3938 79.1954C22.6021 79.1484 22.75 78.9635 22.75 78.75C22.75 78.5365 22.6021 78.3516 22.3938 78.3046L21.354 78.0704C20.644 77.9105 20.0895 77.356 19.9296 76.646L19.6954 75.6062Z" fill="#C1C7D0"/>
<path d="M5.19536 90.1062C5.14845 89.8979 4.96348 89.75 4.75 89.75C4.53652 89.75 4.35155 89.8979 4.30464 90.1062L4.07041 91.146C3.91047 91.856 3.35602 92.4105 2.64601 92.5704L1.6062 92.8046C1.39794 92.8516 1.25 93.0365 1.25 93.25C1.25 93.4635 1.39794 93.6484 1.6062 93.6954L2.64601 93.9296C3.35602 94.0895 3.91047 94.644 4.07041 95.354L4.30464 96.3938C4.35155 96.6021 4.53652 96.75 4.75 96.75C4.96348 96.75 5.14845 96.6021 5.19536 96.3938L5.42959 95.354C5.58953 94.644 6.14398 94.0895 6.85398 93.9296L7.8938 93.6954C8.10206 93.6484 8.25 93.4635 8.25 93.25C8.25 93.0365 8.10206 92.8516 7.8938 92.8046L6.85398 92.5704C6.14398 92.4105 5.58953 91.856 5.42959 91.146L5.19536 90.1062Z" fill="#C1C7D0"/>
</svg>
