<svg width="252" height="252" viewBox="0 0 252 252" fill="none" xmlns="http://www.w3.org/2000/svg">
<circle opacity="0.5" cx="129.826" cy="133.874" r="78.975" fill="#D2F5F2"/>
<circle cx="199.95" cy="63.95" r="4.95" fill="#71D7D5"/>
<circle cx="80.5756" cy="48.8246" r="9.225" fill="#71D7D5"/>
<circle cx="53.3755" cy="184.724" r="8.775" fill="#71D7D5"/>
<circle cx="214.426" cy="176.174" r="8.775" fill="#71D7D5"/>
<circle cx="197.326" cy="186.075" r="4.275" fill="#71D7D5"/>
<path d="M128.037 52.5911C127.776 52.5356 127.776 52.1632 128.037 52.1078L131.982 51.2689C132.077 51.2487 132.151 51.1746 132.172 51.0796L133.021 47.1629C133.077 46.9033 133.448 46.9033 133.504 47.1629L134.353 51.0796C134.374 51.1746 134.448 51.2487 134.543 51.2689L138.488 52.1078C138.749 52.1632 138.749 52.5356 138.488 52.5911L134.543 53.4299C134.448 53.4501 134.374 53.5242 134.353 53.6192L133.504 57.5359C133.448 57.7955 133.077 57.7955 133.021 57.5359L132.172 53.6192C132.151 53.5242 132.077 53.4501 131.982 53.4299L128.037 52.5911Z" fill="#43BDBE"/>
<path d="M37.0008 103.33C37.1015 102.854 37.7806 102.854 37.8813 103.33L39.3855 110.437C39.4222 110.61 39.557 110.745 39.73 110.783L46.7633 112.315C47.2355 112.418 47.2355 113.092 46.7633 113.195L39.73 114.727C39.557 114.764 39.4222 114.9 39.3855 115.073L37.8813 122.18C37.7806 122.656 37.1015 122.656 37.0008 122.18L35.4965 115.073C35.4598 114.9 35.325 114.764 35.152 114.727L28.1188 113.195C27.6465 113.092 27.6465 112.418 28.1188 112.315L35.152 110.783C35.325 110.745 35.4598 110.61 35.4965 110.437L37.0008 103.33Z" fill="#43BDBE"/>
<path d="M208.406 95.8299C208.507 95.3541 209.186 95.3541 209.286 95.8299L210.164 99.9757C210.201 100.149 210.335 100.285 210.508 100.322L214.623 101.219C215.095 101.322 215.095 101.995 214.623 102.098L210.508 102.994C210.335 103.032 210.201 103.168 210.164 103.341L209.286 107.487C209.186 107.963 208.507 107.963 208.406 107.487L207.528 103.341C207.492 103.168 207.357 103.032 207.184 102.994L203.069 102.098C202.597 101.995 202.597 101.322 203.069 101.219L207.184 100.322C207.357 100.285 207.492 100.149 207.528 99.9757L208.406 95.8299Z" fill="#43BDBE"/>
<path d="M205.795 119L207.173 125.51L213.591 126.908L207.173 128.306L205.795 134.817L204.417 128.306L198 126.908L204.417 125.51L205.795 119Z" fill="#43BDBE"/>
<path d="M133.71 107.462C136.107 113.439 138.503 119.416 140.9 125.392C141.432 126.719 143.41 125.812 142.879 124.488C140.483 118.511 138.086 112.534 135.689 106.558C135.157 105.231 133.179 106.138 133.71 107.462Z" fill="#393941"/>
<path d="M119.847 106.508C124.445 116.68 129.135 126.925 136.02 135.841C136.899 136.979 138.567 135.592 137.69 134.457C130.925 125.696 126.344 115.599 121.826 105.604C121.237 104.3 119.257 105.202 119.847 106.508Z" fill="#393941"/>
<path d="M109.636 111.4C116.021 121.604 122.237 131.91 128.281 142.314C128.996 143.544 130.982 142.652 130.26 141.409C124.216 131.005 118 120.699 111.615 110.495C110.863 109.295 108.874 110.183 109.636 111.4Z" fill="#393941"/>
<path d="M99.7381 121.384C106.363 129.745 112.679 138.342 118.672 147.159C119.478 148.345 121.142 146.952 120.342 145.775C114.349 136.959 108.033 128.362 101.409 120.001C100.515 118.874 98.8465 120.259 99.7381 121.384Z" fill="#393941"/>
<path d="M96.998 132.532C100.944 137.291 104.602 142.281 107.924 147.488C108.684 148.68 110.674 147.793 109.903 146.583C106.478 141.213 102.738 136.057 98.6683 131.148C97.7509 130.042 96.0805 131.425 96.998 132.532Z" fill="#393941"/>
<path d="M81.0674 149.908C84.9383 152.825 89.0737 155.342 93.4199 157.46C94.7085 158.088 95.4437 156.034 94.1658 155.412C89.9916 153.378 86.0373 150.937 82.3203 148.135C81.1711 147.269 79.922 149.044 81.0674 149.908Z" fill="#393941"/>
<path d="M69.6053 154.089C77.6177 158.359 84.5024 164.646 93.0724 167.843C94.4119 168.343 95.1579 166.295 93.8183 165.795C85.2727 162.607 78.3517 156.304 70.3513 152.04C69.0883 151.367 68.3567 153.423 69.6053 154.089Z" fill="#393941"/>
<path d="M60.5995 158.978C70.3616 165.863 80.4734 172.226 90.8902 178.04C92.1287 178.731 93.3922 176.965 92.1431 176.268C81.7263 170.454 71.6145 164.09 61.8524 157.206C60.6782 156.378 59.426 158.151 60.5995 158.978Z" fill="#393941"/>
<path d="M150.044 88.5508C152.586 94.9145 155.128 101.278 157.67 107.642C158.2 108.969 160.178 108.062 159.649 106.737C157.107 100.374 154.565 94.01 152.023 87.6464C151.493 86.3189 149.515 87.2263 150.044 88.5508Z" fill="#393941"/>
<path d="M155.986 77.3167C159.723 85.7859 162.988 94.4453 165.743 103.259C166.164 104.604 168.329 104.265 167.903 102.901C165.091 93.9031 161.781 85.0586 157.965 76.4124C157.388 75.1033 155.408 76.0067 155.986 77.3167Z" fill="#393941"/>
<path d="M162.634 68.8163C166.826 80.6293 171.61 92.2398 176.965 103.601C177.575 104.896 179.556 103.995 178.944 102.697C173.589 91.3353 168.805 79.7248 164.613 67.9118C164.136 66.5683 162.16 67.4803 162.634 68.8163Z" fill="#393941"/>
<path d="M158.499 72.3583C160.788 75.0074 165.253 75.5988 167.816 73.1907C170.387 70.7749 170.835 66.7334 168.383 63.8942C166.094 61.2451 161.629 60.6537 159.066 63.0618C156.495 65.4777 156.047 69.5192 158.499 72.3583Z" fill="#A5EAE6"/>
<path d="M150.996 81.035C153.285 83.6842 157.75 84.2755 160.313 81.8674C162.884 79.4515 163.332 75.4101 160.88 72.5709C158.591 69.9218 154.126 69.3305 151.563 71.7385C148.992 74.1544 148.544 78.1959 150.996 81.035Z" fill="#A5EAE6"/>
<path d="M145.145 92.5086C147.433 95.1577 151.898 95.7491 154.461 93.341C157.033 90.9252 157.481 86.8837 155.028 84.0445C152.74 81.3955 148.275 80.8041 145.712 83.2122C143.14 85.628 142.692 89.6695 145.145 92.5086Z" fill="#A5EAE6"/>
<path d="M141.613 104.344C143.902 106.993 148.367 107.584 150.93 105.176C153.501 102.76 153.949 98.7187 151.496 95.8795C149.208 93.2304 144.743 92.6391 142.18 95.0471C139.609 97.4629 139.161 101.504 141.613 104.344Z" fill="#A5EAE6"/>
<path d="M140.491 117.31C142.779 119.959 147.245 120.55 149.807 118.142C152.379 115.726 152.827 111.685 150.374 108.845C148.086 106.196 143.621 105.605 141.058 108.013C138.487 110.429 138.038 114.47 140.491 117.31Z" fill="#A5EAE6"/>
<path d="M139.211 129.596C141.499 132.245 145.965 132.836 148.527 130.428C151.099 128.012 151.547 123.971 149.094 121.131C146.806 118.482 142.341 117.891 139.778 120.299C137.207 122.715 136.758 126.756 139.211 129.596Z" fill="#A5EAE6"/>
<path d="M134.416 140.135C136.704 142.784 141.169 143.375 143.732 140.967C146.303 138.551 146.752 134.51 144.299 131.671C142.011 129.021 137.545 128.43 134.982 130.838C132.411 133.254 131.963 137.295 134.416 140.135Z" fill="#A5EAE6"/>
<path d="M126.375 148.079C128.663 150.728 133.129 151.319 135.692 148.911C138.263 146.495 138.711 142.454 136.258 139.615C133.97 136.966 129.505 136.374 126.942 138.782C124.371 141.198 123.922 145.24 126.375 148.079Z" fill="#71D7D5"/>
<path d="M77.6827 152.919C79.971 155.568 84.4363 156.159 86.9992 153.751C89.5705 151.335 90.0186 147.294 87.566 144.455C85.2777 141.806 80.8125 141.214 78.2495 143.622C75.6783 146.038 75.2301 150.08 77.6827 152.919Z" fill="#A5EAE6"/>
<path d="M65.161 156.006C67.4493 158.655 71.9145 159.246 74.4774 156.838C77.0487 154.422 77.4969 150.381 75.0442 147.542C72.7558 144.892 68.2907 144.301 65.7277 146.709C63.1566 149.125 62.7084 153.166 65.161 156.006Z" fill="#71D7D5"/>
<path d="M157.605 71.3241C159.894 73.9732 164.359 74.5645 166.922 72.1565C169.493 69.7406 169.941 65.6992 167.489 62.86C165.2 60.2108 160.735 59.6195 158.172 62.0276C155.601 64.4433 155.153 68.4848 157.605 71.3241Z" fill="#A5EAE6"/>
<path d="M174.85 109.423C177.138 112.072 181.603 112.663 184.166 110.255C186.737 107.839 187.185 103.798 184.733 100.959C182.444 98.3095 177.979 97.7182 175.416 100.126C172.845 102.542 172.397 106.584 174.85 109.423Z" fill="#D93502"/>
<path d="M163.398 110.044C165.686 112.693 170.151 113.284 172.714 110.876C175.285 108.46 175.734 104.419 173.281 101.58C170.993 98.9306 166.527 98.3393 163.964 100.747C161.393 103.163 160.945 107.205 163.398 110.044Z" fill="#43BDBE"/>
<path d="M152.123 109.874C154.411 112.523 158.876 113.114 161.439 110.706C164.01 108.29 164.459 104.249 162.006 101.41C159.717 98.7606 155.252 98.1693 152.689 100.577C150.118 102.993 149.67 107.035 152.123 109.874Z" fill="#43BDBE"/>
<path d="M128.64 107.682C130.929 110.332 135.394 110.923 137.957 108.515C140.528 106.099 140.976 102.058 138.523 99.2184C136.235 96.5692 131.77 95.9779 129.207 98.386C126.636 100.802 126.188 104.843 128.64 107.682Z" fill="#43BDBE"/>
<path d="M116.701 108.9C118.989 111.549 123.454 112.141 126.017 109.733C128.589 107.317 129.037 103.275 126.584 100.436C124.296 97.7871 119.831 97.1957 117.268 99.6038C114.696 102.02 114.248 106.061 116.701 108.9Z" fill="#D93502"/>
<path d="M104.924 114.287C107.212 116.936 111.677 117.527 114.24 115.119C116.811 112.703 117.26 108.662 114.807 105.823C112.519 103.174 108.053 102.582 105.49 104.99C102.919 107.406 102.471 111.448 104.924 114.287Z" fill="#D93502"/>
<path d="M96.5238 124.026C98.8122 126.675 103.277 127.267 105.84 124.859C108.411 122.443 108.86 118.401 106.407 115.562C104.119 112.913 99.6534 112.322 97.0905 114.73C94.5194 117.146 94.0712 121.187 96.5238 124.026Z" fill="#43BDBE"/>
<path d="M93.321 135.58C95.6094 138.229 100.075 138.82 102.638 136.412C105.209 133.997 105.657 129.955 103.204 127.116C100.916 124.467 96.4508 123.875 93.8878 126.283C91.3166 128.699 90.8684 132.741 93.321 135.58Z" fill="#D93502"/>
<path d="M91.3951 148.39C93.6835 151.04 98.1487 151.631 100.712 149.223C103.283 146.807 103.731 142.766 101.278 139.926C98.9899 137.277 94.5248 136.686 91.9619 139.094C89.3907 141.51 88.9426 145.551 91.3951 148.39Z" fill="#43BDBE"/>
<path d="M90.1412 160.43C92.4296 163.079 96.8947 163.67 99.4577 161.262C102.029 158.846 102.477 154.805 100.024 151.965C97.736 149.316 93.2709 148.725 90.708 151.133C88.1367 153.549 87.6886 157.59 90.1412 160.43Z" fill="#D93502"/>
<path d="M89.7649 171.716C92.0532 174.365 96.5185 174.956 99.0814 172.548C101.653 170.132 102.101 166.091 99.6482 163.252C97.3599 160.602 92.8947 160.011 90.3318 162.419C87.7605 164.835 87.3123 168.877 89.7649 171.716Z" fill="#D93502"/>
<path d="M88.9282 182.027C91.2165 184.676 95.6817 185.268 98.2446 182.86C100.816 180.444 101.264 176.402 98.8114 173.563C96.5231 170.914 92.0579 170.323 89.495 172.731C86.9237 175.147 86.4755 179.188 88.9282 182.027Z" fill="#D93502"/>
<path d="M102.926 152.007C105.214 154.656 109.68 155.247 112.242 152.839C114.814 150.423 115.262 146.382 112.809 143.543C110.521 140.893 106.056 140.302 103.493 142.71C100.922 145.126 100.473 149.167 102.926 152.007Z" fill="#71D7D5"/>
<path d="M90.3133 151.892C92.6017 154.542 97.0669 155.133 99.6298 152.725C102.201 150.309 102.649 146.268 100.197 143.428C97.9082 140.779 93.443 140.188 90.8801 142.596C88.3088 145.012 87.8607 149.053 90.3133 151.892Z" fill="#A5EAE6"/>
<path d="M115.06 152.343C117.349 154.992 121.814 155.583 124.377 153.175C126.948 150.759 127.396 146.718 124.943 143.879C122.655 141.229 118.19 140.638 115.627 143.046C113.056 145.462 112.608 149.503 115.06 152.343Z" fill="#A5EAE6"/>
<path d="M140.353 108.359C142.642 111.008 147.107 111.6 149.67 109.192C152.241 106.776 152.689 102.734 150.237 99.8951C147.948 97.246 143.483 96.6547 140.92 99.0627C138.349 101.479 137.901 105.52 140.353 108.359Z" fill="#D93502"/>
<path d="M56.8399 161.469C59.1283 164.118 63.5935 164.709 66.1564 162.301C68.7276 159.885 69.1758 155.844 66.7231 153.005C64.4348 150.355 59.9696 149.764 57.4067 152.172C54.8356 154.588 54.3873 158.629 56.8399 161.469Z" fill="#A5EAE6"/>
<path d="M181.53 106.578C181.515 106.618 181.498 106.657 181.482 106.697C181.404 106.895 181.582 106.552 181.509 106.646C181.456 106.713 181.378 106.803 181.339 106.878C181.36 106.837 181.504 106.719 181.394 106.812C181.361 106.839 181.33 106.868 181.297 106.895C181.265 106.92 181.105 107.027 181.257 106.931C181.413 106.832 181.231 106.939 181.207 106.951C180.699 107.205 180.409 107.863 180.698 108.406C180.974 108.923 181.624 109.228 182.168 108.956C182.832 108.625 183.337 108.08 183.6 107.383C183.801 106.85 183.501 106.147 182.938 105.956C182.363 105.762 181.745 106.007 181.53 106.578Z" fill="#67CEEA"/>
<path d="M169.762 107.138C169.75 107.157 169.737 107.174 169.722 107.191C169.785 107.123 169.848 107.056 169.911 106.988C169.879 107.021 169.847 107.048 169.809 107.073C169.887 107.024 169.966 106.975 170.044 106.926C170.005 106.948 169.965 106.965 169.922 106.979C170.012 106.951 170.102 106.923 170.192 106.896C170.158 106.904 170.127 106.908 170.093 106.911C170.191 106.908 170.289 106.905 170.387 106.902C170.376 106.902 170.365 106.902 170.353 106.902C170.053 106.9 169.789 106.946 169.553 107.141C169.348 107.31 169.181 107.607 169.172 107.88C169.163 108.165 169.234 108.468 169.434 108.688C169.622 108.894 169.897 109.088 170.185 109.09C170.464 109.092 170.724 109.073 170.977 108.948C171.211 108.832 171.423 108.658 171.571 108.442C171.731 108.207 171.802 107.897 171.746 107.61C171.696 107.349 171.52 107.054 171.293 106.904C170.795 106.576 170.104 106.637 169.762 107.138Z" fill="#71D7D5"/>
<path d="M158.683 107.082C158.61 107.166 158.635 107.14 158.757 107.004C158.73 107.03 158.702 107.055 158.673 107.079C158.631 107.115 158.577 107.142 158.538 107.181C158.703 107.019 158.691 107.089 158.575 107.144C158.507 107.176 158.436 107.202 158.364 107.225C158.454 107.197 158.544 107.17 158.634 107.142C158.561 107.163 158.487 107.179 158.412 107.19C157.846 107.28 157.404 107.877 157.542 108.455C157.682 109.042 158.226 109.458 158.832 109.362C159.509 109.254 160.059 108.898 160.492 108.386C160.664 108.181 160.717 107.813 160.667 107.555C160.617 107.294 160.441 106.998 160.214 106.848C159.674 106.492 159.074 106.618 158.683 107.082Z" fill="#71D7D5"/>
<path d="M147.825 106.141C147.714 106.376 147.909 106.033 147.819 106.149C147.777 106.204 147.744 106.267 147.702 106.322C147.684 106.347 147.531 106.525 147.636 106.412C147.742 106.297 147.557 106.48 147.552 106.485C147.51 106.522 147.465 106.554 147.422 106.59C147.227 106.753 147.541 106.539 147.414 106.603C147.274 106.673 147.143 106.738 146.994 106.79C146.455 106.979 146.221 107.748 146.486 108.245C146.79 108.817 147.378 108.998 147.956 108.796C148.848 108.484 149.502 107.785 149.895 106.945C150.136 106.429 149.766 105.7 149.233 105.519C148.622 105.312 148.083 105.588 147.825 106.141Z" fill="#71D7D5"/>
<path d="M135.166 106.162C135.145 106.225 135.115 106.285 135.095 106.348C135.053 106.482 135.197 106.196 135.117 106.311C135.08 106.365 135.048 106.423 135.009 106.477C134.989 106.503 134.845 106.679 134.951 106.558C135.047 106.449 134.927 106.576 134.905 106.596C134.856 106.64 134.803 106.68 134.751 106.722C134.611 106.836 134.781 106.693 134.787 106.703C134.791 106.71 134.582 106.804 134.573 106.808C134.051 107.037 133.784 107.738 134.064 108.263C134.35 108.801 134.976 109.059 135.534 108.814C136.329 108.464 136.952 107.79 137.236 106.967C137.422 106.428 137.148 105.734 136.574 105.54C136.012 105.35 135.365 105.586 135.166 106.162Z" fill="#71D7D5"/>
<path d="M123.575 105.694C123.549 105.771 123.463 105.898 123.462 105.975C123.463 105.914 123.57 105.805 123.481 105.923C123.443 105.974 123.41 106.027 123.371 106.077C123.353 106.101 123.241 106.234 123.342 106.118C123.441 106.004 123.326 106.127 123.302 106.148C123.24 106.203 122.956 106.385 123.199 106.241C122.711 106.529 122.388 107.129 122.69 107.697C122.95 108.184 123.637 108.556 124.16 108.247C124.85 107.841 125.384 107.272 125.645 106.499C125.827 105.96 125.559 105.268 124.983 105.073C124.424 104.884 123.77 105.117 123.575 105.694Z" fill="#71D7D5"/>
<path d="M112.232 110.114C112.177 110.161 112.122 110.208 112.067 110.255C111.854 110.438 111.709 110.71 111.686 110.995C111.666 111.263 111.76 111.596 111.948 111.802C112.142 112.016 112.406 112.187 112.699 112.204C112.988 112.222 113.277 112.156 113.499 111.966C113.554 111.919 113.609 111.872 113.664 111.825C113.877 111.642 114.023 111.37 114.045 111.085C114.065 110.817 113.971 110.484 113.783 110.278C113.589 110.064 113.325 109.894 113.032 109.876C112.743 109.858 112.454 109.924 112.232 110.114Z" fill="#71D7D5"/>
<path d="M103.657 118.754C103.696 119.017 103.735 119.279 103.775 119.542C103.86 120.113 104.504 120.567 105.065 120.448C105.665 120.321 106.026 119.796 105.935 119.183C105.896 118.921 105.856 118.658 105.817 118.396C105.732 117.824 105.087 117.37 104.527 117.489C103.927 117.617 103.566 118.142 103.657 118.754Z" fill="#71D7D5"/>
<path d="M100.474 129.705C100.547 129.789 100.62 129.874 100.693 129.958C100.882 130.177 101.158 130.33 101.444 130.36C101.713 130.389 102.043 130.304 102.244 130.122C102.452 129.934 102.615 129.675 102.625 129.382C102.634 129.093 102.56 128.802 102.363 128.575C102.29 128.491 102.218 128.406 102.145 128.322C101.956 128.103 101.68 127.95 101.394 127.919C101.125 127.891 100.794 127.976 100.594 128.158C100.386 128.346 100.222 128.605 100.213 128.898C100.204 129.186 100.278 129.478 100.474 129.705Z" fill="#71D7D5"/>
<path d="M97.9681 157.777C97.9513 157.816 97.9143 157.868 97.9081 157.91C97.9169 157.852 98.0154 157.731 97.9323 157.851C97.8695 157.941 97.8047 158.027 97.738 158.114C97.6553 158.222 97.8845 157.986 97.7765 158.069C97.7386 158.098 97.705 158.135 97.6681 158.165C97.6312 158.196 97.5884 158.222 97.5533 158.255C97.4537 158.346 97.7785 158.126 97.574 158.244C97.0835 158.528 96.7641 159.135 97.0651 159.699C97.3269 160.19 98.0095 160.554 98.5354 160.25C99.2237 159.852 99.7217 159.316 100.038 158.582C100.264 158.058 99.9213 157.34 99.3762 157.155C98.7796 156.953 98.2098 157.217 97.9681 157.777Z" fill="#71D7D5"/>
<path d="M96.3767 169.707C96.3677 169.73 96.3578 169.752 96.3468 169.773C96.3904 169.69 96.4339 169.607 96.4775 169.524C96.4372 169.599 96.3899 169.666 96.3326 169.73C96.3955 169.662 96.4584 169.594 96.5211 169.526C96.4701 169.579 96.4158 169.624 96.3555 169.665C96.4338 169.616 96.5122 169.567 96.5906 169.518C96.5181 169.563 96.4438 169.598 96.362 169.625C96.4522 169.597 96.5423 169.57 96.6325 169.542C96.5972 169.552 96.5624 169.561 96.5264 169.568C96.2516 169.621 95.994 169.772 95.8321 170.001C95.6765 170.221 95.5915 170.561 95.6565 170.832C95.7219 171.106 95.8667 171.379 96.1101 171.539C96.3569 171.702 96.6544 171.795 96.9467 171.739C97.6413 171.605 98.1724 171.155 98.4468 170.512C98.554 170.26 98.5196 169.904 98.4013 169.657C98.2857 169.416 98.0415 169.172 97.7846 169.085C97.19 168.884 96.6161 169.146 96.3767 169.707Z" fill="#71D7D5"/>
<path d="M96.4215 177.085C96.4619 177.137 96.5575 177.225 96.5719 177.289C96.5653 177.26 96.444 177.075 96.5203 177.21C96.5464 177.256 96.5738 177.301 96.5991 177.348C96.6852 177.506 96.7571 177.67 96.819 177.838C96.9098 178.084 97.2002 178.318 97.4357 178.41C97.6926 178.509 98.0447 178.514 98.2893 178.389C98.8545 178.099 99.0135 177.518 98.7982 176.933C98.6348 176.489 98.3833 176.076 98.0919 175.701C97.7329 175.24 96.9643 175.154 96.541 175.538C96.0921 175.944 96.0385 176.592 96.4215 177.085Z" fill="#71D7D5"/>
<path d="M152.639 89.9898C152.542 90.4016 152.471 90.5761 152.221 90.8699C152.072 91.0457 151.81 91.2091 151.533 91.3195C150.987 91.5375 150.774 92.2516 151.024 92.7746C151.295 93.3382 151.947 93.5442 152.495 93.3253C153.571 92.8954 154.441 91.9325 154.709 90.7944C154.845 90.2207 154.652 89.6024 154.047 89.368C153.538 89.1708 152.775 89.4119 152.639 89.9898Z" fill="#D2F5F2"/>
<path d="M158.124 79.2295C157.932 79.4486 157.74 79.6676 157.547 79.8867C157.373 80.0858 157.323 80.4643 157.372 80.718C157.422 80.979 157.598 81.2748 157.825 81.4248C158.07 81.5858 158.373 81.6856 158.662 81.6243C158.956 81.5619 159.16 81.4141 159.356 81.1907C159.548 80.9716 159.74 80.7526 159.933 80.5335C160.107 80.3345 160.157 79.9559 160.108 79.7023C160.058 79.4412 159.882 79.1454 159.655 78.9955C159.41 78.8345 159.107 78.7348 158.818 78.7961C158.524 78.8584 158.32 79.0061 158.124 79.2295Z" fill="#D2F5F2"/>
<path d="M162.563 72.0038C162.508 72.0508 162.453 72.0979 162.398 72.1449C162.185 72.3276 162.039 72.5994 162.017 72.8845C161.996 73.1528 162.091 73.4859 162.278 73.6919C162.473 73.9054 162.736 74.0763 163.029 74.0941C163.318 74.1116 163.608 74.0454 163.829 73.8556C163.884 73.8086 163.939 73.7615 163.994 73.7145C164.208 73.5318 164.353 73.2601 164.375 72.9749C164.396 72.7067 164.301 72.3735 164.114 72.1676C163.919 71.9542 163.656 71.7832 163.363 71.7654C163.074 71.7477 162.784 71.814 162.563 72.0038Z" fill="#D2F5F2"/>
<path d="M148.646 114.527C148.365 114.685 148.178 114.832 147.972 115.075C147.836 115.236 147.735 115.432 147.66 115.628C147.56 115.89 147.583 116.227 147.706 116.483C147.821 116.724 148.065 116.968 148.322 117.055C148.598 117.148 148.914 117.168 149.176 117.034C149.43 116.903 149.627 116.705 149.73 116.433C149.747 116.389 149.767 116.346 149.789 116.303C149.745 116.387 149.702 116.47 149.658 116.553C149.694 116.491 149.734 116.434 149.781 116.379C149.718 116.447 149.655 116.515 149.592 116.583C149.65 116.521 149.711 116.468 149.781 116.422C149.702 116.471 149.624 116.52 149.546 116.569C149.565 116.556 149.586 116.544 149.607 116.533C149.858 116.392 150.06 116.212 150.161 115.932C150.254 115.678 150.248 115.326 150.116 115.078C149.983 114.828 149.774 114.599 149.499 114.506C149.23 114.415 148.898 114.385 148.646 114.527Z" fill="#D2F5F2"/>
<path d="M147.151 123.36C147.224 123.445 147.297 123.529 147.37 123.613C147.559 123.832 147.835 123.986 148.121 124.016C148.389 124.044 148.72 123.959 148.921 123.777C149.129 123.589 149.292 123.33 149.302 123.037C149.311 122.749 149.236 122.457 149.04 122.23C148.967 122.146 148.894 122.061 148.821 121.977C148.633 121.758 148.357 121.605 148.071 121.575C147.802 121.546 147.471 121.632 147.27 121.813C147.062 122.002 146.899 122.26 146.89 122.553C146.88 122.842 146.955 123.133 147.151 123.36Z" fill="#D2F5F2"/>
<path d="M141.947 138.708C141.81 138.826 141.672 138.943 141.535 139.061C141.322 139.244 141.176 139.515 141.154 139.8C141.133 140.069 141.228 140.402 141.416 140.608C141.61 140.821 141.873 140.992 142.166 141.01C142.456 141.027 142.745 140.961 142.967 140.771C143.104 140.654 143.241 140.536 143.378 140.419C143.592 140.236 143.737 139.964 143.759 139.679C143.78 139.411 143.685 139.078 143.498 138.872C143.304 138.658 143.04 138.487 142.747 138.47C142.458 138.452 142.169 138.518 141.947 138.708Z" fill="#D2F5F2"/>
<path d="M131.419 147.67C131.294 147.581 131.169 147.492 131.045 147.403C130.809 147.234 130.49 147.157 130.208 147.203C129.948 147.246 129.658 147.413 129.514 147.637C129.197 148.13 129.285 148.813 129.792 149.175C129.917 149.264 130.041 149.353 130.166 149.442C130.402 149.611 130.721 149.688 131.003 149.641C131.262 149.598 131.553 149.431 131.697 149.208C132.014 148.715 131.926 148.032 131.419 147.67Z" fill="#D2F5F2"/>
<path d="M122.602 149.968C122.609 150.004 122.614 150.041 122.618 150.078C122.628 150.163 122.626 150.126 122.614 149.966C122.599 150.027 122.612 150.123 122.606 150.187C122.603 150.211 122.6 150.235 122.597 150.259C122.577 150.38 122.583 150.356 122.616 150.188C122.619 150.189 122.55 150.388 122.547 150.396C122.347 150.929 122.646 151.631 123.209 151.822C123.784 152.017 124.403 151.771 124.618 151.2C124.809 150.692 124.849 150.151 124.762 149.609C124.67 149.039 124.037 148.583 123.472 148.703C122.877 148.829 122.503 149.356 122.602 149.968Z" fill="#D2F5F2"/>
<path d="M102.376 149.588C102.679 150.251 103.095 150.876 103.6 151.406C104.003 151.828 104.697 151.98 105.151 151.569C105.563 151.197 105.701 150.473 105.27 150.022C105.06 149.802 104.87 149.569 104.694 149.321C104.643 149.249 104.627 149.21 104.683 149.307C104.649 149.249 104.614 149.192 104.581 149.133C104.498 148.987 104.424 148.836 104.355 148.684C104.113 148.154 103.4 147.869 102.885 148.133C102.353 148.405 102.117 149.022 102.376 149.588Z" fill="#D2F5F2"/>
<path d="M96.474 150.084C96.457 150.129 96.4378 150.172 96.4156 150.214C96.4592 150.131 96.5028 150.047 96.5463 149.964C96.5106 150.027 96.4703 150.084 96.4235 150.138C96.4864 150.07 96.5492 150.002 96.612 149.935C96.5549 149.996 96.4934 150.049 96.4236 150.095C96.502 150.046 96.5804 149.997 96.6587 149.948C96.6388 149.96 96.6184 149.972 96.5975 149.984C96.3466 150.124 96.1445 150.305 96.043 150.584C95.9504 150.838 95.9561 151.191 96.0885 151.439C96.2214 151.688 96.4304 151.918 96.7052 152.011C96.9748 152.102 97.306 152.131 97.5588 151.989C97.8391 151.832 98.027 151.685 98.2323 151.442C98.3679 151.281 98.4695 151.085 98.5441 150.889C98.6437 150.627 98.6218 150.291 98.4987 150.034C98.3831 149.793 98.1389 149.549 97.882 149.462C97.6062 149.369 97.29 149.349 97.0283 149.483C96.7741 149.614 96.5773 149.812 96.474 150.084Z" fill="#D2F5F2"/>
<path d="M78.981 151.931C79.3912 152.489 79.9885 152.921 80.6354 153.154C81.1807 153.351 81.8645 153.104 82.0435 152.533C82.2164 151.98 81.9657 151.316 81.3814 151.106C81.3412 151.092 81.1154 150.97 81.0886 150.984C81.119 150.969 81.2779 151.105 81.1341 151.005C81.0796 150.967 81.0235 150.932 80.9702 150.892C80.9277 150.86 80.8881 150.824 80.8457 150.792C80.7305 150.706 80.9708 150.935 80.8804 150.823C80.8051 150.73 80.7229 150.645 80.6515 150.547C80.3048 150.076 79.5157 150.008 79.1005 150.384C78.6416 150.799 78.6112 151.428 78.981 151.931Z" fill="#D2F5F2"/>
<path d="M73.0012 152.795C72.9572 153.077 72.9132 153.359 72.8693 153.64C72.7807 154.207 73.3191 154.816 73.8816 154.85C74.516 154.888 74.9679 154.479 75.0627 153.872C75.1067 153.59 75.1507 153.308 75.1946 153.027C75.2832 152.46 74.7448 151.851 74.1823 151.817C73.548 151.779 73.096 152.188 73.0012 152.795Z" fill="#D2F5F2"/>
<path d="M64.6721 158.03C64.6562 157.835 64.667 158.176 64.6665 158.186C64.6608 158.299 64.6478 158.41 64.6307 158.522C64.6587 158.339 64.597 158.64 64.587 158.671C64.5526 158.777 64.5102 158.881 64.4658 158.983C64.2393 159.506 64.5834 160.225 65.128 160.41C65.7253 160.612 66.2937 160.348 66.5361 159.788C66.8282 159.113 66.8919 158.405 66.8321 157.671C66.7853 157.095 66.0753 156.652 65.5419 156.765C64.9098 156.899 64.6219 157.412 64.6721 158.03Z" fill="#D2F5F2"/>
</svg>
