<svg width="252" height="252" viewBox="0 0 252 252" fill="none" xmlns="http://www.w3.org/2000/svg">
<circle opacity="0.5" cx="129.826" cy="133.874" r="78.975" fill="#D2F5F2"/>
<circle cx="199.95" cy="63.95" r="4.95" fill="#71D7D5"/>
<circle cx="80.5756" cy="48.8246" r="9.225" fill="#71D7D5"/>
<circle cx="53.3755" cy="184.724" r="8.775" fill="#71D7D5"/>
<circle cx="214.426" cy="176.174" r="8.775" fill="#71D7D5"/>
<circle cx="197.326" cy="186.075" r="4.275" fill="#71D7D5"/>
<path d="M128.037 52.5911C127.776 52.5356 127.776 52.1632 128.037 52.1078L131.982 51.2689C132.077 51.2487 132.151 51.1746 132.172 51.0796L133.021 47.1629C133.077 46.9033 133.448 46.9033 133.504 47.1629L134.353 51.0796C134.374 51.1746 134.448 51.2487 134.543 51.2689L138.488 52.1078C138.749 52.1632 138.749 52.5356 138.488 52.5911L134.543 53.4299C134.448 53.4501 134.374 53.5242 134.353 53.6192L133.504 57.5359C133.448 57.7955 133.077 57.7955 133.021 57.5359L132.172 53.6192C132.151 53.5242 132.077 53.4501 131.982 53.4299L128.037 52.5911Z" fill="#43BDBE"/>
<path d="M37.0008 103.33C37.1015 102.854 37.7806 102.854 37.8813 103.33L39.3855 110.437C39.4222 110.61 39.557 110.745 39.73 110.783L46.7633 112.315C47.2355 112.418 47.2355 113.092 46.7633 113.195L39.73 114.727C39.557 114.764 39.4222 114.9 39.3855 115.073L37.8813 122.18C37.7806 122.656 37.1015 122.656 37.0008 122.18L35.4965 115.073C35.4598 114.9 35.325 114.764 35.152 114.727L28.1188 113.195C27.6465 113.092 27.6465 112.418 28.1188 112.315L35.152 110.783C35.325 110.745 35.4598 110.61 35.4965 110.437L37.0008 103.33Z" fill="#43BDBE"/>
<path d="M208.406 95.8299C208.507 95.3541 209.186 95.3541 209.286 95.8299L210.164 99.9757C210.201 100.149 210.335 100.285 210.508 100.322L214.623 101.219C215.095 101.322 215.095 101.995 214.623 102.098L210.508 102.994C210.335 103.032 210.201 103.168 210.164 103.341L209.286 107.487C209.186 107.963 208.507 107.963 208.406 107.487L207.528 103.341C207.492 103.168 207.357 103.032 207.184 102.994L203.069 102.098C202.597 101.995 202.597 101.322 203.069 101.219L207.184 100.322C207.357 100.285 207.492 100.149 207.528 99.9757L208.406 95.8299Z" fill="#43BDBE"/>
<path d="M205.795 119L207.173 125.51L213.591 126.908L207.173 128.306L205.795 134.817L204.417 128.306L198 126.908L204.417 125.51L205.795 119Z" fill="#43BDBE"/>
<path d="M197.715 106.221C199.998 107.616 200.685 110.549 199.252 112.77L186.414 132.662L181.309 140.572L154.711 181.776C153.277 183.997 150.264 184.667 147.981 183.272L106.286 157.784C104.003 156.388 103.314 153.456 104.749 151.233L130.403 111.484L136.086 102.693L149.297 82.2245C150.731 80.0021 153.745 79.3329 156.028 80.7287L197.715 106.221Z" fill="#A5EAE6"/>
<path opacity="0.5" d="M129.051 168.734C128.075 168.138 127.778 166.873 128.391 165.922L172.469 97.6394C173.082 96.6898 174.382 96.4004 175.359 96.9971C176.335 97.5938 176.632 98.859 176.019 99.8093L131.94 168.092C131.326 169.043 130.026 169.331 129.051 168.734Z" stroke="#D2F5F2" stroke-miterlimit="10"/>
<path d="M161.148 101.464C159.285 104.351 155.371 105.22 152.406 103.407C149.44 101.594 148.547 97.7849 150.409 94.8988C152.272 92.0128 156.186 91.1433 159.152 92.9561C162.117 94.7697 163.011 98.5791 161.148 101.464Z" fill="#71D7D5"/>
<path d="M160.989 100.535C159.126 103.421 155.212 104.29 152.247 102.477C149.281 100.665 148.388 96.8552 150.251 93.9691C152.113 91.0831 156.028 90.2136 158.993 92.0264C161.957 93.84 162.851 97.6494 160.989 100.535Z" fill="#D2F5F2" stroke="#A5EAE6" stroke-width="0.740436" stroke-miterlimit="10"/>
<path d="M150.857 117.407C148.994 120.293 145.08 121.163 142.115 119.35C139.149 117.537 138.256 113.728 140.119 110.842C141.981 107.956 145.896 107.087 148.861 108.899C151.826 110.712 152.721 114.521 150.857 117.407Z" fill="#71D7D5"/>
<path d="M150.698 116.475C148.835 119.361 144.921 120.231 141.956 118.418C138.99 116.605 138.097 112.796 139.96 109.91C141.823 107.024 145.737 106.154 148.702 107.967C151.667 109.78 152.561 113.589 150.698 116.475Z" fill="#D2F5F2" stroke="#A5EAE6" stroke-width="0.740436" stroke-miterlimit="10"/>
<path d="M140.31 133.748C138.447 136.634 134.533 137.503 131.568 135.69C128.602 133.878 127.709 130.068 129.572 127.182C131.434 124.296 135.349 123.426 138.314 125.239C141.279 127.053 142.172 130.862 140.31 133.748Z" fill="#71D7D5"/>
<path d="M140.149 132.815C138.287 135.701 134.372 136.571 131.407 134.758C128.441 132.945 127.548 129.135 129.411 126.249C131.273 123.363 135.188 122.494 138.152 124.307C141.119 126.12 142.013 129.929 140.149 132.815Z" fill="#D2F5F2" stroke="#A5EAE6" stroke-width="0.740436" stroke-miterlimit="10"/>
<path d="M128.99 151.282C127.127 154.168 123.213 155.037 120.248 153.225C117.282 151.412 116.389 147.602 118.252 144.716C120.115 141.83 124.029 140.961 126.994 142.774C129.959 144.586 130.852 148.396 128.99 151.282Z" fill="#71D7D5"/>
<path d="M128.83 150.351C126.967 153.237 123.053 154.107 120.087 152.294C117.122 150.481 116.229 146.672 118.091 143.786C119.954 140.899 123.868 140.03 126.834 141.843C129.799 143.656 130.693 147.465 128.83 150.351Z" fill="#D2F5F2" stroke="#A5EAE6" stroke-width="0.740436" stroke-miterlimit="10"/>
<path d="M188.039 117.906C186.176 120.792 182.262 121.661 179.297 119.849C176.332 118.036 175.438 114.226 177.301 111.34C179.164 108.454 183.078 107.585 186.043 109.398C189.008 111.21 189.902 115.02 188.039 117.906Z" fill="#71D7D5"/>
<path d="M187.879 116.975C186.017 119.861 182.102 120.731 179.137 118.918C176.171 117.105 175.278 113.296 177.141 110.41C179.003 107.524 182.918 106.654 185.883 108.467C188.849 110.28 189.742 114.09 187.879 116.975Z" fill="#D2F5F2" stroke="#A5EAE6" stroke-width="0.740436" stroke-miterlimit="10"/>
<path d="M177.748 133.849C175.885 136.735 171.971 137.605 169.006 135.792C166.041 133.979 165.148 130.17 167.01 127.284C168.873 124.398 172.787 123.528 175.753 125.341C178.718 127.154 179.612 130.963 177.748 133.849Z" fill="#71D7D5"/>
<path d="M177.588 132.918C175.726 135.804 171.811 136.673 168.846 134.86C165.88 133.047 164.987 129.238 166.85 126.352C168.712 123.466 172.627 122.596 175.592 124.409C178.558 126.222 179.451 130.032 177.588 132.918Z" fill="#D2F5F2" stroke="#A5EAE6" stroke-width="0.740436" stroke-miterlimit="10"/>
<path d="M167.2 150.188C165.338 153.074 161.423 153.944 158.458 152.131C155.492 150.318 154.599 146.509 156.462 143.622C158.325 140.736 162.239 139.867 165.204 141.68C168.17 143.493 169.063 147.302 167.2 150.188Z" fill="#71D7D5"/>
<path d="M167.041 149.256C165.178 152.143 161.264 153.012 158.298 151.199C155.333 149.386 154.439 145.577 156.302 142.691C158.165 139.805 162.079 138.935 165.044 140.748C168.009 142.562 168.903 146.37 167.041 149.256Z" fill="#D2F5F2" stroke="#A5EAE6" stroke-width="0.740436" stroke-miterlimit="10"/>
<path d="M155.881 167.725C154.018 170.611 150.104 171.481 147.138 169.668C144.173 167.855 143.279 164.046 145.142 161.16C147.005 158.273 150.919 157.404 153.885 159.217C156.85 161.03 157.744 164.839 155.881 167.725Z" fill="#71D7D5"/>
<path d="M155.72 166.793C153.857 169.679 149.943 170.548 146.978 168.735C144.013 166.922 143.119 163.113 144.982 160.227C146.845 157.341 150.759 156.471 153.725 158.284C156.689 160.097 157.584 163.907 155.72 166.793Z" fill="#D2F5F2" stroke="#A5EAE6" stroke-width="0.740436" stroke-miterlimit="10"/>
<path d="M127.118 165.2C124.538 167.473 117.236 172.926 102.702 176.979V176.988L101.894 177.213L101.885 177.204C97.3651 178.388 93.372 179.114 89.9231 179.52C83.6832 180.272 79.172 180.004 76.4426 179.641C75.7933 179.546 75.2403 179.459 74.7925 179.373C73.8797 179.191 73.1335 178.569 72.8181 177.696C72.186 175.968 71.0015 172.658 69.518 168.432C69.4914 168.354 69.4654 168.276 69.4388 168.19C65.7085 157.577 60.206 141.442 57.239 130.474C56.4143 127.415 55.7733 124.753 55.4401 122.739C55.4053 122.592 55.3876 122.445 55.3609 122.307C53.3074 109.127 60.9781 104.996 60.9781 104.996L60.6184 103.717L59.1963 98.609L66.3667 94.841L78.619 92.3086L98.5769 87.9443L100.359 94.3308C100.359 94.3308 107.941 94.0545 113.076 104.002C113.462 104.728 113.822 105.523 114.173 106.37C114.674 107.588 115.218 109.127 115.779 110.924C118.798 120.491 122.555 137.119 125.144 149.244C125.258 149.754 125.363 150.264 125.469 150.757C126.627 156.244 127.523 160.652 127.953 162.769C128.127 163.671 127.811 164.578 127.118 165.2Z" fill="#A5EAE6"/>
<path d="M125.143 149.246C121.194 153.403 117.973 155.892 107.388 160.11C95.4174 164.88 82.3929 167.17 69.4387 168.19C65.7085 157.577 60.206 141.442 57.239 130.474C56.4143 127.415 55.7732 124.754 55.4401 122.739C75.8458 121.435 95.8911 114.91 113.076 104.003C113.462 104.729 113.822 105.524 114.173 106.371C114.673 107.589 115.218 109.128 115.779 110.925C118.798 120.493 122.555 137.121 125.143 149.246Z" fill="#D2F5F2"/>
<path d="M91.7016 125.646L87.0559 127.131L95.6742 153.281L100.32 151.796L91.7016 125.646Z" fill="#D93502"/>
<path d="M106.052 138.431L104.317 133.15L81.3068 140.481L83.0418 145.762L106.052 138.431Z" fill="#D93502"/>
<path d="M100.516 87.5826C100.516 87.5826 99.788 88.8875 97.1726 90.9016C97.1112 90.9533 97.0498 91.0051 96.9883 91.0488C95.795 91.9563 94.2152 93.0104 92.161 94.16C92.0995 94.1862 92.0381 94.2293 91.9678 94.2635C90.3443 95.1536 88.4137 96.1042 86.1491 97.0897C86.0877 97.1153 86.0174 97.1415 85.9471 97.1758C84.3939 97.8413 82.6824 98.5243 80.7955 99.2066C80.3831 99.3532 79.9789 99.5004 79.5844 99.6302C79.514 99.6564 79.4526 99.6819 79.3823 99.6994H79.3734C76.758 100.598 74.3529 101.246 72.1764 101.705C72.1061 101.722 72.0269 101.739 71.9573 101.748C69.6136 102.241 67.5341 102.517 65.6997 102.638C65.6205 102.647 65.542 102.655 65.4717 102.655C63.1198 102.811 61.1973 102.716 59.7056 102.543C59.6264 102.534 59.5479 102.526 59.4776 102.509C57.0643 102.215 55.8532 101.705 55.8532 101.705L52.1318 87.0563C51.9912 86.5117 51.9652 85.9585 52.0437 85.4227C52.0526 85.3447 52.0615 85.2755 52.0786 85.1981C52.3155 83.9968 53.0616 82.9252 54.1847 82.2684C67.4809 74.4642 84.9551 72.4938 92.3453 72.0098C93.1263 71.958 93.8814 72.1133 94.5484 72.4333C94.6187 72.4683 94.689 72.5026 94.7593 72.5368C95.7513 73.0814 96.5145 73.9889 96.8484 75.1123L100.516 87.5826Z" fill="#F2FBFA" stroke="#D2F5F2" stroke-width="0.5"/>
<path d="M94.759 72.5358C93.5042 73.6074 92.1784 74.5667 90.8096 75.4481C90.7482 75.4823 90.6868 75.526 90.6253 75.5691C88.8701 76.6669 87.0446 77.6349 85.1842 78.49C85.1139 78.5243 85.0525 78.5505 84.9822 78.5848C83.1921 79.4056 81.3837 80.1229 79.5848 80.771V80.7797C79.5144 80.7972 79.4441 80.8228 79.3738 80.849V80.8577C77.8644 81.3935 76.3631 81.8863 74.9063 82.3441C74.5028 82.4738 74.0898 82.5948 73.6685 82.7158C73.5982 82.7414 73.5279 82.7589 73.4494 82.7851C71.5713 83.3209 69.5874 83.7962 67.4724 84.2197C67.4021 84.2372 67.3229 84.2459 67.2532 84.2627C65.9104 84.5222 64.5149 84.7642 63.0581 84.9887C62.3208 85.101 61.6278 85.2045 60.969 85.3C60.8898 85.3087 60.8195 85.3175 60.7499 85.3262C58.6875 85.6113 56.9759 85.784 55.4576 85.784C55.3081 85.784 55.1682 85.784 55.0275 85.7753C54.9483 85.7753 54.8698 85.7753 54.7995 85.7665C53.8253 85.741 52.9214 85.6281 52.0435 85.421C52.0523 85.343 52.0612 85.2738 52.0783 85.1965C54.9483 85.8707 58.0109 85.542 63.0314 84.7817C67.4546 84.1074 71.3166 83.2348 74.8359 82.137C79.9616 80.5297 85.5611 78.4988 90.5284 75.3613L90.5372 75.3526L90.555 75.3439C91.9416 74.4713 93.2844 73.5032 94.5481 72.4316C94.6184 72.4666 94.6887 72.5009 94.759 72.5358Z" fill="#D2F5F2"/>
<path d="M59.7056 102.542C59.6264 102.534 59.5479 102.525 59.4776 102.508L54.7998 85.7674L54.7909 85.75L55.0018 85.6895L55.0278 85.7762L59.7056 102.542Z" fill="#D2F5F2"/>
<path d="M65.6997 102.639C65.6205 102.647 65.542 102.656 65.4717 102.656C64.7521 100.003 64.0237 97.3238 63.2864 94.6361C62.4351 91.5162 61.5837 88.3962 60.7502 85.328C60.7413 85.3018 60.7413 85.285 60.7324 85.2588L60.9434 85.207C60.9522 85.2413 60.9611 85.2675 60.9693 85.3018C61.8029 88.3525 62.646 91.4725 63.4973 94.5749C64.234 97.2808 64.9713 99.9772 65.6997 102.639Z" fill="#D2F5F2"/>
<path d="M72.1773 101.703C72.107 101.72 72.0278 101.737 71.9582 101.746C70.3606 95.9296 68.7809 90.044 67.2537 84.2626C67.236 84.2196 67.2271 84.1846 67.2189 84.1416L67.438 84.0898C67.4469 84.1329 67.4647 84.1766 67.4735 84.2196C68.9912 90.0097 70.5709 95.8866 72.1773 101.703Z" fill="#D2F5F2"/>
<path d="M79.5843 99.6309C79.514 99.6571 79.4526 99.6827 79.3823 99.7002H79.3734C77.4687 94.0566 75.4766 88.3787 73.449 82.7868C73.4401 82.7438 73.4223 82.7001 73.4053 82.6571L73.6162 82.5791C73.634 82.6221 73.6511 82.6739 73.6688 82.7176C75.6875 88.3094 77.6714 93.9961 79.5843 99.6309Z" fill="#D2F5F2"/>
<path d="M86.1491 97.09C86.0877 97.1156 86.0174 97.1418 85.9471 97.1761L79.3734 80.8591L79.2942 80.6688L79.5051 80.5908L79.5843 80.7811L86.1491 97.09Z" fill="#D2F5F2"/>
<path d="M92.161 94.1603C92.0995 94.1865 92.0381 94.2295 91.9678 94.2638C89.5189 89.1042 87.1759 83.8411 84.9817 78.5868C84.9729 78.5693 84.9729 78.5606 84.964 78.5438L85.1661 78.457C85.1749 78.4658 85.1749 78.4826 85.1838 78.4913C87.3691 83.7464 89.7128 89.0095 92.161 94.1603Z" fill="#D2F5F2"/>
<path d="M97.1726 90.8994C97.1112 90.9512 97.0497 91.0029 96.9883 91.0466C95.0747 85.8178 92.9419 80.6239 90.6256 75.5679C90.5907 75.4986 90.5641 75.4294 90.5293 75.3602L90.5382 75.3514L90.7314 75.2734C90.758 75.3339 90.7839 75.3857 90.8106 75.4462C93.1181 80.4855 95.2597 85.6706 97.1726 90.8994Z" fill="#D2F5F2"/>
<path d="M112 74.1599L134.258 68L144 105.84L121.742 112L112 74.1599Z" fill="#D2F5F2"/>
<path d="M119.704 84.2099C118.91 80.7792 120.949 77.3311 124.258 76.5083C127.567 75.6856 130.893 77.7998 131.686 81.2305C132.48 84.6612 130.441 88.1094 127.132 88.9321C123.823 89.7549 120.497 87.6407 119.704 84.2099Z" fill="#A5EAE6"/>
<path d="M124.918 88.4401C128.32 88.5358 131.152 85.7543 131.244 82.2278C131.337 78.7007 128.654 75.7641 125.253 75.6684C121.851 75.5727 119.019 78.3542 118.926 81.8807C118.834 85.4078 121.517 88.3444 124.918 88.4401Z" fill="#F2FBFA"/>
<path d="M120.123 78.4688L129.684 86.2767" stroke="#D2F5F2" stroke-width="0.271137" stroke-miterlimit="10" stroke-linecap="round" stroke-linejoin="round"/>
<path d="M129.907 105.625C133.309 105.72 136.142 102.939 136.234 99.4124C136.326 95.8853 133.644 92.9487 130.242 92.853C126.84 92.7573 124.008 95.5388 123.916 99.0652C123.823 102.592 126.506 105.529 129.907 105.625Z" fill="#A5EAE6"/>
<path d="M124.935 102.907C122.628 100.313 122.785 96.2718 125.286 93.8797C127.788 91.4876 131.686 91.651 133.993 94.2445C136.3 96.838 136.143 100.88 133.641 103.272C131.14 105.664 127.242 105.5 124.935 102.907Z" fill="#F2FBFA"/>
<path d="M124.507 94.9902L134.068 102.799" stroke="#D2F5F2" stroke-width="0.271137" stroke-miterlimit="10" stroke-linecap="round" stroke-linejoin="round"/>
</svg>
