<svg width="252" height="252" viewBox="0 0 252 252" fill="none" xmlns="http://www.w3.org/2000/svg">
<circle opacity="0.5" cx="129.826" cy="133.874" r="78.975" fill="#D2F5F2"/>
<circle cx="76.95" cy="94.95" r="4.95" fill="#71D7D5"/>
<circle cx="91.5756" cy="48.8246" r="9.225" fill="#71D7D5"/>
<circle cx="57.3756" cy="184.724" r="8.775" fill="#71D7D5"/>
<circle cx="214.425" cy="176.174" r="8.775" fill="#71D7D5"/>
<circle cx="197.326" cy="186.075" r="4.275" fill="#71D7D5"/>
<path d="M128.037 64.5911C127.776 64.5356 127.776 64.1632 128.037 64.1078L131.981 63.2689C132.076 63.2487 132.151 63.1746 132.171 63.0796L133.021 59.1629C133.077 58.9033 133.447 58.9033 133.504 59.1629L134.353 63.0796C134.374 63.1746 134.448 63.2487 134.543 63.2689L138.488 64.1078C138.748 64.1632 138.748 64.5356 138.488 64.5911L134.543 65.4299C134.448 65.4501 134.374 65.5242 134.353 65.6192L133.504 69.5359C133.447 69.7955 133.077 69.7955 133.021 69.5359L132.171 65.6192C132.151 65.5242 132.076 65.4501 131.981 65.4299L128.037 64.5911Z" fill="#43BDBE"/>
<path d="M37.0009 103.33C37.1016 102.854 37.7807 102.854 37.8814 103.33L39.3856 110.437C39.4223 110.61 39.5571 110.745 39.7301 110.783L46.7634 112.315C47.2357 112.418 47.2357 113.092 46.7634 113.195L39.7301 114.727C39.5571 114.764 39.4223 114.9 39.3856 115.073L37.8814 122.18C37.7807 122.656 37.1016 122.656 37.0009 122.18L35.4966 115.073C35.46 114.9 35.3252 114.764 35.1522 114.727L28.1189 113.195C27.6466 113.092 27.6466 112.418 28.1189 112.315L35.1522 110.783C35.3252 110.745 35.46 110.61 35.4966 110.437L37.0009 103.33Z" fill="#43BDBE"/>
<path d="M208.406 95.8299C208.507 95.3541 209.186 95.3541 209.286 95.8299L210.164 99.9757C210.201 100.149 210.335 100.285 210.508 100.322L214.623 101.219C215.095 101.322 215.095 101.995 214.623 102.098L210.508 102.994C210.335 103.032 210.201 103.168 210.164 103.341L209.286 107.487C209.186 107.963 208.507 107.963 208.406 107.487L207.528 103.341C207.492 103.168 207.357 103.032 207.184 102.994L203.069 102.098C202.597 101.995 202.597 101.322 203.069 101.219L207.184 100.322C207.357 100.285 207.492 100.149 207.528 99.9757L208.406 95.8299Z" fill="#43BDBE"/>
<path d="M195.795 119L197.173 125.51L203.591 126.908L197.173 128.306L195.795 134.817L194.417 128.306L188 126.908L194.417 125.51L195.795 119Z" fill="#43BDBE"/>
<path d="M135.45 185.858L113.5 176L106.5 212H107L135.45 185.858Z" fill="#43BDBE" stroke="#43BDBE" stroke-width="1.5"/>
<path d="M189.674 69.75L95.3994 169.2L106.199 211.725L113.624 175.95L189.674 69.75Z" fill="#A5EAE6"/>
<path d="M94.9492 168.75L105.974 212H106.434L112.949 176.175" stroke="#71D7D5" stroke-width="1.5"/>
<path d="M189.674 69.75L113.399 175.725L173.249 202.5L189.674 69.75Z" fill="#D2F5F2" stroke="#71D7D5" stroke-width="1.5"/>
<path d="M189.675 68.8496L48.5996 148.95L94.9496 168.75L189.675 68.8496Z" fill="#D2F5F2" stroke="#71D7D5" stroke-width="1.5"/>
</svg>
