<svg width="250" height="275" viewBox="0 0 250 275" fill="none" xmlns="http://www.w3.org/2000/svg">
<path d="M211.614 129.521L211.077 129.174C214.651 123.709 217.04 117.712 218.178 111.35C219.278 105.205 219.17 98.9796 217.857 92.8468C216.545 86.7141 214.095 80.9832 210.574 75.8134C206.929 70.461 202.291 65.9474 196.788 62.3979C193.153 60.0532 189.237 58.2035 185.149 56.9C181.186 55.636 177.063 54.8856 172.895 54.6694C164.674 54.2431 156.414 55.9089 149.008 59.4865L148.69 59.6398L148.567 59.3111C145.98 52.3982 141.651 46.1899 136.048 41.3572C133.206 38.9055 130.057 36.8245 126.69 35.1716C123.218 33.4676 119.514 32.2195 115.679 31.4622C109.816 30.3043 103.9 30.3213 98.0961 31.5128C92.4898 32.6638 87.2227 34.8564 82.4411 38.0297C77.6596 41.2031 73.6046 45.1971 70.3889 49.901C67.0597 54.7708 64.7805 60.1923 63.6146 66.0149L62.986 65.8908C64.1687 59.9841 66.481 54.4841 69.8586 49.5434C73.1209 44.7714 77.2345 40.7196 82.085 37.5006C86.9355 34.2815 92.2788 32.0572 97.9663 30.8896C103.855 29.6807 109.856 29.6633 115.804 30.8379C119.694 31.6062 123.452 32.8723 126.974 34.601C130.39 36.2779 133.585 38.3892 136.468 40.8765C142.064 45.7026 146.407 51.881 149.044 58.7623C156.466 55.2422 164.716 53.6079 172.928 54.0337C177.151 54.2527 181.329 55.0131 185.345 56.2939C189.487 57.6146 193.454 59.4886 197.137 61.8639C202.712 65.4601 207.412 70.0334 211.105 75.4566C214.672 80.6946 217.155 86.501 218.484 92.7143C219.814 98.9277 219.923 105.235 218.809 111.461C217.656 117.907 215.235 123.983 211.614 129.521Z" fill="#FBCAD3"/>
<path d="M119.042 219.781C110.844 219.781 102.726 217.74 95.3979 213.75C89.0963 210.319 83.7496 205.694 79.506 200.003C77.471 197.275 75.7166 194.32 74.2916 191.222C72.8778 188.148 71.7806 184.917 71.0305 181.619L71.6557 181.479C72.396 184.734 73.479 187.924 74.8745 190.958C76.281 194.015 78.0125 196.931 80.021 199.625C84.2091 205.241 89.4863 209.805 95.7059 213.192C106.427 219.029 118.862 220.64 130.723 217.728C142.512 214.834 152.71 207.742 159.437 197.759L159.549 197.594L159.747 197.621C159.912 197.644 160.078 197.665 160.244 197.685L160.166 198.317C160.063 198.305 159.961 198.292 159.858 198.278C153.041 208.307 142.757 215.43 130.877 218.346C126.967 219.306 122.995 219.781 119.042 219.781Z" fill="#FBCAD3"/>
<path d="M217.268 187.395C214.957 192.365 211.414 196.712 206.895 200.031C203.009 202.884 198.659 204.822 193.964 205.791C191.713 206.255 189.402 206.486 187.096 206.476C184.808 206.467 182.512 206.221 180.273 205.746L180.363 205.328C182.573 205.797 184.839 206.039 187.098 206.048C189.374 206.058 191.654 205.83 193.876 205.372C198.509 204.416 202.803 202.503 206.639 199.686C213.249 194.832 217.745 187.746 219.299 179.734C220.844 171.77 219.36 163.588 215.119 156.694L215.049 156.58L215.122 156.467C215.182 156.374 215.242 156.279 215.301 156.185L215.668 156.41C215.631 156.469 215.594 156.527 215.557 156.585C219.8 163.546 221.279 171.79 219.723 179.815C219.21 182.456 218.382 184.998 217.268 187.395Z" fill="#FBCAD3"/>
<path d="M28.7323 134.001C28.7395 133.978 28.7467 133.955 28.7539 133.932C24.1341 129.44 21.3612 123.432 20.9404 116.994C20.5127 110.45 22.5623 104.033 26.7119 98.9263C29.1193 95.9635 32.0681 93.611 35.4765 91.9341C38.7695 90.3139 42.3082 89.4095 45.9942 89.2461L46.0227 89.882C42.4262 90.0414 38.9737 90.9237 35.7609 92.5044C32.436 94.1402 29.5593 96.4353 27.2106 99.326C23.1622 104.308 21.1626 110.568 21.5798 116.953C21.9947 123.299 24.7513 129.215 29.342 133.612L29.4863 133.75L29.4243 133.94C29.3973 134.022 29.3706 134.105 29.3447 134.189L28.9112 134.056L28.8971 134.07C28.8876 134.061 28.8778 134.052 28.8683 134.043L28.7323 134.001Z" fill="#FBCAD3"/>
<path d="M218.216 128.643C214.37 119.072 206.992 111.996 198.298 108.414C202.399 101.306 204.743 93.0709 204.743 84.2916C204.743 57.4559 182.838 35.7012 155.817 35.7012C138.016 35.7012 122.435 45.1434 113.875 59.2594C101.86 50.3939 85.6324 47.7402 70.7101 53.6543C49.5276 62.0493 38.4046 84.7634 44.1203 106.118C32.3589 111.087 24.1116 122.667 24.1116 136.161C24.1116 153.791 38.1893 168.154 55.7894 168.772C55.2928 171.043 55.0303 173.396 55.0303 175.807C55.0303 194.764 71.1552 210.131 91.0465 210.131C99.5752 210.131 107.412 207.306 113.581 202.584C122.546 212.662 135.656 219.018 150.261 219.018C175.809 219.018 196.784 199.571 198.995 174.769C199.152 174.709 199.309 174.648 199.466 174.586C217.193 167.56 225.588 146.991 218.216 128.643Z" fill="#FEEEF1"/>
<path d="M41.2905 210.131C45.3978 210.131 48.7275 206.824 48.7275 202.745C48.7275 198.666 45.3978 195.359 41.2905 195.359C37.1832 195.359 33.8536 198.666 33.8536 202.745C33.8536 206.824 37.1832 210.131 41.2905 210.131Z" fill="#FBCAD3"/>
<path d="M219.905 189.382C220.522 186.79 218.905 184.192 216.295 183.58C213.685 182.968 211.069 184.573 210.453 187.166C209.837 189.758 211.453 192.356 214.063 192.968C216.673 193.58 219.289 191.975 219.905 189.382Z" fill="#FBCAD3"/>
<path d="M39.5105 47.8989C40.5795 46.8372 40.5795 45.1159 39.5105 44.0542C38.4415 42.9925 36.7083 42.9925 35.6392 44.0542C34.5702 45.1159 34.5702 46.8372 35.6392 47.8989C36.7083 48.9606 38.4415 48.9606 39.5105 47.8989Z" fill="#FBCAD3"/>
<path d="M14.9688 166.931C16.0378 165.869 16.0378 164.148 14.9688 163.086C13.8998 162.025 12.1666 162.025 11.0976 163.086C10.0285 164.148 10.0285 165.869 11.0976 166.931C12.1666 167.993 13.8998 167.993 14.9688 166.931Z" fill="#FBCAD3"/>
<path d="M239.633 151.967C239.981 150.506 239.07 149.042 237.598 148.696C236.127 148.351 234.653 149.256 234.305 150.717C233.958 152.179 234.869 153.643 236.34 153.988C237.812 154.333 239.286 153.428 239.633 151.967Z" fill="#FBCAD3"/>
<path d="M213.534 43.3046C214.597 43.3046 215.459 42.4485 215.459 41.3925C215.459 40.3365 214.597 39.4805 213.534 39.4805C212.471 39.4805 211.609 40.3365 211.609 41.3925C211.609 42.4485 212.471 43.3046 213.534 43.3046Z" fill="#FBCAD3"/>
<path d="M95.641 35.4526C97.2434 33.8613 97.2434 31.2813 95.641 29.69C94.0387 28.0987 91.4409 28.0986 89.8386 29.69C88.2363 31.2813 88.2362 33.8613 89.8386 35.4526C91.4409 37.0439 94.0387 37.0439 95.641 35.4526Z" fill="#FBCAD3"/>
<path d="M27.1643 99.9389C27.504 97.7139 25.9631 95.6367 23.7227 95.2993C21.4823 94.962 19.3907 96.4922 19.051 98.7173C18.7113 100.942 20.2522 103.02 22.4926 103.357C24.733 103.694 26.8246 102.164 27.1643 99.9389Z" fill="#FBCAD3"/>
<path d="M219.213 95.7308C221.307 94.8695 222.301 92.4858 221.434 90.4066C220.567 88.3274 218.166 87.34 216.073 88.2013C213.979 89.0626 212.985 91.4463 213.852 93.5255C214.72 95.6047 217.12 96.5921 219.213 95.7308Z" fill="#FBCAD3"/>
<g opacity="0.5">
<path d="M191.154 127.106L190.79 126.872C193.211 123.169 194.83 119.106 195.601 114.797C196.345 110.634 196.272 106.416 195.383 102.262C194.494 98.1069 192.834 94.2244 190.449 90.7221C187.98 87.0961 184.838 84.0383 181.109 81.6336C178.647 80.0452 175.994 78.7921 173.225 77.9091C170.54 77.0528 167.746 76.5444 164.923 76.398C159.354 76.1091 153.758 77.2376 148.74 79.6613L148.525 79.7652L148.442 79.5425C146.689 74.8593 143.757 70.6533 139.961 67.3794C138.035 65.7186 135.902 64.3087 133.621 63.1891C131.269 62.0347 128.759 61.1891 126.161 60.6761C122.19 59.8917 118.182 59.9032 114.25 60.7104C110.452 61.4901 106.884 62.9755 103.644 65.1253C100.405 67.2752 97.658 69.981 95.4795 73.1676C93.2241 76.4667 91.68 80.1395 90.8902 84.0841L90.4644 84C91.2656 79.9986 92.8321 76.2725 95.1203 72.9254C97.3303 69.6925 100.117 66.9476 103.403 64.7668C106.689 62.586 110.309 61.0792 114.162 60.2882C118.151 59.4692 122.217 59.4574 126.246 60.2532C128.881 60.7737 131.427 61.6313 133.813 62.8026C136.128 63.9385 138.292 65.3689 140.246 67.0539C144.036 70.3233 146.978 74.509 148.765 79.1709C153.793 76.7862 159.382 75.6789 164.946 75.9674C167.806 76.1157 170.637 76.6309 173.358 77.4986C176.163 78.3933 178.851 79.6629 181.346 81.272C185.123 83.7083 188.307 86.8065 190.809 90.4805C193.225 94.0291 194.907 97.9626 195.808 102.172C196.709 106.381 196.783 110.654 196.028 114.872C195.247 119.239 193.607 123.355 191.154 127.106Z" fill="black"/>
<path d="M128.44 188.256C122.886 188.256 117.387 186.873 112.422 184.17C108.153 181.846 104.531 178.713 101.656 174.857C100.277 173.009 99.0888 171.007 98.1234 168.908C97.1656 166.826 96.4223 164.637 95.9141 162.403L96.3376 162.308C96.8392 164.513 97.5729 166.674 98.5183 168.729C99.4711 170.801 100.644 172.776 102.005 174.601C104.842 178.405 108.417 181.498 112.631 183.792C119.893 187.746 128.318 188.838 136.353 186.865C144.34 184.905 151.249 180.1 155.806 173.337L155.882 173.225L156.016 173.243C156.128 173.259 156.24 173.273 156.352 173.287L156.3 173.715C156.23 173.707 156.161 173.698 156.091 173.689C151.473 180.483 144.506 185.308 136.457 187.284C133.809 187.934 131.118 188.256 128.44 188.256Z" fill="black"/>
<path d="M194.984 166.315C193.418 169.682 191.018 172.627 187.957 174.875C185.324 176.808 182.377 178.121 179.197 178.777C177.671 179.091 176.106 179.248 174.544 179.241C172.994 179.235 171.439 179.069 169.922 178.747L169.983 178.463C171.48 178.781 173.015 178.945 174.545 178.952C176.087 178.958 177.632 178.804 179.137 178.493C182.276 177.845 185.185 176.55 187.783 174.642C192.261 171.353 195.308 166.553 196.36 161.125C197.407 155.729 196.401 150.186 193.529 145.516L193.481 145.439L193.53 145.362C193.571 145.299 193.612 145.235 193.652 145.171L193.9 145.324C193.875 145.363 193.85 145.403 193.825 145.442C196.699 150.158 197.702 155.743 196.647 161.18C196.3 162.969 195.739 164.691 194.984 166.315Z" fill="black"/>
<path d="M67.259 130.143C67.2638 130.127 67.2686 130.112 67.2735 130.096C64.1438 127.053 62.2653 122.983 61.9802 118.621C61.6904 114.188 63.079 109.841 65.8902 106.381C67.521 104.374 69.5188 102.78 71.8278 101.644C74.0587 100.547 76.4561 99.934 78.9532 99.8232L78.9725 100.254C76.5361 100.362 74.1972 100.96 72.0206 102.031C69.7681 103.139 67.8193 104.694 66.2281 106.652C63.4855 110.027 62.1309 114.268 62.4135 118.593C62.6946 122.893 64.5621 126.901 67.672 129.879L67.7698 129.973L67.7278 130.101C67.7095 130.157 67.6914 130.214 67.6739 130.27L67.3802 130.18L67.3707 130.19C67.3643 130.184 67.3576 130.177 67.3512 130.171L67.259 130.143Z" fill="black"/>
<path d="M195.626 126.514C193.021 120.03 188.023 115.236 182.132 112.81C184.911 107.994 186.499 102.415 186.499 96.4678C186.499 78.2876 171.659 63.5498 153.354 63.5498C141.294 63.5498 130.739 69.9464 124.94 79.5095C116.8 73.5035 105.806 71.7058 95.6971 75.7123C81.3468 81.3996 73.8115 96.7873 77.6836 111.254C69.7158 114.62 64.1286 122.466 64.1286 131.607C64.1286 143.551 73.6656 153.281 85.589 153.7C85.2525 155.238 85.0748 156.832 85.0748 158.466C85.0748 171.308 95.9987 181.719 109.474 181.719C115.252 181.719 120.561 179.805 124.741 176.606C130.814 183.433 139.695 187.739 149.59 187.739C166.897 187.739 181.107 174.564 182.605 157.762C182.711 157.722 182.817 157.681 182.924 157.639C194.933 152.879 200.621 138.944 195.626 126.514Z" fill="#F9B0BE"/>
</g>
<path d="M157.853 274.999H131.177C128.43 266.553 125.788 258.019 122.973 249.632C122.492 258.118 121.645 266.585 120.434 274.999H92.1371C86.2241 254.728 86.1494 240.271 87.5908 230.83C89.0679 221.147 92.1371 216.737 92.1371 216.737L116.032 214.021L120.354 213.529L154.78 209.615C169.111 231.095 157.853 274.999 157.853 274.999Z" fill="#54595C"/>
<path d="M87.584 231.116C87.4279 231.116 87.2997 230.991 87.2966 230.836C87.2933 230.678 87.4195 230.548 87.5782 230.544C91.3125 230.469 95.0485 229.004 97.8284 226.527C100.608 224.049 102.476 220.518 102.955 216.839C102.975 216.682 103.119 216.572 103.277 216.592C103.434 216.612 103.545 216.756 103.525 216.912C103.03 220.725 101.093 224.384 98.2125 226.952C95.3316 229.519 91.4598 231.037 87.5898 231.115C87.5879 231.116 87.5859 231.116 87.584 231.116Z" fill="#767A7D"/>
<path d="M87.5011 233.562C87.4513 233.562 87.4017 233.561 87.352 233.561C87.1931 233.56 87.0655 233.431 87.0667 233.273C87.0681 233.116 87.1966 232.99 87.3543 232.99C87.3551 232.99 87.3559 232.99 87.3567 232.99C91.7267 233.028 96.1413 231.438 99.4742 228.634C102.807 225.83 105.11 221.765 105.793 217.48C105.818 217.324 105.965 217.219 106.122 217.243C106.279 217.267 106.386 217.414 106.361 217.569C105.657 221.987 103.282 226.179 99.8459 229.07C96.4473 231.929 91.9558 233.562 87.5011 233.562Z" fill="#767A7D"/>
<path d="M161.099 230.005C157.301 230.005 153.472 228.628 150.56 226.208C147.591 223.741 145.529 220.151 144.9 216.357C144.874 216.202 144.981 216.055 145.137 216.029C145.294 216.004 145.442 216.109 145.468 216.265C146.074 219.925 148.065 223.389 150.929 225.77C153.794 228.15 157.577 229.486 161.314 229.432C161.315 229.432 161.316 229.432 161.318 229.432C161.475 229.432 161.603 229.557 161.605 229.713C161.608 229.871 161.481 230.001 161.322 230.003C161.248 230.004 161.173 230.005 161.099 230.005Z" fill="#767A7D"/>
<path d="M160.863 232.457C156.616 232.457 152.333 230.993 149.002 228.383C145.467 225.612 142.947 221.504 142.089 217.113C142.059 216.959 142.16 216.809 142.316 216.779C142.472 216.749 142.623 216.85 142.653 217.005C143.486 221.263 145.929 225.247 149.358 227.934C152.787 230.622 157.256 232.058 161.621 231.87C161.778 231.864 161.914 231.985 161.92 232.143C161.927 232.3 161.804 232.433 161.645 232.44C161.385 232.451 161.124 232.457 160.863 232.457Z" fill="#767A7D"/>
<path d="M122.23 240.533C122.092 240.533 121.97 240.434 121.947 240.294C120.398 230.943 119.781 221.399 120.112 211.927C120.118 211.769 120.251 211.648 120.41 211.651C120.568 211.657 120.693 211.789 120.687 211.947C120.357 221.381 120.972 230.887 122.514 240.201C122.54 240.357 122.434 240.504 122.277 240.53C122.262 240.532 122.246 240.533 122.23 240.533Z" fill="#767A7D"/>
<path d="M120.827 240.823C119.943 240.823 119.102 240.662 118.429 240.097C117.431 239.261 117.248 237.9 117.146 236.578L115.605 216.571C115.501 215.223 115.474 213.703 116.475 212.728C117.509 211.723 119.081 211.817 120.473 211.986C120.631 212.005 120.743 212.147 120.724 212.304C120.705 212.46 120.561 212.573 120.404 212.553C119.145 212.401 117.73 212.308 116.878 213.136C116.053 213.939 116.084 215.308 116.178 216.527L117.72 236.534C117.812 237.736 117.972 238.967 118.8 239.661C119.655 240.378 120.94 240.299 122.183 240.156C122.342 240.138 122.484 240.251 122.502 240.407C122.52 240.564 122.407 240.706 122.249 240.724C121.775 240.778 121.295 240.823 120.827 240.823Z" fill="#767A7D"/>
<path d="M138.046 155.066C135.468 157.973 132.494 160.604 128.987 162.3C122.421 165.477 114.366 165.014 107.855 161.726C103.789 159.673 100.308 156.587 97.5966 152.961C91.9655 145.434 88.8986 135.201 86.4702 126.245C84.0383 117.273 82.5865 108.012 82.3185 98.7203C82.1057 91.3353 82.5739 83.8018 84.4375 76.6247C84.4444 76.5995 84.4502 76.5745 84.4571 76.5493C85.6109 72.1233 87.3469 67.0461 90.9579 63.9706C90.9901 63.9421 91.0234 63.9147 91.0556 63.8872C101.338 55.3071 112.503 60.2187 112.503 60.2187C112.503 60.2187 117.092 57.2289 124.873 61.9027C125.675 62.3838 126.51 62.9469 127.379 63.6028C128.514 64.4607 129.506 65.4947 130.386 66.6372C132.376 69.2146 133.797 72.3405 135.009 75.2104C140.265 87.6485 142.816 101.305 145.007 114.554C145.847 119.633 146.856 124.82 147.234 129.96C147.923 139.347 144.25 148.074 138.046 155.066Z" fill="#36394A"/>
<path opacity="0.3" d="M113.321 78.588C113.321 78.588 106.145 75.4311 99.5356 80.9455C97.159 82.9284 96.0306 86.2518 95.2821 89.1333C94.0839 93.7459 93.7832 98.5885 93.9201 103.335C94.0922 109.307 95.0252 115.26 96.5888 121.026C98.1497 126.783 100.121 133.36 103.74 138.198C105.483 140.529 107.72 142.512 110.333 143.832C114.518 145.945 119.696 146.243 123.917 144.201C126.171 143.111 128.082 141.419 129.74 139.551C133.727 135.057 136.088 129.448 135.645 123.415C135.402 120.111 134.753 116.777 134.213 113.512C132.805 104.996 131.165 96.2182 127.787 88.2237C126.663 85.5624 125.259 82.5588 122.882 80.7631C116.91 76.2501 113.321 78.588 113.321 78.588Z" fill="black"/>
<path d="M127.489 123.913C119.351 130.177 107.892 128.765 107.892 128.765L107.647 120.096L107.443 112.836L120.925 109.914L122.457 113.182L127.489 123.913Z" fill="#FFB395"/>
<path opacity="0.3" d="M122.457 113.182C120.461 115.959 116.232 119.6 107.647 120.096L107.443 112.836L120.925 109.914L122.457 113.182Z" fill="black"/>
<path d="M91.7538 214.197C102.628 170.482 90.1421 178.81 87.4905 125.562C92.5338 123.268 95.863 122.542 99.6638 122.132C100.251 122.068 100.85 122.012 101.468 121.959C101.889 121.923 102.319 121.887 102.762 121.853C106.012 121.593 109.888 121.328 115.409 120.47C121.168 119.575 125.101 118.281 128.81 117.011C129.599 116.741 130.378 116.472 131.162 116.208C131.392 116.13 131.622 116.054 131.854 115.979C135.462 114.788 139.279 113.735 144.782 113.208C151.772 154.722 143.319 170.204 154.747 216.877L91.7538 214.197Z" fill="#D93502"/>
<path d="M61.1989 145.711C61.1989 145.711 59.3199 136.553 56.6681 135.695C54.0163 134.837 35.7463 135.132 34.4552 134.035C33.1642 132.938 29.0492 127.551 27.0744 128.401C24.5441 129.491 32.2759 140.856 34.6697 141.837C37.1602 142.856 48.9264 142.919 50.0159 143.902C51.1054 144.885 52.2157 149.44 52.2157 149.44L61.1989 145.711Z" fill="#FFB395"/>
<path d="M51.081 147.643C51.3182 148.06 51.5081 148.503 51.6447 148.962C51.7776 149.408 51.8615 149.871 52.0515 150.296C52.2414 150.721 52.5613 151.118 53.0059 151.265C53.6341 151.473 54.3103 151.133 54.8318 150.728C56.6262 149.336 58.5975 148.62 60.8434 148.22C61.5951 148.086 62.4069 147.762 62.7038 147.063C63.0328 146.289 62.6165 145.487 62.2261 144.834C61.7836 144.095 61.5526 143.128 61.4544 142.286C61.3495 141.386 61.0649 139.845 60.3993 139.18C59.9214 138.703 59.1018 138.73 58.5108 139.06C57.742 139.489 57.1593 140.318 56.4852 140.88C55.7326 141.507 55.0873 142.25 54.3656 142.91C53.6457 143.569 52.8074 144.172 51.8521 144.435C51.2031 144.613 50.0646 144.219 49.6072 144.819C49.4161 145.07 49.4498 145.434 49.5951 145.714C49.7403 145.993 49.9776 146.212 50.1939 146.442C50.5361 146.806 50.8341 147.21 51.081 147.643Z" fill="#F5758D"/>
<path d="M98.2535 158.179C98.2535 158.179 97.3918 161.244 95.7963 165.679C95.151 167.474 94.3848 169.492 93.5071 171.624C89.5969 181.119 83.4688 192.843 75.8695 196.878C75.4059 197.123 74.9366 197.341 74.4614 197.528C72.2872 198.383 68.2436 197.61 66.4893 195.102C62.4434 189.319 60.1679 182.238 58.1755 175.55C57.0838 171.886 56.1221 168.183 55.2455 164.463C54.3148 160.51 53.8179 156.415 52.243 152.648C51.9047 151.839 51.6068 151.073 51.5171 150.197C51.4354 149.407 51.9323 148.979 52.6663 148.679C53.2139 148.455 53.8075 148.368 54.3862 148.241C55.93 147.904 57.407 147.273 58.7162 146.395C59.373 145.955 60.0012 145.445 60.75 145.188C63.2038 144.344 63.7651 147.213 64.6004 148.824C65.4459 150.457 66.2328 152.121 66.961 153.809C68.3092 156.938 69.0431 160.394 70.4489 163.455C70.61 163.806 71.4612 161.231 71.4969 161.076C71.7361 160.048 72.0997 159.229 72.6565 158.314C73.6895 156.619 75.2 154.928 75.0447 152.811C74.9733 151.829 74.5316 150.909 74.4131 149.933C74.053 146.975 76.4964 144.643 77.6479 142.147C78.5877 140.109 78.8547 137.682 79.5472 135.531C80.7631 131.75 82.9511 125.581 87.8126 125.455C94.7195 125.276 97.1272 136.301 97.9313 145.601C98.5134 152.344 98.2535 158.179 98.2535 158.179Z" fill="#D93502"/>
<path d="M131.162 116.209C130.054 119.189 128.234 121.904 125.821 123.986C122.028 127.262 116.786 128.886 111.818 128.125C107.739 127.501 103.926 125.232 101.468 121.96C104.988 121.656 109.138 121.446 115.409 120.471C122.393 119.386 126.69 117.713 131.162 116.209Z" fill="#FFB395"/>
<path d="M95.4589 100.786C97.3825 100.052 98.0074 97.0411 96.8547 94.0609C95.7019 91.0806 93.208 89.2596 91.2843 89.9934C89.3607 90.7273 88.7358 93.7382 89.8885 96.7185C91.0413 99.6988 93.5352 101.52 95.4589 100.786Z" fill="#FFB395"/>
<path opacity="0.3" d="M92.5851 95.979C92.5826 95.8508 92.6853 95.7447 92.8146 95.7423C93.4594 95.7302 93.9129 95.9422 94.2498 96.2292C93.9196 95.0448 93.0492 93.9896 92.0356 94.0398C91.9065 94.0462 91.7967 93.9474 91.7902 93.8192C91.7837 93.691 91.8835 93.5819 92.0123 93.5756C93.5576 93.4991 94.7494 95.3135 94.8526 96.9897C94.8581 97.0796 94.8111 97.1604 94.7381 97.2034C94.7376 97.2038 94.7371 97.2043 94.7366 97.2047C94.7251 97.212 94.7134 97.2183 94.7013 97.2234C94.5985 97.2672 94.4759 97.2324 94.4129 97.1361C94.0916 96.644 93.6767 96.1908 92.8236 96.2068C92.6943 96.2093 92.5876 96.1073 92.5851 95.979Z" fill="black"/>
<path d="M130.274 94.1651C132.333 94.0994 133.919 91.4593 133.816 88.2684C133.713 85.0774 131.96 82.5439 129.9 82.6096C127.84 82.6753 126.254 85.3153 126.357 88.5063C126.461 91.6972 128.214 94.2308 130.274 94.1651Z" fill="#FFB395"/>
<path d="M129.503 96.1577C129.024 99.3429 128 102.31 126.521 104.89C123.768 109.696 119.439 113.161 114.125 114.195C109.243 115.146 104.467 113.685 100.848 110.598C98.5054 108.602 96.6476 105.924 95.5628 102.781C95.0348 101.256 94.6884 99.6195 94.5573 97.8989C94.2973 94.5058 93.6451 91.156 92.7352 87.8748C89.7695 77.179 95.1348 67.926 104.625 66.0786C115.602 63.941 126.628 72.9803 129.25 86.2673C129.922 89.6684 129.977 93.0193 129.503 96.1577Z" fill="#FFB395"/>
<path opacity="0.1" d="M114.434 111.896C106.705 113.401 99.2158 109.383 95.4531 102.452C98.1171 110.644 105.974 115.783 114.125 114.196C120.604 112.934 125.617 108.06 128.099 101.546C125.088 106.892 120.312 110.752 114.434 111.896Z" fill="black"/>
<path d="M101.727 93.9915C102.448 93.8448 102.845 92.8208 102.615 91.7043C102.384 90.5877 101.613 89.8015 100.893 89.9482C100.172 90.0949 99.7748 91.119 100.005 92.2355C100.236 93.352 101.007 94.1382 101.727 93.9915Z" fill="#8A2B12"/>
<path d="M117.884 90.7025C118.605 90.5558 119.002 89.5317 118.772 88.4152C118.541 87.2987 117.77 86.5125 117.05 86.6592C116.329 86.8059 115.932 87.8299 116.162 88.9464C116.392 90.063 117.163 90.8492 117.884 90.7025Z" fill="#8A2B12"/>
<path opacity="0.3" d="M113.363 100.233C113.268 100.3 113.168 100.36 113.064 100.412C112.96 100.462 112.852 100.499 112.742 100.537C112.632 100.573 112.519 100.591 112.404 100.615C112.289 100.634 112.172 100.638 112.054 100.644C111.582 100.656 111.091 100.531 110.669 100.279C110.246 100.028 109.9 99.6568 109.682 99.24C109.467 98.8205 109.362 98.3629 109.412 97.9082C109.415 97.8739 109.447 97.8492 109.481 97.8529C109.497 97.8546 109.511 97.8619 109.52 97.8726L109.521 97.8736C109.827 98.2041 110.082 98.5022 110.357 98.7498C110.627 99.0002 110.904 99.2013 111.201 99.3658C111.499 99.5294 111.817 99.6542 112.169 99.7719C112.345 99.828 112.529 99.8821 112.724 99.9385C112.822 99.9623 112.921 99.9937 113.024 100.023C113.127 100.048 113.233 100.081 113.344 100.121L113.348 100.122C113.381 100.134 113.398 100.17 113.386 100.203C113.381 100.216 113.373 100.226 113.363 100.233Z" fill="black"/>
<path d="M112.236 83.7865C112.298 84.3269 114.075 83.7588 116.318 83.503C118.561 83.2472 120.421 83.4004 120.359 82.86C120.296 82.3197 118.385 81.7296 116.142 81.9854C113.899 82.2412 112.173 83.2462 112.236 83.7865Z" fill="#8A2B12"/>
<path opacity="0.3" d="M129.503 96.1584C129.024 99.3436 128 102.311 126.521 104.89C126.173 104.91 125.818 104.893 125.459 104.837C122.728 104.407 120.864 101.862 121.296 99.1505C121.728 96.4383 124.291 94.5875 127.021 95.017C127.975 95.1667 128.822 95.5746 129.503 96.1584Z" fill="#FEEEF1"/>
<path opacity="0.3" d="M104.484 106.576C104.166 108.572 102.693 110.103 100.848 110.598C98.5054 108.603 96.6476 105.925 95.5627 102.782C96.6417 101.38 98.4421 100.595 100.322 100.89C103.052 101.319 104.915 103.865 104.484 106.576Z" fill="#FEEEF1"/>
<path d="M104.066 85.4414C104.261 85.9495 102.421 86.2593 100.312 87.0599C98.2029 87.8604 96.6237 88.8485 96.4281 88.3404C96.2326 87.8324 97.6537 86.4335 99.7627 85.633C101.872 84.8325 103.87 84.9333 104.066 85.4414Z" fill="#8A2B12"/>
<path d="M108.786 106.908C108.786 106.908 110.089 104.466 111.232 104.458C112.375 104.45 112.824 104.758 112.824 104.758C112.824 104.758 113.606 103.733 114.565 103.695C115.524 103.656 117.124 104.501 117.124 104.501C117.124 104.501 116.513 107.118 113.783 107.862C111.054 108.606 108.786 106.908 108.786 106.908Z" fill="#FF5A37"/>
<path opacity="0.1" d="M93.3014 90.0737C93.3014 90.0737 106.018 86.9437 111.395 78.8319C111.395 78.8319 121.323 82.9224 128.449 83.1163C128.449 83.1163 115.215 70.8045 109.399 72.41C103.583 74.0154 93.3014 90.0737 93.3014 90.0737Z" fill="black"/>
<path opacity="0.3" d="M131.752 89.0238C131.703 88.905 131.567 88.8477 131.447 88.8961C130.85 89.1376 130.517 89.5101 130.321 89.9057C130.155 88.688 130.535 87.3774 131.487 87.0265C131.608 86.9818 131.67 86.8481 131.625 86.7277C131.58 86.6074 131.445 86.5461 131.324 86.5907C129.873 87.1258 129.499 89.2599 130.07 90.8406C130.1 90.9255 130.176 90.9813 130.26 90.9922C130.26 90.9924 130.261 90.9927 130.262 90.9927C130.275 90.9951 130.288 90.9961 130.302 90.9961C130.413 90.9961 130.512 90.9162 130.532 90.803C130.632 90.225 130.833 89.6461 131.623 89.3265C131.743 89.2783 131.801 89.1426 131.752 89.0238Z" fill="black"/>
<path d="M102.262 65.2944C102.262 65.2944 109.681 79.8518 128.449 83.1179C128.449 83.1179 129.187 70.8001 121.248 66.1673C112.608 61.1263 102.262 65.2944 102.262 65.2944Z" fill="#36394A"/>
<path d="M113.505 63.1784C113.505 63.1784 114.559 81.7601 93.3013 90.074C93.3013 90.074 85.7556 78.2474 92.317 69.5284C98.8785 60.8095 113.505 63.1784 113.505 63.1784Z" fill="#36394A"/>
<path d="M131.854 115.979C130.003 122.456 124.299 127.646 117.641 128.91C116.558 129.115 115.462 129.214 114.367 129.214C108.732 129.214 103.121 126.583 99.6639 122.133C100.251 122.069 100.85 122.013 101.468 121.96C101.889 121.924 102.319 121.888 102.762 121.854C106.415 125.599 111.989 127.423 117.166 126.441C122.305 125.467 126.782 121.779 128.81 117.012C129.599 116.742 130.378 116.473 131.162 116.209C131.392 116.131 131.622 116.055 131.854 115.979Z" fill="#F5758D"/>
<path d="M158.989 217.41C155.923 220.989 151.518 219.05 147.592 219.177C143.249 219.316 139.19 219.569 134.795 219.183C127.784 218.566 120.772 217.599 113.717 217.76C110.104 217.844 106.644 218.786 103.089 219.013C99.7076 219.227 96.1908 219.107 92.7777 219.239C91.923 219.272 91.013 219.291 90.2768 218.859C89.2518 218.26 88.8745 216.977 88.7468 215.802C88.282 211.541 91.8171 207.12 91.273 202.917C90.6196 197.861 93.1735 193.599 93.7256 188.878C93.8706 187.64 93.9868 186.396 94.0719 185.15C94.3825 180.619 94.2686 176.063 93.5071 171.622C92.9676 168.475 92.1025 165.386 90.8335 162.404C90.608 161.874 90.37 161.347 90.118 160.825C87.8771 156.167 86.4311 150.545 88.8009 145.95L97.9314 145.599L138.471 144.041L150.492 143.579C152.87 146.933 154.168 151.018 154.227 155.116C154.227 155.116 154.227 155.116 154.227 155.117C154.247 156.41 154.142 157.705 153.91 158.979C153.291 162.369 151.921 165.532 151.506 168.978C151.5 169.023 151.495 169.069 151.491 169.115C151.169 172.074 151.992 174.823 152.62 177.675C152.638 177.754 152.655 177.834 152.672 177.913C153.268 180.677 153.289 183.445 153.731 186.262C154.767 192.883 156.449 199.403 158.747 205.701C159.453 207.631 160.22 209.565 160.456 211.605C160.691 213.644 160.328 215.847 158.989 217.41Z" fill="#D93502"/>
<path opacity="0.3" d="M97.5287 175.275C97.102 178.459 95.794 181.838 94.0719 185.151C94.3825 180.62 94.2687 176.064 93.5071 171.623C89.5969 181.118 83.4689 192.842 75.8695 196.876C76.9198 191.016 78.765 184.894 81.2981 178.836C82.7314 175.41 87.0351 164.7 90.8336 162.404C91.4191 162.05 91.9931 161.896 92.5431 162C93.3759 162.157 93.9247 162.826 94.4227 163.511C94.9128 164.186 95.3787 164.906 95.7963 165.677C97.1894 168.243 98.0533 171.371 97.5287 175.275Z" fill="black"/>
<path d="M94.085 175.714C94.0786 175.714 94.0722 175.714 94.0658 175.714C93.9073 175.703 93.7873 175.567 93.7978 175.41C93.8007 175.366 94.0578 170.954 91.365 166.771C91.2795 166.639 91.3186 166.462 91.4524 166.377C91.5863 166.292 91.7642 166.331 91.8497 166.464C94.6483 170.811 94.3843 175.26 94.3718 175.448C94.3615 175.599 94.2351 175.714 94.085 175.714Z" fill="#FBCAD3"/>
<path d="M93.462 171.899C93.3909 171.899 93.3198 171.873 93.2642 171.82C90.2875 169.017 89.2297 165.175 88.8663 162.446C88.4743 159.501 88.7759 157.247 88.789 157.152C88.8106 156.996 88.9558 156.887 89.1129 156.908C89.2703 156.929 89.3804 157.073 89.3589 157.23C89.3466 157.319 88.1911 166.256 93.66 171.406C93.7752 171.514 93.78 171.695 93.6707 171.81C93.6143 171.869 93.5382 171.899 93.462 171.899Z" fill="#FBCAD3"/>
<path d="M80.5947 161.522C80.5515 161.522 80.5075 161.512 80.4662 161.491C77.4084 159.971 75.2487 156.932 74.8298 153.562C74.8158 153.45 74.8698 153.34 74.9675 153.282C75.0652 153.224 75.1881 153.228 75.2813 153.294C76.7641 154.335 79.2345 155.399 81.0871 155.417C81.246 155.419 81.3735 155.548 81.3719 155.706C81.3703 155.864 81.2425 155.992 81.0815 155.989C79.2537 155.971 77.0334 155.066 75.5024 154.123C76.0755 157.016 78.0714 159.661 80.7236 160.98C80.8657 161.051 80.9231 161.223 80.852 161.364C80.8017 161.464 80.7002 161.522 80.5947 161.522Z" fill="#FBCAD3"/>
<path d="M71.2997 170.834C71.2002 170.834 71.1034 170.783 71.0502 170.691C70.0813 169.02 69.7911 166.642 70.1632 163.422C70.1813 163.265 70.324 163.152 70.4817 163.171C70.6395 163.189 70.7527 163.331 70.7347 163.487C70.3771 166.581 70.6435 168.844 71.5487 170.406C71.628 170.543 71.5807 170.718 71.443 170.796C71.3977 170.822 71.3484 170.834 71.2997 170.834Z" fill="#FBCAD3"/>
<path d="M73.2524 167.705C73.2148 167.705 73.1767 167.697 73.14 167.682C71.7895 167.112 70.455 165.236 70.1651 163.501C70.1391 163.346 70.245 163.199 70.4018 163.173C70.5584 163.147 70.7065 163.252 70.7325 163.408C70.9895 164.946 72.195 166.662 73.365 167.156C73.5111 167.218 73.5792 167.386 73.5171 167.531C73.4706 167.639 73.3642 167.705 73.2524 167.705Z" fill="#FBCAD3"/>
<path d="M109.599 209.273C109.593 209.273 109.587 209.273 109.581 209.272C99.7523 208.682 93.0062 205.181 91.0627 203.113C90.9544 202.998 90.9606 202.817 91.0768 202.71C91.1928 202.602 91.3749 202.608 91.4832 202.723C93.5054 204.875 100.468 208.153 109.616 208.702C109.774 208.712 109.895 208.847 109.886 209.005C109.876 209.156 109.75 209.273 109.599 209.273Z" fill="#FBCAD3"/>
<path d="M83.1249 148.42C83.0639 148.42 83.0025 148.401 82.9502 148.361C80.4856 146.486 78.6646 143.819 77.8228 140.851C77.7797 140.699 77.8687 140.542 78.0216 140.499C78.1744 140.457 78.3334 140.545 78.3764 140.696C79.1846 143.546 80.9332 146.107 83.2999 147.907C83.426 148.003 83.4499 148.182 83.3534 148.308C83.2969 148.381 83.2114 148.42 83.1249 148.42Z" fill="#FBCAD3"/>
<path d="M101.397 210.617C100.65 210.617 99.858 210.597 99.0196 210.551C95.5204 210.359 92.8199 209.815 92.793 209.809C92.6374 209.777 92.5371 209.626 92.569 209.472C92.6009 209.317 92.7526 209.218 92.9085 209.249C93.0143 209.271 103.566 211.371 110.225 208.636C110.371 208.576 110.54 208.645 110.601 208.791C110.661 208.937 110.592 209.104 110.445 209.164C108.754 209.858 105.88 210.617 101.397 210.617Z" fill="#FBCAD3"/>
<path d="M185.386 135.202C185.386 135.202 189.442 124.932 195.708 125.229C201.973 125.525 209.837 128.821 211.448 128.473C213.06 128.125 222.417 123.668 223.367 124.762C224.318 125.856 213.761 135.192 212.113 135.706C209.742 136.444 198.835 134.485 197.055 135.283C195.763 135.863 193.854 143.827 193.854 143.827L185.386 135.202Z" fill="#FFB395"/>
<path d="M195.979 138.894C195.742 139.31 195.552 139.753 195.415 140.212C195.283 140.658 195.199 141.121 195.009 141.546C194.819 141.972 194.499 142.369 194.054 142.515C193.426 142.723 192.75 142.384 192.228 141.979C190.434 140.586 188.463 139.871 186.217 139.471C184.023 139.08 183.23 137.183 183.813 135.118C184.056 134.256 184.485 133.459 184.91 132.671C185.302 131.946 185.701 131.21 186.277 130.619C187.984 128.867 189.32 131.085 190.575 132.13C191.328 132.757 191.973 133.5 192.695 134.161C193.415 134.819 194.253 135.422 195.208 135.685C195.857 135.864 196.996 135.47 197.453 136.07C197.644 136.32 197.61 136.684 197.465 136.964C197.32 137.244 197.083 137.462 196.866 137.692C196.524 138.056 196.226 138.46 195.979 138.894Z" fill="#F5758D"/>
<path d="M195.724 142.83C195.606 144.118 195.213 145.59 194.878 146.856C194.082 149.872 192.662 152.745 192.433 155.892C192.158 159.687 190.923 163.662 190.041 167.392C188.301 174.751 184.121 182.264 178.857 187.84C177.046 189.758 173.174 189.627 171.412 189.338C171.193 189.301 171.007 189.264 170.861 189.226C165.252 187.797 157.74 178.407 151.491 169.115C149.017 165.436 146.742 161.772 144.86 158.625C141.693 153.326 139.642 149.486 139.642 149.486C139.642 149.486 139.097 147.317 138.471 144.041C136.586 134.19 133.973 114.323 143.248 113.209C148.213 112.614 151.69 116.532 154.214 120.17C157.181 124.444 159.106 128.667 160.067 133.812C160.303 135.077 160.494 136.355 160.893 137.579C161.911 140.707 164.162 143.194 165.916 145.92C166.809 147.307 167.445 148.764 168.108 150.26C169.455 153.307 169.828 156.538 171.492 159.509C171.562 159.636 171.662 159.778 171.809 159.776C171.929 159.774 172.02 159.671 172.094 159.576C173.181 158.163 173.59 156.683 174.132 155.035C174.637 153.5 175.671 152.12 176.425 150.657C178.205 147.199 179.684 143.589 180.841 139.88C181.52 137.704 182.415 133.536 185.599 134.507C186.821 134.879 187.748 135.849 188.602 136.794C189.454 137.739 190.343 138.732 191.54 139.178C192.405 139.502 193.377 139.513 194.198 139.936C195.235 140.469 195.827 141.691 195.724 142.83Z" fill="#D93502"/>
<path opacity="0.3" d="M171.412 189.339C171.193 189.303 171.007 189.265 170.861 189.227C165.251 187.798 157.739 178.408 151.491 169.116C151.169 172.075 151.992 174.824 152.62 177.677C149.375 173.735 146.542 169.451 145.344 165.283C144.641 162.835 144.558 160.623 144.86 158.626C145.163 156.605 145.861 154.803 146.702 153.196C147.094 152.446 147.539 151.705 148.341 151.429C149.931 150.882 152.081 152.613 154.227 155.117C154.227 155.117 154.227 155.117 154.227 155.119C157.417 158.842 160.6 164.273 161.923 166.47C165.84 172.973 168.859 179.693 170.751 186.155C170.849 186.488 171.108 187.777 171.412 189.339Z" fill="black"/>
<path d="M155.674 145.316C155.549 145.316 155.435 145.235 155.398 145.111C155.353 144.96 155.44 144.801 155.593 144.756C158.089 144.027 160.605 139.375 160.605 137.579C160.605 137.421 160.734 137.293 160.893 137.293C161.052 137.293 161.18 137.421 161.18 137.579C161.18 138.624 160.522 140.323 159.504 141.908C158.347 143.708 156.98 144.947 155.755 145.304C155.728 145.312 155.701 145.316 155.674 145.316Z" fill="#FBCAD3"/>
<path d="M169.257 169.509C169.206 169.509 169.153 169.495 169.106 169.466C168.971 169.384 168.929 169.208 169.012 169.073C170.827 166.148 171.59 162.52 171.105 159.118C171.083 158.961 171.192 158.817 171.35 158.795C171.507 158.773 171.652 158.881 171.675 159.038C172.177 162.569 171.386 166.336 169.502 169.373C169.448 169.461 169.354 169.509 169.257 169.509Z" fill="#FBCAD3"/>
<path d="M173.993 165.013C173.858 165.013 173.738 164.919 173.711 164.783C173.314 162.804 172.482 160.888 171.303 159.243C171.211 159.115 171.241 158.936 171.371 158.845C171.5 158.754 171.68 158.783 171.772 158.912C172.997 160.622 173.863 162.614 174.275 164.672C174.306 164.827 174.205 164.977 174.049 165.008C174.03 165.011 174.011 165.013 173.993 165.013Z" fill="#FBCAD3"/>
<path d="M151.25 169.407C148.644 169.408 144.433 167.086 143.145 164.268C143.079 164.124 143.143 163.955 143.288 163.89C143.433 163.824 143.603 163.888 143.668 164.032C144.792 166.489 148.288 168.544 150.725 168.808C147.761 165.981 143.504 159.809 142.269 153.51C142.238 153.355 142.34 153.205 142.496 153.175C142.653 153.145 142.803 153.246 142.833 153.401C144.125 159.988 148.783 166.428 151.678 168.898C151.767 168.973 151.8 169.095 151.763 169.205C151.726 169.315 151.626 169.392 151.509 169.399C151.425 169.405 151.338 169.407 151.25 169.407Z" fill="#FBCAD3"/>
<path d="M92.4752 102.05C92.3445 106.254 92.9415 110.505 94.0482 114.701C94.1136 114.964 94.1896 115.225 94.2606 115.488C94.3308 115.75 94.4082 116.011 94.4847 116.273L94.5981 116.665L94.717 117.057C94.7956 117.319 94.875 117.58 94.9596 117.84C95.1235 118.362 95.2985 118.882 95.4751 119.403L95.7441 120.183L96.022 120.961L96.3091 121.738L96.6045 122.514C96.8025 123.031 97.0034 123.548 97.2111 124.064C97.6257 125.095 98.0581 126.123 98.498 127.152C98.7186 127.666 98.9439 128.179 99.1709 128.692L99.8605 130.235C100.324 131.272 100.797 132.322 101.252 133.395C101.703 134.469 102.135 135.568 102.52 136.696C102.908 137.822 103.238 138.984 103.478 140.174L103.522 140.397L103.561 140.622L103.636 141.071C103.664 141.22 103.681 141.373 103.701 141.524C103.721 141.675 103.74 141.826 103.758 141.977C103.823 142.584 103.867 143.213 103.85 143.858C103.831 144.502 103.766 145.167 103.595 145.822C103.51 146.152 103.409 146.471 103.272 146.796C103.137 147.116 102.972 147.422 102.785 147.712C102.416 148.294 101.926 148.804 101.353 149.202C100.775 149.594 100.102 149.857 99.3975 149.906C99.0515 149.932 98.7107 149.896 98.3866 149.824C98.062 149.752 97.7535 149.632 97.4711 149.476C97.1906 149.315 96.9371 149.113 96.7317 148.878C96.5256 148.643 96.3686 148.374 96.2768 148.093L96.3496 148.053C96.7321 148.481 97.2286 148.723 97.7287 148.819C98.2321 148.909 98.7412 148.861 99.1738 148.701C99.3903 148.62 99.5772 148.509 99.7653 148.377C99.9489 148.245 100.115 148.093 100.261 147.92C100.556 147.58 100.781 147.177 100.935 146.751C101.088 146.321 101.169 145.888 101.191 145.42C101.201 145.188 101.199 144.953 101.187 144.714C101.174 144.476 101.147 144.234 101.11 143.99C101.038 143.502 100.935 143.002 100.797 142.492C100.722 142.237 100.666 141.981 100.588 141.728L100.472 141.348L100.414 141.158L100.35 140.969C99.0518 136.92 96.6361 133.152 94.5212 129.007C93.9895 127.981 93.4758 126.942 92.9782 125.892C92.7285 125.367 92.4846 124.839 92.2434 124.308L91.8892 123.508L91.5428 122.703L91.2047 121.893L90.875 121.078C90.66 120.532 90.4503 119.983 90.2491 119.429C90.1462 119.153 90.0483 118.875 89.951 118.597L89.8045 118.179L89.6639 117.759C89.5712 117.478 89.4776 117.198 89.391 116.914C89.3035 116.631 89.2116 116.35 89.1297 116.065C88.7876 114.928 88.4864 113.775 88.2248 112.608C87.9676 111.44 87.7482 110.258 87.5859 109.064C87.419 107.87 87.3129 106.664 87.2576 105.452C87.2473 105.149 87.2282 104.846 87.2268 104.542C87.2254 104.238 87.2179 103.935 87.2235 103.63C87.2297 103.326 87.2322 103.022 87.242 102.717C87.2542 102.413 87.2719 102.109 87.2869 101.805L92.4752 102.05Z" fill="#36394A"/>
<path d="M135.489 95.6201C135.609 95.9058 135.732 96.1902 135.848 96.4779C135.956 96.7693 136.069 97.0587 136.173 97.3525L136.322 97.7957C136.372 97.9436 136.423 98.0907 136.466 98.2412L136.599 98.6907L136.664 98.9161L136.723 99.1435C137.038 100.355 137.264 101.594 137.387 102.836C137.512 104.08 137.529 105.323 137.477 106.548C137.427 107.774 137.296 108.981 137.126 110.168C136.779 112.542 136.258 114.829 135.711 117.08C135.437 118.205 135.149 119.32 134.866 120.433L134.439 122.098L134.226 122.928C134.159 123.198 134.091 123.466 134.027 123.736C133.519 125.893 133.131 128.075 132.949 130.265C132.904 130.811 132.867 131.359 132.846 131.906C132.826 132.452 132.818 132.998 132.825 133.543C132.834 134.087 132.859 134.63 132.9 135.17C132.939 135.71 132.995 136.248 133.073 136.78C133.376 138.906 134.033 140.957 135.1 142.687C135.37 143.118 135.671 143.525 136.006 143.904C136.092 143.996 136.178 144.09 136.268 144.178C136.355 144.271 136.449 144.355 136.542 144.443C136.637 144.526 136.734 144.61 136.833 144.69L136.983 144.811L137.139 144.924C137.191 144.963 137.245 144.998 137.299 145.033C137.353 145.069 137.406 145.109 137.462 145.142C137.573 145.21 137.685 145.279 137.803 145.34C137.917 145.407 138.038 145.462 138.159 145.523C138.282 145.575 138.404 145.636 138.532 145.684C139.041 145.891 139.592 146.029 140.178 146.141L140.186 146.224C139.621 146.429 139.008 146.539 138.379 146.54C137.75 146.546 137.107 146.437 136.491 146.231C135.874 146.026 135.286 145.72 134.75 145.346C134.214 144.971 133.729 144.529 133.3 144.048C132.441 143.081 131.798 141.966 131.322 140.816C130.843 139.663 130.498 138.477 130.243 137.284C129.987 136.089 129.831 134.885 129.741 133.682C129.698 133.081 129.672 132.48 129.659 131.879C129.647 131.279 129.653 130.68 129.668 130.081C129.708 128.885 129.8 127.694 129.939 126.511C130.073 125.327 130.264 124.153 130.488 122.987C130.543 122.695 130.605 122.404 130.663 122.115L130.84 121.269L131.199 119.582L131.914 116.229C132.15 115.117 132.373 114.009 132.575 112.907C132.781 111.806 132.958 110.71 133.097 109.623C133.375 107.45 133.482 105.309 133.283 103.228C133.089 101.145 132.576 99.1204 131.794 97.1492L135.489 95.6201Z" fill="#36394A"/>
<path d="M149.28 166.917C149.264 166.917 149.249 166.916 149.233 166.913C149.076 166.888 148.97 166.741 148.996 166.585C149.376 164.28 149.392 161.94 149.042 159.63C149.019 159.474 149.127 159.328 149.284 159.305C149.441 159.282 149.588 159.389 149.611 159.545C149.97 161.914 149.954 164.314 149.563 166.677C149.54 166.817 149.418 166.917 149.28 166.917Z" fill="#FBCAD3"/>
<g opacity="0.3">
<path d="M97.5335 131.224C97.4325 131.224 97.3345 131.171 97.2819 131.077C94.1198 125.434 91.7218 120.392 89.9507 115.664C87.7803 109.869 86.5041 104.476 86.0493 99.1748C84.9858 86.7801 88.9701 75.0807 96.7073 67.8788C99.8115 64.9895 102.911 63.5244 105.92 63.5244C105.931 63.5244 105.941 63.5244 105.951 63.5245C106.11 63.5251 106.239 63.6534 106.238 63.8111C106.237 63.9685 106.109 64.0958 105.95 64.0958C105.94 64.0953 105.93 64.0957 105.921 64.0957C103.062 64.0957 100.095 65.5086 97.1007 68.2957C89.4908 75.3788 85.5737 86.9043 86.6224 99.1263C87.0727 104.375 88.3377 109.719 90.4898 115.465C92.2506 120.166 94.6367 125.182 97.7845 130.799C97.8618 130.937 97.8118 131.111 97.6731 131.188C97.6287 131.212 97.5808 131.224 97.5335 131.224Z" fill="black"/>
</g>
<g opacity="0.3">
<path d="M93.4691 86.8612C93.3799 86.8612 93.292 86.8202 93.2357 86.7429C93.1427 86.615 93.1716 86.4365 93.3004 86.3441C99.3785 81.9812 104.08 75.7032 106.538 68.6667C106.59 68.5176 106.754 68.4388 106.904 68.4905C107.054 68.5422 107.134 68.7049 107.081 68.8539C104.585 76.0003 99.8102 82.3761 93.6372 86.8071C93.5864 86.8436 93.5275 86.8612 93.4691 86.8612Z" fill="black"/>
</g>
<g opacity="0.3">
<path d="M129.921 80.3281C129.912 80.3281 129.904 80.3277 129.895 80.3269C123.413 79.7547 117.077 76.7843 112.513 72.1774C112.401 72.0649 112.403 71.8842 112.516 71.7734C112.629 71.6628 112.811 71.6643 112.923 71.7767C117.393 76.2885 123.598 79.1975 129.946 79.7579C130.104 79.7719 130.221 79.9106 130.207 80.0677C130.194 80.2163 130.068 80.3281 129.921 80.3281Z" fill="black"/>
</g>
<g opacity="0.3">
<path d="M131.79 123.208C131.75 123.208 131.71 123.199 131.671 123.182C131.526 123.117 131.463 122.947 131.528 122.804C137.43 109.918 138.158 94.8506 133.526 81.4634C131.674 76.111 129.303 72.0931 126.276 69.1801C122.555 65.5995 117.698 63.7907 113.285 64.3412C113.128 64.3607 112.984 64.2499 112.964 64.0934C112.944 63.9369 113.056 63.794 113.213 63.7744C117.798 63.2025 122.831 65.0699 126.676 68.7698C129.77 71.747 132.188 75.8383 134.07 81.2778C138.749 94.8017 138.013 110.023 132.052 123.04C132.004 123.145 131.899 123.208 131.79 123.208Z" fill="black"/>
</g>
<g opacity="0.3">
<path d="M128.255 77.3182C128.165 77.3182 128.076 77.2759 128.02 77.1967C125.094 73.0582 120.582 69.9832 115.642 68.7602C115.488 68.722 115.394 68.567 115.432 68.414C115.471 68.2609 115.627 68.1674 115.781 68.206C120.854 69.4617 125.486 72.6191 128.49 76.8685C128.582 76.9976 128.55 77.1758 128.42 77.2664C128.37 77.3014 128.312 77.3182 128.255 77.3182Z" fill="black"/>
</g>
<g opacity="0.3">
<path d="M91.5508 83.5064C91.5171 83.5064 91.4826 83.5005 91.4492 83.4878C91.3006 83.4321 91.2257 83.2673 91.2819 83.1197C93.3007 77.8147 96.7563 73.1777 101.275 69.7101C101.401 69.6135 101.582 69.6366 101.679 69.7615C101.776 69.8863 101.753 70.0657 101.627 70.1621C97.1923 73.565 93.8012 78.1155 91.8199 83.3217C91.7764 83.436 91.667 83.5064 91.5508 83.5064Z" fill="black"/>
</g>
<path opacity="0.3" d="M105.99 81.7805C104.773 83.0772 103.359 84.343 101.717 85.5381C97.5357 84.3213 93.5163 82.5471 89.7959 80.2873C87.9357 79.1608 86.1504 77.912 84.457 76.5513C85.6108 72.1253 87.3467 67.0482 90.9577 63.9727C91.7768 65.379 92.6384 66.7603 93.5403 68.1164C95.2693 70.7202 97.1479 73.2279 99.1634 75.6214C101.14 77.9703 103.346 80.2735 105.99 81.7805Z" fill="white"/>
<path opacity="0.3" d="M130.386 66.6378C129.398 68.8497 128.169 70.9175 126.754 72.8871C124.794 75.6177 122.479 78.1619 119.956 80.6445C118.884 80.1967 117.866 79.7111 116.901 79.2004C119.315 75.5022 121.329 71.5184 122.959 67.3872C123.67 65.5832 124.308 63.7518 124.873 61.9033C125.675 62.3843 126.51 62.9475 127.379 63.6033C128.514 64.4613 129.506 65.4953 130.386 66.6378Z" fill="white"/>
<path opacity="0.3" d="M113.507 170.991C115.714 169.504 117.843 167.483 120.51 167.42C122.331 167.378 124.016 168.278 125.707 168.951C129.59 170.494 133.927 170.888 138.027 170.07C136.112 173.124 132.28 174.418 128.677 174.785C125.074 175.151 121.386 174.821 117.861 175.651C115.363 176.239 112.993 177.401 110.437 177.639C109.123 177.762 103.214 176.715 104.966 174.504C105.648 173.644 108.23 173.532 109.257 173.157C110.755 172.609 112.186 171.882 113.507 170.991Z" fill="black"/>
<path d="M141.385 39.0908C140.943 38.3539 140.754 37.644 140.818 36.9616C140.882 36.2795 141.105 35.6572 141.487 35.0951C141.87 34.5332 142.355 34.0389 142.944 33.6118C143.532 33.185 144.126 32.855 144.724 32.6216C145.322 32.3884 145.874 32.2709 146.381 32.2686C146.887 32.2668 147.248 32.3975 147.464 32.6613C147.738 32.9988 147.853 33.495 147.81 34.1499C147.767 34.8052 147.62 35.5674 147.369 36.4368C147.117 37.3064 146.786 38.2513 146.375 39.2714C145.964 40.2921 145.533 41.3475 145.083 42.438C144.632 43.5289 144.193 44.6178 143.767 45.705C143.34 46.7927 142.977 47.8309 142.676 48.8205C142.376 49.8101 142.168 50.7307 142.053 51.582C141.938 52.4333 141.97 53.1556 142.147 53.7494C142.196 53.8726 142.159 53.9586 142.035 54.0078C141.91 54.0565 141.824 54.0192 141.775 53.896C141.481 53.1714 141.347 52.353 141.372 51.4406C141.397 50.5282 141.53 49.5729 141.773 48.5745C142.015 47.5767 142.336 46.5517 142.734 45.5005C143.133 44.4493 143.553 43.4073 143.995 42.3747C144.437 41.3421 144.88 40.3459 145.324 39.3862C145.767 38.4263 146.151 37.5395 146.475 36.7253C146.799 35.9116 147.037 35.1858 147.189 34.5486C147.341 33.9116 147.352 33.4151 147.222 33.0585C147.122 32.7958 146.863 32.6597 146.444 32.6499C146.026 32.6404 145.549 32.74 145.013 32.9485C144.477 33.1576 143.928 33.4572 143.368 33.8479C142.807 34.2386 142.336 34.6906 141.955 35.2036C141.574 35.7167 141.34 36.2876 141.253 36.916C141.165 37.5449 141.322 38.1977 141.724 38.8753C141.803 38.9786 141.782 39.0707 141.663 39.1513C141.559 39.2303 141.466 39.2103 141.385 39.0908ZM141.781 56.136C141.785 56.1679 141.778 56.2376 141.76 56.3458C141.741 56.4537 141.708 56.5718 141.66 56.6999C141.612 56.8281 141.56 56.9569 141.503 57.086C141.447 57.2153 141.391 57.3159 141.335 57.3883C141.293 57.4426 141.232 57.4423 141.151 57.3883C141.07 57.3339 141.026 57.2747 141.017 57.2112C141.038 57.1268 141.048 57.0123 141.045 56.8665C141.041 56.7209 141.067 56.482 141.12 56.1502C141.153 56.0321 141.209 55.9597 141.287 55.9332C141.366 55.9067 141.442 55.9006 141.518 55.915C141.593 55.9294 141.659 55.9573 141.713 55.9988C141.768 56.0403 141.79 56.0861 141.781 56.136Z" fill="#324D8B"/>
<path d="M167.744 73.3007C167.302 72.5638 167.113 71.854 167.177 71.1715C167.241 70.4895 167.464 69.8671 167.846 69.3051C168.229 68.7431 168.714 68.2489 169.303 67.8218C169.891 67.395 170.485 67.065 171.083 66.8315C171.681 66.5984 172.234 66.4809 172.74 66.4785C173.247 66.4767 173.607 66.6075 173.823 66.8712C174.097 67.2087 174.212 67.705 174.169 68.3599C174.126 69.0152 173.979 69.7774 173.728 70.6467C173.476 71.5164 173.145 72.4613 172.734 73.4814C172.323 74.502 171.892 75.5575 171.442 76.6479C170.991 77.7388 170.553 78.8277 170.126 79.915C169.699 81.0028 169.336 82.0409 169.035 83.0304C168.735 84.0202 168.527 84.9407 168.412 85.7919C168.297 86.6432 168.329 87.3656 168.506 87.9593C168.555 88.0825 168.518 88.1685 168.394 88.2178C168.269 88.2665 168.183 88.2292 168.134 88.106C167.84 87.3814 167.706 86.5629 167.731 85.6506C167.756 84.7381 167.889 83.7828 168.132 82.7845C168.374 81.7867 168.695 80.7617 169.093 79.7105C169.492 78.6592 169.912 77.6172 170.354 76.5846C170.796 75.5521 171.239 74.5558 171.683 73.5961C172.126 72.6362 172.51 71.7495 172.834 70.9352C173.158 70.1215 173.396 69.3958 173.548 68.7585C173.7 68.1216 173.711 67.625 173.582 67.2684C173.481 67.0058 173.222 66.8697 172.803 66.8598C172.385 66.8504 171.908 66.9499 171.372 67.1585C170.836 67.3676 170.287 67.6672 169.727 68.0579C169.166 68.4486 168.695 68.9006 168.314 69.4136C167.933 69.9267 167.699 70.4976 167.612 71.126C167.524 71.7548 167.681 72.4077 168.083 73.0852C168.162 73.1886 168.142 73.2807 168.022 73.3612C167.918 73.4403 167.825 73.4202 167.744 73.3007ZM168.14 90.346C168.144 90.3778 168.137 90.4476 168.119 90.5558C168.1 90.6637 168.067 90.7818 168.019 90.9099C167.971 91.0381 167.919 91.1668 167.862 91.296C167.806 91.4253 167.75 91.5259 167.694 91.5982C167.652 91.6525 167.591 91.6523 167.51 91.5982C167.429 91.5439 167.385 91.4846 167.376 91.4211C167.397 91.3368 167.407 91.2223 167.404 91.0764C167.4 90.9308 167.426 90.6919 167.479 90.3601C167.512 90.2419 167.568 90.1696 167.646 90.1431C167.725 90.1166 167.801 90.1104 167.877 90.1248C167.952 90.1392 168.018 90.1672 168.072 90.2087C168.127 90.2503 168.149 90.2961 168.14 90.346Z" fill="#324D8B"/>
<path d="M163.116 51.4447C163.106 51.4885 163.062 51.5766 162.984 51.7097C162.906 51.8422 162.803 51.9809 162.676 52.1256C162.549 52.2699 162.416 52.4132 162.278 52.5549C162.139 52.6969 162.015 52.8013 161.906 52.869C161.824 52.9196 161.744 52.889 161.665 52.7782C161.586 52.6669 161.557 52.5673 161.577 52.4796C161.647 52.3796 161.717 52.2336 161.785 52.0407C161.854 51.8478 162.006 51.5467 162.243 51.1378C162.345 50.999 162.454 50.9313 162.571 50.9354C162.686 50.9389 162.79 50.969 162.882 51.0251C162.974 51.0812 163.046 51.15 163.097 51.2313C163.147 51.3127 163.154 51.3838 163.116 51.4447ZM171.117 28.8743C170.905 27.689 171.011 26.6639 171.436 25.7996C171.861 24.9357 172.465 24.2288 173.248 23.6796C174.031 23.1303 174.915 22.721 175.902 22.4504C176.887 22.1804 177.831 22.0397 178.733 22.0281C179.635 22.0168 180.419 22.1348 181.085 22.3816C181.751 22.6288 182.159 22.9784 182.31 23.4309C182.501 24.0091 182.405 24.7173 182.021 25.5559C181.637 26.3948 181.063 27.323 180.298 28.3402C179.534 29.3579 178.626 30.435 177.577 31.5716C176.527 32.7085 175.434 33.8818 174.298 35.0912C173.161 36.3009 172.041 37.5141 170.938 38.7312C169.834 39.9486 168.838 41.1323 167.949 42.2831C167.059 43.4339 166.327 44.5401 165.751 45.6009C165.174 46.6616 164.854 47.6255 164.791 48.4925C164.794 48.6785 164.701 48.773 164.514 48.7762C164.326 48.7789 164.231 48.6873 164.228 48.5013C164.205 47.4055 164.438 46.265 164.927 45.0796C165.416 43.8941 166.068 42.7057 166.886 41.5149C167.702 40.3244 168.635 39.137 169.684 37.9536C170.733 36.7701 171.805 35.6096 172.902 34.4719C173.998 33.3342 175.077 32.2448 176.14 31.2037C177.202 30.1625 178.149 29.1876 178.982 28.2786C179.813 27.37 180.489 26.5349 181.007 25.7731C181.524 25.0117 181.787 24.3654 181.795 23.8334C181.794 23.4391 181.522 23.1324 180.978 22.9134C180.433 22.6948 179.757 22.5904 178.949 22.5999C178.141 22.61 177.271 22.733 176.34 22.9695C175.409 23.2059 174.565 23.567 173.808 24.0528C173.052 24.5386 172.459 25.1727 172.03 25.9546C171.601 26.737 171.481 27.6713 171.669 28.7587C171.721 28.9333 171.649 29.0442 171.451 29.0909C171.275 29.1432 171.164 29.071 171.117 28.8743Z" fill="#324D8B"/>
</svg>
