<svg width="36" height="36" viewBox="0 0 36 36" fill="none" xmlns="http://www.w3.org/2000/svg">
<path d="M26.7668 9.2332C26.7668 9.2332 26.1178 12.6 22.3586 16.3592C18.5994 20.1184 15.2332 20.7668 15.2332 20.7668M30.6113 24.6113C27.4264 27.7962 22.2626 27.7962 19.0777 24.6113L11.3887 16.9223C8.20377 13.7374 8.20377 8.57359 11.3887 5.38868C14.5736 2.20377 19.7374 2.20377 22.9223 5.38868L30.6113 13.0777C33.7962 16.2626 33.7962 21.4264 30.6113 24.6113Z" stroke="#D93502" stroke-width="2"/>
<path d="M21.75 9.75L19.5 7.5" stroke="#D93502" stroke-width="2" stroke-linecap="round"/>
<path d="M10.0953 15.2017C6.03956 16.0755 3 19.6827 3 23.9997C3 28.9703 7.02944 32.9997 12 32.9997C16.3366 32.9997 19.9569 29.9325 20.8098 25.8491" stroke="#D93502" stroke-width="2"/>
</svg>
