<svg width="36" height="36" viewBox="0 0 36 36" fill="none" xmlns="http://www.w3.org/2000/svg">
<path d="M30.433 28.5108L21.5936 13.0522C21.2046 12.372 21 11.602 21 10.8184V5.28099C21 5.20919 21.005 5.13762 21.0182 5.06704C21.085 4.70918 21.3479 3.55051 22 3.21858C22.5739 2.92645 13.3026 2.92783 14 3.21858C14.8032 3.55347 15 5.17315 15 5.17315V10.8184C15 11.602 14.7954 12.372 14.4064 13.0522L5.56697 28.5108C4.42336 30.5108 5.86741 33 8.17127 33H27.8287C30.1326 33 31.5766 30.5108 30.433 28.5108Z" stroke="#D93502" stroke-width="2" stroke-linecap="round"/>
<path d="M25.5 20.4177C23.25 21.9177 20.7486 18.5438 17.25 21.1677C14.25 23.4177 11.25 20.4177 10.5 20.4177" stroke="#D93502" stroke-width="2" stroke-linecap="round"/>
<path d="M21.75 24H21.765V24.015H21.75V24Z" stroke="#D93502" stroke-width="2" stroke-linejoin="round"/>
<path d="M18.735 26.9854H18.75V27.0004H18.735V26.9854Z" stroke="#D93502" stroke-width="2" stroke-linejoin="round"/>
<path d="M11.235 28.4854H11.25V28.5004H11.235V28.4854Z" stroke="#D93502" stroke-width="2" stroke-linejoin="round"/>
<path d="M21 30H21.015V30.015H21V30Z" stroke="#D93502" stroke-width="2" stroke-linejoin="round"/>
<path d="M24 27H24.015V27.015H24V27Z" stroke="#D93502" stroke-width="2" stroke-linejoin="round"/>
<path d="M15.75 29.2353H15.765V29.2503H15.75V29.2353Z" stroke="#D93502" stroke-width="2" stroke-linejoin="round"/>
<path d="M12.75 25.5H12.765V25.515H12.75V25.5Z" stroke="#D93502" stroke-width="2" stroke-linejoin="round"/>
</svg>
